<svg width="375" height="210" viewBox="0 0 375 210" fill="none" xmlns="http://www.w3.org/2000/svg">
<path d="M0 63.8701C0 44.9897 0 35.5495 3.6129 28.1054C6.77962 21.5806 11.9156 16.1014 18.2223 12.5198C25.4175 8.43365 34.7777 7.8278 53.498 6.6161C98.9836 3.67199 160.939 0 187 0C213.124 0 275.675 3.68965 321.478 6.6373C340.207 7.84259 349.572 8.44523 356.77 12.5306C363.079 16.1117 368.217 21.5905 371.385 28.1171C375 35.5627 375 45.0073 375 63.8965V237H0V63.8701Z" fill="white"/>
<path d="M0 64.547C0 45.7968 0 36.4217 3.58074 29.0052C6.71815 22.5069 11.8151 17.032 18.0727 13.4386C25.2146 9.33737 34.4988 8.6727 53.0671 7.34337C98.5915 4.08422 160.856 0 187 0C213.205 0 276.065 4.10347 321.906 7.36637C340.484 8.68876 349.773 9.34996 356.918 13.4503C363.179 17.0432 368.278 22.5177 371.417 29.018C375 36.4362 375 45.8161 375 64.576V210H0V64.547Z" fill="url(#paint0_linear_4_1091)"/>
<defs>
<linearGradient id="paint0_linear_4_1091" x1="187.5" y1="0" x2="182.225" y2="261.841" gradientUnits="userSpaceOnUse">
<stop stop-color="#554CFF"/>
<stop offset="0.816202" stop-color="#554CFF" stop-opacity="0.9"/>
</linearGradient>
</defs>
</svg>
