<svg width="350" height="505" viewBox="0 0 350 505" fill="none" xmlns="http://www.w3.org/2000/svg">
<g style="mix-blend-mode:lighten">
<path style="mix-blend-mode:lighten" d="M174.689 504.206C170.799 504.206 166.91 503.312 163.299 501.507L28.802 423.604C24.4286 420.999 21.972 417.463 21.8789 413.647C21.7859 410.279 23.5725 407.115 26.7921 404.975L26.8479 404.938L164.174 326.681C171.73 322.289 180.923 322.01 188.74 325.937L323.255 403.952C326.94 406.631 329.043 410.782 328.838 414.839C328.671 418.263 326.866 421.129 323.795 422.915L187.493 500.763C183.529 503.07 179.137 504.224 174.707 504.224L174.689 504.206ZM27.7226 406.408C25.0241 408.213 23.5167 410.837 23.5911 413.61C23.6842 416.83 25.843 419.863 29.6767 422.152L164.118 500.018C171.264 503.591 179.695 503.312 186.618 499.274L322.92 421.427C325.47 419.938 326.959 417.556 327.108 414.746C327.294 411.265 325.451 407.674 322.306 405.366L187.921 327.426C180.663 323.778 172.083 324.057 165.011 328.151L27.7226 406.408Z" fill="url(#paint0_linear_6641_2465)"/>
</g>
<path d="M341.935 319.211C341.935 319.211 330.783 317.97 333.044 330.585L190.713 247.995C181.396 243.319 170.329 243.66 161.319 248.896L33.9144 321.387C21.4188 315.658 9.92629 313.805 4.79204 322.203C-4.5414 337.453 1.73189 345.732 7.00214 350.867C8.2262 352.227 9.84128 353.502 11.8304 354.607C12.0004 354.709 12.1024 354.76 12.1024 354.76L160.094 440.495C169.275 445.085 180.138 444.745 189.013 439.577L339.419 353.621C339.419 353.621 361.35 340.292 341.952 319.211H341.935Z" fill="url(#paint1_linear_6641_2465)"/>
<path style="mix-blend-mode:multiply" opacity="0.4" d="M341.935 319.211C341.935 319.211 330.783 317.97 333.044 330.585L190.713 247.995C181.396 243.319 170.329 243.66 161.319 248.896L33.9144 321.387C21.4188 315.658 9.92629 313.805 4.79204 322.203C-4.5414 337.453 1.73189 345.732 7.00214 350.867C8.2262 352.227 9.84128 353.502 11.8304 354.607C12.0004 354.709 12.1024 354.76 12.1024 354.76L160.094 440.495C169.275 445.085 180.138 444.745 189.013 439.577L339.419 353.621C339.419 353.621 361.435 340.904 341.952 319.211H341.935Z" fill="url(#paint2_linear_6641_2465)"/>
<path style="mix-blend-mode:multiply" opacity="0.5" d="M341.935 319.211C341.935 319.211 330.783 317.97 333.044 330.585L190.713 247.995C181.396 243.319 170.329 243.66 161.319 248.896L33.9144 321.387C21.4188 315.658 9.92629 313.805 4.79204 322.203C-4.5414 337.453 1.73189 345.732 7.00215 350.867C8.2262 352.227 9.84128 353.502 11.8304 354.607C12.0004 354.709 12.1024 354.76 12.1024 354.76L160.094 440.495C169.275 445.085 180.138 444.745 189.013 439.577L339.419 353.621C339.419 353.621 361.01 340.53 341.952 319.211H341.935Z" fill="url(#paint3_linear_6641_2465)"/>
<path d="M9.48432 317.426L161.166 230.943C170.193 225.706 181.244 225.366 190.56 230.042L338.569 315.93C346.219 321.506 347.698 332.659 339.249 337.572L188.843 423.528C179.968 428.696 169.105 429.036 159.925 424.446L11.9324 338.711C1.32393 332.386 1.93596 322.492 9.48432 317.426Z" fill="url(#paint4_linear_6641_2465)"/>
<path d="M22.2926 318.425L163.893 237.516C171.41 233.145 180.624 232.856 188.396 236.768L327.061 317.388C333.441 322.048 334.663 331.351 327.621 335.467L187.055 415.934C179.674 420.237 170.613 420.527 162.96 416.7L24.3118 336.216C15.4713 330.943 15.9803 322.66 22.2756 318.442L22.2926 318.425Z" fill="url(#paint5_linear_6641_2465)"/>
<path d="M39.3273 284.411L164.647 215.267C171.305 211.518 179.457 211.287 186.335 214.625L309.04 283.539C314.678 287.519 315.765 295.477 309.532 298.996L185.146 367.762C178.608 371.445 170.591 371.692 163.832 368.42L41.1445 299.621C33.3152 295.115 33.7737 288.045 39.3443 284.427L39.3273 284.411Z" fill="#CFCCFF" style="mix-blend-mode:overlay"/>
<path d="M313.689 290.977C313.859 293.891 312.587 296.724 309.482 298.486L185.219 367.374C178.687 371.063 170.679 371.31 163.926 368.033L41.3609 299.129C37.6452 296.971 35.8129 294.254 35.4905 291.586V325.429C34.4895 328.854 36.0843 332.84 41.1233 335.755L163.689 404.659C170.442 407.936 178.45 407.689 184.982 404L309.244 335.129C312.332 333.383 313.621 330.534 313.452 327.619L313.757 290.993H313.689V290.977Z" fill="url(#paint6_linear_6641_2465)" style="mix-blend-mode:overlay"/>
<path d="M39.3273 253.91L164.647 185.218C171.305 181.493 179.457 181.265 186.335 184.581L309.04 253.044C314.678 256.998 315.765 264.904 309.532 268.4L185.146 336.717C178.608 340.376 170.591 340.621 163.832 337.37L41.1445 269.021C33.3152 264.545 33.7737 257.52 39.3443 253.926L39.3273 253.91Z" fill="#CFCCFF" style="mix-blend-mode:overlay"/>
<path d="M38.3072 216.918L164.093 145.966C170.775 142.119 178.958 141.883 185.861 145.308L309.022 216.024C314.682 220.107 315.773 228.273 309.517 231.884L184.668 302.448C178.105 306.228 170.059 306.481 163.275 303.123L40.1312 232.526C32.2727 227.902 32.733 220.647 38.3242 216.935L38.3072 216.918Z" fill="#CFCCFF" style="mix-blend-mode:overlay"/>
<path d="M64.7975 150.848C72.2292 147.787 75.7718 139.28 72.7102 131.849C69.6486 124.417 61.1422 120.874 53.7106 123.936C46.2789 126.998 42.7363 135.504 45.7979 142.936C48.8595 150.367 57.3659 153.91 64.7975 150.848Z" fill="url(#paint7_linear_6641_2465)"/>
<path d="M102.535 114.822C102.535 121.577 97.0636 127.049 90.3081 127.049C83.5525 127.049 78.0811 121.577 78.0811 114.822C78.0811 108.066 83.5525 102.595 90.3081 102.595C97.0636 102.595 102.535 108.066 102.535 114.822Z" fill="url(#paint8_linear_6641_2465)"/>
<path d="M130.916 101.905C130.916 107.953 126.003 112.866 119.955 112.866C113.907 112.866 108.993 107.953 108.993 101.905C108.993 95.8565 113.907 90.9434 119.955 90.9434C126.003 90.9434 130.916 95.8565 130.916 101.905Z" fill="url(#paint9_linear_6641_2465)"/>
<path d="M156.394 97.0292C156.394 102.054 152.318 106.13 147.293 106.13C142.268 106.13 138.193 102.054 138.193 97.0292C138.193 92.0044 142.268 87.9287 147.293 87.9287C152.318 87.9287 156.394 92.0044 156.394 97.0292Z" fill="url(#paint10_linear_6641_2465)"/>
<path d="M170.947 106.483C175.397 106.483 179.005 102.875 179.005 98.4245C179.005 93.974 175.397 90.3662 170.947 90.3662C166.496 90.3662 162.889 93.974 162.889 98.4245C162.889 102.875 166.496 106.483 170.947 106.483Z" fill="url(#paint11_linear_6641_2465)"/>
<path d="M189.948 110.988C193.802 110.988 196.927 107.863 196.927 104.009C196.927 100.155 193.802 97.0303 189.948 97.0303C186.094 97.0303 182.969 100.155 182.969 104.009C182.969 107.863 186.094 110.988 189.948 110.988Z" fill="url(#paint12_linear_6641_2465)"/>
<path d="M78.0996 97.0107C84.8524 97.0107 90.3266 91.5364 90.3266 84.7836C90.3266 78.0308 84.8524 72.5566 78.0996 72.5566C71.3468 72.5566 65.8726 78.0308 65.8726 84.7836C65.8726 91.5364 71.3468 97.0107 78.0996 97.0107Z" fill="url(#paint13_linear_6641_2465)"/>
<path d="M107.746 82.8283C113.8 82.8283 118.708 77.9207 118.708 71.8668C118.708 65.8129 113.8 60.9053 107.746 60.9053C101.693 60.9053 96.7849 65.8129 96.7849 71.8668C96.7849 77.9207 101.693 82.8283 107.746 82.8283Z" fill="url(#paint14_linear_6641_2465)"/>
<path d="M135.085 76.0916C140.111 76.0916 144.185 72.0171 144.185 66.9911C144.185 61.965 140.111 57.8906 135.085 57.8906C130.059 57.8906 125.984 61.965 125.984 66.9911C125.984 72.0171 130.059 76.0916 135.085 76.0916Z" fill="url(#paint15_linear_6641_2465)"/>
<path d="M158.738 76.4467C163.189 76.4467 166.797 72.8388 166.797 68.3884C166.797 63.9379 163.189 60.3301 158.738 60.3301C154.288 60.3301 150.68 63.9379 150.68 68.3884C150.68 72.8388 154.288 76.4467 158.738 76.4467Z" fill="url(#paint16_linear_6641_2465)"/>
<path d="M177.74 80.9509C181.594 80.9509 184.719 77.8264 184.719 73.9721C184.719 70.1177 181.594 66.9932 177.74 66.9932C173.886 66.9932 170.761 70.1177 170.761 73.9721C170.761 77.8264 173.886 80.9509 177.74 80.9509Z" fill="url(#paint17_linear_6641_2465)"/>
<path d="M198.843 81.6371C198.843 84.9497 196.164 87.6296 192.851 87.6296C189.538 87.6296 186.858 84.9497 186.858 81.6371C186.858 78.3244 189.538 75.6445 192.851 75.6445C196.164 75.6445 198.843 78.3244 198.843 81.6371Z" fill="url(#paint18_linear_6641_2465)"/>
<path d="M114.409 44.567C114.409 50.6153 109.495 55.5285 103.447 55.5285C97.3987 55.5285 92.4856 50.6153 92.4856 44.567C92.4856 38.5186 97.3987 33.6055 103.447 33.6055C109.495 33.6055 114.409 38.5186 114.409 44.567Z" fill="url(#paint19_linear_6641_2465)"/>
<path d="M139.886 39.6718C139.886 44.6966 135.811 48.7722 130.786 48.7722C125.761 48.7722 121.686 44.6966 121.686 39.6718C121.686 34.647 125.761 30.5713 130.786 30.5713C135.811 30.5713 139.886 34.647 139.886 39.6718Z" fill="url(#paint20_linear_6641_2465)"/>
<path d="M154.44 49.1263C158.89 49.1263 162.498 45.5185 162.498 41.0681C162.498 36.6176 158.89 33.0098 154.44 33.0098C149.989 33.0098 146.381 36.6176 146.381 41.0681C146.381 45.5185 149.989 49.1263 154.44 49.1263Z" fill="url(#paint21_linear_6641_2465)"/>
<path d="M173.441 53.6287C177.295 53.6287 180.419 50.5041 180.419 46.6498C180.419 42.7955 177.295 39.6709 173.441 39.6709C169.586 39.6709 166.462 42.7955 166.462 46.6498C166.462 50.5041 169.586 53.6287 173.441 53.6287Z" fill="url(#paint22_linear_6641_2465)"/>
<path d="M194.433 54.765C194.433 58.0776 191.753 60.7575 188.441 60.7575C185.128 60.7575 182.448 58.0776 182.448 54.765C182.448 51.4524 185.128 48.7725 188.441 48.7725C191.753 48.7725 194.433 51.4524 194.433 54.765Z" fill="url(#paint23_linear_6641_2465)"/>
<path d="M204.036 64.4618C204.036 67.3278 201.71 69.6541 198.844 69.6541C195.978 69.6541 193.652 67.3278 193.652 64.4618C193.652 61.5958 195.978 59.2695 198.844 59.2695C201.71 59.2695 204.036 61.5958 204.036 64.4618Z" fill="url(#paint24_linear_6641_2465)"/>
<path d="M235.841 211.834C242.783 207.777 251.697 210.122 255.754 217.082C259.812 224.024 257.467 232.938 250.506 236.995C243.546 241.052 234.65 238.707 230.593 231.747C226.536 224.787 228.881 215.891 235.841 211.834Z" fill="url(#paint25_linear_6641_2465)"/>
<path d="M201.859 198.397C207.702 194.992 215.184 196.964 218.589 202.808C221.995 208.652 220.022 216.133 214.179 219.539C208.335 222.944 200.854 220.972 197.448 215.128C194.042 209.284 196.015 201.803 201.859 198.397Z" fill="url(#paint26_linear_6641_2465)"/>
<path d="M176.418 180.382C181.648 177.33 188.348 179.098 191.4 184.328C194.452 189.557 192.684 196.257 187.454 199.309C182.225 202.361 175.525 200.593 172.473 195.364C169.421 190.134 171.189 183.435 176.418 180.382Z" fill="url(#paint27_linear_6641_2465)"/>
<path d="M159.353 160.841C163.689 158.31 169.254 159.78 171.785 164.116C174.316 168.453 172.845 174.017 168.509 176.548C164.173 179.079 158.608 177.609 156.077 173.273C153.546 168.936 155.017 163.372 159.353 160.841Z" fill="url(#paint28_linear_6641_2465)"/>
<path d="M149.173 140.593C153.025 138.341 157.957 139.643 160.209 143.496C162.461 147.348 161.158 152.28 157.306 154.532C153.453 156.784 148.522 155.481 146.27 151.628C144.018 147.776 145.321 142.844 149.173 140.593Z" fill="url(#paint29_linear_6641_2465)"/>
<path d="M144.967 122.318C148.299 120.383 152.579 121.499 154.515 124.831C156.45 128.162 155.333 132.442 152.002 134.378C148.671 136.313 144.39 135.197 142.455 131.865C140.52 128.534 141.636 124.254 144.967 122.318Z" fill="url(#paint30_linear_6641_2465)"/>
<path d="M182.076 224.081C187.919 220.675 195.401 222.648 198.806 228.492C202.212 234.335 200.239 241.817 194.396 245.222C188.552 248.628 181.071 246.655 177.665 240.812C174.259 234.968 176.232 227.487 182.076 224.081Z" fill="url(#paint31_linear_6641_2465)"/>
<path d="M156.617 206.065C161.847 203.013 168.547 204.781 171.599 210.01C174.651 215.24 172.883 221.94 167.653 224.992C162.424 228.044 155.724 226.276 152.672 221.046C149.62 215.817 151.388 209.117 156.617 206.065Z" fill="url(#paint32_linear_6641_2465)"/>
<path d="M139.57 186.524C143.906 183.993 149.471 185.464 152.002 189.8C154.533 194.136 153.062 199.701 148.726 202.232C144.39 204.763 138.826 203.292 136.295 198.956C133.764 194.62 135.234 189.055 139.57 186.524Z" fill="url(#paint33_linear_6641_2465)"/>
<path d="M129.39 166.276C133.242 164.024 138.174 165.327 140.426 169.179C142.678 173.032 141.375 177.963 137.523 180.215C133.67 182.467 128.739 181.164 126.487 177.312C124.235 173.46 125.538 168.528 129.39 166.276Z" fill="url(#paint34_linear_6641_2465)"/>
<path d="M125.184 148.002C128.515 146.066 132.796 147.183 134.731 150.514C136.667 153.846 135.55 158.126 132.219 160.061C128.888 161.997 124.607 160.88 122.672 157.549C120.736 154.218 121.853 149.937 125.184 148.002Z" fill="url(#paint35_linear_6641_2465)"/>
<path d="M133.437 138.836C134.41 135.673 132.636 132.319 129.472 131.346C126.309 130.372 122.956 132.147 121.982 135.31C121.008 138.473 122.783 141.826 125.946 142.8C129.109 143.774 132.463 141.999 133.437 138.836Z" fill="url(#paint36_linear_6641_2465)"/>
<path d="M135.197 223.541C140.426 220.489 147.126 222.257 150.178 227.486C153.23 232.716 151.462 239.415 146.233 242.467C141.003 245.52 134.303 243.752 131.251 238.522C128.199 233.292 129.967 226.593 135.197 223.541Z" fill="url(#paint37_linear_6641_2465)"/>
<path d="M118.149 204.001C122.485 201.47 128.05 202.94 130.581 207.276C133.112 211.613 131.642 217.177 127.306 219.708C122.969 222.239 117.405 220.769 114.874 216.433C112.343 212.097 113.813 206.532 118.149 204.001Z" fill="url(#paint38_linear_6641_2465)"/>
<path d="M107.951 183.752C111.803 181.5 116.735 182.803 118.987 186.655C121.239 190.507 119.936 195.439 116.084 197.691C112.231 199.943 107.299 198.64 105.048 194.788C102.796 190.935 104.098 186.004 107.951 183.752Z" fill="url(#paint39_linear_6641_2465)"/>
<path d="M103.745 165.477C107.076 163.542 111.357 164.659 113.292 167.99C115.228 171.321 114.111 175.601 110.78 177.537C107.448 179.472 103.168 178.356 101.233 175.025C99.2971 171.693 100.414 167.413 103.745 165.477Z" fill="url(#paint40_linear_6641_2465)"/>
<path d="M112.505 156.042C113.355 152.843 111.45 149.561 108.251 148.712C105.053 147.863 101.771 149.767 100.922 152.966C100.072 156.165 101.977 159.446 105.176 160.296C108.374 161.145 111.656 159.24 112.505 156.042Z" fill="url(#paint41_linear_6641_2465)"/>
<path d="M107.225 136.091C109.701 134.639 112.883 135.476 114.335 137.952C115.786 140.427 114.949 143.609 112.473 145.061C109.998 146.512 106.816 145.675 105.364 143.2C103.913 140.725 104.75 137.542 107.225 136.091Z" fill="url(#paint42_linear_6641_2465)"/>
<path d="M219.613 34.796C212.634 30.7948 210.233 21.899 214.235 14.9202C218.236 7.94127 227.132 5.54054 234.11 9.54177C241.089 13.543 243.49 22.4387 239.489 29.4176C235.488 36.3965 226.592 38.7972 219.613 34.796Z" fill="url(#paint43_linear_6641_2465)"/>
<path d="M224.898 70.9555C219.036 67.5871 217.026 60.1057 220.376 54.262C223.744 48.3998 231.226 46.3898 237.069 49.7397C242.931 53.1082 244.941 60.5895 241.591 66.4332C238.223 72.2955 230.742 74.3054 224.898 70.9555Z" fill="url(#paint44_linear_6641_2465)"/>
<path d="M221.958 101.998C216.71 98.9828 214.905 92.283 217.92 87.0535C220.934 81.824 227.634 80.0002 232.864 83.0151C238.112 86.03 239.917 92.7297 236.902 97.9592C233.887 103.207 227.187 105.013 221.958 101.998Z" fill="url(#paint45_linear_6641_2465)"/>
<path d="M213.509 126.508C209.154 124.015 207.646 118.45 210.159 114.095C212.653 109.741 218.217 108.233 222.572 110.745C226.927 113.239 228.434 118.804 225.922 123.159C223.428 127.513 217.863 129.021 213.509 126.508Z" fill="url(#paint46_linear_6641_2465)"/>
<path d="M201.021 145.434C197.15 143.219 195.829 138.288 198.044 134.417C200.258 130.546 205.19 129.224 209.061 131.439C212.932 133.654 214.253 138.585 212.039 142.456C209.824 146.327 204.892 147.649 201.021 145.434Z" fill="url(#paint47_linear_6641_2465)"/>
<path d="M187.268 158.182C183.918 156.265 182.764 152.004 184.7 148.654C186.617 145.304 190.879 144.15 194.228 146.085C197.578 148.021 198.732 152.264 196.797 155.614C194.861 158.964 190.618 160.118 187.268 158.182Z" fill="url(#paint48_linear_6641_2465)"/>
<path d="M257.02 75.309C251.157 71.9405 249.147 64.4592 252.497 58.6155C255.866 52.7533 263.347 50.7434 269.191 54.0932C275.053 57.4617 277.063 64.9431 273.713 70.7867C270.345 76.649 262.863 78.6589 257.02 75.309Z" fill="url(#paint49_linear_6641_2465)"/>
<path d="M254.079 106.352C248.831 103.337 247.026 96.6377 250.041 91.4081C253.056 86.16 259.755 84.3548 264.985 87.3697C270.214 90.3846 272.038 97.0843 269.023 102.314C266.009 107.543 259.309 109.367 254.079 106.352Z" fill="url(#paint50_linear_6641_2465)"/>
<path d="M245.63 130.881C241.275 128.387 239.768 122.822 242.28 118.467C244.774 114.113 250.339 112.605 254.694 115.118C259.048 117.611 260.556 123.176 258.043 127.531C255.55 131.885 249.985 133.393 245.63 130.881Z" fill="url(#paint51_linear_6641_2465)"/>
<path d="M233.143 149.807C229.272 147.592 227.95 142.661 230.165 138.79C232.38 134.919 237.311 133.597 241.182 135.812C245.053 138.027 246.375 142.958 244.16 146.829C241.945 150.7 237.014 152.022 233.143 149.807Z" fill="url(#paint52_linear_6641_2465)"/>
<path d="M219.39 162.558C216.04 160.641 214.886 156.379 216.821 153.03C218.738 149.68 223 148.526 226.35 150.461C229.7 152.378 230.853 156.64 228.918 159.99C226.983 163.34 222.739 164.494 219.39 162.558Z" fill="url(#paint53_linear_6641_2465)"/>
<path d="M205.693 170.987C202.827 169.331 201.84 165.683 203.478 162.817C205.134 159.951 208.782 158.965 211.648 160.602C214.514 162.24 215.5 165.906 213.863 168.772C212.206 171.638 208.559 172.625 205.693 170.987Z" fill="url(#paint54_linear_6641_2465)"/>
<path d="M279.91 116.235C274.662 113.22 272.857 106.52 275.872 101.291C278.887 96.0613 285.587 94.2375 290.816 97.2524C296.064 100.267 297.869 106.967 294.854 112.215C291.84 117.463 285.14 119.268 279.91 116.254V116.235Z" fill="url(#paint55_linear_6641_2465)"/>
<path d="M271.461 140.742C267.106 138.248 265.599 132.684 268.111 128.329C270.605 123.974 276.17 122.466 280.525 124.979C284.879 127.473 286.387 133.037 283.874 137.392C281.381 141.747 275.816 143.254 271.461 140.742Z" fill="url(#paint56_linear_6641_2465)"/>
<path d="M258.974 159.671C255.103 157.457 253.781 152.525 255.996 148.654C258.21 144.783 263.142 143.462 267.013 145.676C270.884 147.891 272.205 152.823 269.991 156.694C267.776 160.565 262.844 161.886 258.974 159.671Z" fill="url(#paint57_linear_6641_2465)"/>
<path d="M245.221 172.419C241.871 170.503 240.717 166.241 242.652 162.891C244.569 159.541 248.831 158.387 252.181 160.323C255.531 162.24 256.685 166.501 254.749 169.851C252.832 173.201 248.57 174.355 245.221 172.419Z" fill="url(#paint58_linear_6641_2465)"/>
<path d="M231.207 180.534C228.341 178.878 227.355 175.23 228.993 172.364C230.649 169.498 234.296 168.512 237.162 170.149C240.028 171.806 241.015 175.453 239.377 178.319C237.721 181.185 234.073 182.172 231.207 180.534Z" fill="url(#paint59_linear_6641_2465)"/>
<path d="M218.012 184.05C215.519 182.617 214.663 179.454 216.096 176.96C217.529 174.466 220.692 173.61 223.186 175.043C225.68 176.476 226.536 179.64 225.103 182.133C223.67 184.627 220.506 185.483 218.012 184.05Z" fill="url(#paint60_linear_6641_2465)"/>
<g style="mix-blend-mode:overlay">
<g style="mix-blend-mode:overlay">
<path style="mix-blend-mode:overlay" d="M50.7617 156.076C59.4571 156.076 66.5061 149.027 66.5061 140.331C66.5061 131.636 59.4571 124.587 50.7617 124.587C42.0663 124.587 35.0173 131.636 35.0173 140.331C35.0173 149.027 42.0663 156.076 50.7617 156.076Z" fill="url(#paint61_linear_6641_2465)"/>
<path style="mix-blend-mode:overlay" d="M97.5665 115.918C97.5665 123.213 91.6484 129.149 84.3345 129.149C77.0206 129.149 71.1025 123.231 71.1025 115.918C71.1025 108.604 77.0206 102.686 84.3345 102.686C91.6484 102.686 97.5665 108.604 97.5665 115.918Z" fill="url(#paint62_linear_6641_2465)"/>
<path style="mix-blend-mode:overlay" d="M128.255 101.958C128.255 108.491 122.951 113.794 116.419 113.794C109.886 113.794 104.583 108.491 104.583 101.958C104.583 95.426 109.886 90.1221 116.419 90.1221C122.951 90.1221 128.255 95.426 128.255 101.958Z" fill="url(#paint63_linear_6641_2465)"/>
<path style="mix-blend-mode:overlay" d="M155.78 96.672C155.78 102.106 151.388 106.498 145.954 106.498C140.52 106.498 136.128 102.106 136.128 96.672C136.128 91.2377 140.52 86.8457 145.954 86.8457C151.388 86.8457 155.78 91.2377 155.78 96.672Z" fill="url(#paint64_linear_6641_2465)"/>
<path style="mix-blend-mode:overlay" d="M171.524 106.891C176.334 106.891 180.234 102.992 180.234 98.1813C180.234 93.3711 176.334 89.4717 171.524 89.4717C166.714 89.4717 162.814 93.3711 162.814 98.1813C162.814 102.992 166.714 106.891 171.524 106.891Z" fill="url(#paint65_linear_6641_2465)"/>
<path style="mix-blend-mode:overlay" d="M199.607 104.229C199.607 108.397 196.239 111.766 192.07 111.766C187.901 111.766 184.533 108.379 184.533 104.229C184.533 100.078 187.92 96.6914 192.07 96.6914C196.22 96.6914 199.607 100.078 199.607 104.229Z" fill="url(#paint66_linear_6641_2465)"/>
<path style="mix-blend-mode:overlay" d="M84.3721 83.4595C84.3721 90.7548 78.454 96.6915 71.1402 96.6915C63.8263 96.6915 57.9082 90.7734 57.9082 83.4595C57.9082 76.1456 63.8263 70.2275 71.1402 70.2275C78.454 70.2275 84.3721 76.1456 84.3721 83.4595Z" fill="url(#paint67_linear_6641_2465)"/>
<path style="mix-blend-mode:overlay" d="M103.206 81.3374C109.743 81.3374 115.042 76.0382 115.042 69.5012C115.042 62.9643 109.743 57.665 103.206 57.665C96.6691 57.665 91.3699 62.9643 91.3699 69.5012C91.3699 76.0382 96.6691 81.3374 103.206 81.3374Z" fill="url(#paint68_linear_6641_2465)"/>
<path style="mix-blend-mode:overlay" d="M142.585 64.2179C142.585 69.6521 138.193 74.0442 132.759 74.0442C127.324 74.0442 122.932 69.6521 122.932 64.2179C122.932 58.7836 127.324 54.3916 132.759 54.3916C138.193 54.3916 142.585 58.7836 142.585 64.2179Z" fill="url(#paint69_linear_6641_2465)"/>
<path style="mix-blend-mode:overlay" d="M167.039 65.7243C167.039 70.5444 163.131 74.434 158.33 74.434C153.528 74.434 149.62 70.5258 149.62 65.7243C149.62 60.9228 153.528 57.0146 158.33 57.0146C163.131 57.0146 167.039 60.9228 167.039 65.7243Z" fill="url(#paint70_linear_6641_2465)"/>
<path style="mix-blend-mode:overlay" d="M186.413 71.754C186.413 75.9227 183.025 79.2912 178.875 79.2912C174.725 79.2912 171.338 75.9041 171.338 71.754C171.338 67.6039 174.707 64.2168 178.875 64.2168C183.044 64.2168 186.413 67.6039 186.413 71.754Z" fill="url(#paint71_linear_6641_2465)"/>
<path style="mix-blend-mode:overlay" d="M201.692 80.0545C201.692 83.6277 198.789 86.5309 195.215 86.5309C191.642 86.5309 188.739 83.6277 188.739 80.0545C188.739 76.4813 191.642 73.5781 195.215 73.5781C198.789 73.5781 201.692 76.4813 201.692 80.0545Z" fill="url(#paint72_linear_6641_2465)"/>
<path style="mix-blend-mode:overlay" d="M110.389 39.9671C110.389 46.4993 105.085 51.8032 98.553 51.8032C92.0208 51.8032 86.7168 46.4993 86.7168 39.9671C86.7168 33.4348 92.0208 28.1309 98.553 28.1309C105.085 28.1309 110.389 33.4348 110.389 39.9671Z" fill="url(#paint73_linear_6641_2465)"/>
<path style="mix-blend-mode:overlay" d="M137.933 34.6817C137.933 40.116 133.541 44.508 128.106 44.508C122.672 44.508 118.28 40.116 118.28 34.6817C118.28 29.2475 122.672 24.8555 128.106 24.8555C133.541 24.8555 137.933 29.2475 137.933 34.6817Z" fill="url(#paint74_linear_6641_2465)"/>
<path style="mix-blend-mode:overlay" d="M153.677 44.8988C158.488 44.8988 162.387 40.9993 162.387 36.1891C162.387 31.3789 158.488 27.4795 153.677 27.4795C148.867 27.4795 144.968 31.3789 144.968 36.1891C144.968 40.9993 148.867 44.8988 153.677 44.8988Z" fill="url(#paint75_linear_6641_2465)"/>
<path style="mix-blend-mode:overlay" d="M181.76 42.2384C181.76 46.4071 178.373 49.7756 174.223 49.7756C170.073 49.7756 166.686 46.3885 166.686 42.2384C166.686 38.0883 170.054 34.7012 174.223 34.7012C178.392 34.7012 181.76 38.0883 181.76 42.2384Z" fill="url(#paint76_linear_6641_2465)"/>
<path style="mix-blend-mode:overlay" d="M196.909 50.9842C196.909 54.5574 194.005 57.4606 190.432 57.4606C186.859 57.4606 183.956 54.5574 183.956 50.9842C183.956 47.411 186.859 44.5078 190.432 44.5078C194.005 44.5078 196.909 47.411 196.909 50.9842Z" fill="url(#paint77_linear_6641_2465)"/>
<path style="mix-blend-mode:overlay" d="M207.294 61.4631C207.294 64.571 204.781 67.0835 201.673 67.0835C198.565 67.0835 196.053 64.571 196.053 61.4631C196.053 58.3552 198.565 55.8428 201.673 55.8428C204.781 55.8428 207.294 58.3552 207.294 61.4631Z" fill="url(#paint78_linear_6641_2465)"/>
</g>
<g style="mix-blend-mode:overlay">
<path style="mix-blend-mode:overlay" d="M241.686 220.826C249.186 216.452 258.826 218.983 263.218 226.502C267.591 234.002 265.06 243.642 257.542 248.034C250.023 252.426 240.401 249.876 236.009 242.358C231.636 234.858 234.167 225.218 241.686 220.826Z" fill="url(#paint79_linear_6641_2465)"/>
<path style="mix-blend-mode:overlay" d="M224.672 219.964C225.896 212.759 221.047 205.926 213.842 204.703C206.638 203.479 199.805 208.327 198.582 215.532C197.358 222.737 202.206 229.569 209.411 230.793C216.615 232.017 223.448 227.168 224.672 219.964Z" fill="url(#paint80_linear_6641_2465)"/>
<path style="mix-blend-mode:overlay" d="M177.425 186.806C183.082 183.512 190.322 185.428 193.616 191.067C196.91 196.725 194.993 203.964 189.354 207.258C183.696 210.552 176.457 208.636 173.163 202.997C169.869 197.358 171.786 190.1 177.425 186.806Z" fill="url(#paint81_linear_6641_2465)"/>
<path style="mix-blend-mode:overlay" d="M159.001 165.683C163.69 162.947 169.702 164.529 172.437 169.219C175.173 173.909 173.591 179.92 168.901 182.656C164.212 185.391 158.2 183.81 155.465 179.12C152.729 174.43 154.311 168.419 159.001 165.683Z" fill="url(#paint82_linear_6641_2465)"/>
<path style="mix-blend-mode:overlay" d="M147.983 143.798C152.133 141.378 157.474 142.774 159.912 146.943C162.332 151.093 160.936 156.434 156.767 158.872C152.617 161.291 147.276 159.896 144.838 155.727C142.4 151.558 143.814 146.236 147.983 143.798Z" fill="url(#paint83_linear_6641_2465)"/>
<path style="mix-blend-mode:overlay" d="M143.442 124.033C147.034 121.93 151.668 123.159 153.752 126.75C155.855 130.342 154.627 134.976 151.035 137.061C147.443 139.164 142.809 137.935 140.725 134.343C138.622 130.752 139.85 126.118 143.442 124.033Z" fill="url(#paint84_linear_6641_2465)"/>
<path style="mix-blend-mode:overlay" d="M203.005 248.826C204.855 241.756 200.623 234.526 193.553 232.676C186.483 230.827 179.252 235.059 177.403 242.128C175.553 249.198 179.785 256.429 186.855 258.278C193.925 260.128 201.156 255.896 203.005 248.826Z" fill="url(#paint85_linear_6641_2465)"/>
<path style="mix-blend-mode:overlay" d="M156.041 214.572C161.699 211.278 168.938 213.195 172.232 218.834C175.526 224.492 173.609 231.731 167.97 235.025C162.332 238.319 155.074 236.402 151.779 230.763C148.485 225.106 150.402 217.866 156.041 214.572Z" fill="url(#paint86_linear_6641_2465)"/>
<path style="mix-blend-mode:overlay" d="M137.598 193.45C142.288 190.714 148.299 192.296 151.035 196.986C153.771 201.676 152.189 207.687 147.499 210.422C142.809 213.158 136.798 211.576 134.062 206.886C131.327 202.197 132.908 196.185 137.598 193.45Z" fill="url(#paint87_linear_6641_2465)"/>
<path style="mix-blend-mode:overlay" d="M126.581 171.563C130.731 169.144 136.072 170.54 138.51 174.708C140.929 178.858 139.533 184.2 135.365 186.638C131.215 189.057 125.873 187.661 123.436 183.492C121.016 179.342 122.412 174.001 126.581 171.563Z" fill="url(#paint88_linear_6641_2465)"/>
<path style="mix-blend-mode:overlay" d="M122.04 151.8C125.632 149.697 130.266 150.925 132.35 154.517C134.453 158.109 133.225 162.743 129.633 164.827C126.041 166.93 121.407 165.702 119.323 162.11C117.22 158.518 118.448 153.884 122.04 151.8Z" fill="url(#paint89_linear_6641_2465)"/>
<path style="mix-blend-mode:overlay" d="M121.519 134.417C124.608 132.612 128.572 133.654 130.378 136.743C132.183 139.833 131.141 143.797 128.051 145.602C124.962 147.407 120.998 146.365 119.193 143.276C117.388 140.186 118.43 136.222 121.519 134.417Z" fill="url(#paint90_linear_6641_2465)"/>
<path style="mix-blend-mode:overlay" d="M150.274 246.77C151.964 240.455 148.215 233.966 141.9 232.277C135.585 230.587 129.096 234.336 127.406 240.651C125.717 246.966 129.466 253.455 135.781 255.144C142.096 256.834 148.585 253.085 150.274 246.77Z" fill="url(#paint91_linear_6641_2465)"/>
<path style="mix-blend-mode:overlay" d="M114.428 212.339C119.118 209.604 125.129 211.186 127.865 215.875C130.601 220.565 129.019 226.576 124.329 229.312C119.639 232.048 113.628 230.466 110.892 225.776C108.157 221.086 109.739 215.075 114.428 212.339Z" fill="url(#paint92_linear_6641_2465)"/>
<path style="mix-blend-mode:overlay" d="M103.43 190.454C107.58 188.034 112.921 189.43 115.359 193.599C117.778 197.749 116.382 203.09 112.214 205.528C108.064 207.948 102.722 206.552 100.284 202.383C97.865 198.233 99.2608 192.892 103.43 190.454Z" fill="url(#paint93_linear_6641_2465)"/>
<path style="mix-blend-mode:overlay" d="M98.87 170.691C102.462 168.588 107.096 169.816 109.18 173.408C111.283 176.999 110.055 181.633 106.463 183.718C102.871 185.821 98.2373 184.592 96.1529 181.001C94.05 177.409 95.2782 172.775 98.87 170.691Z" fill="url(#paint94_linear_6641_2465)"/>
<path style="mix-blend-mode:overlay" d="M98.8141 153.177C101.903 151.372 105.867 152.414 107.673 155.503C109.478 158.592 108.436 162.556 105.346 164.362C102.257 166.167 98.293 165.125 96.4878 162.035C94.6826 158.946 95.7247 154.982 98.8141 153.177Z" fill="url(#paint95_linear_6641_2465)"/>
<path style="mix-blend-mode:overlay" d="M102.629 138.921C105.309 137.357 108.752 138.269 110.315 140.949C111.879 143.629 110.967 147.072 108.287 148.635C105.607 150.199 102.164 149.287 100.601 146.607C99.0376 143.927 99.9495 140.484 102.629 138.921Z" fill="url(#paint96_linear_6641_2465)"/>
</g>
<g style="mix-blend-mode:overlay">
<path style="mix-blend-mode:overlay" d="M224.136 29.3987C216.599 25.0625 213.994 15.4409 218.33 7.90375C222.666 0.366553 232.288 -2.23889 239.825 2.09733C247.362 6.43354 249.968 16.0551 245.631 23.5923C241.295 31.1295 231.674 33.7349 224.136 29.3987Z" fill="url(#paint97_linear_6641_2465)"/>
<path style="mix-blend-mode:overlay" d="M229.831 68.4982C223.503 64.8692 221.307 56.7737 224.955 50.4462C228.584 44.1187 236.68 41.9226 243.007 45.5703C249.335 49.1993 251.531 57.2948 247.883 63.6223C244.254 69.9499 236.158 72.1459 229.831 68.4982Z" fill="url(#paint98_linear_6641_2465)"/>
<path style="mix-blend-mode:overlay" d="M226.667 102.053C220.991 98.7961 219.037 91.5566 222.294 85.8805C225.551 80.2043 232.79 78.2502 238.466 81.5071C244.142 84.7639 246.097 92.0033 242.84 97.6795C239.583 103.356 232.344 105.31 226.667 102.053Z" fill="url(#paint99_linear_6641_2465)"/>
<path style="mix-blend-mode:overlay" d="M217.53 128.574C212.821 125.875 211.202 119.864 213.901 115.156C216.599 110.447 222.61 108.828 227.319 111.527C232.027 114.225 233.646 120.236 230.948 124.945C228.249 129.653 222.238 131.272 217.53 128.574Z" fill="url(#paint100_linear_6641_2465)"/>
<path style="mix-blend-mode:overlay" d="M204.037 149.027C199.868 146.626 198.416 141.303 200.817 137.134C203.218 132.966 208.54 131.514 212.709 133.915C216.878 136.316 218.329 141.638 215.929 145.807C213.528 149.976 208.205 151.427 204.037 149.027Z" fill="url(#paint101_linear_6641_2465)"/>
<path style="mix-blend-mode:overlay" d="M189.167 162.816C185.557 160.751 184.31 156.135 186.376 152.525C188.46 148.915 193.057 147.668 196.667 149.733C200.278 151.818 201.525 156.414 199.459 160.025C197.393 163.635 192.778 164.882 189.167 162.816Z" fill="url(#paint102_linear_6641_2465)"/>
<path style="mix-blend-mode:overlay" d="M264.558 73.2072C258.23 69.5782 256.034 61.4827 259.682 55.1552C263.311 48.8276 271.407 46.6316 277.734 50.2793C284.062 53.9083 286.258 62.0038 282.61 68.3313C278.981 74.6588 270.886 76.8549 264.558 73.2072Z" fill="url(#paint103_linear_6641_2465)"/>
<path style="mix-blend-mode:overlay" d="M261.394 106.779C255.718 103.523 253.764 96.2832 257.02 90.6071C260.277 84.9309 267.517 82.9768 273.193 86.2336C278.869 89.4904 280.823 96.7299 277.566 102.406C274.31 108.082 267.07 110.036 261.394 106.779Z" fill="url(#paint104_linear_6641_2465)"/>
<path style="mix-blend-mode:overlay" d="M252.256 133.282C247.548 130.583 245.929 124.572 248.627 119.864C251.326 115.155 257.337 113.536 262.045 116.235C266.754 118.933 268.373 124.944 265.674 129.653C262.976 134.361 256.965 135.98 252.256 133.282Z" fill="url(#paint105_linear_6641_2465)"/>
<path style="mix-blend-mode:overlay" d="M238.764 153.735C234.595 151.335 233.144 146.012 235.545 141.843C237.945 137.675 243.268 136.223 247.437 138.624C251.605 141.025 253.057 146.347 250.656 150.516C248.255 154.685 242.933 156.136 238.764 153.735Z" fill="url(#paint106_linear_6641_2465)"/>
<path style="mix-blend-mode:overlay" d="M223.894 167.524C220.284 165.459 219.037 160.843 221.103 157.233C223.168 153.623 227.784 152.376 231.394 154.441C235.004 156.507 236.251 161.122 234.186 164.733C232.12 168.343 227.504 169.59 223.894 167.524Z" fill="url(#paint107_linear_6641_2465)"/>
<path style="mix-blend-mode:overlay" d="M209.08 176.644C205.973 174.857 204.912 170.912 206.698 167.804C208.485 164.696 212.43 163.635 215.538 165.422C218.646 167.209 219.707 171.154 217.92 174.262C216.134 177.37 212.188 178.431 209.08 176.644Z" fill="url(#paint108_linear_6641_2465)"/>
<path style="mix-blend-mode:overlay" d="M289.309 117.445C283.633 114.189 281.679 106.949 284.936 101.273C288.193 95.5969 295.432 93.6428 301.108 96.8996C306.785 100.156 308.739 107.396 305.482 113.072C302.225 118.748 294.986 120.702 289.309 117.445Z" fill="url(#paint109_linear_6641_2465)"/>
<path style="mix-blend-mode:overlay" d="M280.172 143.965C275.463 141.266 273.844 135.255 276.543 130.546C279.241 125.838 285.252 124.219 289.961 126.917C294.669 129.616 296.288 135.627 293.59 140.336C290.891 145.044 284.88 146.663 280.172 143.965Z" fill="url(#paint110_linear_6641_2465)"/>
<path style="mix-blend-mode:overlay" d="M266.679 164.417C262.511 162.016 261.059 156.694 263.46 152.525C265.861 148.356 271.183 146.905 275.352 149.306C279.521 151.706 280.972 157.029 278.571 161.198C276.171 165.366 270.848 166.818 266.679 164.417Z" fill="url(#paint111_linear_6641_2465)"/>
<path style="mix-blend-mode:overlay" d="M251.81 178.207C248.199 176.123 246.952 171.526 249.018 167.916C251.102 164.305 255.699 163.058 259.31 165.124C262.92 167.208 264.167 171.805 262.101 175.416C260.035 179.026 255.42 180.273 251.81 178.207Z" fill="url(#paint112_linear_6641_2465)"/>
<path style="mix-blend-mode:overlay" d="M236.661 186.972C233.553 185.186 232.492 181.24 234.279 178.132C236.065 175.024 240.011 173.963 243.119 175.75C246.227 177.537 247.288 181.482 245.501 184.59C243.714 187.698 239.769 188.759 236.661 186.972Z" fill="url(#paint113_linear_6641_2465)"/>
<path style="mix-blend-mode:overlay" d="M222.405 190.771C219.707 189.226 218.795 185.802 220.34 183.104C221.884 180.405 225.309 179.493 228.007 181.038C230.706 182.583 231.617 186.007 230.073 188.705C228.528 191.404 225.104 192.316 222.405 190.771Z" fill="url(#paint114_linear_6641_2465)"/>
</g>
</g>
<g style="mix-blend-mode:overlay">
<g style="mix-blend-mode:overlay">
<path style="mix-blend-mode:overlay" d="M64.7975 150.848C72.2292 147.787 75.7718 139.28 72.7102 131.849C69.6486 124.417 61.1422 120.874 53.7106 123.936C46.2789 126.998 42.7363 135.504 45.7979 142.936C48.8595 150.367 57.3659 153.91 64.7975 150.848Z" fill="url(#paint115_linear_6641_2465)"/>
<path style="mix-blend-mode:overlay" d="M102.535 114.822C102.535 121.577 97.0636 127.049 90.3081 127.049C83.5525 127.049 78.0811 121.577 78.0811 114.822C78.0811 108.066 83.5525 102.595 90.3081 102.595C97.0636 102.595 102.535 108.066 102.535 114.822Z" fill="url(#paint116_linear_6641_2465)"/>
<path style="mix-blend-mode:overlay" d="M130.916 101.905C130.916 107.953 126.003 112.866 119.955 112.866C113.907 112.866 108.993 107.953 108.993 101.905C108.993 95.8565 113.907 90.9434 119.955 90.9434C126.003 90.9434 130.916 95.8565 130.916 101.905Z" fill="url(#paint117_linear_6641_2465)"/>
<path style="mix-blend-mode:overlay" d="M156.394 97.0292C156.394 102.054 152.318 106.13 147.293 106.13C142.268 106.13 138.193 102.054 138.193 97.0292C138.193 92.0044 142.268 87.9287 147.293 87.9287C152.318 87.9287 156.394 92.0044 156.394 97.0292Z" fill="url(#paint118_linear_6641_2465)"/>
<path style="mix-blend-mode:overlay" d="M170.947 106.483C175.397 106.483 179.005 102.875 179.005 98.4245C179.005 93.974 175.397 90.3662 170.947 90.3662C166.496 90.3662 162.889 93.974 162.889 98.4245C162.889 102.875 166.496 106.483 170.947 106.483Z" fill="url(#paint119_linear_6641_2465)"/>
<path style="mix-blend-mode:overlay" d="M189.948 110.988C193.802 110.988 196.927 107.863 196.927 104.009C196.927 100.155 193.802 97.0303 189.948 97.0303C186.094 97.0303 182.969 100.155 182.969 104.009C182.969 107.863 186.094 110.988 189.948 110.988Z" fill="url(#paint120_linear_6641_2465)"/>
<path style="mix-blend-mode:overlay" d="M78.0996 97.0107C84.8524 97.0107 90.3266 91.5364 90.3266 84.7836C90.3266 78.0308 84.8524 72.5566 78.0996 72.5566C71.3468 72.5566 65.8726 78.0308 65.8726 84.7836C65.8726 91.5364 71.3468 97.0107 78.0996 97.0107Z" fill="url(#paint121_linear_6641_2465)"/>
<path style="mix-blend-mode:overlay" d="M107.746 82.8283C113.8 82.8283 118.708 77.9207 118.708 71.8668C118.708 65.8129 113.8 60.9053 107.746 60.9053C101.693 60.9053 96.7849 65.8129 96.7849 71.8668C96.7849 77.9207 101.693 82.8283 107.746 82.8283Z" fill="url(#paint122_linear_6641_2465)"/>
<path style="mix-blend-mode:overlay" d="M135.085 76.0916C140.111 76.0916 144.185 72.0171 144.185 66.9911C144.185 61.965 140.111 57.8906 135.085 57.8906C130.059 57.8906 125.984 61.965 125.984 66.9911C125.984 72.0171 130.059 76.0916 135.085 76.0916Z" fill="url(#paint123_linear_6641_2465)"/>
<path style="mix-blend-mode:overlay" d="M158.738 76.4467C163.189 76.4467 166.797 72.8388 166.797 68.3884C166.797 63.9379 163.189 60.3301 158.738 60.3301C154.288 60.3301 150.68 63.9379 150.68 68.3884C150.68 72.8388 154.288 76.4467 158.738 76.4467Z" fill="url(#paint124_linear_6641_2465)"/>
<path style="mix-blend-mode:overlay" d="M177.74 80.9509C181.594 80.9509 184.719 77.8264 184.719 73.9721C184.719 70.1177 181.594 66.9932 177.74 66.9932C173.886 66.9932 170.761 70.1177 170.761 73.9721C170.761 77.8264 173.886 80.9509 177.74 80.9509Z" fill="url(#paint125_linear_6641_2465)"/>
<path style="mix-blend-mode:overlay" d="M198.843 81.6371C198.843 84.9497 196.164 87.6296 192.851 87.6296C189.538 87.6296 186.858 84.9497 186.858 81.6371C186.858 78.3244 189.538 75.6445 192.851 75.6445C196.164 75.6445 198.843 78.3244 198.843 81.6371Z" fill="url(#paint126_linear_6641_2465)"/>
<path style="mix-blend-mode:overlay" d="M114.409 44.567C114.409 50.6153 109.495 55.5285 103.447 55.5285C97.3987 55.5285 92.4856 50.6153 92.4856 44.567C92.4856 38.5186 97.3987 33.6055 103.447 33.6055C109.495 33.6055 114.409 38.5186 114.409 44.567Z" fill="url(#paint127_linear_6641_2465)"/>
<path style="mix-blend-mode:overlay" d="M139.886 39.6718C139.886 44.6966 135.811 48.7722 130.786 48.7722C125.761 48.7722 121.686 44.6966 121.686 39.6718C121.686 34.647 125.761 30.5713 130.786 30.5713C135.811 30.5713 139.886 34.647 139.886 39.6718Z" fill="url(#paint128_linear_6641_2465)"/>
<path style="mix-blend-mode:overlay" d="M154.44 49.1263C158.89 49.1263 162.498 45.5185 162.498 41.0681C162.498 36.6176 158.89 33.0098 154.44 33.0098C149.989 33.0098 146.381 36.6176 146.381 41.0681C146.381 45.5185 149.989 49.1263 154.44 49.1263Z" fill="url(#paint129_linear_6641_2465)"/>
<path style="mix-blend-mode:overlay" d="M173.441 53.6287C177.295 53.6287 180.419 50.5041 180.419 46.6498C180.419 42.7955 177.295 39.6709 173.441 39.6709C169.586 39.6709 166.462 42.7955 166.462 46.6498C166.462 50.5041 169.586 53.6287 173.441 53.6287Z" fill="url(#paint130_linear_6641_2465)"/>
<path style="mix-blend-mode:overlay" d="M194.433 54.765C194.433 58.0776 191.753 60.7575 188.441 60.7575C185.128 60.7575 182.448 58.0776 182.448 54.765C182.448 51.4524 185.128 48.7725 188.441 48.7725C191.753 48.7725 194.433 51.4524 194.433 54.765Z" fill="url(#paint131_linear_6641_2465)"/>
<path style="mix-blend-mode:overlay" d="M204.036 64.4618C204.036 67.3278 201.71 69.6541 198.844 69.6541C195.978 69.6541 193.652 67.3278 193.652 64.4618C193.652 61.5958 195.978 59.2695 198.844 59.2695C201.71 59.2695 204.036 61.5958 204.036 64.4618Z" fill="url(#paint132_linear_6641_2465)"/>
</g>
<g style="mix-blend-mode:overlay">
<path style="mix-blend-mode:overlay" d="M235.841 211.834C242.783 207.777 251.697 210.122 255.754 217.082C259.812 224.024 257.467 232.938 250.506 236.995C243.546 241.052 234.65 238.707 230.593 231.747C226.536 224.787 228.881 215.891 235.841 211.834Z" fill="url(#paint133_linear_6641_2465)"/>
<path style="mix-blend-mode:overlay" d="M201.859 198.397C207.702 194.992 215.184 196.964 218.589 202.808C221.995 208.652 220.022 216.133 214.179 219.539C208.335 222.944 200.854 220.972 197.448 215.128C194.042 209.284 196.015 201.803 201.859 198.397Z" fill="url(#paint134_linear_6641_2465)"/>
<path style="mix-blend-mode:overlay" d="M176.418 180.382C181.648 177.33 188.348 179.098 191.4 184.328C194.452 189.557 192.684 196.257 187.454 199.309C182.225 202.361 175.525 200.593 172.473 195.364C169.421 190.134 171.189 183.435 176.418 180.382Z" fill="url(#paint135_linear_6641_2465)"/>
<path style="mix-blend-mode:overlay" d="M159.353 160.841C163.689 158.31 169.254 159.78 171.785 164.116C174.316 168.453 172.845 174.017 168.509 176.548C164.173 179.079 158.608 177.609 156.077 173.273C153.546 168.936 155.017 163.372 159.353 160.841Z" fill="url(#paint136_linear_6641_2465)"/>
<path style="mix-blend-mode:overlay" d="M149.173 140.593C153.025 138.341 157.957 139.643 160.209 143.496C162.461 147.348 161.158 152.28 157.306 154.532C153.453 156.784 148.522 155.481 146.27 151.628C144.018 147.776 145.321 142.844 149.173 140.593Z" fill="url(#paint137_linear_6641_2465)"/>
<path style="mix-blend-mode:overlay" d="M144.967 122.318C148.299 120.383 152.579 121.499 154.515 124.831C156.45 128.162 155.333 132.442 152.002 134.378C148.671 136.313 144.39 135.197 142.455 131.865C140.52 128.534 141.636 124.254 144.967 122.318Z" fill="url(#paint138_linear_6641_2465)"/>
<path style="mix-blend-mode:overlay" d="M182.076 224.081C187.919 220.675 195.401 222.648 198.806 228.492C202.212 234.335 200.239 241.817 194.396 245.222C188.552 248.628 181.071 246.655 177.665 240.812C174.259 234.968 176.232 227.487 182.076 224.081Z" fill="url(#paint139_linear_6641_2465)"/>
<path style="mix-blend-mode:overlay" d="M156.617 206.065C161.847 203.013 168.547 204.781 171.599 210.01C174.651 215.24 172.883 221.94 167.653 224.992C162.424 228.044 155.724 226.276 152.672 221.046C149.62 215.817 151.388 209.117 156.617 206.065Z" fill="url(#paint140_linear_6641_2465)"/>
<path style="mix-blend-mode:overlay" d="M139.57 186.524C143.906 183.993 149.471 185.464 152.002 189.8C154.533 194.136 153.062 199.701 148.726 202.232C144.39 204.763 138.826 203.292 136.295 198.956C133.764 194.62 135.234 189.055 139.57 186.524Z" fill="url(#paint141_linear_6641_2465)"/>
<path style="mix-blend-mode:overlay" d="M129.39 166.276C133.242 164.024 138.174 165.327 140.426 169.179C142.678 173.032 141.375 177.963 137.523 180.215C133.67 182.467 128.739 181.164 126.487 177.312C124.235 173.46 125.538 168.528 129.39 166.276Z" fill="url(#paint142_linear_6641_2465)"/>
<path style="mix-blend-mode:overlay" d="M125.184 148.002C128.515 146.066 132.796 147.183 134.731 150.514C136.667 153.846 135.55 158.126 132.219 160.061C128.888 161.997 124.607 160.88 122.672 157.549C120.736 154.218 121.853 149.937 125.184 148.002Z" fill="url(#paint143_linear_6641_2465)"/>
<path style="mix-blend-mode:overlay" d="M133.437 138.836C134.41 135.673 132.636 132.319 129.472 131.346C126.309 130.372 122.956 132.147 121.982 135.31C121.008 138.473 122.783 141.826 125.946 142.8C129.109 143.774 132.463 141.999 133.437 138.836Z" fill="url(#paint144_linear_6641_2465)"/>
<path style="mix-blend-mode:overlay" d="M135.197 223.541C140.426 220.489 147.126 222.257 150.178 227.486C153.23 232.716 151.462 239.415 146.233 242.467C141.003 245.52 134.303 243.752 131.251 238.522C128.199 233.292 129.967 226.593 135.197 223.541Z" fill="url(#paint145_linear_6641_2465)"/>
<path style="mix-blend-mode:overlay" d="M118.149 204.001C122.485 201.47 128.05 202.94 130.581 207.276C133.112 211.613 131.642 217.177 127.306 219.708C122.969 222.239 117.405 220.769 114.874 216.433C112.343 212.097 113.813 206.532 118.149 204.001Z" fill="url(#paint146_linear_6641_2465)"/>
<path style="mix-blend-mode:overlay" d="M107.951 183.752C111.803 181.5 116.735 182.803 118.987 186.655C121.239 190.507 119.936 195.439 116.084 197.691C112.231 199.943 107.299 198.64 105.048 194.788C102.796 190.935 104.098 186.004 107.951 183.752Z" fill="url(#paint147_linear_6641_2465)"/>
<path style="mix-blend-mode:overlay" d="M103.745 165.477C107.076 163.542 111.357 164.659 113.292 167.99C115.228 171.321 114.111 175.601 110.78 177.537C107.448 179.472 103.168 178.356 101.233 175.025C99.2971 171.693 100.414 167.413 103.745 165.477Z" fill="url(#paint148_linear_6641_2465)"/>
<path style="mix-blend-mode:overlay" d="M112.505 156.042C113.355 152.843 111.45 149.561 108.251 148.712C105.053 147.863 101.771 149.767 100.922 152.966C100.072 156.165 101.977 159.446 105.176 160.296C108.374 161.145 111.656 159.24 112.505 156.042Z" fill="url(#paint149_linear_6641_2465)"/>
<path style="mix-blend-mode:overlay" d="M107.225 136.091C109.701 134.639 112.883 135.476 114.335 137.952C115.786 140.427 114.949 143.609 112.473 145.061C109.998 146.512 106.816 145.675 105.364 143.2C103.913 140.725 104.75 137.542 107.225 136.091Z" fill="url(#paint150_linear_6641_2465)"/>
</g>
<g style="mix-blend-mode:overlay">
<path style="mix-blend-mode:overlay" d="M219.613 34.796C212.634 30.7948 210.233 21.899 214.235 14.9202C218.236 7.94127 227.132 5.54054 234.11 9.54177C241.089 13.543 243.49 22.4387 239.489 29.4176C235.488 36.3965 226.592 38.7972 219.613 34.796Z" fill="url(#paint151_linear_6641_2465)"/>
<path style="mix-blend-mode:overlay" d="M224.898 70.9555C219.036 67.5871 217.026 60.1057 220.376 54.262C223.744 48.3998 231.226 46.3898 237.069 49.7397C242.931 53.1082 244.941 60.5895 241.591 66.4332C238.223 72.2955 230.742 74.3054 224.898 70.9555Z" fill="url(#paint152_linear_6641_2465)"/>
<path style="mix-blend-mode:overlay" d="M221.958 101.998C216.71 98.9828 214.905 92.283 217.92 87.0535C220.934 81.824 227.634 80.0002 232.864 83.0151C238.112 86.03 239.917 92.7297 236.902 97.9592C233.887 103.207 227.187 105.013 221.958 101.998Z" fill="url(#paint153_linear_6641_2465)"/>
<path style="mix-blend-mode:overlay" d="M213.509 126.508C209.154 124.015 207.646 118.45 210.159 114.095C212.653 109.741 218.217 108.233 222.572 110.745C226.927 113.239 228.434 118.804 225.922 123.159C223.428 127.513 217.863 129.021 213.509 126.508Z" fill="url(#paint154_linear_6641_2465)"/>
<path style="mix-blend-mode:overlay" d="M201.021 145.434C197.15 143.219 195.829 138.288 198.044 134.417C200.258 130.546 205.19 129.224 209.061 131.439C212.932 133.654 214.253 138.585 212.039 142.456C209.824 146.327 204.892 147.649 201.021 145.434Z" fill="url(#paint155_linear_6641_2465)"/>
<path style="mix-blend-mode:overlay" d="M187.268 158.182C183.918 156.265 182.764 152.004 184.7 148.654C186.617 145.304 190.879 144.15 194.228 146.085C197.578 148.021 198.732 152.264 196.797 155.614C194.861 158.964 190.618 160.118 187.268 158.182Z" fill="url(#paint156_linear_6641_2465)"/>
<path style="mix-blend-mode:overlay" d="M257.02 75.309C251.157 71.9405 249.147 64.4592 252.497 58.6155C255.866 52.7533 263.347 50.7434 269.191 54.0932C275.053 57.4617 277.063 64.9431 273.713 70.7867C270.345 76.649 262.863 78.6589 257.02 75.309Z" fill="url(#paint157_linear_6641_2465)"/>
<path style="mix-blend-mode:overlay" d="M254.079 106.352C248.831 103.337 247.026 96.6377 250.041 91.4081C253.056 86.16 259.755 84.3548 264.985 87.3697C270.214 90.3846 272.038 97.0843 269.023 102.314C266.009 107.543 259.309 109.367 254.079 106.352Z" fill="url(#paint158_linear_6641_2465)"/>
<path style="mix-blend-mode:overlay" d="M245.63 130.881C241.275 128.387 239.768 122.822 242.28 118.467C244.774 114.113 250.339 112.605 254.694 115.118C259.048 117.611 260.556 123.176 258.043 127.531C255.55 131.885 249.985 133.393 245.63 130.881Z" fill="url(#paint159_linear_6641_2465)"/>
<path style="mix-blend-mode:overlay" d="M233.143 149.807C229.272 147.592 227.95 142.661 230.165 138.79C232.38 134.919 237.311 133.597 241.182 135.812C245.053 138.027 246.375 142.958 244.16 146.829C241.945 150.7 237.014 152.022 233.143 149.807Z" fill="url(#paint160_linear_6641_2465)"/>
<path style="mix-blend-mode:overlay" d="M219.39 162.558C216.04 160.641 214.886 156.379 216.821 153.03C218.738 149.68 223 148.526 226.35 150.461C229.7 152.378 230.853 156.64 228.918 159.99C226.983 163.34 222.739 164.494 219.39 162.558Z" fill="url(#paint161_linear_6641_2465)"/>
<path style="mix-blend-mode:overlay" d="M205.693 170.987C202.827 169.331 201.84 165.683 203.478 162.817C205.134 159.951 208.782 158.965 211.648 160.602C214.514 162.24 215.5 165.906 213.863 168.772C212.206 171.638 208.559 172.625 205.693 170.987Z" fill="url(#paint162_linear_6641_2465)"/>
<g style="mix-blend-mode:overlay">
<path d="M279.91 116.235C274.662 113.22 272.857 106.52 275.872 101.291C278.887 96.0613 285.587 94.2375 290.816 97.2524C296.064 100.267 297.869 106.967 294.854 112.215C291.84 117.463 285.14 119.268 279.91 116.254V116.235Z" fill="#FFDF00"/>
</g>
<g style="mix-blend-mode:overlay">
<path d="M271.461 140.742C267.106 138.248 265.599 132.684 268.111 128.329C270.605 123.974 276.17 122.466 280.525 124.979C284.879 127.473 286.387 133.037 283.874 137.392C281.381 141.747 275.816 143.254 271.461 140.742Z" fill="#FFDF00"/>
</g>
<g style="mix-blend-mode:overlay">
<path d="M258.974 159.671C255.103 157.457 253.781 152.525 255.996 148.654C258.21 144.783 263.142 143.462 267.013 145.676C270.884 147.891 272.205 152.823 269.991 156.694C267.776 160.565 262.844 161.886 258.974 159.671Z" fill="#FFDF00"/>
</g>
<g style="mix-blend-mode:overlay">
<path d="M245.221 172.419C241.871 170.503 240.717 166.241 242.652 162.891C244.569 159.541 248.831 158.387 252.181 160.323C255.531 162.24 256.685 166.501 254.749 169.851C252.832 173.201 248.57 174.355 245.221 172.419Z" fill="#FFDF00"/>
</g>
<g style="mix-blend-mode:overlay">
<path d="M231.207 180.534C228.341 178.878 227.355 175.23 228.993 172.364C230.649 169.498 234.296 168.512 237.162 170.149C240.028 171.806 241.015 175.453 239.377 178.319C237.721 181.185 234.073 182.172 231.207 180.534Z" fill="#FFDF00"/>
</g>
<g style="mix-blend-mode:overlay">
<path d="M218.012 184.05C215.519 182.617 214.663 179.454 216.096 176.96C217.529 174.466 220.692 173.61 223.186 175.043C225.68 176.476 226.536 179.64 225.103 182.133C223.67 184.627 220.506 185.483 218.012 184.05Z" fill="#FFDF00"/>
</g>
</g>
</g>
<defs>
<linearGradient id="paint0_linear_6641_2465" x1="847.044" y1="492.369" x2="22.1395" y2="395.651" gradientUnits="userSpaceOnUse">
<stop stop-color="#4F24FF"/>
<stop offset="1" stop-color="#13FFE2"/>
</linearGradient>
<linearGradient id="paint1_linear_6641_2465" x1="184.423" y1="344.219" x2="163.223" y2="344.219" gradientUnits="userSpaceOnUse">
<stop stop-color="#827CFF"/>
<stop offset="1" stop-color="#E5E3FF"/>
</linearGradient>
<linearGradient id="paint2_linear_6641_2465" x1="222.334" y1="419.737" x2="216.741" y2="409.876" gradientUnits="userSpaceOnUse">
<stop stop-color="#554CFF"/>
<stop offset="1" stop-color="#CFCCFF"/>
</linearGradient>
<linearGradient id="paint3_linear_6641_2465" x1="125.107" y1="421.403" x2="129.867" y2="413.226" gradientUnits="userSpaceOnUse">
<stop stop-color="#554CFF"/>
<stop offset="1" stop-color="#CFCCFF"/>
</linearGradient>
<linearGradient id="paint4_linear_6641_2465" x1="619.41" y1="746.561" x2="165.344" y2="318.19" gradientUnits="userSpaceOnUse">
<stop stop-color="#827CFF"/>
<stop offset="1" stop-color="#E2E0FF"/>
</linearGradient>
<linearGradient id="paint5_linear_6641_2465" x1="-31.7856" y1="178.48" x2="355.096" y2="453.817" gradientUnits="userSpaceOnUse">
<stop stop-color="#CFCCFF"/>
<stop offset="1" stop-color="#827CFF"/>
</linearGradient>
<linearGradient id="paint6_linear_6641_2465" x1="185.253" y1="348.962" x2="162.043" y2="348.962" gradientUnits="userSpaceOnUse">
<stop stop-color="#554CFF"/>
<stop offset="1" stop-color="#CFCCFF"/>
</linearGradient>
<linearGradient id="paint7_linear_6641_2465" x1="26.2188" y1="82.5569" x2="399.654" y2="702.896" gradientUnits="userSpaceOnUse">
<stop stop-color="#FFFF61"/>
<stop offset="1" stop-color="#FF6400"/>
</linearGradient>
<linearGradient id="paint8_linear_6641_2465" x1="59.0054" y1="62.8058" x2="432.441" y2="683.164" gradientUnits="userSpaceOnUse">
<stop stop-color="#FFFF61"/>
<stop offset="1" stop-color="#FF6400"/>
</linearGradient>
<linearGradient id="paint9_linear_6641_2465" x1="86.4749" y1="46.2785" x2="459.929" y2="666.618" gradientUnits="userSpaceOnUse">
<stop stop-color="#FFFF61"/>
<stop offset="1" stop-color="#FF6400"/>
</linearGradient>
<linearGradient id="paint10_linear_6641_2465" x1="108.695" y1="32.8979" x2="482.149" y2="653.237" gradientUnits="userSpaceOnUse">
<stop stop-color="#FFFF61"/>
<stop offset="1" stop-color="#FF6400"/>
</linearGradient>
<linearGradient id="paint11_linear_6641_2465" x1="125.445" y1="22.8105" x2="498.881" y2="643.15" gradientUnits="userSpaceOnUse">
<stop stop-color="#FFFF61"/>
<stop offset="1" stop-color="#FF6400"/>
</linearGradient>
<linearGradient id="paint12_linear_6641_2465" x1="136.927" y1="15.9077" x2="510.363" y2="636.247" gradientUnits="userSpaceOnUse">
<stop stop-color="#FFFF61"/>
<stop offset="1" stop-color="#FF6400"/>
</linearGradient>
<linearGradient id="paint13_linear_6641_2465" x1="63.3043" y1="60.218" x2="436.758" y2="680.557" gradientUnits="userSpaceOnUse">
<stop stop-color="#FFFF61"/>
<stop offset="1" stop-color="#FF6400"/>
</linearGradient>
<linearGradient id="paint14_linear_6641_2465" x1="90.7738" y1="43.6721" x2="464.228" y2="664.011" gradientUnits="userSpaceOnUse">
<stop stop-color="#FFFF61"/>
<stop offset="1" stop-color="#FF6400"/>
</linearGradient>
<linearGradient id="paint15_linear_6641_2465" x1="112.994" y1="30.3101" x2="486.448" y2="650.649" gradientUnits="userSpaceOnUse">
<stop stop-color="#FFFF61"/>
<stop offset="1" stop-color="#FF6400"/>
</linearGradient>
<linearGradient id="paint16_linear_6641_2465" x1="129.743" y1="20.2247" x2="503.198" y2="640.564" gradientUnits="userSpaceOnUse">
<stop stop-color="#FFFF61"/>
<stop offset="1" stop-color="#FF6400"/>
</linearGradient>
<linearGradient id="paint17_linear_6641_2465" x1="141.226" y1="13.3209" x2="514.662" y2="633.66" gradientUnits="userSpaceOnUse">
<stop stop-color="#FFFF61"/>
<stop offset="1" stop-color="#FF6400"/>
</linearGradient>
<linearGradient id="paint18_linear_6641_2465" x1="148.93" y1="8.66579" x2="522.385" y2="629.024" gradientUnits="userSpaceOnUse">
<stop stop-color="#FFFF61"/>
<stop offset="1" stop-color="#FF6400"/>
</linearGradient>
<linearGradient id="paint19_linear_6641_2465" x1="99.6878" y1="38.3139" x2="473.142" y2="658.653" gradientUnits="userSpaceOnUse">
<stop stop-color="#FFFF61"/>
<stop offset="1" stop-color="#FF6400"/>
</linearGradient>
<linearGradient id="paint20_linear_6641_2465" x1="121.909" y1="24.9324" x2="495.363" y2="645.29" gradientUnits="userSpaceOnUse">
<stop stop-color="#FFFF61"/>
<stop offset="1" stop-color="#FF6400"/>
</linearGradient>
<linearGradient id="paint21_linear_6641_2465" x1="138.658" y1="14.8647" x2="512.093" y2="635.203" gradientUnits="userSpaceOnUse">
<stop stop-color="#FFFF61"/>
<stop offset="1" stop-color="#FF6400"/>
</linearGradient>
<linearGradient id="paint22_linear_6641_2465" x1="150.14" y1="7.94023" x2="523.576" y2="628.298" gradientUnits="userSpaceOnUse">
<stop stop-color="#FFFF61"/>
<stop offset="1" stop-color="#FF6400"/>
</linearGradient>
<linearGradient id="paint23_linear_6641_2465" x1="157.566" y1="3.47492" x2="531.019" y2="623.814" gradientUnits="userSpaceOnUse">
<stop stop-color="#FFFF61"/>
<stop offset="1" stop-color="#FF6400"/>
</linearGradient>
<linearGradient id="paint24_linear_6641_2465" x1="160.916" y1="1.44711" x2="534.371" y2="621.805" gradientUnits="userSpaceOnUse">
<stop stop-color="#FFFF61"/>
<stop offset="1" stop-color="#FF6400"/>
</linearGradient>
<linearGradient id="paint25_linear_6641_2465" x1="122.783" y1="24.409" x2="496.219" y2="644.767" gradientUnits="userSpaceOnUse">
<stop stop-color="#FFFF61"/>
<stop offset="1" stop-color="#FF6400"/>
</linearGradient>
<linearGradient id="paint26_linear_6641_2465" x1="103.801" y1="35.8357" x2="477.255" y2="656.175" gradientUnits="userSpaceOnUse">
<stop stop-color="#FFFF61"/>
<stop offset="1" stop-color="#FF6400"/>
</linearGradient>
<linearGradient id="paint27_linear_6641_2465" x1="93.0998" y1="42.275" x2="466.535" y2="662.633" gradientUnits="userSpaceOnUse">
<stop stop-color="#FFFF61"/>
<stop offset="1" stop-color="#FF6400"/>
</linearGradient>
<linearGradient id="paint28_linear_6641_2465" x1="89.229" y1="44.6007" x2="462.683" y2="664.958" gradientUnits="userSpaceOnUse">
<stop stop-color="#FFFF61"/>
<stop offset="1" stop-color="#FF6400"/>
</linearGradient>
<linearGradient id="paint29_linear_6641_2465" x1="90.7178" y1="43.7255" x2="464.153" y2="664.065" gradientUnits="userSpaceOnUse">
<stop stop-color="#FFFF61"/>
<stop offset="1" stop-color="#FF6400"/>
</linearGradient>
<linearGradient id="paint30_linear_6641_2465" x1="95.7244" y1="40.6931" x2="469.179" y2="661.051" gradientUnits="userSpaceOnUse">
<stop stop-color="#FFFF61"/>
<stop offset="1" stop-color="#FF6400"/>
</linearGradient>
<linearGradient id="paint31_linear_6641_2465" x1="77.9322" y1="51.414" x2="451.386" y2="671.753" gradientUnits="userSpaceOnUse">
<stop stop-color="#FFFF61"/>
<stop offset="1" stop-color="#FF6400"/>
</linearGradient>
<linearGradient id="paint32_linear_6641_2465" x1="67.2318" y1="57.8522" x2="440.667" y2="678.21" gradientUnits="userSpaceOnUse">
<stop stop-color="#FFFF61"/>
<stop offset="1" stop-color="#FF6400"/>
</linearGradient>
<linearGradient id="paint33_linear_6641_2465" x1="63.3605" y1="60.1787" x2="436.815" y2="680.518" gradientUnits="userSpaceOnUse">
<stop stop-color="#FFFF61"/>
<stop offset="1" stop-color="#FF6400"/>
</linearGradient>
<linearGradient id="paint34_linear_6641_2465" x1="64.8493" y1="59.2852" x2="438.303" y2="679.643" gradientUnits="userSpaceOnUse">
<stop stop-color="#FFFF61"/>
<stop offset="1" stop-color="#FF6400"/>
</linearGradient>
<linearGradient id="paint35_linear_6641_2465" x1="69.8556" y1="56.2714" x2="443.31" y2="676.629" gradientUnits="userSpaceOnUse">
<stop stop-color="#FFFF61"/>
<stop offset="1" stop-color="#FF6400"/>
</linearGradient>
<linearGradient id="paint36_linear_6641_2465" x1="76.5939" y1="52.2121" x2="450.048" y2="672.552" gradientUnits="userSpaceOnUse">
<stop stop-color="#FFFF61"/>
<stop offset="1" stop-color="#FF6400"/>
</linearGradient>
<linearGradient id="paint37_linear_6641_2465" x1="43.7826" y1="71.9777" x2="417.219" y2="692.317" gradientUnits="userSpaceOnUse">
<stop stop-color="#FFFF61"/>
<stop offset="1" stop-color="#FF6400"/>
</linearGradient>
<linearGradient id="paint38_linear_6641_2465" x1="39.9113" y1="74.3054" x2="413.366" y2="694.645" gradientUnits="userSpaceOnUse">
<stop stop-color="#FFFF61"/>
<stop offset="1" stop-color="#FF6400"/>
</linearGradient>
<linearGradient id="paint39_linear_6641_2465" x1="41.4001" y1="73.4109" x2="414.835" y2="693.75" gradientUnits="userSpaceOnUse">
<stop stop-color="#FFFF61"/>
<stop offset="1" stop-color="#FF6400"/>
</linearGradient>
<linearGradient id="paint40_linear_6641_2465" x1="46.4064" y1="70.3971" x2="419.86" y2="690.736" gradientUnits="userSpaceOnUse">
<stop stop-color="#FFFF61"/>
<stop offset="1" stop-color="#FF6400"/>
</linearGradient>
<linearGradient id="paint41_linear_6641_2465" x1="53.5441" y1="66.1172" x2="426.998" y2="686.475" gradientUnits="userSpaceOnUse">
<stop stop-color="#FFFF61"/>
<stop offset="1" stop-color="#FF6400"/>
</linearGradient>
<linearGradient id="paint42_linear_6641_2465" x1="61.9463" y1="61.0351" x2="435.4" y2="681.374" gradientUnits="userSpaceOnUse">
<stop stop-color="#FFFF61"/>
<stop offset="1" stop-color="#FF6400"/>
</linearGradient>
<linearGradient id="paint43_linear_6641_2465" x1="200.165" y1="-22.1703" x2="573.619" y2="598.169" gradientUnits="userSpaceOnUse">
<stop stop-color="#FFFF61"/>
<stop offset="1" stop-color="#FF6400"/>
</linearGradient>
<linearGradient id="paint44_linear_6641_2465" x1="186.319" y1="-13.8333" x2="559.773" y2="606.506" gradientUnits="userSpaceOnUse">
<stop stop-color="#FFFF61"/>
<stop offset="1" stop-color="#FF6400"/>
</linearGradient>
<linearGradient id="paint45_linear_6641_2465" x1="169.495" y1="-3.7092" x2="542.949" y2="616.649" gradientUnits="userSpaceOnUse">
<stop stop-color="#FFFF61"/>
<stop offset="1" stop-color="#FF6400"/>
</linearGradient>
<linearGradient id="paint46_linear_6641_2465" x1="151.071" y1="7.38346" x2="524.507" y2="627.741" gradientUnits="userSpaceOnUse">
<stop stop-color="#FFFF61"/>
<stop offset="1" stop-color="#FF6400"/>
</linearGradient>
<linearGradient id="paint47_linear_6641_2465" x1="132.777" y1="18.3997" x2="506.231" y2="638.739" gradientUnits="userSpaceOnUse">
<stop stop-color="#FFFF61"/>
<stop offset="1" stop-color="#FF6400"/>
</linearGradient>
<linearGradient id="paint48_linear_6641_2465" x1="116.232" y1="28.3563" x2="489.668" y2="648.714" gradientUnits="userSpaceOnUse">
<stop stop-color="#FFFF61"/>
<stop offset="1" stop-color="#FF6400"/>
</linearGradient>
<linearGradient id="paint49_linear_6641_2465" x1="207.981" y1="-26.8805" x2="581.417" y2="593.477" gradientUnits="userSpaceOnUse">
<stop stop-color="#FFFF61"/>
<stop offset="1" stop-color="#FF6400"/>
</linearGradient>
<linearGradient id="paint50_linear_6641_2465" x1="191.139" y1="-16.7366" x2="564.593" y2="603.602" gradientUnits="userSpaceOnUse">
<stop stop-color="#FFFF61"/>
<stop offset="1" stop-color="#FF6400"/>
</linearGradient>
<linearGradient id="paint51_linear_6641_2465" x1="172.715" y1="-5.64513" x2="546.169" y2="614.694" gradientUnits="userSpaceOnUse">
<stop stop-color="#FFFF61"/>
<stop offset="1" stop-color="#FF6400"/>
</linearGradient>
<linearGradient id="paint52_linear_6641_2465" x1="154.421" y1="5.37198" x2="527.875" y2="625.711" gradientUnits="userSpaceOnUse">
<stop stop-color="#FFFF61"/>
<stop offset="1" stop-color="#FF6400"/>
</linearGradient>
<linearGradient id="paint53_linear_6641_2465" x1="137.876" y1="15.3315" x2="511.331" y2="635.671" gradientUnits="userSpaceOnUse">
<stop stop-color="#FFFF61"/>
<stop offset="1" stop-color="#FF6400"/>
</linearGradient>
<linearGradient id="paint54_linear_6641_2465" x1="123.36" y1="24.0767" x2="496.815" y2="644.416" gradientUnits="userSpaceOnUse">
<stop stop-color="#FFFF61"/>
<stop offset="1" stop-color="#FF6400"/>
</linearGradient>
<linearGradient id="paint55_linear_6641_2465" x1="205.748" y1="-25.5202" x2="579.184" y2="594.819" gradientUnits="userSpaceOnUse">
<stop stop-color="#FFFF61"/>
<stop offset="1" stop-color="#FF6400"/>
</linearGradient>
<linearGradient id="paint56_linear_6641_2465" x1="187.305" y1="-14.4314" x2="560.759" y2="605.908" gradientUnits="userSpaceOnUse">
<stop stop-color="#FFFF61"/>
<stop offset="1" stop-color="#FF6400"/>
</linearGradient>
<linearGradient id="paint57_linear_6641_2465" x1="169.03" y1="-3.42998" x2="542.465" y2="616.928" gradientUnits="userSpaceOnUse">
<stop stop-color="#FFFF61"/>
<stop offset="1" stop-color="#FF6400"/>
</linearGradient>
<linearGradient id="paint58_linear_6641_2465" x1="152.466" y1="6.54525" x2="525.921" y2="626.885" gradientUnits="userSpaceOnUse">
<stop stop-color="#FFFF61"/>
<stop offset="1" stop-color="#FF6400"/>
</linearGradient>
<linearGradient id="paint59_linear_6641_2465" x1="137.858" y1="15.3298" x2="511.311" y2="635.687" gradientUnits="userSpaceOnUse">
<stop stop-color="#FFFF61"/>
<stop offset="1" stop-color="#FF6400"/>
</linearGradient>
<linearGradient id="paint60_linear_6641_2465" x1="126.04" y1="22.4566" x2="499.475" y2="642.796" gradientUnits="userSpaceOnUse">
<stop stop-color="#FFFF61"/>
<stop offset="1" stop-color="#FF6400"/>
</linearGradient>
<linearGradient id="paint61_linear_6641_2465" x1="15.067" y1="81.02" x2="418.782" y2="751.663" gradientUnits="userSpaceOnUse">
<stop stop-color="#FFFF61"/>
<stop offset="1" stop-color="#FF6400"/>
</linearGradient>
<linearGradient id="paint62_linear_6641_2465" x1="50.5009" y1="59.6956" x2="454.215" y2="730.338" gradientUnits="userSpaceOnUse">
<stop stop-color="#FFFF61"/>
<stop offset="1" stop-color="#FF6400"/>
</linearGradient>
<linearGradient id="paint63_linear_6641_2465" x1="80.2029" y1="41.8096" x2="483.917" y2="712.452" gradientUnits="userSpaceOnUse">
<stop stop-color="#FFFF61"/>
<stop offset="1" stop-color="#FF6400"/>
</linearGradient>
<linearGradient id="paint64_linear_6641_2465" x1="104.23" y1="27.3484" x2="507.944" y2="697.991" gradientUnits="userSpaceOnUse">
<stop stop-color="#FFFF61"/>
<stop offset="1" stop-color="#FF6400"/>
</linearGradient>
<linearGradient id="paint65_linear_6641_2465" x1="122.318" y1="16.4632" x2="526.052" y2="687.106" gradientUnits="userSpaceOnUse">
<stop stop-color="#FFFF61"/>
<stop offset="1" stop-color="#FF6400"/>
</linearGradient>
<linearGradient id="paint66_linear_6641_2465" x1="134.732" y1="8.98086" x2="538.464" y2="679.624" gradientUnits="userSpaceOnUse">
<stop stop-color="#FFFF61"/>
<stop offset="1" stop-color="#FF6400"/>
</linearGradient>
<linearGradient id="paint67_linear_6641_2465" x1="55.1539" y1="56.9025" x2="458.869" y2="727.546" gradientUnits="userSpaceOnUse">
<stop stop-color="#FFFF61"/>
<stop offset="1" stop-color="#FF6400"/>
</linearGradient>
<linearGradient id="paint68_linear_6641_2465" x1="84.8562" y1="39.0175" x2="488.571" y2="709.661" gradientUnits="userSpaceOnUse">
<stop stop-color="#FFFF61"/>
<stop offset="1" stop-color="#FF6400"/>
</linearGradient>
<linearGradient id="paint69_linear_6641_2465" x1="108.882" y1="24.5592" x2="512.597" y2="695.203" gradientUnits="userSpaceOnUse">
<stop stop-color="#FFFF61"/>
<stop offset="1" stop-color="#FF6400"/>
</linearGradient>
<linearGradient id="paint70_linear_6641_2465" x1="126.971" y1="13.6525" x2="530.704" y2="684.296" gradientUnits="userSpaceOnUse">
<stop stop-color="#FFFF61"/>
<stop offset="1" stop-color="#FF6400"/>
</linearGradient>
<linearGradient id="paint71_linear_6641_2465" x1="139.384" y1="6.18962" x2="543.118" y2="676.833" gradientUnits="userSpaceOnUse">
<stop stop-color="#FFFF61"/>
<stop offset="1" stop-color="#FF6400"/>
</linearGradient>
<linearGradient id="paint72_linear_6641_2465" x1="147.722" y1="1.16527" x2="551.436" y2="671.808" gradientUnits="userSpaceOnUse">
<stop stop-color="#FFFF61"/>
<stop offset="1" stop-color="#FF6400"/>
</linearGradient>
<linearGradient id="paint73_linear_6641_2465" x1="94.4773" y1="33.2115" x2="498.211" y2="703.855" gradientUnits="userSpaceOnUse">
<stop stop-color="#FFFF61"/>
<stop offset="1" stop-color="#FF6400"/>
</linearGradient>
<linearGradient id="paint74_linear_6641_2465" x1="118.503" y1="18.7513" x2="522.236" y2="689.394" gradientUnits="userSpaceOnUse">
<stop stop-color="#FFFF61"/>
<stop offset="1" stop-color="#FF6400"/>
</linearGradient>
<linearGradient id="paint75_linear_6641_2465" x1="136.612" y1="7.86417" x2="540.326" y2="678.489" gradientUnits="userSpaceOnUse">
<stop stop-color="#FFFF61"/>
<stop offset="1" stop-color="#FF6400"/>
</linearGradient>
<linearGradient id="paint76_linear_6641_2465" x1="149.025" y1="0.383632" x2="552.74" y2="671.027" gradientUnits="userSpaceOnUse">
<stop stop-color="#FFFF61"/>
<stop offset="1" stop-color="#FF6400"/>
</linearGradient>
<linearGradient id="paint77_linear_6641_2465" x1="157.045" y1="-4.45611" x2="560.779" y2="666.188" gradientUnits="userSpaceOnUse">
<stop stop-color="#FFFF61"/>
<stop offset="1" stop-color="#FF6400"/>
</linearGradient>
<linearGradient id="paint78_linear_6641_2465" x1="160.675" y1="-6.63233" x2="564.409" y2="664.012" gradientUnits="userSpaceOnUse">
<stop stop-color="#FFFF61"/>
<stop offset="1" stop-color="#FF6400"/>
</linearGradient>
<linearGradient id="paint79_linear_6641_2465" x1="119.453" y1="18.196" x2="523.167" y2="688.839" gradientUnits="userSpaceOnUse">
<stop stop-color="#FFFF61"/>
<stop offset="1" stop-color="#FF6400"/>
</linearGradient>
<linearGradient id="paint80_linear_6641_2465" x1="98.969" y1="30.5506" x2="502.702" y2="701.194" gradientUnits="userSpaceOnUse">
<stop stop-color="#FFFF61"/>
<stop offset="1" stop-color="#FF6400"/>
</linearGradient>
<linearGradient id="paint81_linear_6641_2465" x1="87.3506" y1="37.5133" x2="491.084" y2="708.156" gradientUnits="userSpaceOnUse">
<stop stop-color="#FFFF61"/>
<stop offset="1" stop-color="#FF6400"/>
</linearGradient>
<linearGradient id="paint82_linear_6641_2465" x1="83.182" y1="40.026" x2="486.915" y2="710.669" gradientUnits="userSpaceOnUse">
<stop stop-color="#FFFF61"/>
<stop offset="1" stop-color="#FF6400"/>
</linearGradient>
<linearGradient id="paint83_linear_6641_2465" x1="84.7822" y1="39.0585" x2="488.515" y2="709.701" gradientUnits="userSpaceOnUse">
<stop stop-color="#FFFF61"/>
<stop offset="1" stop-color="#FF6400"/>
</linearGradient>
<linearGradient id="paint84_linear_6641_2465" x1="90.1976" y1="35.8015" x2="493.912" y2="706.445" gradientUnits="userSpaceOnUse">
<stop stop-color="#FFFF61"/>
<stop offset="1" stop-color="#FF6400"/>
</linearGradient>
<linearGradient id="paint85_linear_6641_2465" x1="70.9488" y1="47.3842" x2="474.682" y2="718.027" gradientUnits="userSpaceOnUse">
<stop stop-color="#FFFF61"/>
<stop offset="1" stop-color="#FF6400"/>
</linearGradient>
<linearGradient id="paint86_linear_6641_2465" x1="59.3977" y1="54.3555" x2="463.113" y2="724.98" gradientUnits="userSpaceOnUse">
<stop stop-color="#FFFF61"/>
<stop offset="1" stop-color="#FF6400"/>
</linearGradient>
<linearGradient id="paint87_linear_6641_2465" x1="55.2102" y1="56.8496" x2="458.944" y2="727.512" gradientUnits="userSpaceOnUse">
<stop stop-color="#FFFF61"/>
<stop offset="1" stop-color="#FF6400"/>
</linearGradient>
<linearGradient id="paint88_linear_6641_2465" x1="56.8104" y1="55.8997" x2="460.544" y2="726.543" gradientUnits="userSpaceOnUse">
<stop stop-color="#FFFF61"/>
<stop offset="1" stop-color="#FF6400"/>
</linearGradient>
<linearGradient id="paint89_linear_6641_2465" x1="62.2262" y1="52.6439" x2="465.96" y2="723.287" gradientUnits="userSpaceOnUse">
<stop stop-color="#FFFF61"/>
<stop offset="1" stop-color="#FF6400"/>
</linearGradient>
<linearGradient id="paint90_linear_6641_2465" x1="69.5404" y1="48.2323" x2="473.256" y2="718.876" gradientUnits="userSpaceOnUse">
<stop stop-color="#FFFF61"/>
<stop offset="1" stop-color="#FF6400"/>
</linearGradient>
<linearGradient id="paint91_linear_6641_2465" x1="34.0364" y1="69.6265" x2="437.77" y2="740.251" gradientUnits="userSpaceOnUse">
<stop stop-color="#FFFF61"/>
<stop offset="1" stop-color="#FF6400"/>
</linearGradient>
<linearGradient id="paint92_linear_6641_2465" x1="29.8629" y1="72.1289" x2="433.596" y2="742.772" gradientUnits="userSpaceOnUse">
<stop stop-color="#FFFF61"/>
<stop offset="1" stop-color="#FF6400"/>
</linearGradient>
<linearGradient id="paint93_linear_6641_2465" x1="31.4632" y1="71.1613" x2="435.178" y2="741.805" gradientUnits="userSpaceOnUse">
<stop stop-color="#FFFF61"/>
<stop offset="1" stop-color="#FF6400"/>
</linearGradient>
<linearGradient id="paint94_linear_6641_2465" x1="36.8789" y1="67.9055" x2="440.593" y2="738.53" gradientUnits="userSpaceOnUse">
<stop stop-color="#FFFF61"/>
<stop offset="1" stop-color="#FF6400"/>
</linearGradient>
<linearGradient id="paint95_linear_6641_2465" x1="44.5834" y1="63.2699" x2="448.299" y2="733.914" gradientUnits="userSpaceOnUse">
<stop stop-color="#FFFF61"/>
<stop offset="1" stop-color="#FF6400"/>
</linearGradient>
<linearGradient id="paint96_linear_6641_2465" x1="53.6841" y1="57.7795" x2="457.417" y2="728.422" gradientUnits="userSpaceOnUse">
<stop stop-color="#FFFF61"/>
<stop offset="1" stop-color="#FF6400"/>
</linearGradient>
<linearGradient id="paint97_linear_6641_2465" x1="203.107" y1="-32.183" x2="606.84" y2="638.46" gradientUnits="userSpaceOnUse">
<stop stop-color="#FFFF61"/>
<stop offset="1" stop-color="#FF6400"/>
</linearGradient>
<linearGradient id="paint98_linear_6641_2465" x1="188.144" y1="-23.1578" x2="591.877" y2="647.485" gradientUnits="userSpaceOnUse">
<stop stop-color="#FFFF61"/>
<stop offset="1" stop-color="#FF6400"/>
</linearGradient>
<linearGradient id="paint99_linear_6641_2465" x1="169.943" y1="-12.2147" x2="573.676" y2="658.428" gradientUnits="userSpaceOnUse">
<stop stop-color="#FFFF61"/>
<stop offset="1" stop-color="#FF6400"/>
</linearGradient>
<linearGradient id="paint100_linear_6641_2465" x1="150.03" y1="-0.20969" x2="553.744" y2="670.433" gradientUnits="userSpaceOnUse">
<stop stop-color="#FFFF61"/>
<stop offset="1" stop-color="#FF6400"/>
</linearGradient>
<linearGradient id="paint101_linear_6641_2465" x1="130.246" y1="11.6821" x2="533.979" y2="682.325" gradientUnits="userSpaceOnUse">
<stop stop-color="#FFFF61"/>
<stop offset="1" stop-color="#FF6400"/>
</linearGradient>
<linearGradient id="paint102_linear_6641_2465" x1="112.362" y1="22.4571" x2="516.095" y2="693.1" gradientUnits="userSpaceOnUse">
<stop stop-color="#FFFF61"/>
<stop offset="1" stop-color="#FF6400"/>
</linearGradient>
<linearGradient id="paint103_linear_6641_2465" x1="211.556" y1="-37.2453" x2="615.27" y2="633.379" gradientUnits="userSpaceOnUse">
<stop stop-color="#FFFF61"/>
<stop offset="1" stop-color="#FF6400"/>
</linearGradient>
<linearGradient id="paint104_linear_6641_2465" x1="193.354" y1="-26.3033" x2="597.088" y2="644.34" gradientUnits="userSpaceOnUse">
<stop stop-color="#FFFF61"/>
<stop offset="1" stop-color="#FF6400"/>
</linearGradient>
<linearGradient id="paint105_linear_6641_2465" x1="173.423" y1="-14.2981" x2="577.155" y2="656.345" gradientUnits="userSpaceOnUse">
<stop stop-color="#FFFF61"/>
<stop offset="1" stop-color="#FF6400"/>
</linearGradient>
<linearGradient id="paint106_linear_6641_2465" x1="153.659" y1="-2.40542" x2="557.373" y2="668.237" gradientUnits="userSpaceOnUse">
<stop stop-color="#FFFF61"/>
<stop offset="1" stop-color="#FF6400"/>
</linearGradient>
<linearGradient id="paint107_linear_6641_2465" x1="135.774" y1="8.36864" x2="539.489" y2="679.012" gradientUnits="userSpaceOnUse">
<stop stop-color="#FFFF61"/>
<stop offset="1" stop-color="#FF6400"/>
</linearGradient>
<linearGradient id="paint108_linear_6641_2465" x1="120.067" y1="17.8231" x2="523.8" y2="688.466" gradientUnits="userSpaceOnUse">
<stop stop-color="#FFFF61"/>
<stop offset="1" stop-color="#FF6400"/>
</linearGradient>
<linearGradient id="paint109_linear_6641_2465" x1="209.136" y1="-35.7922" x2="612.869" y2="634.851" gradientUnits="userSpaceOnUse">
<stop stop-color="#FFFF61"/>
<stop offset="1" stop-color="#FF6400"/>
</linearGradient>
<linearGradient id="paint110_linear_6641_2465" x1="189.204" y1="-23.808" x2="592.938" y2="646.836" gradientUnits="userSpaceOnUse">
<stop stop-color="#FFFF61"/>
<stop offset="1" stop-color="#FF6400"/>
</linearGradient>
<linearGradient id="paint111_linear_6641_2465" x1="169.44" y1="-11.8975" x2="573.174" y2="658.746" gradientUnits="userSpaceOnUse">
<stop stop-color="#FFFF61"/>
<stop offset="1" stop-color="#FF6400"/>
</linearGradient>
<linearGradient id="paint112_linear_6641_2465" x1="151.556" y1="-1.14099" x2="555.27" y2="669.502" gradientUnits="userSpaceOnUse">
<stop stop-color="#FFFF61"/>
<stop offset="1" stop-color="#FF6400"/>
</linearGradient>
<linearGradient id="paint113_linear_6641_2465" x1="135.756" y1="8.36845" x2="539.47" y2="679.012" gradientUnits="userSpaceOnUse">
<stop stop-color="#FFFF61"/>
<stop offset="1" stop-color="#FF6400"/>
</linearGradient>
<linearGradient id="paint114_linear_6641_2465" x1="122.97" y1="16.0757" x2="526.685" y2="686.718" gradientUnits="userSpaceOnUse">
<stop stop-color="#FFFF61"/>
<stop offset="1" stop-color="#FF6400"/>
</linearGradient>
<linearGradient id="paint115_linear_6641_2465" x1="26.2188" y1="82.5569" x2="399.654" y2="702.896" gradientUnits="userSpaceOnUse">
<stop stop-color="#4F24FF"/>
<stop offset="1" stop-color="#13FFE2"/>
</linearGradient>
<linearGradient id="paint116_linear_6641_2465" x1="59.0054" y1="62.8058" x2="432.441" y2="683.164" gradientUnits="userSpaceOnUse">
<stop stop-color="#4F24FF"/>
<stop offset="1" stop-color="#13FFE2"/>
</linearGradient>
<linearGradient id="paint117_linear_6641_2465" x1="86.4749" y1="46.2785" x2="459.929" y2="666.618" gradientUnits="userSpaceOnUse">
<stop stop-color="#4F24FF"/>
<stop offset="1" stop-color="#13FFE2"/>
</linearGradient>
<linearGradient id="paint118_linear_6641_2465" x1="108.695" y1="32.8979" x2="482.149" y2="653.237" gradientUnits="userSpaceOnUse">
<stop stop-color="#4F24FF"/>
<stop offset="1" stop-color="#13FFE2"/>
</linearGradient>
<linearGradient id="paint119_linear_6641_2465" x1="125.445" y1="22.8105" x2="498.881" y2="643.15" gradientUnits="userSpaceOnUse">
<stop stop-color="#4F24FF"/>
<stop offset="1" stop-color="#13FFE2"/>
</linearGradient>
<linearGradient id="paint120_linear_6641_2465" x1="136.927" y1="15.9077" x2="510.363" y2="636.247" gradientUnits="userSpaceOnUse">
<stop stop-color="#4F24FF"/>
<stop offset="1" stop-color="#13FFE2"/>
</linearGradient>
<linearGradient id="paint121_linear_6641_2465" x1="63.3043" y1="60.218" x2="436.758" y2="680.557" gradientUnits="userSpaceOnUse">
<stop stop-color="#4F24FF"/>
<stop offset="1" stop-color="#13FFE2"/>
</linearGradient>
<linearGradient id="paint122_linear_6641_2465" x1="90.7738" y1="43.6721" x2="464.228" y2="664.011" gradientUnits="userSpaceOnUse">
<stop stop-color="#4F24FF"/>
<stop offset="1" stop-color="#13FFE2"/>
</linearGradient>
<linearGradient id="paint123_linear_6641_2465" x1="112.994" y1="30.3101" x2="486.448" y2="650.649" gradientUnits="userSpaceOnUse">
<stop stop-color="#4F24FF"/>
<stop offset="1" stop-color="#13FFE2"/>
</linearGradient>
<linearGradient id="paint124_linear_6641_2465" x1="129.743" y1="20.2247" x2="503.198" y2="640.564" gradientUnits="userSpaceOnUse">
<stop stop-color="#4F24FF"/>
<stop offset="1" stop-color="#13FFE2"/>
</linearGradient>
<linearGradient id="paint125_linear_6641_2465" x1="141.226" y1="13.3209" x2="514.662" y2="633.66" gradientUnits="userSpaceOnUse">
<stop stop-color="#4F24FF"/>
<stop offset="1" stop-color="#13FFE2"/>
</linearGradient>
<linearGradient id="paint126_linear_6641_2465" x1="148.93" y1="8.66579" x2="522.385" y2="629.024" gradientUnits="userSpaceOnUse">
<stop stop-color="#4F24FF"/>
<stop offset="1" stop-color="#13FFE2"/>
</linearGradient>
<linearGradient id="paint127_linear_6641_2465" x1="99.6878" y1="38.3139" x2="473.142" y2="658.653" gradientUnits="userSpaceOnUse">
<stop stop-color="#4F24FF"/>
<stop offset="1" stop-color="#13FFE2"/>
</linearGradient>
<linearGradient id="paint128_linear_6641_2465" x1="121.909" y1="24.9324" x2="495.363" y2="645.29" gradientUnits="userSpaceOnUse">
<stop stop-color="#4F24FF"/>
<stop offset="1" stop-color="#13FFE2"/>
</linearGradient>
<linearGradient id="paint129_linear_6641_2465" x1="138.658" y1="14.8647" x2="512.093" y2="635.203" gradientUnits="userSpaceOnUse">
<stop stop-color="#4F24FF"/>
<stop offset="1" stop-color="#13FFE2"/>
</linearGradient>
<linearGradient id="paint130_linear_6641_2465" x1="150.14" y1="7.94023" x2="523.576" y2="628.298" gradientUnits="userSpaceOnUse">
<stop stop-color="#4F24FF"/>
<stop offset="1" stop-color="#13FFE2"/>
</linearGradient>
<linearGradient id="paint131_linear_6641_2465" x1="157.566" y1="3.47492" x2="531.019" y2="623.814" gradientUnits="userSpaceOnUse">
<stop stop-color="#4F24FF"/>
<stop offset="1" stop-color="#13FFE2"/>
</linearGradient>
<linearGradient id="paint132_linear_6641_2465" x1="160.916" y1="1.44711" x2="534.371" y2="621.805" gradientUnits="userSpaceOnUse">
<stop stop-color="#4F24FF"/>
<stop offset="1" stop-color="#13FFE2"/>
</linearGradient>
<linearGradient id="paint133_linear_6641_2465" x1="122.783" y1="24.409" x2="496.219" y2="644.767" gradientUnits="userSpaceOnUse">
<stop stop-color="#4F24FF"/>
<stop offset="1" stop-color="#13FFE2"/>
</linearGradient>
<linearGradient id="paint134_linear_6641_2465" x1="103.801" y1="35.8357" x2="477.255" y2="656.175" gradientUnits="userSpaceOnUse">
<stop stop-color="#4F24FF"/>
<stop offset="1" stop-color="#13FFE2"/>
</linearGradient>
<linearGradient id="paint135_linear_6641_2465" x1="93.0998" y1="42.275" x2="466.535" y2="662.633" gradientUnits="userSpaceOnUse">
<stop stop-color="#4F24FF"/>
<stop offset="1" stop-color="#13FFE2"/>
</linearGradient>
<linearGradient id="paint136_linear_6641_2465" x1="89.229" y1="44.6007" x2="462.683" y2="664.958" gradientUnits="userSpaceOnUse">
<stop stop-color="#4F24FF"/>
<stop offset="1" stop-color="#13FFE2"/>
</linearGradient>
<linearGradient id="paint137_linear_6641_2465" x1="90.7178" y1="43.7255" x2="464.153" y2="664.065" gradientUnits="userSpaceOnUse">
<stop stop-color="#4F24FF"/>
<stop offset="1" stop-color="#13FFE2"/>
</linearGradient>
<linearGradient id="paint138_linear_6641_2465" x1="95.7244" y1="40.6931" x2="469.179" y2="661.051" gradientUnits="userSpaceOnUse">
<stop stop-color="#4F24FF"/>
<stop offset="1" stop-color="#13FFE2"/>
</linearGradient>
<linearGradient id="paint139_linear_6641_2465" x1="77.9322" y1="51.414" x2="451.386" y2="671.753" gradientUnits="userSpaceOnUse">
<stop stop-color="#4F24FF"/>
<stop offset="1" stop-color="#13FFE2"/>
</linearGradient>
<linearGradient id="paint140_linear_6641_2465" x1="67.2318" y1="57.8522" x2="440.667" y2="678.21" gradientUnits="userSpaceOnUse">
<stop stop-color="#4F24FF"/>
<stop offset="1" stop-color="#13FFE2"/>
</linearGradient>
<linearGradient id="paint141_linear_6641_2465" x1="63.3605" y1="60.1787" x2="436.815" y2="680.518" gradientUnits="userSpaceOnUse">
<stop stop-color="#4F24FF"/>
<stop offset="1" stop-color="#13FFE2"/>
</linearGradient>
<linearGradient id="paint142_linear_6641_2465" x1="64.8493" y1="59.2852" x2="438.303" y2="679.643" gradientUnits="userSpaceOnUse">
<stop stop-color="#4F24FF"/>
<stop offset="1" stop-color="#13FFE2"/>
</linearGradient>
<linearGradient id="paint143_linear_6641_2465" x1="69.8556" y1="56.2714" x2="443.31" y2="676.629" gradientUnits="userSpaceOnUse">
<stop stop-color="#4F24FF"/>
<stop offset="1" stop-color="#13FFE2"/>
</linearGradient>
<linearGradient id="paint144_linear_6641_2465" x1="76.5939" y1="52.2121" x2="450.048" y2="672.552" gradientUnits="userSpaceOnUse">
<stop stop-color="#4F24FF"/>
<stop offset="1" stop-color="#13FFE2"/>
</linearGradient>
<linearGradient id="paint145_linear_6641_2465" x1="43.7826" y1="71.9777" x2="417.219" y2="692.317" gradientUnits="userSpaceOnUse">
<stop stop-color="#4F24FF"/>
<stop offset="1" stop-color="#13FFE2"/>
</linearGradient>
<linearGradient id="paint146_linear_6641_2465" x1="39.9113" y1="74.3054" x2="413.366" y2="694.645" gradientUnits="userSpaceOnUse">
<stop stop-color="#4F24FF"/>
<stop offset="1" stop-color="#13FFE2"/>
</linearGradient>
<linearGradient id="paint147_linear_6641_2465" x1="41.4001" y1="73.4109" x2="414.835" y2="693.75" gradientUnits="userSpaceOnUse">
<stop stop-color="#4F24FF"/>
<stop offset="1" stop-color="#13FFE2"/>
</linearGradient>
<linearGradient id="paint148_linear_6641_2465" x1="46.4064" y1="70.3971" x2="419.86" y2="690.736" gradientUnits="userSpaceOnUse">
<stop stop-color="#4F24FF"/>
<stop offset="1" stop-color="#13FFE2"/>
</linearGradient>
<linearGradient id="paint149_linear_6641_2465" x1="53.5441" y1="66.1172" x2="426.998" y2="686.475" gradientUnits="userSpaceOnUse">
<stop stop-color="#4F24FF"/>
<stop offset="1" stop-color="#13FFE2"/>
</linearGradient>
<linearGradient id="paint150_linear_6641_2465" x1="61.9463" y1="61.0351" x2="435.4" y2="681.374" gradientUnits="userSpaceOnUse">
<stop stop-color="#4F24FF"/>
<stop offset="1" stop-color="#13FFE2"/>
</linearGradient>
<linearGradient id="paint151_linear_6641_2465" x1="200.165" y1="-22.1703" x2="573.619" y2="598.169" gradientUnits="userSpaceOnUse">
<stop stop-color="#4F24FF"/>
<stop offset="1" stop-color="#13FFE2"/>
</linearGradient>
<linearGradient id="paint152_linear_6641_2465" x1="186.319" y1="-13.8333" x2="559.773" y2="606.506" gradientUnits="userSpaceOnUse">
<stop stop-color="#4F24FF"/>
<stop offset="1" stop-color="#13FFE2"/>
</linearGradient>
<linearGradient id="paint153_linear_6641_2465" x1="169.495" y1="-3.7092" x2="542.949" y2="616.649" gradientUnits="userSpaceOnUse">
<stop stop-color="#4F24FF"/>
<stop offset="1" stop-color="#13FFE2"/>
</linearGradient>
<linearGradient id="paint154_linear_6641_2465" x1="151.071" y1="7.38346" x2="524.507" y2="627.741" gradientUnits="userSpaceOnUse">
<stop stop-color="#4F24FF"/>
<stop offset="1" stop-color="#13FFE2"/>
</linearGradient>
<linearGradient id="paint155_linear_6641_2465" x1="132.777" y1="18.3997" x2="506.231" y2="638.739" gradientUnits="userSpaceOnUse">
<stop stop-color="#4F24FF"/>
<stop offset="1" stop-color="#13FFE2"/>
</linearGradient>
<linearGradient id="paint156_linear_6641_2465" x1="116.232" y1="28.3563" x2="489.668" y2="648.714" gradientUnits="userSpaceOnUse">
<stop stop-color="#4F24FF"/>
<stop offset="1" stop-color="#13FFE2"/>
</linearGradient>
<linearGradient id="paint157_linear_6641_2465" x1="207.981" y1="-26.8805" x2="581.417" y2="593.477" gradientUnits="userSpaceOnUse">
<stop stop-color="#4F24FF"/>
<stop offset="1" stop-color="#13FFE2"/>
</linearGradient>
<linearGradient id="paint158_linear_6641_2465" x1="191.139" y1="-16.7366" x2="564.593" y2="603.602" gradientUnits="userSpaceOnUse">
<stop stop-color="#4F24FF"/>
<stop offset="1" stop-color="#13FFE2"/>
</linearGradient>
<linearGradient id="paint159_linear_6641_2465" x1="172.715" y1="-5.64513" x2="546.169" y2="614.694" gradientUnits="userSpaceOnUse">
<stop stop-color="#4F24FF"/>
<stop offset="1" stop-color="#13FFE2"/>
</linearGradient>
<linearGradient id="paint160_linear_6641_2465" x1="154.421" y1="5.37198" x2="527.875" y2="625.711" gradientUnits="userSpaceOnUse">
<stop stop-color="#4F24FF"/>
<stop offset="1" stop-color="#13FFE2"/>
</linearGradient>
<linearGradient id="paint161_linear_6641_2465" x1="137.876" y1="15.3315" x2="511.331" y2="635.671" gradientUnits="userSpaceOnUse">
<stop stop-color="#4F24FF"/>
<stop offset="1" stop-color="#13FFE2"/>
</linearGradient>
<linearGradient id="paint162_linear_6641_2465" x1="123.36" y1="24.0767" x2="496.815" y2="644.416" gradientUnits="userSpaceOnUse">
<stop stop-color="#4F24FF"/>
<stop offset="1" stop-color="#13FFE2"/>
</linearGradient>
</defs>
</svg>
