<svg width="508" height="310" viewBox="0 0 508 310" fill="none" xmlns="http://www.w3.org/2000/svg">
<circle opacity="0.6" cx="187.862" cy="77.0882" r="6.8616" fill="#CFCCFF"/>
<circle opacity="0.6" cx="411.862" cy="171.088" r="6.8616" fill="#CFCCFF"/>
<circle opacity="0.6" cx="161.862" cy="282.088" r="6.8616" fill="#CFCCFF"/>
<path d="M1 309.227C13.1256 283.694 53.6276 236.83 103.582 217.118C165.721 192.599 220.078 215.9 272.248 192.599C337.49 163.458 336.029 104.436 372.77 64.8703C404.797 30.3804 434.01 20.2295 507 14.2266" stroke="#CFCCFF" stroke-width="2"/>
<g filter="url(#filter0_ii_6637_2480)">
<path d="M322.529 176.522L322.479 176.157C322.395 175.368 322.303 174.58 322.186 173.791C322.136 173.475 322.069 173.152 322.019 172.836C321.91 172.238 321.81 171.641 321.684 171.043C321.609 170.694 321.526 170.354 321.45 170.013C321.317 169.441 321.174 168.868 321.024 168.303C320.932 167.963 320.84 167.631 320.739 167.29C320.572 166.709 320.388 166.136 320.196 165.564C320.096 165.256 319.995 164.941 319.886 164.634C319.661 163.995 319.418 163.364 319.167 162.741L318.891 162.035C318.169 160.309 317.351 158.624 316.441 156.988L316.031 156.29C315.696 155.717 315.354 155.145 315.002 154.58C314.827 154.298 314.643 154.024 314.459 153.75C314.124 153.243 313.773 152.729 313.413 152.231C313.213 151.948 313.012 151.666 312.803 151.4C312.435 150.911 312.05 150.421 311.665 149.939C311.456 149.682 311.247 149.416 311.03 149.159C310.595 148.644 310.143 148.138 309.692 147.64C309.499 147.44 309.324 147.224 309.131 147.025C308.479 146.336 307.81 145.664 307.116 145.008C307.007 144.9 306.882 144.8 306.773 144.701C306.188 144.153 305.585 143.621 304.967 143.098C304.699 142.874 304.406 142.65 304.13 142.426C303.854 142.202 303.461 141.87 303.11 141.596L302.591 141.214L302.048 140.815C301.354 140.317 300.651 139.836 299.932 139.371L299.338 138.997C298.644 138.557 297.933 138.167 297.206 137.719L296.98 137.586C296.804 137.495 296.628 137.412 296.461 137.312C295.976 137.055 295.491 136.797 295.006 136.556L294.103 136.116L292.907 135.568C292.606 135.436 292.296 135.295 291.987 135.17L290.607 134.614C290.272 134.481 289.93 134.356 289.578 134.232C289.026 134.033 288.474 133.833 287.906 133.659L286.986 133.377L285.74 133.011L284.803 132.762L283.39 132.43L282.645 132.264C281.965 132.126 281.288 132.001 280.613 131.891L279.777 131.766L278.405 131.575L277.527 131.484L276.022 131.351L275.344 131.301C274.642 131.257 273.939 131.232 273.237 131.227H272.551C272.041 131.227 271.531 131.227 271.02 131.227H270.243C269.707 131.227 269.172 131.285 268.645 131.326L268.052 131.368C267.341 131.426 266.621 131.509 265.911 131.6L265.417 131.667L263.744 131.932L263.084 132.057C262.523 132.156 261.972 132.273 261.411 132.397L260.901 132.505C260.182 132.671 259.471 132.854 258.76 133.053L258.476 133.136C257.865 133.31 257.255 133.501 256.644 133.701L256.084 133.883L254.411 134.473L253.951 134.647C253.257 134.921 252.563 135.203 251.877 135.477H251.785C251.15 135.759 250.514 136.058 249.878 136.374L249.377 136.623C248.858 136.889 248.34 137.162 247.829 137.453L247.378 137.702C246.079 138.438 244.816 139.23 243.589 140.076L243.121 140.409C242.653 140.732 242.193 141.073 241.741 141.421L241.264 141.778L240.947 142.027C240.662 142.252 240.386 142.492 240.11 142.717L239.374 143.331C238.973 143.68 238.538 144.037 238.178 144.402L237.593 144.941C237.158 145.348 236.757 145.772 236.33 146.195C236.179 146.344 236.021 146.494 235.87 146.652C235.418 147.117 234.984 147.606 234.549 148.096L234.223 148.462C233.746 149.001 233.286 149.566 232.834 150.122L232.65 150.346C229.155 154.806 226.441 159.819 224.622 165.173C223.422 168.693 222.628 172.336 222.255 176.032C221.189 186.523 223.484 197.08 228.812 206.202C229.481 207.356 230.208 208.493 230.969 209.597C231.906 210.942 232.915 212.246 233.997 213.508C238.408 218.691 243.837 222.928 249.953 225.96C256.068 228.992 262.741 230.756 269.566 231.145C276.39 231.533 283.223 230.538 289.647 228.219C296.071 225.9 301.952 222.307 306.932 217.659L307.091 217.517L307.659 216.961C311.094 213.622 314.028 209.811 316.374 205.646C317.051 204.45 317.662 203.23 318.23 202.009C318.921 200.528 319.535 199.012 320.07 197.468C322.386 190.74 323.225 183.598 322.529 176.522Z" fill="url(#paint0_linear_6637_2480)"/>
</g>
<g filter="url(#filter1_ii_6637_2480)">
<path d="M453.835 31.9335L453.8 31.6778C453.742 31.1257 453.678 30.5736 453.597 30.0216C453.562 29.8007 453.516 29.5741 453.481 29.3533C453.405 28.9348 453.336 28.5164 453.248 28.098C453.196 27.8539 453.138 27.6157 453.086 27.3774C452.993 26.9764 452.894 26.5754 452.789 26.1802C452.726 25.942 452.662 25.7095 452.592 25.4713C452.476 25.0645 452.348 24.6635 452.214 24.2625C452.145 24.0475 452.075 23.8266 451.999 23.6116C451.842 23.1641 451.674 22.7225 451.5 22.2866L451.308 21.7927C450.807 20.5842 450.238 19.4046 449.606 18.2593L449.321 17.7712C449.089 17.3702 448.85 16.9692 448.606 16.574C448.484 16.3764 448.357 16.1846 448.229 15.9929C447.996 15.6384 447.752 15.2781 447.503 14.9294C447.363 14.7318 447.224 14.5342 447.079 14.3482C446.823 14.0054 446.556 13.6625 446.288 13.3254C446.143 13.1453 445.998 12.9593 445.847 12.7792C445.545 12.4189 445.231 12.0644 444.917 11.7157C444.784 11.5762 444.662 11.4251 444.528 11.2856C444.075 10.8033 443.61 10.3326 443.128 9.87348C443.052 9.79793 442.965 9.72819 442.89 9.65845C442.483 9.2749 442.065 8.90297 441.635 8.53686C441.449 8.37995 441.246 8.22304 441.054 8.06613C440.862 7.90923 440.589 7.67677 440.345 7.485L439.985 7.21767L439.607 6.93872C439.125 6.59004 438.637 6.25298 438.137 5.92754L437.725 5.66603C437.243 5.35802 436.749 5.08489 436.243 4.77108L436.087 4.67809C435.965 4.61417 435.843 4.55605 435.726 4.48631C435.389 4.30616 435.052 4.12601 434.715 3.95748L434.088 3.64947L433.257 3.26592C433.048 3.17294 432.833 3.07414 432.618 2.98697L431.66 2.59761C431.427 2.50463 431.189 2.41745 430.945 2.33028C430.562 2.19081 430.178 2.05134 429.783 1.92931L429.144 1.73171L428.278 1.47601L427.628 1.30167L426.646 1.06921L426.129 0.952987C425.656 0.85613 425.186 0.768961 424.717 0.691476L424.136 0.604299L423.183 0.47064L422.573 0.406714L421.528 0.31373L421.057 0.278863C420.569 0.247869 420.081 0.230437 419.593 0.226562H419.116C418.762 0.226562 418.408 0.226562 418.053 0.226562H417.513C417.141 0.226562 416.769 0.267239 416.403 0.296296L415.991 0.325355C415.497 0.366035 414.997 0.424148 414.504 0.488073L414.161 0.534566L412.999 0.720534L412.54 0.807702C412.151 0.877438 411.767 0.9588 411.378 1.04597L411.024 1.12152C410.524 1.23775 410.03 1.36559 409.536 1.50507L409.339 1.56318C408.915 1.68522 408.491 1.81888 408.066 1.95836L407.677 2.08621L406.515 2.49882L406.196 2.62085C405.714 2.81263 405.231 3.01022 404.755 3.20199H404.691C404.249 3.39958 403.808 3.60879 403.366 3.82962L403.018 4.00397C402.658 4.18993 402.297 4.38171 401.943 4.58511L401.629 4.75945C400.727 5.27473 399.85 5.82875 398.998 6.42151L398.672 6.65396C398.347 6.88061 398.027 7.11887 397.714 7.36295L397.382 7.61285L397.162 7.78718C396.964 7.94409 396.772 8.11262 396.581 8.26953L396.069 8.69957C395.791 8.94365 395.488 9.19354 395.239 9.44924L394.832 9.82699C394.53 10.1117 394.251 10.4081 393.955 10.7045C393.85 10.8091 393.74 10.9137 393.635 11.0241C393.321 11.3496 393.019 11.6924 392.717 12.0353L392.491 12.291C392.16 12.6688 391.84 13.0639 391.526 13.4533L391.398 13.6102C388.97 16.7325 387.085 20.2412 385.821 23.9894C384.988 26.4529 384.436 29.0029 384.177 31.5906C383.437 38.9342 385.031 46.3242 388.732 52.7092C389.197 53.517 389.702 54.3132 390.231 55.0861C390.881 56.0275 391.582 56.94 392.334 57.8233C395.399 61.4515 399.17 64.4173 403.418 66.5399C407.666 68.6625 412.302 69.8973 417.043 70.1692C421.783 70.4411 426.53 69.7443 430.993 68.1213C435.455 66.4983 439.541 63.983 443 60.729L443.11 60.6302L443.506 60.2408C445.891 57.9033 447.93 55.2359 449.559 52.3199C450.03 51.4831 450.454 50.6288 450.849 49.7745C451.329 48.7373 451.755 47.6763 452.127 46.5957C453.736 41.8862 454.318 36.8868 453.835 31.9335Z" fill="url(#paint1_linear_6637_2480)"/>
</g>
<g filter="url(#filter2_ii_6637_2480)">
<path d="M96.8352 232.934L96.8003 232.678C96.7422 232.126 96.6783 231.574 96.597 231.022C96.5621 230.801 96.5157 230.574 96.4808 230.353C96.4053 229.935 96.3355 229.516 96.2484 229.098C96.1961 228.854 96.138 228.616 96.0857 228.377C95.9928 227.976 95.894 227.575 95.7895 227.18C95.7255 226.942 95.6616 226.71 95.5919 226.471C95.4757 226.064 95.3479 225.663 95.2143 225.262C95.1446 225.047 95.0749 224.827 94.9993 224.612C94.8425 224.164 94.674 223.722 94.4997 223.287L94.308 222.793C93.8066 221.584 93.2383 220.405 92.6058 219.259L92.321 218.771C92.0887 218.37 91.8505 217.969 91.6065 217.574C91.4845 217.376 91.3566 217.185 91.2288 216.993C90.9964 216.638 90.7524 216.278 90.5026 215.929C90.3632 215.732 90.2238 215.534 90.0785 215.348C89.8229 215.005 89.5557 214.663 89.2884 214.325C89.1432 214.145 88.9979 213.959 88.8469 213.779C88.5448 213.419 88.2311 213.064 87.9173 212.716C87.7837 212.576 87.6617 212.425 87.5281 212.286C87.0749 211.803 86.6101 211.333 86.1279 210.873C86.0524 210.798 85.9652 210.728 85.8897 210.658C85.483 210.275 85.0648 209.903 84.6348 209.537C84.4489 209.38 84.2456 209.223 84.0539 209.066C83.8622 208.909 83.5891 208.677 83.3451 208.485L82.9849 208.218L82.6073 207.939C82.1251 207.59 81.637 207.253 81.1374 206.928L80.7249 206.666C80.2427 206.358 79.7489 206.085 79.2435 205.771L79.0866 205.678C78.9646 205.614 78.8426 205.556 78.7264 205.486C78.3894 205.306 78.0525 205.126 77.7155 204.957L77.0881 204.649L76.2573 204.266C76.0481 204.173 75.8332 204.074 75.6182 203.987L74.6596 203.598C74.4272 203.505 74.189 203.417 73.945 203.33C73.5616 203.191 73.1781 203.051 72.7831 202.929L72.144 202.732L71.2784 202.476L70.6277 202.302L69.6459 202.069L69.1288 201.953C68.6563 201.856 68.1857 201.769 67.717 201.691L67.1361 201.604L66.1833 201.471L65.5733 201.407L64.5275 201.314L64.0569 201.279C63.5689 201.248 63.0809 201.23 62.5929 201.227H62.1165C61.7621 201.227 61.4077 201.227 61.0533 201.227H60.513C60.1412 201.227 59.7694 201.267 59.4034 201.296L58.9909 201.325C58.4971 201.366 57.9974 201.424 57.5036 201.488L57.1608 201.535L55.9989 201.721L55.5399 201.808C55.1507 201.877 54.7672 201.959 54.378 202.046L54.0236 202.122C53.524 202.238 53.0301 202.366 52.5363 202.505L52.3388 202.563C51.9147 202.685 51.4906 202.819 51.0665 202.958L50.6772 203.086L49.5153 203.499L49.1957 203.621C48.7135 203.813 48.2313 204.01 47.7549 204.202H47.691C47.2495 204.4 46.808 204.609 46.3664 204.83L46.0178 205.004C45.6576 205.19 45.2974 205.382 44.943 205.585L44.6293 205.759C43.7269 206.275 42.8496 206.829 41.9975 207.422L41.6722 207.654C41.3468 207.881 41.0273 208.119 40.7136 208.363L40.3825 208.613L40.1617 208.787C39.9641 208.944 39.7724 209.113 39.5807 209.27L39.0695 209.7C38.7906 209.944 38.4885 210.194 38.2387 210.449L37.832 210.827C37.5299 211.112 37.251 211.408 36.9547 211.705C36.8501 211.809 36.7398 211.914 36.6352 212.024C36.3215 212.35 36.0194 212.692 35.7173 213.035L35.4907 213.291C35.1595 213.669 34.84 214.064 34.5263 214.453L34.3985 214.61C31.9705 217.732 30.085 221.241 28.8212 224.989C27.988 227.453 27.4364 230.003 27.177 232.591C26.4367 239.934 28.0306 247.324 31.7318 253.709C32.1966 254.517 32.702 255.313 33.2307 256.086C33.8814 257.028 34.5824 257.94 35.3338 258.823C38.3986 262.451 42.1699 265.417 46.418 267.54C50.6661 269.662 55.3019 270.897 60.0426 271.169C64.7834 271.441 69.5299 270.744 73.9926 269.121C78.4554 267.498 82.5409 264.983 86.0001 261.729L86.1105 261.63L86.5056 261.241C88.8914 258.903 90.93 256.236 92.5593 253.32C93.0298 252.483 93.4539 251.629 93.849 250.775C94.3288 249.737 94.7554 248.676 95.1271 247.596C96.736 242.886 97.3184 237.887 96.8352 232.934Z" fill="url(#paint2_linear_6637_2480)"/>
</g>
<path d="M278.125 183.427H278.054L277.991 183.458C276.32 184.294 274.492 184.677 272.5 184.677C270.506 184.677 268.601 184.293 266.931 183.458L266.868 183.427H266.797H265.469C259.519 183.427 254.7 188.329 254.7 194.273V197.477C254.7 199.752 256.475 201.527 258.75 201.527H286.25C288.443 201.527 290.3 199.756 290.3 197.477V194.273C290.3 188.327 285.4 183.427 279.453 183.427H278.125ZM272.5 181.527C278.133 181.527 282.8 176.941 282.8 171.227C282.8 165.592 278.134 160.927 272.5 160.927C266.786 160.927 262.2 165.594 262.2 171.227C262.2 176.939 266.787 181.527 272.5 181.527Z" fill="url(#paint3_linear_6637_2480)" fill-opacity="0.9" stroke="url(#paint4_linear_6637_2480)" stroke-width="0.6"/>
<g filter="url(#filter3_b_6637_2480)">
<rect x="405" y="19.2266" width="27.7895" height="32" rx="5" fill="url(#paint5_linear_6637_2480)" fill-opacity="0.9"/>
<rect x="405.25" y="19.4766" width="27.2895" height="31.5" rx="4.75" stroke="url(#paint6_linear_6637_2480)" stroke-width="0.5"/>
</g>
<rect x="428.329" y="25.3711" width="2.86842" height="18.8684" rx="1.43421" transform="rotate(90 428.329 25.3711)" fill="url(#paint7_linear_6637_2480)" fill-opacity="0.9" stroke="url(#paint8_linear_6637_2480)" stroke-width="0.5"/>
<rect x="428.329" y="31.2656" width="2.86842" height="18.8684" rx="1.43421" transform="rotate(90 428.329 31.2656)" fill="url(#paint9_linear_6637_2480)" fill-opacity="0.9" stroke="url(#paint10_linear_6637_2480)" stroke-width="0.5"/>
<rect x="428.329" y="37.1602" width="2.86842" height="18.8684" rx="1.43421" transform="rotate(90 428.329 37.1602)" fill="url(#paint11_linear_6637_2480)" fill-opacity="0.9" stroke="url(#paint12_linear_6637_2480)" stroke-width="0.5"/>
<g filter="url(#filter4_biiii_6637_2480)">
<path d="M62.4707 254.216C62.248 254.216 62.0252 254.165 61.8241 254.061L55.3435 250.712C53.5046 249.76 52.0659 248.692 50.9422 247.448C48.4827 244.725 47.113 241.23 47.0889 237.603L47.005 225.666C46.995 224.288 47.8834 223.051 49.2125 222.584L61.1051 218.429C61.8113 218.176 62.5991 218.172 63.3183 218.415L75.2616 222.413C76.5985 222.859 77.5031 224.086 77.5112 225.462L77.5951 237.408C77.6211 241.03 76.3031 244.541 73.8852 247.297C72.7759 248.56 71.3512 249.646 69.5317 250.618L63.1136 254.051C62.9144 254.159 62.6935 254.214 62.4707 254.216Z" fill="white" fill-opacity="0.2"/>
</g>
<g filter="url(#filter5_biiii_6637_2480)">
<path d="M61.0812 240.4C60.7335 240.402 60.3856 240.277 60.1174 240.02L56.6669 236.706C56.1341 236.191 56.1281 235.355 56.6548 234.836C57.1815 234.315 58.0418 234.309 58.5764 234.822L61.0592 237.206L67.1134 231.229C67.6419 230.708 68.5022 230.702 69.035 231.215C69.5696 231.73 69.5756 232.568 69.0489 233.085L62.039 240.006C61.7748 240.268 61.4289 240.398 61.0812 240.4Z" fill="white" fill-opacity="0.2"/>
</g>
<g filter="url(#filter6_biii_6637_2480)">
<path fill-rule="evenodd" clip-rule="evenodd" d="M61.3593 220.909C61.6667 220.901 61.9813 220.896 62.3033 220.896C62.622 220.896 62.9337 220.901 63.2385 220.91C63.497 220.918 63.7004 221.135 63.6928 221.395C63.6853 221.656 63.4696 221.861 63.2112 221.853C62.9158 221.845 62.6132 221.84 62.3033 221.84C61.9892 221.84 61.6827 221.844 61.3837 221.852C61.1252 221.859 60.9102 221.653 60.9034 221.393C60.8967 221.132 61.1008 220.915 61.3593 220.909ZM59.984 221.444C60.007 221.703 59.8169 221.933 59.5594 221.956C58.9195 222.013 58.3205 222.092 57.7598 222.191C57.5051 222.235 57.2626 222.064 57.2182 221.807C57.1738 221.55 57.3443 221.306 57.5991 221.261C58.1876 221.158 58.8124 221.076 59.4759 221.016C59.7334 220.992 59.9609 221.184 59.984 221.444ZM64.5937 221.451C64.6193 221.192 64.8487 221.002 65.106 221.028C65.7615 221.094 66.3803 221.184 66.9644 221.297C67.2184 221.346 67.3847 221.594 67.3359 221.85C67.287 222.106 67.0416 222.273 66.7877 222.224C66.2336 222.117 65.6429 222.031 65.0132 221.967C64.7559 221.942 64.5681 221.71 64.5937 221.451ZM56.3248 222.011C56.3976 222.261 56.2554 222.523 56.0072 222.597C55.3942 222.778 54.8402 222.988 54.3392 223.226C54.1052 223.337 53.8263 223.236 53.7162 223C53.6062 222.764 53.7067 222.483 53.9407 222.372C54.4891 222.112 55.0888 221.884 55.7438 221.691C55.992 221.618 56.2521 221.761 56.3248 222.011ZM68.2088 222.069C68.2875 221.82 68.551 221.684 68.7973 221.763C69.4375 221.969 70.0264 222.211 70.5676 222.485C70.7985 222.603 70.8914 222.886 70.7751 223.119C70.6587 223.352 70.3772 223.445 70.1463 223.328C69.6521 223.077 69.1091 222.854 68.5122 222.662C68.2659 222.583 68.13 222.317 68.2088 222.069ZM52.9255 223.47C53.0807 223.679 53.0389 223.975 52.8321 224.131C52.3477 224.497 51.9324 224.902 51.5757 225.34C51.4117 225.542 51.1167 225.572 50.9167 225.406C50.7168 225.241 50.6875 224.944 50.8514 224.742C51.2559 224.245 51.7257 223.788 52.27 223.376C52.4768 223.22 52.7703 223.262 52.9255 223.47ZM71.5394 223.601C71.6987 223.396 71.993 223.359 72.1966 223.52C72.721 223.933 73.1802 224.389 73.5813 224.883C73.7451 225.085 73.7157 225.382 73.5156 225.547C73.3155 225.712 73.0206 225.683 72.8567 225.481C72.4991 225.041 72.0893 224.634 71.6197 224.263C71.416 224.103 71.3801 223.806 71.5394 223.601ZM50.4243 226.189C50.6565 226.304 50.7526 226.586 50.6389 226.82C50.3857 227.341 50.1817 227.898 50.0181 228.488C49.9484 228.739 49.69 228.885 49.441 228.815C49.192 228.745 49.0466 228.484 49.1163 228.233C49.2931 227.596 49.5163 226.985 49.7978 226.405C49.9116 226.171 50.192 226.074 50.4243 226.189ZM74.0069 226.309C74.2368 226.19 74.5192 226.281 74.6376 226.513C74.9276 227.08 75.1651 227.678 75.3587 228.301C75.436 228.55 75.2986 228.815 75.0519 228.893C74.8051 228.971 74.5424 228.832 74.4651 228.583C74.2857 228.006 74.0678 227.459 73.8051 226.945C73.6867 226.713 73.777 226.429 74.0069 226.309ZM49.2577 229.723C49.5135 229.761 49.6904 230 49.6528 230.258C49.5674 230.844 49.5082 231.451 49.4683 232.079C49.4518 232.339 49.2292 232.536 48.9711 232.519C48.7131 232.503 48.5173 232.278 48.5338 232.018C48.575 231.371 48.6364 230.737 48.7263 230.121C48.7639 229.863 49.0018 229.685 49.2577 229.723ZM75.2596 229.777C75.5142 229.731 75.7573 229.902 75.8025 230.159C75.9099 230.768 75.9876 231.396 76.0419 232.037C76.0639 232.296 75.8729 232.525 75.6152 232.547C75.3576 232.569 75.1309 232.377 75.1089 232.117C75.0566 231.5 74.9822 230.901 74.8805 230.324C74.8353 230.067 75.005 229.822 75.2596 229.777ZM48.9392 233.444C49.1978 233.448 49.4043 233.662 49.4004 233.923C49.3958 234.229 49.394 234.539 49.394 234.851C49.394 235.144 49.4087 235.439 49.4375 235.736C49.4626 235.996 49.2743 236.227 49.017 236.252C48.7596 236.277 48.5306 236.087 48.5055 235.828C48.4739 235.502 48.4575 235.176 48.4575 234.851C48.4575 234.535 48.4594 234.221 48.4641 233.909C48.4679 233.648 48.6807 233.44 48.9392 233.444ZM75.6601 233.453C75.9186 233.447 76.133 233.653 76.1389 233.914C76.1459 234.224 76.1491 234.537 76.1491 234.851C76.1491 235.176 76.1327 235.502 76.1011 235.828C76.076 236.087 75.847 236.277 75.5897 236.252C75.3323 236.227 75.144 235.996 75.1691 235.736C75.1979 235.439 75.2127 235.144 75.2127 234.851C75.2127 234.543 75.2095 234.238 75.2027 233.936C75.1968 233.675 75.4016 233.459 75.6601 233.453ZM49.1862 237.16C49.436 237.093 49.6926 237.243 49.7592 237.495C49.9095 238.063 50.1031 238.634 50.3346 239.203C50.4327 239.444 50.3182 239.72 50.079 239.819C49.8397 239.918 49.5662 239.802 49.4681 239.561C49.223 238.958 49.0159 238.349 48.8543 237.738C48.7877 237.486 48.9363 237.228 49.1862 237.16ZM75.4205 237.16C75.6703 237.228 75.8189 237.486 75.7523 237.738C75.5907 238.349 75.3837 238.958 75.1385 239.561C75.0404 239.802 74.7669 239.918 74.5277 239.819C74.2884 239.72 74.174 239.444 74.2721 239.203C74.5035 238.634 74.6972 238.063 74.8475 237.495C74.9141 237.243 75.1706 237.093 75.4205 237.16ZM50.4731 240.653C50.7009 240.529 50.9848 240.615 51.1072 240.845C51.3901 241.375 51.7013 241.899 52.0355 242.411C52.1775 242.629 52.1174 242.922 51.9013 243.065C51.6852 243.208 51.3949 243.147 51.2529 242.93C50.9046 242.395 50.5792 241.848 50.2824 241.292C50.16 241.062 50.2453 240.776 50.4731 240.653ZM74.1335 240.653C74.3613 240.776 74.4467 241.062 74.3242 241.292C74.0275 241.848 73.702 242.395 73.3538 242.93C73.2118 243.147 72.9215 243.208 72.7053 243.065C72.4892 242.922 72.4291 242.629 72.5711 242.411C72.9053 241.899 73.2165 241.375 73.4994 240.845C73.6219 240.615 73.9058 240.529 74.1335 240.653ZM52.4346 243.816C52.639 243.656 52.9331 243.694 53.0914 243.9C53.4644 244.385 53.8545 244.855 54.2565 245.306C54.4293 245.499 54.4135 245.798 54.2212 245.972C54.0288 246.146 53.7328 246.13 53.5599 245.936C53.1432 245.469 52.7384 244.981 52.3512 244.478C52.1928 244.272 52.2301 243.975 52.4346 243.816ZM72.1721 243.816C72.3765 243.975 72.4138 244.272 72.2555 244.478C71.8682 244.981 71.4635 245.469 71.0467 245.936C70.8739 246.13 70.5778 246.146 70.3855 245.972C70.1931 245.798 70.1773 245.499 70.3502 245.306C70.7521 244.855 71.1422 244.385 71.5152 243.9C71.6735 243.694 71.9676 243.656 72.1721 243.816ZM54.8576 246.636C55.0368 246.448 55.3332 246.443 55.5196 246.623C55.9672 247.057 56.4214 247.464 56.8755 247.84C57.0754 248.005 57.1045 248.302 56.9404 248.504C56.7764 248.705 56.4814 248.735 56.2815 248.569C55.8077 248.178 55.3352 247.754 54.8705 247.303C54.6841 247.123 54.6783 246.824 54.8576 246.636ZM69.749 246.636C69.9283 246.824 69.9225 247.123 69.7362 247.303C69.2715 247.754 68.7989 248.178 68.3252 248.569C68.1253 248.735 67.8302 248.705 67.6662 248.504C67.5022 248.302 67.5312 248.005 67.7311 247.84C68.1852 247.464 68.6394 247.057 69.087 246.623C69.2734 246.443 69.5698 246.448 69.749 246.636ZM57.6736 249.059C57.8181 248.842 58.109 248.785 58.3235 248.931C58.8539 249.291 59.3717 249.598 59.866 249.845C60.0976 249.961 60.1922 250.244 60.0773 250.477C59.9623 250.711 59.6814 250.806 59.4497 250.69C58.9133 250.422 58.3598 250.093 57.8005 249.714C57.586 249.568 57.5292 249.275 57.6736 249.059ZM66.933 249.059C67.0775 249.275 67.0207 249.568 66.8062 249.714C66.2468 250.093 65.6933 250.422 65.1569 250.69C64.9253 250.806 64.6443 250.711 64.5294 250.477C64.4144 250.244 64.509 249.961 64.7407 249.845C65.2349 249.598 65.7528 249.291 66.2831 248.931C66.4976 248.785 66.7886 248.842 66.933 249.059ZM60.9313 250.813C60.9889 250.559 61.2399 250.4 61.492 250.458C61.7884 250.526 62.0595 250.559 62.3033 250.559C62.5471 250.559 62.8183 250.526 63.1146 250.458C63.3667 250.4 63.6178 250.559 63.6754 250.813C63.733 251.067 63.5753 251.32 63.3232 251.378C62.9719 251.459 62.6299 251.503 62.3033 251.503C61.9767 251.503 61.6347 251.459 61.2834 251.378C61.0314 251.32 60.8737 251.067 60.9313 250.813Z" fill="white" fill-opacity="0.2"/>
</g>
<defs>
<filter id="filter0_ii_6637_2480" x="215" y="124.227" width="107.766" height="117" filterUnits="userSpaceOnUse" color-interpolation-filters="sRGB">
<feFlood flood-opacity="0" result="BackgroundImageFix"/>
<feBlend mode="normal" in="SourceGraphic" in2="BackgroundImageFix" result="shape"/>
<feColorMatrix in="SourceAlpha" type="matrix" values="0 0 0 0 0 0 0 0 0 0 0 0 0 0 0 0 0 0 127 0" result="hardAlpha"/>
<feOffset dy="10"/>
<feGaussianBlur stdDeviation="7.5"/>
<feComposite in2="hardAlpha" operator="arithmetic" k2="-1" k3="1"/>
<feColorMatrix type="matrix" values="0 0 0 0 0.333333 0 0 0 0 0.298039 0 0 0 0 1 0 0 0 1 0"/>
<feBlend mode="normal" in2="shape" result="effect1_innerShadow_6637_2480"/>
<feColorMatrix in="SourceAlpha" type="matrix" values="0 0 0 0 0 0 0 0 0 0 0 0 0 0 0 0 0 0 127 0" result="hardAlpha"/>
<feOffset dx="-7" dy="-7"/>
<feGaussianBlur stdDeviation="15"/>
<feComposite in2="hardAlpha" operator="arithmetic" k2="-1" k3="1"/>
<feColorMatrix type="matrix" values="0 0 0 0 0.333333 0 0 0 0 0.298039 0 0 0 0 1 0 0 0 1 0"/>
<feBlend mode="normal" in2="effect1_innerShadow_6637_2480" result="effect2_innerShadow_6637_2480"/>
</filter>
<filter id="filter1_ii_6637_2480" x="377" y="-6.77344" width="77" height="87" filterUnits="userSpaceOnUse" color-interpolation-filters="sRGB">
<feFlood flood-opacity="0" result="BackgroundImageFix"/>
<feBlend mode="normal" in="SourceGraphic" in2="BackgroundImageFix" result="shape"/>
<feColorMatrix in="SourceAlpha" type="matrix" values="0 0 0 0 0 0 0 0 0 0 0 0 0 0 0 0 0 0 127 0" result="hardAlpha"/>
<feOffset dy="10"/>
<feGaussianBlur stdDeviation="7.5"/>
<feComposite in2="hardAlpha" operator="arithmetic" k2="-1" k3="1"/>
<feColorMatrix type="matrix" values="0 0 0 0 0.811765 0 0 0 0 0.8 0 0 0 0 1 0 0 0 1 0"/>
<feBlend mode="normal" in2="shape" result="effect1_innerShadow_6637_2480"/>
<feColorMatrix in="SourceAlpha" type="matrix" values="0 0 0 0 0 0 0 0 0 0 0 0 0 0 0 0 0 0 127 0" result="hardAlpha"/>
<feOffset dx="-7" dy="-7"/>
<feGaussianBlur stdDeviation="15"/>
<feComposite in2="hardAlpha" operator="arithmetic" k2="-1" k3="1"/>
<feColorMatrix type="matrix" values="0 0 0 0 0.733333 0 0 0 0 0.811765 0 0 0 0 0.984314 0 0 0 1 0"/>
<feBlend mode="normal" in2="effect1_innerShadow_6637_2480" result="effect2_innerShadow_6637_2480"/>
</filter>
<filter id="filter2_ii_6637_2480" x="20" y="194.227" width="77" height="87" filterUnits="userSpaceOnUse" color-interpolation-filters="sRGB">
<feFlood flood-opacity="0" result="BackgroundImageFix"/>
<feBlend mode="normal" in="SourceGraphic" in2="BackgroundImageFix" result="shape"/>
<feColorMatrix in="SourceAlpha" type="matrix" values="0 0 0 0 0 0 0 0 0 0 0 0 0 0 0 0 0 0 127 0" result="hardAlpha"/>
<feOffset dy="10"/>
<feGaussianBlur stdDeviation="7.5"/>
<feComposite in2="hardAlpha" operator="arithmetic" k2="-1" k3="1"/>
<feColorMatrix type="matrix" values="0 0 0 0 0.811765 0 0 0 0 0.8 0 0 0 0 1 0 0 0 1 0"/>
<feBlend mode="normal" in2="shape" result="effect1_innerShadow_6637_2480"/>
<feColorMatrix in="SourceAlpha" type="matrix" values="0 0 0 0 0 0 0 0 0 0 0 0 0 0 0 0 0 0 127 0" result="hardAlpha"/>
<feOffset dx="-7" dy="-7"/>
<feGaussianBlur stdDeviation="15"/>
<feComposite in2="hardAlpha" operator="arithmetic" k2="-1" k3="1"/>
<feColorMatrix type="matrix" values="0 0 0 0 0.733333 0 0 0 0 0.811765 0 0 0 0 0.984314 0 0 0 1 0"/>
<feBlend mode="normal" in2="effect1_innerShadow_6637_2480" result="effect2_innerShadow_6637_2480"/>
</filter>
<filter id="filter3_b_6637_2480" x="385" y="-0.773438" width="67.7896" height="72" filterUnits="userSpaceOnUse" color-interpolation-filters="sRGB">
<feFlood flood-opacity="0" result="BackgroundImageFix"/>
<feGaussianBlur in="BackgroundImage" stdDeviation="10"/>
<feComposite in2="SourceAlpha" operator="in" result="effect1_backgroundBlur_6637_2480"/>
<feBlend mode="normal" in="SourceGraphic" in2="effect1_backgroundBlur_6637_2480" result="shape"/>
</filter>
<filter id="filter4_biiii_6637_2480" x="43.0049" y="214.236" width="38.5906" height="43.9785" filterUnits="userSpaceOnUse" color-interpolation-filters="sRGB">
<feFlood flood-opacity="0" result="BackgroundImageFix"/>
<feGaussianBlur in="BackgroundImage" stdDeviation="2"/>
<feComposite in2="SourceAlpha" operator="in" result="effect1_backgroundBlur_6637_2480"/>
<feBlend mode="normal" in="SourceGraphic" in2="effect1_backgroundBlur_6637_2480" result="shape"/>
<feColorMatrix in="SourceAlpha" type="matrix" values="0 0 0 0 0 0 0 0 0 0 0 0 0 0 0 0 0 0 127 0" result="hardAlpha"/>
<feOffset dy="1"/>
<feGaussianBlur stdDeviation="2"/>
<feComposite in2="hardAlpha" operator="arithmetic" k2="-1" k3="1"/>
<feColorMatrix type="matrix" values="0 0 0 0 1 0 0 0 0 1 0 0 0 0 1 0 0 0 0.3 0"/>
<feBlend mode="normal" in2="shape" result="effect2_innerShadow_6637_2480"/>
<feColorMatrix in="SourceAlpha" type="matrix" values="0 0 0 0 0 0 0 0 0 0 0 0 0 0 0 0 0 0 127 0" result="hardAlpha"/>
<feOffset dy="-1"/>
<feGaussianBlur stdDeviation="2"/>
<feComposite in2="hardAlpha" operator="arithmetic" k2="-1" k3="1"/>
<feColorMatrix type="matrix" values="0 0 0 0 1 0 0 0 0 1 0 0 0 0 1 0 0 0 0.5 0"/>
<feBlend mode="normal" in2="effect2_innerShadow_6637_2480" result="effect3_innerShadow_6637_2480"/>
<feColorMatrix in="SourceAlpha" type="matrix" values="0 0 0 0 0 0 0 0 0 0 0 0 0 0 0 0 0 0 127 0" result="hardAlpha"/>
<feOffset dy="1"/>
<feGaussianBlur stdDeviation="22"/>
<feComposite in2="hardAlpha" operator="arithmetic" k2="-1" k3="1"/>
<feColorMatrix type="matrix" values="0 0 0 0 1 0 0 0 0 1 0 0 0 0 1 0 0 0 0.45 0"/>
<feBlend mode="normal" in2="effect3_innerShadow_6637_2480" result="effect4_innerShadow_6637_2480"/>
<feColorMatrix in="SourceAlpha" type="matrix" values="0 0 0 0 0 0 0 0 0 0 0 0 0 0 0 0 0 0 127 0" result="hardAlpha"/>
<feOffset dx="1" dy="1"/>
<feGaussianBlur stdDeviation="1"/>
<feComposite in2="hardAlpha" operator="arithmetic" k2="-1" k3="1"/>
<feColorMatrix type="matrix" values="0 0 0 0 1 0 0 0 0 1 0 0 0 0 1 0 0 0 1 0"/>
<feBlend mode="normal" in2="effect4_innerShadow_6637_2480" result="effect5_innerShadow_6637_2480"/>
</filter>
<filter id="filter5_biiii_6637_2480" x="52.2634" y="226.834" width="21.1765" height="17.5664" filterUnits="userSpaceOnUse" color-interpolation-filters="sRGB">
<feFlood flood-opacity="0" result="BackgroundImageFix"/>
<feGaussianBlur in="BackgroundImage" stdDeviation="2"/>
<feComposite in2="SourceAlpha" operator="in" result="effect1_backgroundBlur_6637_2480"/>
<feBlend mode="normal" in="SourceGraphic" in2="effect1_backgroundBlur_6637_2480" result="shape"/>
<feColorMatrix in="SourceAlpha" type="matrix" values="0 0 0 0 0 0 0 0 0 0 0 0 0 0 0 0 0 0 127 0" result="hardAlpha"/>
<feOffset dy="1"/>
<feGaussianBlur stdDeviation="2"/>
<feComposite in2="hardAlpha" operator="arithmetic" k2="-1" k3="1"/>
<feColorMatrix type="matrix" values="0 0 0 0 1 0 0 0 0 1 0 0 0 0 1 0 0 0 0.3 0"/>
<feBlend mode="normal" in2="shape" result="effect2_innerShadow_6637_2480"/>
<feColorMatrix in="SourceAlpha" type="matrix" values="0 0 0 0 0 0 0 0 0 0 0 0 0 0 0 0 0 0 127 0" result="hardAlpha"/>
<feOffset dy="-1"/>
<feGaussianBlur stdDeviation="2"/>
<feComposite in2="hardAlpha" operator="arithmetic" k2="-1" k3="1"/>
<feColorMatrix type="matrix" values="0 0 0 0 1 0 0 0 0 1 0 0 0 0 1 0 0 0 0.5 0"/>
<feBlend mode="normal" in2="effect2_innerShadow_6637_2480" result="effect3_innerShadow_6637_2480"/>
<feColorMatrix in="SourceAlpha" type="matrix" values="0 0 0 0 0 0 0 0 0 0 0 0 0 0 0 0 0 0 127 0" result="hardAlpha"/>
<feOffset dy="1"/>
<feGaussianBlur stdDeviation="22"/>
<feComposite in2="hardAlpha" operator="arithmetic" k2="-1" k3="1"/>
<feColorMatrix type="matrix" values="0 0 0 0 1 0 0 0 0 1 0 0 0 0 1 0 0 0 0.45 0"/>
<feBlend mode="normal" in2="effect3_innerShadow_6637_2480" result="effect4_innerShadow_6637_2480"/>
<feColorMatrix in="SourceAlpha" type="matrix" values="0 0 0 0 0 0 0 0 0 0 0 0 0 0 0 0 0 0 127 0" result="hardAlpha"/>
<feOffset dx="1" dy="1"/>
<feGaussianBlur stdDeviation="1"/>
<feComposite in2="hardAlpha" operator="arithmetic" k2="-1" k3="1"/>
<feColorMatrix type="matrix" values="0 0 0 0 1 0 0 0 0 1 0 0 0 0 1 0 0 0 1 0"/>
<feBlend mode="normal" in2="effect4_innerShadow_6637_2480" result="effect5_innerShadow_6637_2480"/>
</filter>
<filter id="filter6_biii_6637_2480" x="44.4575" y="216.896" width="35.6917" height="38.6074" filterUnits="userSpaceOnUse" color-interpolation-filters="sRGB">
<feFlood flood-opacity="0" result="BackgroundImageFix"/>
<feGaussianBlur in="BackgroundImage" stdDeviation="2"/>
<feComposite in2="SourceAlpha" operator="in" result="effect1_backgroundBlur_6637_2480"/>
<feBlend mode="normal" in="SourceGraphic" in2="effect1_backgroundBlur_6637_2480" result="shape"/>
<feColorMatrix in="SourceAlpha" type="matrix" values="0 0 0 0 0 0 0 0 0 0 0 0 0 0 0 0 0 0 127 0" result="hardAlpha"/>
<feOffset dy="1"/>
<feGaussianBlur stdDeviation="2"/>
<feComposite in2="hardAlpha" operator="arithmetic" k2="-1" k3="1"/>
<feColorMatrix type="matrix" values="0 0 0 0 1 0 0 0 0 1 0 0 0 0 1 0 0 0 0.3 0"/>
<feBlend mode="normal" in2="shape" result="effect2_innerShadow_6637_2480"/>
<feColorMatrix in="SourceAlpha" type="matrix" values="0 0 0 0 0 0 0 0 0 0 0 0 0 0 0 0 0 0 127 0" result="hardAlpha"/>
<feOffset dy="-1"/>
<feGaussianBlur stdDeviation="2"/>
<feComposite in2="hardAlpha" operator="arithmetic" k2="-1" k3="1"/>
<feColorMatrix type="matrix" values="0 0 0 0 1 0 0 0 0 1 0 0 0 0 1 0 0 0 0.5 0"/>
<feBlend mode="normal" in2="effect2_innerShadow_6637_2480" result="effect3_innerShadow_6637_2480"/>
<feColorMatrix in="SourceAlpha" type="matrix" values="0 0 0 0 0 0 0 0 0 0 0 0 0 0 0 0 0 0 127 0" result="hardAlpha"/>
<feOffset dy="1"/>
<feGaussianBlur stdDeviation="0.5"/>
<feComposite in2="hardAlpha" operator="arithmetic" k2="-1" k3="1"/>
<feColorMatrix type="matrix" values="0 0 0 0 1 0 0 0 0 1 0 0 0 0 1 0 0 0 0.95 0"/>
<feBlend mode="normal" in2="effect3_innerShadow_6637_2480" result="effect4_innerShadow_6637_2480"/>
</filter>
<linearGradient id="paint0_linear_6637_2480" x1="229.647" y1="113.369" x2="320.403" y2="121.557" gradientUnits="userSpaceOnUse">
<stop stop-color="#CFCCFF"/>
<stop offset="1" stop-color="#554CFF"/>
</linearGradient>
<linearGradient id="paint1_linear_6637_2480" x1="418.493" y1="-30.7091" x2="352.051" y2="35.7333" gradientUnits="userSpaceOnUse">
<stop stop-color="#DADAFF"/>
<stop offset="1" stop-color="#BBCFFB"/>
</linearGradient>
<linearGradient id="paint2_linear_6637_2480" x1="61.4933" y1="170.291" x2="-4.94911" y2="236.733" gradientUnits="userSpaceOnUse">
<stop stop-color="#DADAFF"/>
<stop offset="1" stop-color="#BBCFFB"/>
</linearGradient>
<linearGradient id="paint3_linear_6637_2480" x1="293.596" y1="199.098" x2="251.411" y2="163.879" gradientUnits="userSpaceOnUse">
<stop stop-color="white" stop-opacity="0"/>
<stop offset="0.979167" stop-color="white"/>
</linearGradient>
<linearGradient id="paint4_linear_6637_2480" x1="257.5" y1="161.227" x2="292" y2="201.227" gradientUnits="userSpaceOnUse">
<stop stop-color="white" stop-opacity="0.8"/>
<stop offset="1" stop-color="white" stop-opacity="0.4"/>
</linearGradient>
<linearGradient id="paint5_linear_6637_2480" x1="433" y1="49.7266" x2="405" y2="17.2266" gradientUnits="userSpaceOnUse">
<stop stop-color="white" stop-opacity="0.3"/>
<stop offset="1" stop-color="white"/>
</linearGradient>
<linearGradient id="paint6_linear_6637_2480" x1="349.748" y1="62.0516" x2="355.106" y2="2.64388" gradientUnits="userSpaceOnUse">
<stop stop-color="white"/>
<stop offset="1" stop-color="white" stop-opacity="0"/>
</linearGradient>
<linearGradient id="paint7_linear_6637_2480" x1="430.455" y1="47.5429" x2="430.455" y2="21.5437" gradientUnits="userSpaceOnUse">
<stop stop-color="white"/>
<stop offset="1" stop-color="white" stop-opacity="0"/>
</linearGradient>
<linearGradient id="paint8_linear_6637_2480" x1="421.882" y1="51.0415" x2="435.455" y2="20.9055" gradientUnits="userSpaceOnUse">
<stop stop-color="white"/>
<stop offset="1" stop-color="white" stop-opacity="0"/>
</linearGradient>
<linearGradient id="paint9_linear_6637_2480" x1="427.383" y1="50.5487" x2="430.155" y2="27.0886" gradientUnits="userSpaceOnUse">
<stop stop-color="white"/>
<stop offset="1" stop-color="white" stop-opacity="0"/>
</linearGradient>
<linearGradient id="paint10_linear_6637_2480" x1="423.859" y1="51.5916" x2="434.886" y2="31.0019" gradientUnits="userSpaceOnUse">
<stop stop-color="white"/>
<stop offset="1" stop-color="white" stop-opacity="0"/>
</linearGradient>
<linearGradient id="paint11_linear_6637_2480" x1="427.383" y1="56.4432" x2="430.155" y2="32.9831" gradientUnits="userSpaceOnUse">
<stop stop-color="white"/>
<stop offset="1" stop-color="white" stop-opacity="0"/>
</linearGradient>
<linearGradient id="paint12_linear_6637_2480" x1="423.859" y1="57.4862" x2="434.886" y2="36.8964" gradientUnits="userSpaceOnUse">
<stop stop-color="white"/>
<stop offset="1" stop-color="white" stop-opacity="0"/>
</linearGradient>
</defs>
</svg>
