<svg width="24" height="24" viewBox="0 0 24 24" fill="none" xmlns="http://www.w3.org/2000/svg">
<path d="M16.4 2H2.8C2.3584 2 2 2.3584 2 2.8V16.4C2 16.8416 2.3584 17.2 2.8 17.2H16.4C16.8416 17.2 17.2 16.8416 17.2 16.4V2.8C17.2 2.3584 16.8416 2 16.4 2ZM15.6 15.6H3.6V3.6H15.6V15.6Z" fill="#004DFF"/>
<path d="M20.4 18.3999V20.3999H18.4V21.9999H21.2C21.6416 21.9999 22 21.6415 22 21.1999V18.3999H20.4Z" fill="#004DFF"/>
<path d="M16.552 20.4001H12.248V22.0001H16.552V20.4001Z" fill="#004DFF"/>
<path d="M8.40005 20.3999V18.3999H6.80005V21.1999C6.80005 21.6415 7.15845 21.9999 7.60005 21.9999H10.4V20.3999H8.40005Z" fill="#004DFF"/>
<path d="M21.2 6.80005H18.4V8.40005H20.4V10.4H22V7.60005C22 7.15845 21.6416 6.80005 21.2 6.80005Z" fill="#004DFF"/>
<path d="M22 12.2478H20.4V16.5518H22V12.2478Z" fill="#004DFF"/>
</svg>
