<svg width="20" height="20" viewBox="0 0 20 20" fill="none" xmlns="http://www.w3.org/2000/svg">
<path d="M10 15C13.5625 15 16.5 12.0938 16.5 8.5C16.5 4.9375 13.5625 2 10 2C6.40625 2 3.5 4.9375 3.5 8.5C3.5 12.0938 6.40625 15 10 15ZM9.28125 5.0625V4.53125C9.28125 4.25 9.53125 4 9.8125 4H10.1562C10.4375 4 10.6875 4.25 10.6875 4.53125V5.0625C11.1562 5.09375 11.625 5.25 12.0312 5.53125C12.1875 5.6875 12.2188 5.9375 12.0625 6.09375L11.5625 6.5625C11.4375 6.6875 11.25 6.6875 11.125 6.59375C10.9375 6.5 10.75 6.4375 10.5625 6.4375H9.34375C9.0625 6.4375 8.84375 6.6875 8.84375 7C8.84375 7.25 9 7.5 9.21875 7.5625L11.1562 8.15625C11.9688 8.375 12.5312 9.15625 12.5312 10.0312C12.5312 11.0938 11.6875 11.9375 10.6875 11.9688V12.5C10.6875 12.7813 10.4375 13 10.1562 13H9.8125C9.53125 13 9.28125 12.7813 9.28125 12.5V11.9688C8.8125 11.9375 8.34375 11.7812 7.9375 11.4688C7.78125 11.3438 7.75 11.0938 7.90625 10.9375L8.40625 10.4688C8.53125 10.3438 8.71875 10.3438 8.84375 10.4375C9.03125 10.5312 9.21875 10.5938 9.40625 10.5938H10.625C10.9062 10.5938 11.125 10.3438 11.125 10.0312C11.125 9.75 10.9688 9.53125 10.75 9.46875L8.8125 8.875C8 8.65625 7.4375 7.875 7.4375 7C7.4375 5.9375 8.28125 5.09375 9.28125 5.0625ZM17 13H15.9688C15.3438 13.8125 14.5625 14.5 13.6875 15H15.6875C15.8438 15 15.9688 15.125 15.9688 15.25V15.75C15.9688 15.9063 15.8438 16 15.6875 16H4.28125C4.125 16 4 15.9063 4 15.75V15.25C4 15.125 4.125 15 4.28125 15H6.28125C5.40625 14.5 4.625 13.8125 4 13H3C2.4375 13 2 13.4688 2 14V17C2 17.5625 2.4375 18 3 18H17C17.5313 18 18 17.5625 18 17V14C18 13.4688 17.5313 13 17 13Z" fill="#554CFF"/>
</svg>
