<svg width="17" height="20" viewBox="0 0 17 20" fill="none" xmlns="http://www.w3.org/2000/svg">
<g filter="url(#filter0_b_1510_4726)">
<path d="M0 1.89189C0 0.847029 0.847029 0 1.89189 0H14.3243C15.3692 0 16.2162 0.847029 16.2162 1.89189V18.1081C16.2162 19.153 15.3692 20 14.3243 20H1.89189C0.847029 20 0 19.153 0 18.1081V1.89189Z" fill="#0084F4"/>
</g>
<path d="M2.43237 14.4898C2.43237 14.1912 2.67438 13.9492 2.97291 13.9492H11.3513C11.6498 13.9492 11.8918 14.1912 11.8918 14.4898C11.8918 14.7883 11.6498 15.0303 11.3513 15.0303H2.97291C2.67438 15.0303 2.43237 14.7883 2.43237 14.4898Z" fill="white"/>
<path d="M2.43237 16.9222C2.43237 16.6237 2.67438 16.3817 2.97291 16.3817H9.99994C10.2985 16.3817 10.5405 16.6237 10.5405 16.9222C10.5405 17.2207 10.2985 17.4627 9.99994 17.4627H2.97291C2.67438 17.4627 2.43237 17.2207 2.43237 16.9222Z" fill="white"/>
<path d="M16.2162 8.00342H14.1665C14.0467 8.00342 13.932 8.05089 13.8473 8.13493L12.4951 9.47716C12.4196 9.45691 12.3401 9.44611 12.2581 9.44611C11.7573 9.44611 11.3513 9.84918 11.3513 10.3464C11.3513 10.8436 11.7573 11.2467 12.2581 11.2467C12.759 11.2467 13.1649 10.8436 13.1649 10.3464C13.1649 10.265 13.1541 10.1862 13.1337 10.1113L14.3538 8.90016H16.2162V8.00342Z" fill="white"/>
<path d="M10.9727 3.43368C10.8905 3.45565 10.8042 3.46737 10.715 3.46737C10.1709 3.46737 9.72974 3.03068 9.72974 2.49199C9.72974 1.9533 10.1709 1.5166 10.715 1.5166C11.2592 1.5166 11.7003 1.9533 11.7003 2.49199C11.7003 2.58004 11.6885 2.66537 11.6664 2.74651L12.992 4.05856H16.2162V5.03012H12.7885C12.6583 5.03012 12.5337 4.97901 12.4417 4.88796L10.9727 3.43368Z" fill="white"/>
<path d="M16.2162 6.11133H11.3212C11.1932 6.11133 11.0706 6.16366 10.9801 6.25723L10.1415 7.12136C10.0607 7.09883 9.97568 7.08681 9.88792 7.08681C9.35277 7.08681 8.91895 7.53396 8.91895 8.08555C8.91895 8.63715 9.35277 9.0843 9.88792 9.0843C10.4231 9.0843 10.8569 8.63715 10.8569 8.08555C10.8569 7.99551 10.8453 7.90825 10.8237 7.82526L11.5213 7.10615H16.2162V6.11133Z" fill="white"/>
<defs>
<filter id="filter0_b_1510_4726" x="-12.31" y="-12.31" width="40.8363" height="44.62" filterUnits="userSpaceOnUse" color-interpolation-filters="sRGB">
<feFlood flood-opacity="0" result="BackgroundImageFix"/>
<feGaussianBlur in="BackgroundImageFix" stdDeviation="6.155"/>
<feComposite in2="SourceAlpha" operator="in" result="effect1_backgroundBlur_1510_4726"/>
<feBlend mode="normal" in="SourceGraphic" in2="effect1_backgroundBlur_1510_4726" result="shape"/>
</filter>
</defs>
</svg>
