<svg width="20" height="20" viewBox="0 0 20 20" fill="none" xmlns="http://www.w3.org/2000/svg">
<path d="M9.46875 6.53125L11.1562 6.96875C11.2812 7 11.3438 7.09375 11.3438 7.21875C11.3438 7.375 11.2188 7.5 11.0625 7.5H9.96875C9.84375 7.5 9.71875 7.46875 9.625 7.40625C9.4375 7.34375 9.25 7.375 9.125 7.46875L8.53125 8.03125C8.5 8.0625 8.5 8.09375 8.46875 8.125C8.4375 8.15625 8.40625 8.21875 8.40625 8.28125C8.40625 8.4375 8.5 8.53125 8.59375 8.59375C8.90625 8.78125 9.28125 8.9375 9.65625 8.96875V9.5C9.65625 9.78125 9.90625 10 10.2188 10H10.75C11.0625 10 11.3125 9.78125 11.3125 9.5V8.96875C12.3125 8.84375 13.0938 8 12.9688 7C12.875 6.28125 12.2813 5.71875 11.5 5.5L9.8125 5.0625C9.6875 5.03125 9.625 4.9375 9.625 4.8125C9.625 4.65625 9.75 4.53125 9.90625 4.53125H11C11.125 4.53125 11.25 4.5625 11.375 4.625C11.5312 4.6875 11.7188 4.65625 11.8438 4.5625L12.4375 4C12.4688 3.96875 12.4688 3.9375 12.5 3.90625C12.5313 3.875 12.5625 3.8125 12.5625 3.75C12.5625 3.59375 12.4688 3.5 12.375 3.4375C12.0625 3.25 11.6875 3.125 11.3125 3.0625V2.5C11.3125 2.25 11.0625 2 10.75 2H10.2188C9.90625 2 9.6875 2.25 9.6875 2.5V3.0625C8.65625 3.1875 7.875 4.03125 8 5.03125C8.09375 5.75 8.71875 6.3125 9.46875 6.53125ZM18.6562 12.2812C18.2812 11.9375 17.7188 11.9688 17.3125 12.2812L14.4375 14.5625C14.0938 14.8438 13.6563 15 13.1875 15H9.5C9.21875 15 9 14.7813 9 14.5C9 14.25 9.21875 14 9.5 14H11.9375C12.4375 14 12.9063 13.6875 12.9688 13.1875C12.9688 13.125 13 13.0625 13 13.0313C13 13 13 13 13 13C12.9688 12.4688 12.5313 12 12 12H7C6.09375 12.0312 5.3125 12.3125 4.65625 12.8438L3.21875 14H1.5C1.21875 14 1 14.25 1 14.5V17.5C1 17.7813 1.21875 18 1.5 18H12.625C13.0938 18 13.5313 17.8438 13.875 17.5625L18.625 13.7813C18.8438 13.625 19 13.3438 19 13C19 12.7188 18.8438 12.4375 18.6562 12.2812Z" fill="#0084F4"/>
</svg>
