<svg width="32" height="32" viewBox="0 0 32 32" fill="none" xmlns="http://www.w3.org/2000/svg">
<rect width="32" height="32" rx="6" fill="#FBBCD5"/>
<path d="M24.5813 16.3781C24.5813 19.2642 23.1587 21.8173 20.9772 23.3739C20.7681 23.1268 20.6358 22.8059 20.6358 22.4562C20.6358 22.0664 20.7928 21.7134 21.0466 21.4569C21.052 21.4516 21.057 21.4466 21.062 21.4419C22.3564 20.1454 23.1567 18.3549 23.1567 16.3771C23.1567 15.567 23.0224 14.7884 22.7749 14.0619C22.7749 14.0619 22.7749 14.0619 22.7749 14.0616C22.6005 13.5498 22.3694 13.0637 22.0898 12.6113C21.9094 12.3192 21.7084 12.0413 21.4892 11.7792C21.4348 11.7141 21.379 11.6495 21.3219 11.5863C21.067 11.341 20.7206 11.1898 20.3385 11.1898C20.1428 11.1898 19.9561 11.2296 19.7864 11.3015C19.3571 11.478 18.9132 11.6258 18.4566 11.7418C18.1697 11.8147 17.8781 11.8755 17.5818 11.9233C17.062 12.0069 16.5286 12.0504 15.9855 12.0504C15.445 12.0504 14.9146 12.0072 14.3979 11.9247C14.1056 11.8779 13.8176 11.8187 13.5347 11.7471H13.5344C13.0858 11.6342 12.6492 11.4904 12.227 11.3189C12.2046 11.3102 12.1826 11.3008 12.1605 11.2915C12.0032 11.231 11.8325 11.1982 11.6542 11.1982C11.238 11.1982 10.8635 11.3777 10.604 11.6632C10.5889 11.68 10.5739 11.6973 10.5596 11.7147C10.3187 11.9959 10.0996 12.2951 9.90419 12.6113C9.62194 13.068 9.38912 13.5585 9.21443 14.0756C8.96959 14.7978 8.83698 15.572 8.83698 16.3771C8.83698 18.3549 9.6373 20.1454 10.9317 21.4419C10.937 21.4466 10.942 21.4519 10.947 21.4569C11.2012 21.7134 11.3582 22.0664 11.3582 22.4562C11.3582 22.8056 11.2323 23.1255 11.0228 23.3726C8.84132 21.816 7.4187 19.2625 7.4187 16.3767C7.4187 14.3494 8.12049 12.4866 9.29459 11.0177C9.43388 10.8435 9.492 10.7315 9.7315 10.5125C10.2359 10.0512 10.9073 9.77002 11.6441 9.77002C11.9768 9.77002 12.2962 9.82719 12.5928 9.9325C12.5931 9.93283 12.5934 9.93283 12.5938 9.93283C12.6893 9.96492 12.7658 10.0024 12.8476 10.0375C12.848 10.0378 12.8483 10.0378 12.8486 10.0378C13.8203 10.4203 14.8785 10.6299 15.9855 10.6299C17.1329 10.6299 18.2278 10.4045 19.2282 9.99535C19.2396 9.99067 19.2509 9.98599 19.2623 9.98131C19.593 9.84624 19.955 9.77136 20.3348 9.77136C21.1552 9.77136 21.8937 10.1197 22.4118 10.6763C22.4158 10.681 22.4198 10.6857 22.4238 10.6897C22.4639 10.7318 22.494 10.7686 22.5291 10.8111C22.5304 10.8127 22.5314 10.8141 22.5327 10.8154C23.8067 12.3145 24.5813 14.2568 24.5813 16.3781Z" fill="url(#paint0_radial_53_1125)"/>
<path d="M20.0455 19.6493C20.0799 19.4991 20.0582 19.3576 19.9476 19.2388L19.9443 19.2351C19.9373 19.2278 19.9302 19.2207 19.9226 19.2134L19.9159 19.2074C19.9089 19.201 19.9015 19.1946 19.8938 19.1886L19.8865 19.1826C19.8765 19.1746 19.8658 19.1665 19.8544 19.1592C19.8417 19.1903 19.829 19.2201 19.8157 19.2505C19.987 19.3589 20.0515 19.4977 20.0455 19.6493Z" fill="#FF0366"/>
<path d="M12.1947 15.9491C12.0307 15.8203 11.997 15.6521 12.0371 15.4761C12.0321 15.6186 12.0865 15.7534 12.2335 15.8581C12.2205 15.8883 12.2074 15.9184 12.1947 15.9488" fill="#FD418B"/>
<path d="M18.7979 20.2264C18.4044 20.2264 17.9184 20.1558 17.3596 19.9295C15.946 19.3571 15.1112 16.5071 13.1692 16.5071C12.8472 16.5081 12.591 16.5867 12.591 16.5867C12.248 16.679 12.0288 16.8752 11.8962 17.1009C11.9013 17.0571 11.9069 17.0133 11.9129 16.9695C11.9627 16.6218 12.0559 16.2818 12.1909 15.9572C12.2035 15.9271 12.2162 15.897 12.2296 15.8666C12.3468 15.6028 12.4915 15.3521 12.6612 15.1187C12.7022 15.0616 12.7427 15.0071 12.7868 14.9526C12.9484 14.9262 13.1144 14.9118 13.2781 14.9121C13.6716 14.9121 14.1583 14.9843 14.7174 15.2107C16.131 15.783 16.9658 18.633 18.9078 18.633C19.1025 18.632 19.2963 18.6053 19.4843 18.5535C19.7923 18.4712 19.9997 18.3051 20.1363 18.1082C20.134 18.1232 20.132 18.1382 20.13 18.1533C20.0805 18.4986 19.9884 18.836 19.8547 19.1582C19.8421 19.1893 19.829 19.2197 19.8157 19.2505C19.6941 19.5243 19.5434 19.7844 19.3661 20.0258C19.3233 20.0836 19.2796 20.1404 19.2341 20.1963C19.0902 20.2167 18.9445 20.2267 18.7989 20.2264H18.7979Z" fill="url(#paint1_radial_53_1125)"/>
<path d="M19.5998 17.6361C17.6587 17.6361 16.8223 14.7844 15.4084 14.2128C14.8499 13.9864 14.3656 13.9156 13.9731 13.9156C13.7944 13.9152 13.611 13.9309 13.4353 13.9624C14.1591 13.5044 15.0036 13.258 15.86 13.2583C16.0758 13.2583 16.2912 13.2737 16.505 13.3038L16.5184 13.3058C18.5843 13.6036 20.1239 15.2321 20.3567 17.1718C20.3567 17.1718 20.3567 17.1738 20.3567 17.1748C20.3684 17.2791 20.3684 17.3844 20.3567 17.489C20.2985 17.5144 20.2384 17.5362 20.1773 17.5529C19.9896 17.6047 19.7955 17.6351 19.6008 17.6361" fill="url(#paint2_radial_53_1125)"/>
<path d="M12.4778 17.5044C14.4188 17.5044 15.2549 20.3561 16.6685 20.9278C17.227 21.1541 17.7127 21.2253 18.1051 21.2253C18.2835 21.2253 18.4622 21.2103 18.6419 21.1785C17.9181 21.6365 17.075 21.8819 16.2186 21.8816C16.0028 21.8816 15.7873 21.8662 15.5736 21.8361L15.5602 21.8341C13.4942 21.5362 11.9547 19.9078 11.7219 17.9681C11.7219 17.9681 11.7219 17.9661 11.7219 17.9651C11.7102 17.8608 11.7102 17.7555 11.7219 17.6508C11.78 17.6254 11.8401 17.604 11.9016 17.5873C12.0893 17.5355 12.2824 17.5057 12.4771 17.5047H12.4778V17.5044Z" fill="url(#paint3_radial_53_1125)"/>
<path d="M18.9072 18.6336C16.9662 18.6336 16.1308 15.7826 14.7169 15.2112C14.1577 14.9849 13.671 14.9127 13.2775 14.9127C13.1139 14.9123 12.9502 14.9254 12.7889 14.9518C12.4715 15.0039 12.2684 15.0909 12.2026 15.1226L12.2053 15.1189C12.2417 15.0685 12.2798 15.023 12.3182 14.9742C12.4872 14.9077 12.8243 14.8047 13.2936 14.8047C13.6867 14.8047 14.1737 14.8769 14.7326 15.1032C16.1462 15.6756 16.9809 18.5256 18.9229 18.5256C19.1177 18.5246 19.3114 18.4978 19.4991 18.446C20.0589 18.2959 20.2878 17.8683 20.3562 17.4882C20.3128 17.8924 20.0977 18.3899 19.4838 18.5543C19.296 18.6062 19.1023 18.6329 18.9072 18.6339" fill="url(#paint4_radial_53_1125)"/>
<path d="M18.7837 20.3371C18.3903 20.3371 17.9032 20.2629 17.3441 20.0362C15.9305 19.4642 15.0944 16.6138 13.1537 16.6138C12.959 16.6148 12.7656 16.6416 12.5779 16.6931C12.018 16.8432 11.7919 17.2701 11.7224 17.6516C11.7658 17.2477 11.9799 16.7519 12.5922 16.5871C12.5922 16.5871 12.8351 16.5102 13.1694 16.5059C15.1104 16.5059 15.9458 19.3569 17.3598 19.9282C17.9186 20.1546 18.4056 20.2268 18.7991 20.2268C19.3973 20.2268 19.7805 20.0599 19.8763 20.0135C19.8393 20.0656 19.8082 20.1205 19.7681 20.1706C19.5988 20.2371 19.2544 20.3404 18.7837 20.3371Z" fill="url(#paint5_radial_53_1125)"/>
<path d="M12.3181 14.975C12.4871 14.9084 12.8248 14.8071 13.2945 14.8071C13.6876 14.8071 14.1746 14.8794 14.7335 15.1057C16.1471 15.678 16.9831 18.5281 18.9238 18.5281C19.1186 18.5271 19.312 18.5003 19.4997 18.4485C20.0599 18.2984 20.2877 17.8695 20.3561 17.489C20.298 17.5148 20.2369 17.5365 20.1754 17.5532C19.9877 17.605 19.795 17.6351 19.6002 17.6361C17.6592 17.6361 16.8238 14.7854 15.4099 14.2137C14.8514 13.9874 14.3657 13.9155 13.9729 13.9155C13.7945 13.9152 13.6161 13.9296 13.4404 13.9613L13.4344 13.9627C13.042 14.2121 12.6912 14.522 12.3949 14.881L12.3181 14.975Z" fill="url(#paint6_radial_53_1125)"/>
<path d="M19.7678 20.17C19.5988 20.2366 19.2524 20.3342 18.7827 20.3342C18.3896 20.3342 17.9026 20.262 17.3438 20.0356C15.9302 19.4633 15.0941 16.6133 13.1534 16.6133C12.9586 16.6143 12.7652 16.641 12.5775 16.6928C12.0174 16.843 11.7909 17.2709 11.7224 17.6513C11.7805 17.6256 11.84 17.6049 11.9015 17.5878C12.0892 17.536 12.2822 17.5059 12.477 17.5049C14.418 17.5049 15.2534 20.3556 16.6673 20.9273C17.2258 21.1536 17.7115 21.2255 18.1043 21.2255C18.2827 21.2258 18.4611 21.2111 18.6364 21.1797L18.6428 21.1787C19.0353 20.9293 19.398 20.6224 19.6943 20.2636L19.7678 20.17Z" fill="url(#paint7_radial_53_1125)"/>
<path fill-rule="evenodd" clip-rule="evenodd" d="M19.8151 19.2517L19.8157 19.25C19.9861 19.3576 20.0492 19.4907 20.0456 19.6418C20.0452 19.6448 20.0452 19.6478 20.0452 19.6485C20.0319 19.7231 19.9898 19.8233 19.947 19.8982C19.9467 19.8992 19.8999 19.9761 19.8752 20.0132C19.8054 20.0473 19.5823 20.1453 19.2339 20.1961C19.2793 20.1403 19.3234 20.0834 19.3658 20.0256C19.3665 20.0256 19.4323 19.9337 19.4634 19.8869C19.5993 19.6856 19.7165 19.4737 19.8151 19.2517Z" fill="url(#paint8_linear_53_1125)"/>
<path d="M12.7869 14.9531C12.5781 14.9872 12.4195 15.036 12.3169 15.0748C12.3099 15.0775 12.3032 15.0802 12.2969 15.0825C12.2538 15.0996 12.2227 15.1139 12.203 15.1236C12.1796 15.1587 12.1579 15.1938 12.1379 15.2299L12.1362 15.2326L12.1345 15.2356C12.0914 15.3112 12.059 15.3924 12.0377 15.477V15.4813C12.0327 15.6234 12.0878 15.7541 12.2344 15.8588C12.3507 15.5973 12.495 15.3496 12.6626 15.1176C12.7041 15.0611 12.7431 15.008 12.7869 14.9531Z" fill="url(#paint9_linear_53_1125)"/>
<path d="M25.9999 16.3782C25.9999 19.131 24.8893 21.6243 23.0912 23.4336C23.0902 23.4346 23.0889 23.4359 23.0879 23.4373C23.0695 23.456 23.0508 23.4744 23.0324 23.4921C22.7786 23.7311 22.4365 23.8776 22.0607 23.8776C21.6265 23.8776 21.2377 23.6823 20.9772 23.3744C23.1587 21.8178 24.5813 19.2644 24.5813 16.3786C24.5813 14.2573 23.8047 12.3157 22.5314 10.8176C22.5301 10.8159 22.5291 10.8146 22.5277 10.8132C22.494 10.7718 22.4629 10.7337 22.4265 10.6942C22.4228 10.6899 22.4185 10.6855 22.4145 10.6809C21.8964 10.1242 21.1615 9.77387 20.3412 9.77387C19.9617 9.77387 19.5996 9.84842 19.2686 9.98382C19.2573 9.9885 19.2456 9.99318 19.2345 9.99786C18.2341 10.4071 17.1392 10.6324 15.9918 10.6324C14.8849 10.6324 13.8253 10.4238 12.854 10.0413C12.8536 10.041 12.8533 10.041 12.853 10.041C12.7407 9.99318 12.686 9.9671 12.5991 9.93601C12.5988 9.93567 12.5984 9.93568 12.5981 9.93568C12.3015 9.83037 11.9828 9.77186 11.6501 9.77186C10.9133 9.77186 10.2355 10.0524 9.73117 10.5137C9.56649 10.6641 9.36841 10.9256 9.2966 11.0158C8.12249 12.4848 7.42471 14.3516 7.42471 16.3789C7.42471 19.2647 8.84099 21.8172 11.0225 23.3737C10.7623 23.6816 10.3798 23.8782 9.94528 23.8782C9.56749 23.8782 9.22411 23.7305 8.96992 23.4894C8.96892 23.4884 8.96758 23.4871 8.96658 23.4864C8.95589 23.4757 8.94487 23.465 8.93418 23.4543C8.92883 23.4493 8.92349 23.4436 8.91848 23.4383C7.11874 21.629 6.0061 19.134 6.0061 16.3796C6.0061 13.5727 7.16083 11.0359 9.02103 9.21891C9.18904 9.05476 9.36273 8.89629 9.54177 8.74485C9.54211 8.74452 9.54211 8.74452 9.54277 8.74418C9.68707 8.62149 9.83538 8.50281 9.9867 8.38847L9.98703 8.38814C10.0311 8.36006 10.0762 8.33398 10.122 8.30857C10.4811 8.112 10.8932 8 11.3315 8C11.6835 8 12.0186 8.07221 12.3229 8.20226C12.4602 8.2845 12.6008 8.3624 12.7437 8.43528C12.7498 8.43828 12.7558 8.44129 12.7621 8.44464C12.7625 8.44464 12.7625 8.44464 12.7625 8.44497C13.7328 8.93675 14.8301 9.21356 15.9915 9.21356H16.0028C17.1719 9.21189 18.2759 8.92973 19.2499 8.42993C19.2753 8.41722 19.3004 8.40385 19.3254 8.39081C19.4139 8.34434 19.5011 8.29587 19.5876 8.24572C19.9166 8.08826 20.2851 8 20.6745 8C21.1071 8 21.5143 8.10899 21.87 8.30088C21.9208 8.3283 21.9702 8.35738 22.019 8.3878C22.1706 8.50214 22.3186 8.62049 22.4629 8.74318C22.6386 8.89228 22.8093 9.0474 22.974 9.20821C24.8405 11.0242 25.9999 13.5657 25.9999 16.3782Z" fill="url(#paint10_linear_53_1125)"/>
<path d="M11.0228 23.3728C10.7626 23.6807 10.3737 23.8763 9.93918 23.8763C9.56139 23.8763 9.21801 23.7285 8.96382 23.4875C8.96282 23.4865 8.96148 23.4852 8.96048 23.4845C8.94979 23.4738 8.93877 23.4631 8.92808 23.4524C8.92273 23.447 8.91739 23.4417 8.91238 23.4363C7.11264 21.627 6 19.1321 6 16.3777C6 13.6176 7.11665 11.1186 8.92273 9.30859L9.94786 10.3346C9.87304 10.3908 9.80056 10.4503 9.73141 10.5135C9.72006 10.5242 9.70903 10.5342 9.69801 10.5442C9.53467 10.6977 9.46219 10.7976 9.37668 10.9113C9.37601 10.9123 9.37501 10.9136 9.37434 10.9143C9.34762 10.9484 9.32089 10.9832 9.29417 11.0183C8.12007 12.4872 7.41828 14.35 7.41828 16.3773C7.41861 19.2631 8.84123 21.8166 11.0228 23.3728Z" fill="url(#paint11_radial_53_1125)"/>
<path d="M11.3577 22.4562C11.3577 22.8056 11.2318 23.1255 11.0224 23.3725C8.84084 21.816 7.41821 19.2625 7.41821 16.3767C7.41821 14.3494 8.12001 12.4866 9.29411 11.0177C9.32351 10.9805 9.34956 10.9464 9.37428 10.9137C9.37495 10.9127 9.37595 10.9117 9.37662 10.9107C9.47816 10.78 9.58037 10.6563 9.69795 10.5436C9.70864 10.5336 9.71966 10.5232 9.73135 10.5128C9.8005 10.4497 9.87265 10.3901 9.94781 10.334L10.981 11.368C10.839 11.4446 10.7117 11.5449 10.6038 11.6635C10.5888 11.6803 10.5738 11.6976 10.5594 11.715C10.3186 11.9962 10.0995 12.2954 9.90405 12.6117C9.62179 13.0683 9.38898 13.5588 9.21428 14.076C8.96944 14.7981 8.83683 15.5723 8.83683 16.3774C8.83683 18.3552 9.63716 20.1458 10.9315 21.4422C10.9365 21.4469 10.9419 21.4522 10.9469 21.4573C11.2011 21.7133 11.3577 22.0664 11.3577 22.4562Z" fill="url(#paint12_radial_53_1125)"/>
<defs>
<radialGradient id="paint0_radial_53_1125" cx="0" cy="0" r="1" gradientUnits="userSpaceOnUse" gradientTransform="translate(19.3541 10.3787) scale(27.3871 27.4106)">
<stop stop-color="#FD418B"/>
<stop offset="0.9025" stop-color="#FF0366"/>
</radialGradient>
<radialGradient id="paint1_radial_53_1125" cx="0" cy="0" r="1" gradientUnits="userSpaceOnUse" gradientTransform="translate(17.2893 18.2834) rotate(6.63288) scale(3.50301 2.89893)">
<stop stop-color="#FD418B"/>
<stop offset="1" stop-color="#FF0366"/>
</radialGradient>
<radialGradient id="paint2_radial_53_1125" cx="0" cy="0" r="1" gradientUnits="userSpaceOnUse" gradientTransform="translate(18.5496 16.6772) rotate(7.03124) scale(5.84498 4.72577)">
<stop stop-color="#FBBCD5"/>
<stop offset="0.6496" stop-color="#FD418B"/>
<stop offset="1" stop-color="#FF0366"/>
</radialGradient>
<radialGradient id="paint3_radial_53_1125" cx="0" cy="0" r="1" gradientUnits="userSpaceOnUse" gradientTransform="translate(13.9835 18.1911) rotate(-176.102) scale(6.28178 5.07903)">
<stop stop-color="#FBBCD5"/>
<stop offset="0.6496" stop-color="#FD418B"/>
<stop offset="1" stop-color="#FF0366"/>
</radialGradient>
<radialGradient id="paint4_radial_53_1125" cx="0" cy="0" r="1" gradientUnits="userSpaceOnUse" gradientTransform="translate(17.7216 18.1863) rotate(-149.7) scale(6.55092 4.67839)">
<stop stop-color="#FBBCD5"/>
<stop offset="1" stop-color="#FF0366"/>
</radialGradient>
<radialGradient id="paint5_radial_53_1125" cx="0" cy="0" r="1" gradientUnits="userSpaceOnUse" gradientTransform="translate(14.1692 17.2792) rotate(-174.288) scale(5.60969 4.0072)">
<stop stop-color="#FBBCD5"/>
<stop offset="1" stop-color="#FF0366"/>
</radialGradient>
<radialGradient id="paint6_radial_53_1125" cx="0" cy="0" r="1" gradientUnits="userSpaceOnUse" gradientTransform="translate(18.7151 16.7248) rotate(6.96715) scale(5.54295 4.81383)">
<stop stop-color="#FBBCD5"/>
<stop offset="1" stop-color="#FF0366"/>
</radialGradient>
<radialGradient id="paint7_radial_53_1125" cx="0" cy="0" r="1" gradientUnits="userSpaceOnUse" gradientTransform="translate(13.3516 18.384) rotate(-173.033) scale(5.54437 4.81507)">
<stop stop-color="#FBBCD5"/>
<stop offset="1" stop-color="#FF0366"/>
</radialGradient>
<linearGradient id="paint8_linear_53_1125" x1="20.1109" y1="19.0477" x2="19.6654" y2="19.9029" gradientUnits="userSpaceOnUse">
<stop stop-color="#FD418B"/>
<stop offset="1" stop-color="#FF0366"/>
</linearGradient>
<linearGradient id="paint9_linear_53_1125" x1="12.5062" y1="14.999" x2="11.7102" y2="16.6284" gradientUnits="userSpaceOnUse">
<stop stop-color="#FF0366"/>
<stop offset="1" stop-color="#FBBCD5"/>
</linearGradient>
<linearGradient id="paint10_linear_53_1125" x1="22.4506" y1="12.3815" x2="8.51936" y2="20.7538" gradientUnits="userSpaceOnUse">
<stop stop-color="#FD418B"/>
<stop offset="1" stop-color="#FF0366"/>
</linearGradient>
<radialGradient id="paint11_radial_53_1125" cx="0" cy="0" r="1" gradientUnits="userSpaceOnUse" gradientTransform="translate(5.34167 23.5255) scale(16.0834 16.0972)">
<stop stop-color="white" stop-opacity="0.3"/>
<stop offset="0.8271" stop-color="white" stop-opacity="0"/>
</radialGradient>
<radialGradient id="paint12_radial_53_1125" cx="0" cy="0" r="1" gradientUnits="userSpaceOnUse" gradientTransform="translate(7.83568 23.4004) scale(10.4339 10.4428)">
<stop offset="1.38522e-07" stop-color="white" stop-opacity="0.2"/>
<stop offset="1" stop-color="white" stop-opacity="0"/>
</radialGradient>
</defs>
</svg>
