<svg width="18" height="17" viewBox="0 0 18 17" fill="none" xmlns="http://www.w3.org/2000/svg">
<path fill-rule="evenodd" clip-rule="evenodd" d="M15.4078 5.13445C15.1418 4.86842 14.7094 4.86842 14.4428 5.13445C14.1768 5.40105 14.1768 5.83311 14.4428 6.09914L15.6704 7.32668H8.00896C7.63188 7.32668 7.32662 7.63217 7.32662 8.00896C7.32662 8.38603 7.63183 8.6913 8.00896 8.6913H15.6704L14.4428 9.91883C14.1768 10.1849 14.1768 10.617 14.4428 10.8836C14.5767 11.0169 14.751 11.0834 14.9256 11.0834C15.1002 11.0834 15.2748 11.0169 15.4078 10.8836L17.7996 8.49179C17.9278 8.36335 18 8.18982 18 8.00902C18 7.82827 17.9278 7.65417 17.7996 7.52625L15.4078 5.13445ZM13.6975 12.6754C13.966 12.9401 13.9681 13.3722 13.7031 13.6401C12.187 15.1734 10.165 16.0177 8.00896 16.0177C3.59306 16.0177 0 12.4251 0 8.00896C0 3.59278 3.59306 0 8.00896 0C10.165 0 12.187 0.84455 13.7031 2.37786C13.9681 2.64555 13.966 3.07783 13.6975 3.34284C13.4296 3.60785 12.9977 3.6054 12.7328 3.33721C11.4749 2.06515 9.7971 1.36462 8.00902 1.36462C4.34511 1.36462 1.36462 4.34511 1.36462 8.00902C1.36462 11.6729 4.34511 14.6534 8.00902 14.6534C9.7971 14.6534 11.4749 13.9529 12.7328 12.6811C12.9977 12.4126 13.4296 12.4104 13.6975 12.6754Z" fill="#FF0366"/>
<path fill-rule="evenodd" clip-rule="evenodd" d="M13.6975 12.6754C13.966 12.9401 13.9681 13.3722 13.7031 13.6401C12.187 15.1734 10.165 16.0177 8.00896 16.0177C3.59306 16.0177 0 12.4251 0 8.00896C0 3.59278 3.59306 0 8.00896 0C10.165 0 12.187 0.84455 13.7031 2.37786C13.9681 2.64555 13.966 3.07783 13.6975 3.34284C13.4296 3.60785 12.9977 3.6054 12.7328 3.33721C11.4749 2.06515 9.7971 1.36462 8.00902 1.36462C4.34511 1.36462 1.36462 4.34511 1.36462 8.00902C1.36462 11.6729 4.34511 14.6534 8.00902 14.6534C9.7971 14.6534 11.4749 13.9529 12.7328 12.6811C12.9977 12.4126 13.4296 12.4104 13.6975 12.6754Z" fill="#04004D"/>
</svg>
