<svg width="20" height="16" viewBox="0 0 20 16" fill="none" xmlns="http://www.w3.org/2000/svg">
<path d="M18.5817 8.37859C18.5817 11.2647 17.1591 13.8179 14.9775 15.3745C14.7684 15.1274 14.6361 14.8065 14.6361 14.4568C14.6361 14.067 14.7931 13.7139 15.047 13.4575C15.0523 13.4522 15.0573 13.4472 15.0624 13.4425C16.3567 12.146 17.1571 10.3554 17.1571 8.37759C17.1571 7.56754 17.0228 6.78892 16.7753 6.06245C16.7753 6.06245 16.7753 6.06245 16.7753 6.06212C16.6009 5.55028 16.3697 5.06419 16.0902 4.61186C15.9098 4.31967 15.7087 4.04185 15.4896 3.77975C15.4351 3.71455 15.3793 3.65003 15.3222 3.58685C15.0674 3.34146 14.721 3.19035 14.3388 3.19035C14.1431 3.19035 13.9564 3.23013 13.7867 3.30201C13.3575 3.47853 12.9135 3.62629 12.4569 3.7423C12.17 3.81518 11.8784 3.87603 11.5821 3.92384C11.0624 4.00741 10.5289 4.05088 9.98578 4.05088C9.44532 4.05088 8.91489 4.00775 8.39815 3.92517C8.10587 3.87837 7.81794 3.8192 7.53501 3.74765H7.53468C7.08608 3.63465 6.6495 3.4909 6.22729 3.31939C6.20491 3.3107 6.18287 3.30134 6.16082 3.29198C6.00349 3.23147 5.8328 3.1987 5.65443 3.1987C5.23823 3.1987 4.86378 3.37823 4.60424 3.66374C4.58921 3.68045 4.57418 3.69784 4.55982 3.71522C4.31898 3.99638 4.09986 4.2956 3.90445 4.61186C3.6222 5.06853 3.38938 5.55897 3.21468 6.07616C2.96984 6.79828 2.83723 7.57256 2.83723 8.37759C2.83723 10.3554 3.63756 12.146 4.93193 13.4425C4.93727 13.4472 4.94228 13.4525 4.94729 13.4575C5.20149 13.7139 5.35848 14.067 5.35848 14.4568C5.35848 14.8061 5.23255 15.1261 5.02312 15.3731C2.84157 13.8166 1.41895 11.2631 1.41895 8.37726C1.41895 6.34997 2.12074 4.48716 3.29485 3.01817C3.43414 2.844 3.49226 2.732 3.73176 2.51302C4.23614 2.05167 4.90754 1.77051 5.64441 1.77051C5.9771 1.77051 6.29643 1.82768 6.59305 1.93299C6.59339 1.93332 6.59372 1.93332 6.59405 1.93332C6.68959 1.96541 6.76608 2.00286 6.84792 2.03796C6.84825 2.03829 6.84859 2.03829 6.84892 2.03829C7.82061 2.42075 8.87881 2.63037 9.98578 2.63037C11.1332 2.63037 12.2281 2.40504 13.2285 1.99584C13.2399 1.99116 13.2513 1.98648 13.2626 1.9818C13.5933 1.84673 13.9554 1.77184 14.3352 1.77184C15.1555 1.77184 15.8941 2.1202 16.4122 2.67684C16.4162 2.68152 16.4202 2.6862 16.4242 2.69021C16.4643 2.73233 16.4943 2.76911 16.5294 2.81157C16.5307 2.81324 16.5317 2.81458 16.5331 2.81591C17.8071 4.31499 18.5817 6.25736 18.5817 8.37859Z" fill="url(#paint0_radial_1517_1811)"/>
<path d="M14.0447 11.6483C14.0792 11.4981 14.0574 11.3566 13.9469 11.2378L13.9435 11.2341C13.9365 11.2268 13.9295 11.2198 13.9218 11.2124L13.9151 11.2064C13.9081 11.2 13.9008 11.1937 13.8931 11.1876L13.8858 11.1816C13.8757 11.1736 13.865 11.1656 13.8537 11.1582C13.841 11.1893 13.8283 11.2191 13.8149 11.2495C13.9863 11.3579 14.0508 11.4968 14.0447 11.6483Z" fill="#554CFF"/>
<path d="M6.19462 7.94963C6.0306 7.82083 5.99686 7.65254 6.03695 7.47656C6.03194 7.61909 6.08639 7.75391 6.23336 7.85863C6.22034 7.88874 6.20731 7.91885 6.19462 7.9493" fill="#8F88FF"/>
<path d="M12.7982 12.2269C12.4047 12.2269 11.9187 12.1563 11.3599 11.93C9.94625 11.3577 9.11151 8.50762 7.16947 8.50762C6.84746 8.50863 6.59126 8.58719 6.59126 8.58719C6.24822 8.67946 6.02909 8.87571 5.89648 9.10137C5.90149 9.05757 5.90717 9.01378 5.91319 8.96998C5.96296 8.6223 6.05615 8.2823 6.1911 7.95768C6.20379 7.92759 6.21648 7.8975 6.22985 7.86707C6.34709 7.6033 6.49172 7.35256 6.66141 7.11921C6.7025 7.06204 6.74291 7.00755 6.787 6.95306C6.94867 6.92664 7.11469 6.91227 7.27836 6.9126C7.67185 6.9126 8.15853 6.98482 8.71769 7.21115C10.1313 7.7835 10.966 10.6335 12.9081 10.6335C13.1028 10.6325 13.2966 10.6058 13.4846 10.554C13.7926 10.4717 14 10.3056 14.1366 10.1087C14.1343 10.1237 14.1323 10.1388 14.1303 10.1538C14.0809 10.4991 13.9887 10.8365 13.8551 11.1587C13.8424 11.1898 13.8293 11.2203 13.816 11.251C13.6944 11.5248 13.5437 11.7849 13.3664 12.0263C13.3236 12.0841 13.2799 12.141 13.2344 12.1968C13.0905 12.2172 12.9448 12.2272 12.7992 12.2269H12.7982Z" fill="url(#paint1_radial_1517_1811)"/>
<path d="M13.6002 9.63568C11.6591 9.63568 10.8227 6.78396 9.40878 6.21228C8.85028 5.98595 8.36594 5.91508 7.97346 5.91508C7.79475 5.91474 7.61137 5.93046 7.43567 5.96188C8.15951 5.50387 9.00394 5.25748 9.86039 5.25781C10.0762 5.25781 10.2916 5.27319 10.5054 5.30328L10.5188 5.30529C12.5847 5.60316 14.1243 7.23161 14.3571 9.17131C14.3571 9.17131 14.3571 9.17332 14.3571 9.17432C14.3688 9.27863 14.3688 9.38394 14.3571 9.48858C14.299 9.51399 14.2388 9.53572 14.1777 9.55243C13.99 9.60425 13.7959 9.63467 13.6012 9.63568" fill="url(#paint2_radial_1517_1811)"/>
<path d="M6.47769 9.50537C8.41873 9.50537 9.2548 12.3571 10.6684 12.9288C11.2269 13.1551 11.7126 13.2263 12.1051 13.2263C12.2834 13.2263 12.4621 13.2113 12.6419 13.1795C11.918 13.6375 11.0749 13.8829 10.2185 13.8826C10.0027 13.8826 9.78725 13.8672 9.57347 13.8371L9.56011 13.8351C7.49414 13.5372 5.9546 11.9088 5.72178 9.96907C5.72178 9.96907 5.72178 9.96706 5.72178 9.96606C5.71009 9.86175 5.71009 9.75644 5.72178 9.6518C5.7799 9.62639 5.84003 9.605 5.90149 9.58828C6.08921 9.53646 6.28228 9.50671 6.47702 9.50571H6.47769V9.50537Z" fill="url(#paint3_radial_1517_1811)"/>
<path d="M12.9078 10.6346C10.9667 10.6346 10.1313 7.78354 8.71736 7.21219C8.1582 6.98586 7.67152 6.91365 7.27803 6.91365C7.11436 6.91331 6.95068 6.92635 6.78935 6.95276C6.47202 7.00492 6.26893 7.09184 6.20312 7.1236L6.2058 7.11992C6.24221 7.06944 6.28029 7.02397 6.3187 6.97516C6.48772 6.90863 6.82475 6.80566 7.29406 6.80566C7.68722 6.80566 8.17423 6.87788 8.73306 7.10421C10.1467 7.67656 10.9814 10.5266 12.9235 10.5266C13.1182 10.5256 13.3119 10.4988 13.4997 10.447C14.0595 10.2969 14.2883 9.86933 14.3568 9.48921C14.3134 9.8934 14.0982 10.3909 13.4843 10.5553C13.2966 10.6072 13.1028 10.6339 12.9078 10.6349" fill="url(#paint4_radial_1517_1811)"/>
<path d="M12.7842 12.3366C12.3907 12.3366 11.9037 12.2624 11.3445 12.0357C9.93088 11.4637 9.0948 8.61336 7.15409 8.61336C6.95935 8.61436 6.76595 8.6411 6.57823 8.69259C6.01839 8.8427 5.79226 9.26962 5.72278 9.65107C5.7662 9.24722 5.98031 8.75143 6.59259 8.58661C6.59259 8.58661 6.83543 8.50972 7.16979 8.50537C9.11084 8.50537 9.94624 11.3564 11.3602 11.9278C11.919 12.1541 12.406 12.2263 12.7995 12.2263C13.3978 12.2263 13.7809 12.0595 13.8768 12.013C13.8397 12.0652 13.8086 12.12 13.7685 12.1701C13.5992 12.2367 13.2548 12.34 12.7842 12.3366Z" fill="url(#paint5_radial_1517_1811)"/>
<path d="M6.3175 6.97498C6.48652 6.90845 6.82423 6.80715 7.29387 6.80715C7.68703 6.80715 8.17404 6.87937 8.73287 7.1057C10.1465 7.67805 10.9826 10.5281 12.9233 10.5281C13.118 10.5271 13.3114 10.5003 13.4991 10.4485C14.0593 10.2984 14.2871 9.86948 14.3556 9.48903C14.2975 9.51478 14.2363 9.53651 14.1749 9.55322C13.9871 9.60504 13.7944 9.63513 13.5997 9.63613C11.6586 9.63613 10.8232 6.78542 9.40928 6.21374C8.85078 5.98741 8.3651 5.91553 7.97229 5.91553C7.79391 5.9152 7.61554 5.92957 7.43984 5.96133L7.43383 5.96267C7.04135 6.21207 6.69062 6.52198 6.39433 6.88104L6.3175 6.97498Z" fill="url(#paint6_radial_1517_1811)"/>
<path d="M13.7682 12.1701C13.5992 12.2366 13.2528 12.3342 12.7832 12.3342C12.39 12.3342 11.903 12.262 11.3442 12.0357C9.93055 11.4633 9.09447 8.61328 7.15376 8.61328C6.95902 8.61428 6.76562 8.64103 6.57789 8.69285C6.01773 8.84296 5.79125 9.27088 5.72278 9.65133C5.7809 9.62559 5.84036 9.60486 5.90182 9.58781C6.08954 9.53599 6.28261 9.5059 6.47735 9.5049C8.4184 9.5049 9.2538 12.3556 10.6678 12.9273C11.2262 13.1536 11.7119 13.2255 12.1047 13.2255C12.2831 13.2258 12.4615 13.2111 12.6369 13.1797L12.6432 13.1787C13.0357 12.9293 13.3984 12.6224 13.6947 12.2637L13.7682 12.1701Z" fill="url(#paint7_radial_1517_1811)"/>
<path fill-rule="evenodd" clip-rule="evenodd" d="M13.8148 11.2517L13.8155 11.25C13.9859 11.3576 14.049 11.4907 14.0453 11.6418C14.045 11.6448 14.045 11.6478 14.045 11.6485C14.0316 11.7231 13.9895 11.8234 13.9468 11.8982C13.9464 11.8992 13.8997 11.9761 13.875 12.0132C13.8052 12.0473 13.582 12.1453 13.2336 12.1961C13.2791 12.1403 13.3232 12.0834 13.3656 12.0256C13.3662 12.0256 13.4321 11.9337 13.4631 11.8869C13.5991 11.6856 13.7163 11.4737 13.8148 11.2517Z" fill="url(#paint8_linear_1517_1811)"/>
<path d="M6.78678 6.95264C6.57801 6.98674 6.41935 7.03555 6.3168 7.07433C6.30978 7.077 6.3031 7.07968 6.29675 7.08202C6.25366 7.09907 6.2226 7.11344 6.20289 7.12314C6.17951 7.15824 6.1578 7.19334 6.13775 7.22945L6.13608 7.23212L6.13441 7.23513C6.09132 7.31069 6.05892 7.39193 6.03754 7.47651V7.48085C6.03253 7.62294 6.08765 7.75365 6.23429 7.85829C6.35053 7.59686 6.49484 7.34913 6.66252 7.11712C6.70394 7.06062 6.74302 7.00746 6.78678 6.95264Z" fill="url(#paint9_linear_1517_1811)"/>
<path d="M20.0001 8.37829C20.0001 11.131 18.8894 13.6244 17.0913 15.4337C17.0903 15.4347 17.089 15.436 17.088 15.4374C17.0696 15.4561 17.0509 15.4745 17.0325 15.4922C16.7787 15.7312 16.4366 15.8777 16.0609 15.8777C15.6266 15.8777 15.2378 15.6824 14.9773 15.3745C17.1588 13.8179 18.5814 11.2644 18.5814 8.37862C18.5814 6.25739 17.8048 4.31568 16.5315 2.81761C16.5302 2.81594 16.5292 2.81461 16.5278 2.81327C16.4941 2.77181 16.463 2.7337 16.4266 2.69425C16.4229 2.68991 16.4186 2.68556 16.4146 2.68088C15.8965 2.12424 15.1617 1.77388 14.3413 1.77388C13.9618 1.77388 13.5997 1.84843 13.2687 1.98383C13.2574 1.98851 13.2457 1.99319 13.2346 1.99787C12.2342 2.40707 11.1393 2.6324 9.99189 2.6324C8.88492 2.6324 7.82538 2.42379 6.85403 2.04133C6.85369 2.041 6.85336 2.041 6.85302 2.041C6.74079 1.99319 6.68601 1.96711 6.59916 1.93602C6.59883 1.93569 6.59849 1.93569 6.59816 1.93569C6.30154 1.83038 5.98288 1.77187 5.65019 1.77187C4.91332 1.77187 4.23558 2.05237 3.73119 2.51372C3.56652 2.66416 3.36844 2.9256 3.29662 3.01586C2.12251 4.48485 1.42472 6.35167 1.42472 8.37896C1.42472 11.2648 2.84101 13.8173 5.02255 15.3738C4.76234 15.6818 4.37988 15.8783 3.9453 15.8783C3.56752 15.8783 3.22414 15.7306 2.96994 15.4895C2.96894 15.4885 2.9676 15.4872 2.9666 15.4865C2.95591 15.4758 2.94489 15.4651 2.9342 15.4544C2.92885 15.4494 2.92351 15.4437 2.9185 15.4384C1.11875 13.6291 0.00610352 11.1341 0.00610352 8.37963C0.00610352 5.57271 1.16084 3.03592 3.02105 1.21892C3.18906 1.05477 3.36276 0.896301 3.5418 0.744856C3.54213 0.744522 3.54213 0.744521 3.5428 0.744187C3.6871 0.621493 3.83541 0.502811 3.98672 0.388475L3.98706 0.388141C4.03115 0.360058 4.07624 0.333982 4.122 0.308574C4.48109 0.111996 4.89328 0 5.33152 0C5.68359 0 6.01862 0.0722123 6.32292 0.202261C6.46021 0.284503 6.60083 0.362398 6.7438 0.435279C6.74981 0.438288 6.75582 0.441297 6.76217 0.44464C6.7625 0.44464 6.7625 0.44464 6.7625 0.444975C7.73286 0.936753 8.83014 1.21357 9.99156 1.21357H10.0029C11.172 1.2119 12.276 0.929733 13.25 0.42993C13.2754 0.417226 13.3004 0.403854 13.3255 0.390816C13.414 0.344346 13.5012 0.29587 13.5877 0.245722C13.9167 0.0882596 14.2852 0 14.6746 0C15.1072 0 15.5144 0.108987 15.8701 0.300884C15.9209 0.328298 15.9703 0.357384 16.0191 0.387806C16.1708 0.502142 16.3187 0.62049 16.463 0.743184C16.6387 0.892289 16.8094 1.04741 16.9741 1.20822C18.8406 3.02422 20.0001 5.56569 20.0001 8.37829Z" fill="url(#paint10_linear_1517_1811)"/>
<path d="M5.0228 15.3729C4.76259 15.6808 4.37378 15.8764 3.93921 15.8764C3.56142 15.8764 3.21804 15.7286 2.96384 15.4876C2.96284 15.4866 2.9615 15.4853 2.9605 15.4846C2.94981 15.4739 2.93879 15.4632 2.9281 15.4525C2.92276 15.4471 2.91741 15.4418 2.9124 15.4364C1.11265 13.6271 0 11.1321 0 8.3777C0 5.61759 1.11666 3.11858 2.92276 1.30859L3.94789 2.33461C3.87307 2.39077 3.80058 2.45028 3.73144 2.51347C3.72008 2.52417 3.70906 2.5342 3.69804 2.54423C3.5347 2.69768 3.46221 2.79764 3.3767 2.9113C3.37603 2.91231 3.37503 2.91364 3.37436 2.91431C3.34764 2.94841 3.32092 2.98318 3.2942 3.01829C2.12008 4.48727 1.41829 6.35008 1.41829 8.37737C1.41862 11.2632 2.84125 13.8167 5.0228 15.3729Z" fill="url(#paint11_radial_1517_1811)"/>
<path d="M5.3585 14.4563C5.3585 14.8056 5.23257 15.1256 5.02313 15.3726C2.84158 13.8161 1.41895 11.2626 1.41895 8.37674C1.41895 6.34945 2.12074 4.48664 3.29486 3.01766C3.32425 2.98055 3.35031 2.94645 3.37503 2.91369C3.37569 2.91268 3.3767 2.91168 3.37736 2.91068C3.47891 2.77996 3.58112 2.65626 3.6987 2.5436C3.70939 2.53357 3.72041 2.52321 3.7321 2.51284C3.80125 2.44966 3.8734 2.39015 3.94856 2.33398L4.98171 3.36802C4.83975 3.44458 4.71248 3.54488 4.60459 3.66356C4.58956 3.68027 4.57453 3.69766 4.56016 3.71504C4.31933 3.9962 4.1002 4.29542 3.9048 4.61168C3.62254 5.06835 3.38972 5.55879 3.21503 6.07598C2.97018 6.7981 2.83757 7.57238 2.83757 8.37741C2.83757 10.3552 3.63791 12.1458 4.93227 13.4423C4.93728 13.447 4.94263 13.4523 4.94764 13.4573C5.20184 13.7134 5.3585 14.0665 5.3585 14.4563Z" fill="url(#paint12_radial_1517_1811)"/>
<defs>
<radialGradient id="paint0_radial_1517_1811" cx="0" cy="0" r="1" gradientUnits="userSpaceOnUse" gradientTransform="translate(13.3545 2.37916) scale(27.3873 27.4108)">
<stop stop-color="#827CFF"/>
<stop offset="0.9025" stop-color="#554CFF"/>
</radialGradient>
<radialGradient id="paint1_radial_1517_1811" cx="0" cy="0" r="1" gradientUnits="userSpaceOnUse" gradientTransform="translate(11.2896 10.2839) rotate(6.63288) scale(3.50304 2.89895)">
<stop stop-color="#827CFF"/>
<stop offset="1" stop-color="#554CFF"/>
</radialGradient>
<radialGradient id="paint2_radial_1517_1811" cx="0" cy="0" r="1" gradientUnits="userSpaceOnUse" gradientTransform="translate(12.55 8.67676) rotate(7.03124) scale(5.84502 4.7258)">
<stop stop-color="#E3E2FF"/>
<stop offset="0.6496" stop-color="#9691FF"/>
<stop offset="1" stop-color="#554CFF"/>
</radialGradient>
<radialGradient id="paint3_radial_1517_1811" cx="0" cy="0" r="1" gradientUnits="userSpaceOnUse" gradientTransform="translate(7.98344 10.1921) rotate(-176.102) scale(6.28182 5.07907)">
<stop stop-color="#E3E2FF"/>
<stop offset="0.6496" stop-color="#9691FF"/>
<stop offset="1" stop-color="#554CFF"/>
</radialGradient>
<radialGradient id="paint4_radial_1517_1811" cx="0" cy="0" r="1" gradientUnits="userSpaceOnUse" gradientTransform="translate(11.7221 10.1873) rotate(-149.7) scale(6.55096 4.67843)">
<stop stop-color="#E3E2FF"/>
<stop offset="1" stop-color="#554CFF"/>
</radialGradient>
<radialGradient id="paint5_radial_1517_1811" cx="0" cy="0" r="1" gradientUnits="userSpaceOnUse" gradientTransform="translate(8.16963 9.2787) rotate(-174.288) scale(5.60973 4.00723)">
<stop stop-color="#E3E2FF"/>
<stop offset="1" stop-color="#554CFF"/>
</radialGradient>
<radialGradient id="paint6_radial_1517_1811" cx="0" cy="0" r="1" gradientUnits="userSpaceOnUse" gradientTransform="translate(12.7145 8.72483) rotate(6.96714) scale(5.54299 4.81387)">
<stop stop-color="#E3E2FF"/>
<stop offset="1" stop-color="#554CFF"/>
</radialGradient>
<radialGradient id="paint7_radial_1517_1811" cx="0" cy="0" r="1" gradientUnits="userSpaceOnUse" gradientTransform="translate(7.35195 10.3841) rotate(-173.033) scale(5.54441 4.8151)">
<stop stop-color="#E3E2FF"/>
<stop offset="1" stop-color="#554CFF"/>
</radialGradient>
<linearGradient id="paint8_linear_1517_1811" x1="14.1107" y1="11.0477" x2="13.6651" y2="11.9029" gradientUnits="userSpaceOnUse">
<stop stop-color="#827CFF"/>
<stop offset="1" stop-color="#554CFF"/>
</linearGradient>
<linearGradient id="paint9_linear_1517_1811" x1="6.50611" y1="6.99848" x2="5.7101" y2="8.62796" gradientUnits="userSpaceOnUse">
<stop stop-color="#564DFF"/>
<stop offset="1" stop-color="#CFCCFF"/>
</linearGradient>
<linearGradient id="paint10_linear_1517_1811" x1="16.4507" y1="4.38151" x2="2.51938" y2="12.7539" gradientUnits="userSpaceOnUse">
<stop stop-color="#827CFF"/>
<stop offset="1" stop-color="#554CFF"/>
</linearGradient>
<radialGradient id="paint11_radial_1517_1811" cx="0" cy="0" r="1" gradientUnits="userSpaceOnUse" gradientTransform="translate(-0.658337 15.5256) scale(16.0835 16.0973)">
<stop stop-color="white" stop-opacity="0.3"/>
<stop offset="0.8271" stop-color="white" stop-opacity="0"/>
</radialGradient>
<radialGradient id="paint12_radial_1517_1811" cx="0" cy="0" r="1" gradientUnits="userSpaceOnUse" gradientTransform="translate(1.83642 15.4005) scale(10.434 10.4429)">
<stop offset="1.38522e-07" stop-color="white" stop-opacity="0.2"/>
<stop offset="1" stop-color="white" stop-opacity="0"/>
</radialGradient>
</defs>
</svg>
