<svg width="32" height="32" viewBox="0 0 32 32" fill="none" xmlns="http://www.w3.org/2000/svg">
<path d="M16 32C24.8366 32 32 24.8366 32 16C32 7.16344 24.8366 0 16 0C7.16344 0 0 7.16344 0 16C0 24.8366 7.16344 32 16 32Z" fill="url(#paint0_linear_7058_2904)"/>
<path d="M21.3353 16.3398C21.3353 15.437 20.6034 14.7051 19.7006 14.7051C18.7978 14.7051 18.0659 15.437 18.0659 16.3398C18.0659 17.2427 18.7978 17.9745 19.7006 17.9745C20.6034 17.9745 21.3353 17.2427 21.3353 16.3398Z" fill="url(#paint1_linear_7058_2904)"/>
<path d="M16 0C15.5777 0 15.1586 0.0169412 14.7445 0.0489412C14.7447 0.0502588 14.7443 0.0479373 14.7445 0.0492549C15.2667 0.0771765 15.3945 0.791843 14.9208 0.997647C14.7363 1.07796 14.5462 1.14698 14.3517 1.20408C13.7299 1.38667 13.1576 1.6891 12.6632 2.08816C12.1682 2.48722 11.7509 2.9829 11.4409 3.55137L11.2759 3.85443C10.6554 4.992 9.60816 5.83592 8.36518 6.20173L8.1851 6.25443C6.94212 6.62024 5.8949 7.46416 5.27498 8.60173L4.37898 10.2438C4.21208 10.55 4.59482 10.8587 4.85898 10.6315C5.26306 10.2839 5.70165 9.98086 6.16722 9.72737C6.63278 9.47388 7.12533 9.26996 7.63671 9.11937L10.7401 8.20706C11.7045 7.92345 12.517 7.26839 12.9983 6.38557C13.2392 5.94447 13.5624 5.56047 13.9464 5.25051C14.3297 4.94118 14.774 4.70651 15.2565 4.56471L18.2965 3.67059C19.2565 3.3738 19.8482 2.86118 20.1976 2.43137C20.5271 2.02541 21.1037 1.91624 21.5548 2.17976C21.5617 2.18416 21.5693 2.18792 21.5762 2.19231C22.1798 2.5462 22.2915 3.37129 21.7964 3.86635L20.0257 5.63708C19.5844 6.07837 18.9128 6.17086 18.3547 5.89158C17.9942 5.71118 17.5826 5.61769 17.1475 5.63859C15.8916 5.69889 14.8759 6.73198 14.8354 7.98864C14.8277 8.22808 14.8546 8.46011 14.9115 8.67997C15.1438 9.57791 14.5411 10.4786 13.6302 10.6532C13.2816 10.7201 12.9249 10.7543 12.5646 10.7539C11.0492 10.7521 9.60194 11.3851 8.53045 12.4566L7.2549 13.7321C6.19608 14.7909 4.76009 15.3857 3.26275 15.3857H0.0131765C0.00501961 15.5896 0 15.7942 0 16C0 17.1853 0.129882 18.3391 0.374588 19.451H1.92C3.50287 19.451 5.02099 18.8222 6.14024 17.7029L6.25192 17.5912C7.37123 16.4719 8.88929 15.8431 10.4722 15.8431H14.0297C15.6127 15.8431 17.1307 15.2144 18.25 14.0951L19.4101 12.9349C20.9882 11.2314 23.8625 11.0519 23.9861 11.0337C26.8335 10.6184 29.4399 12.8565 29.487 15.7333C29.4883 15.8224 29.4889 15.9109 29.4889 16V16.0281C29.4867 17.302 28.6729 18.4275 27.4755 18.8619C27.1031 18.997 26.7284 19.197 26.3738 19.4609C25.2218 20.3184 24.6542 21.5738 24.9281 22.4932C25.0292 22.8324 24.8882 23.1977 24.5724 23.3578C24.5508 23.3688 24.5298 23.3786 24.5094 23.387C23.6448 23.7453 22.8492 24.2723 22.1747 24.9468L21.433 25.6885C20.0767 27.0448 18.235 27.7887 16.3169 27.7961C14.419 27.8035 12.6 28.5607 11.257 29.9037L10.2323 30.9283C11.6504 31.4761 13.1651 31.8287 14.7443 31.9511H14.7456C15.1597 31.9831 15.5776 32 15.9999 32C24.8363 32 31.9999 24.8364 31.9999 16C31.9999 7.16361 24.8364 0 16 0V0ZM25.9727 9.70353C25.0698 9.70353 24.3376 8.97192 24.3376 8.06902C24.3376 7.16612 25.0698 6.43451 25.9727 6.43451C26.8756 6.43451 27.6072 7.16612 27.6072 8.06902C27.6072 8.97192 26.8756 9.70353 25.9727 9.70353Z" fill="url(#paint2_linear_7058_2904)"/>
<path d="M12.9402 23.3727C13.8563 22.4566 15.0988 21.9419 16.3944 21.9419H16.5826C17.8782 21.9419 19.1207 21.4272 20.0368 20.5112L21.3592 19.1887C21.6057 18.9422 21.326 18.5378 21.0083 18.6814C20.037 19.1209 18.983 19.3482 17.9169 19.3482H14.6819C13.6767 19.3482 12.7127 19.7475 12.0018 20.4583C11.291 21.1692 10.327 21.5685 9.32174 21.5685H6.15311C5.14787 21.5685 4.18386 21.9678 3.47302 22.6786L2.14502 24.0066C2.87851 25.273 3.78097 26.429 4.82097 27.445L5.78756 26.4784C6.70364 25.5623 7.94618 25.0476 9.2418 25.0476C10.5374 25.0476 11.7799 24.533 12.696 23.6169L12.9402 23.3727Z" fill="url(#paint3_linear_7058_2904)"/>
<defs>
<linearGradient id="paint0_linear_7058_2904" x1="-0.518274" y1="16" x2="31.8831" y2="16" gradientUnits="userSpaceOnUse">
<stop stop-color="#FBC56D"/>
<stop offset="0.445" stop-color="#FE9738"/>
<stop offset="0.5378" stop-color="#FE8C39"/>
<stop offset="0.7008" stop-color="#FD6F39"/>
<stop offset="0.9133" stop-color="#FB403A"/>
<stop offset="0.9984" stop-color="#FB2B3A"/>
</linearGradient>
<linearGradient id="paint1_linear_7058_2904" x1="-11.2942" y1="16.3398" x2="25.7895" y2="16.3398" gradientUnits="userSpaceOnUse">
<stop stop-color="#FBC56D"/>
<stop offset="0.5841" stop-color="#FE9738"/>
<stop offset="0.9984" stop-color="#FB2B3A"/>
</linearGradient>
<linearGradient id="paint2_linear_7058_2904" x1="-11.2941" y1="16" x2="25.7896" y2="16" gradientUnits="userSpaceOnUse">
<stop stop-color="#FBC56D"/>
<stop offset="0.5841" stop-color="#FE9738"/>
<stop offset="0.9984" stop-color="#FB2B3A"/>
</linearGradient>
<linearGradient id="paint3_linear_7058_2904" x1="-11.2942" y1="23.0482" x2="25.7894" y2="23.0482" gradientUnits="userSpaceOnUse">
<stop stop-color="#FBC56D"/>
<stop offset="0.5841" stop-color="#FE9738"/>
<stop offset="0.9984" stop-color="#FB2B3A"/>
</linearGradient>
</defs>
</svg>
