<svg width="20" height="16" viewBox="0 0 20 16" fill="none" xmlns="http://www.w3.org/2000/svg">
<path d="M18.5813 8.37806C18.5813 11.2642 17.1587 13.8173 14.9772 15.3739C14.7681 15.1268 14.6358 14.8059 14.6358 14.4562C14.6358 14.0664 14.7928 13.7134 15.0466 13.4569C15.052 13.4516 15.057 13.4466 15.062 13.4419C16.3564 12.1454 17.1567 10.3549 17.1567 8.37706C17.1567 7.56701 17.0224 6.7884 16.7749 6.06193C16.7749 6.06193 16.7749 6.06193 16.7749 6.0616C16.6005 5.54977 16.3694 5.06368 16.0898 4.61135C15.9094 4.31916 15.7084 4.04134 15.4892 3.77924C15.4348 3.71405 15.379 3.64953 15.3219 3.58634C15.067 3.34096 14.7206 3.18985 14.3385 3.18985C14.1428 3.18985 13.9561 3.22963 13.7864 3.30151C13.3571 3.47803 12.9132 3.62579 12.4566 3.7418C12.1697 3.81468 11.8781 3.87553 11.5818 3.92333C11.062 4.00691 10.5286 4.05037 9.98548 4.05037C9.44502 4.05037 8.91459 4.00724 8.39785 3.92467C8.10558 3.87787 7.81765 3.81869 7.53473 3.74715H7.53439C7.08579 3.63415 6.64922 3.4904 6.22701 3.31889C6.20463 3.3102 6.18259 3.30084 6.16054 3.29148C6.00321 3.23097 5.83253 3.19821 5.65416 3.19821C5.23796 3.19821 4.86352 3.37773 4.60398 3.66324C4.58895 3.67995 4.57392 3.69734 4.55955 3.71472C4.31872 3.99588 4.0996 4.29509 3.90419 4.61135C3.62194 5.06802 3.38912 5.55846 3.21443 6.07564C2.96959 6.79776 2.83698 7.57203 2.83698 8.37706C2.83698 10.3549 3.6373 12.1454 4.93166 13.4419C4.937 13.4466 4.94201 13.4519 4.94702 13.4569C5.20122 13.7134 5.35821 14.0664 5.35821 14.4562C5.35821 14.8056 5.23228 15.1255 5.02285 15.3726C2.84132 13.816 1.4187 11.2625 1.4187 8.37672C1.4187 6.34944 2.12049 4.48665 3.29459 3.01768C3.43388 2.8435 3.492 2.7315 3.7315 2.51253C4.23588 2.05118 4.90727 1.77002 5.64414 1.77002C5.97683 1.77002 6.29616 1.82719 6.59277 1.9325C6.59311 1.93283 6.59344 1.93283 6.59377 1.93283C6.6893 1.96492 6.7658 2.00237 6.84763 2.03747C6.84797 2.0378 6.8483 2.0378 6.84864 2.0378C7.82032 2.42026 8.87851 2.62987 9.98548 2.62987C11.1329 2.62987 12.2278 2.40455 13.2282 1.99535C13.2396 1.99067 13.2509 1.98599 13.2623 1.98131C13.593 1.84624 13.955 1.77136 14.3348 1.77136C15.1552 1.77136 15.8937 2.11971 16.4118 2.67634C16.4158 2.68102 16.4198 2.6857 16.4238 2.68972C16.4639 2.73184 16.494 2.76861 16.5291 2.81107C16.5304 2.81274 16.5314 2.81408 16.5327 2.81542C17.8067 4.31448 18.5813 6.25684 18.5813 8.37806Z" fill="url(#paint0_radial_53_1127)"/>
<path d="M14.0455 11.6493C14.0799 11.4991 14.0582 11.3576 13.9476 11.2388L13.9443 11.2351C13.9373 11.2278 13.9302 11.2207 13.9226 11.2134L13.9159 11.2074C13.9089 11.201 13.9015 11.1946 13.8938 11.1886L13.8865 11.1826C13.8765 11.1746 13.8658 11.1665 13.8544 11.1592C13.8417 11.1903 13.829 11.2201 13.8157 11.2505C13.987 11.3589 14.0515 11.4977 14.0455 11.6493Z" fill="#FF0366"/>
<path d="M6.19474 7.94914C6.03072 7.82034 5.99698 7.65205 6.03707 7.47607C6.03206 7.6186 6.08651 7.75342 6.23348 7.85814C6.22046 7.88825 6.20743 7.91836 6.19474 7.94881" fill="#FD418B"/>
<path d="M12.7979 12.2264C12.4044 12.2264 11.9184 12.1558 11.3596 11.9295C9.94597 11.3571 9.11124 8.50712 7.16921 8.50712C6.84721 8.50813 6.59102 8.58669 6.59102 8.58669C6.24797 8.67896 6.02885 8.8752 5.89624 9.10087C5.90125 9.05707 5.90693 9.01328 5.91294 8.96948C5.96271 8.62179 6.0559 8.2818 6.19085 7.95718C6.20354 7.92709 6.21624 7.897 6.2296 7.86658C6.34684 7.60281 6.49148 7.35207 6.66116 7.11872C6.70225 7.06155 6.74266 7.00706 6.78675 6.95257C6.94842 6.92616 7.11443 6.91178 7.27811 6.91212C7.67159 6.91212 8.15827 6.98433 8.71743 7.21066C10.131 7.783 10.9658 10.633 12.9078 10.633C13.1025 10.632 13.2963 10.6053 13.4843 10.5535C13.7923 10.4712 13.9997 10.3051 14.1363 10.1082C14.134 10.1232 14.132 10.1382 14.13 10.1533C14.0805 10.4986 13.9884 10.836 13.8547 11.1582C13.8421 11.1893 13.829 11.2197 13.8157 11.2505C13.6941 11.5243 13.5434 11.7844 13.3661 12.0258C13.3233 12.0836 13.2796 12.1404 13.2341 12.1963C13.0902 12.2167 12.9445 12.2267 12.7989 12.2264H12.7979Z" fill="url(#paint1_radial_53_1127)"/>
<path d="M13.5998 9.63613C11.6587 9.63613 10.8223 6.78444 9.4084 6.21277C8.84991 5.98644 8.36557 5.91556 7.97309 5.91556C7.79438 5.91523 7.611 5.93094 7.4353 5.96236C8.15914 5.50436 9.00356 5.25797 9.86 5.2583C10.0758 5.2583 10.2912 5.27368 10.505 5.30377L10.5184 5.30577C12.5843 5.60365 14.1239 7.23209 14.3567 9.17177C14.3567 9.17177 14.3567 9.17378 14.3567 9.17478C14.3684 9.27909 14.3684 9.3844 14.3567 9.48904C14.2985 9.51444 14.2384 9.53617 14.1773 9.55289C13.9896 9.60471 13.7955 9.63513 13.6008 9.63613" fill="url(#paint2_radial_53_1127)"/>
<path d="M6.4778 9.50439C8.41883 9.50439 9.2549 12.3561 10.6685 12.9278C11.227 13.1541 11.7127 13.2253 12.1051 13.2253C12.2835 13.2253 12.4622 13.2103 12.6419 13.1785C11.9181 13.6365 11.075 13.8819 10.2186 13.8816C10.0028 13.8816 9.78734 13.8662 9.57356 13.8361L9.5602 13.8341C7.49425 13.5362 5.95472 11.9078 5.7219 9.96809C5.7219 9.96809 5.7219 9.96608 5.7219 9.96508C5.71021 9.86077 5.71021 9.75546 5.7219 9.65082C5.78002 9.62542 5.84015 9.60402 5.90161 9.5873C6.08933 9.53549 6.2824 9.50573 6.47714 9.50473H6.4778V9.50439Z" fill="url(#paint3_radial_53_1127)"/>
<path d="M12.9072 10.6336C10.9662 10.6336 10.1308 7.78255 8.71686 7.21121C8.15769 6.98488 7.67102 6.91267 7.27753 6.91267C7.11386 6.91234 6.95019 6.92537 6.78885 6.95179C6.47153 7.00394 6.26844 7.09086 6.20264 7.12262L6.20531 7.11894C6.24172 7.06846 6.2798 7.02299 6.31821 6.97418C6.48723 6.90766 6.82426 6.80469 7.29357 6.80469C7.68672 6.80469 8.17373 6.8769 8.73255 7.10323C10.1462 7.67557 10.9809 10.5256 12.9229 10.5256C13.1177 10.5246 13.3114 10.4978 13.4991 10.446C14.0589 10.2959 14.2878 9.86833 14.3562 9.48822C14.3128 9.8924 14.0977 10.3899 13.4838 10.5543C13.296 10.6062 13.1023 10.6329 12.9072 10.6339" fill="url(#paint4_radial_53_1127)"/>
<path d="M12.7837 12.3371C12.3903 12.3371 11.9032 12.2629 11.3441 12.0362C9.93048 11.4642 9.09441 8.61384 7.15372 8.61384C6.95898 8.61485 6.76558 8.64159 6.57785 8.69308C6.01803 8.84318 5.79189 9.2701 5.72241 9.65155C5.76584 9.2477 5.97995 8.75191 6.59222 8.5871C6.59222 8.5871 6.83506 8.51021 7.16942 8.50586C9.11045 8.50586 9.94585 11.3569 11.3598 11.9282C11.9186 12.1546 12.4056 12.2268 12.7991 12.2268C13.3973 12.2268 13.7805 12.0599 13.8763 12.0135C13.8393 12.0656 13.8082 12.1205 13.7681 12.1706C13.5988 12.2371 13.2544 12.3404 12.7837 12.3371Z" fill="url(#paint5_radial_53_1127)"/>
<path d="M6.31812 6.97497C6.48713 6.90844 6.82483 6.80715 7.29448 6.80715C7.68763 6.80715 8.17464 6.87936 8.73346 7.10569C10.1471 7.67803 10.9831 10.5281 12.9238 10.5281C13.1186 10.5271 13.312 10.5003 13.4997 10.4485C14.0599 10.2984 14.2877 9.86946 14.3561 9.48901C14.298 9.51475 14.2369 9.53648 14.1754 9.5532C13.9877 9.60501 13.795 9.6351 13.6002 9.63611C11.6592 9.63611 10.8238 6.78542 9.40987 6.21374C8.85137 5.98741 8.3657 5.91553 7.97288 5.91553C7.79451 5.9152 7.61614 5.92957 7.44045 5.96133L7.43443 5.96267C7.04195 6.21207 6.69122 6.52198 6.39494 6.88103L6.31812 6.97497Z" fill="url(#paint6_radial_53_1127)"/>
<path d="M13.7678 12.17C13.5988 12.2366 13.2524 12.3342 12.7827 12.3342C12.3896 12.3342 11.9026 12.262 11.3438 12.0356C9.93015 11.4633 9.09408 8.61328 7.15338 8.61328C6.95865 8.61428 6.76524 8.64103 6.57752 8.69285C6.01736 8.84295 5.79089 9.27087 5.72241 9.65132C5.78053 9.62558 5.83999 9.60485 5.90145 9.5878C6.08917 9.53599 6.28224 9.5059 6.47698 9.50489C8.41801 9.50489 9.25341 12.3556 10.6673 12.9273C11.2258 13.1536 11.7115 13.2255 12.1043 13.2255C12.2827 13.2258 12.4611 13.2111 12.6364 13.1797L12.6428 13.1787C13.0353 12.9293 13.398 12.6224 13.6943 12.2636L13.7678 12.17Z" fill="url(#paint7_radial_53_1127)"/>
<path fill-rule="evenodd" clip-rule="evenodd" d="M13.8151 11.2517L13.8157 11.25C13.9861 11.3576 14.0492 11.4907 14.0456 11.6418C14.0452 11.6448 14.0452 11.6478 14.0452 11.6485C14.0319 11.7231 13.9898 11.8233 13.947 11.8982C13.9467 11.8992 13.8999 11.9761 13.8752 12.0132C13.8054 12.0473 13.5823 12.1453 13.2339 12.1961C13.2793 12.1403 13.3234 12.0834 13.3658 12.0256C13.3665 12.0256 13.4323 11.9337 13.4634 11.8869C13.5993 11.6856 13.7165 11.4737 13.8151 11.2517Z" fill="url(#paint8_linear_53_1127)"/>
<path d="M6.7869 6.95312C6.57813 6.98722 6.41946 7.03603 6.31692 7.07481C6.3099 7.07749 6.30322 7.08016 6.29687 7.0825C6.25378 7.09955 6.22272 7.11393 6.20301 7.12362C6.17963 7.15873 6.15792 7.19383 6.13787 7.22993L6.1362 7.23261L6.13453 7.23562C6.09144 7.31117 6.05904 7.39241 6.03766 7.47699V7.48134C6.03265 7.62342 6.08777 7.75413 6.23441 7.85877C6.35065 7.59734 6.49496 7.34962 6.66264 7.11761C6.70406 7.06111 6.74314 7.00795 6.7869 6.95312Z" fill="url(#paint9_linear_53_1127)"/>
<path d="M19.9999 8.37823C19.9999 11.131 18.8893 13.6243 17.0912 15.4336C17.0902 15.4346 17.0889 15.4359 17.0879 15.4373C17.0695 15.456 17.0508 15.4744 17.0324 15.4921C16.7786 15.7311 16.4365 15.8776 16.0607 15.8776C15.6265 15.8776 15.2377 15.6823 14.9772 15.3744C17.1587 13.8178 18.5813 11.2644 18.5813 8.37856C18.5813 6.25735 17.8047 4.31565 16.5314 2.81759C16.5301 2.81592 16.5291 2.81459 16.5277 2.81325C16.494 2.77179 16.4629 2.73368 16.4265 2.69423C16.4228 2.68989 16.4185 2.68554 16.4145 2.68086C15.8964 2.12423 15.1615 1.77387 14.3412 1.77387C13.9617 1.77387 13.5996 1.84842 13.2686 1.98382C13.2573 1.9885 13.2456 1.99318 13.2345 1.99786C12.2341 2.40706 11.1392 2.63238 9.99182 2.63238C8.88486 2.63238 7.82533 2.42377 6.85398 2.04132C6.85364 2.04098 6.85331 2.04098 6.85298 2.04098C6.74074 1.99318 6.68596 1.9671 6.59912 1.93601C6.59878 1.93567 6.59845 1.93568 6.59811 1.93568C6.3015 1.83037 5.98284 1.77186 5.65015 1.77186C4.91328 1.77186 4.23555 2.05235 3.73117 2.5137C3.56649 2.66414 3.36841 2.92558 3.2966 3.01584C2.12249 4.48482 1.42471 6.35162 1.42471 8.3789C1.42471 11.2647 2.84099 13.8172 5.02251 15.3737C4.76231 15.6816 4.37985 15.8782 3.94528 15.8782C3.56749 15.8782 3.22411 15.7305 2.96992 15.4894C2.96892 15.4884 2.96758 15.4871 2.96658 15.4864C2.95589 15.4757 2.94487 15.465 2.93418 15.4543C2.92883 15.4493 2.92349 15.4436 2.91848 15.4383C1.11874 13.629 0.00610352 11.134 0.00610352 8.37957C0.00610352 5.57267 1.16083 3.0359 3.02103 1.21891C3.18904 1.05476 3.36273 0.896295 3.54177 0.744851C3.54211 0.744516 3.54211 0.744516 3.54277 0.744182C3.68707 0.621489 3.83538 0.502808 3.9867 0.388472L3.98703 0.388138C4.03112 0.360056 4.07621 0.333979 4.12198 0.308571C4.48105 0.111995 4.89324 0 5.33149 0C5.68355 0 6.01858 0.0722118 6.32288 0.20226C6.46016 0.284501 6.60079 0.362396 6.74375 0.435276C6.74976 0.438285 6.75577 0.441294 6.76212 0.444637C6.76245 0.444637 6.76245 0.444637 6.76245 0.444971C7.7328 0.936747 8.83008 1.21356 9.99149 1.21356H10.0028C11.1719 1.21189 12.2759 0.929726 13.2499 0.429927C13.2753 0.417223 13.3004 0.403851 13.3254 0.390813C13.4139 0.344343 13.5011 0.295868 13.5876 0.245721C13.9166 0.088259 14.2851 0 14.6745 0C15.1071 0 15.5143 0.108986 15.87 0.300882C15.9208 0.328296 15.9702 0.357381 16.019 0.387804C16.1706 0.502139 16.3186 0.620486 16.4629 0.743179C16.6386 0.892283 16.8093 1.0474 16.974 1.20821C18.8405 3.0242 19.9999 5.56565 19.9999 8.37823Z" fill="url(#paint10_linear_53_1127)"/>
<path d="M5.02276 15.3728C4.76255 15.6807 4.37375 15.8763 3.93918 15.8763C3.56139 15.8763 3.21801 15.7285 2.96382 15.4875C2.96282 15.4865 2.96148 15.4852 2.96048 15.4845C2.94979 15.4738 2.93877 15.4631 2.92808 15.4524C2.92273 15.447 2.91739 15.4417 2.91238 15.4363C1.11264 13.627 0 11.1321 0 8.37765C0 5.61756 1.11665 3.11857 2.92273 1.30859L3.94786 2.3346C3.87304 2.39077 3.80056 2.45027 3.73141 2.51346C3.72006 2.52416 3.70903 2.53419 3.69801 2.54422C3.53467 2.69767 3.46219 2.79763 3.37668 2.91129C3.37601 2.9123 3.37501 2.91363 3.37434 2.9143C3.34762 2.9484 3.32089 2.98317 3.29417 3.01827C2.12007 4.48725 1.41828 6.35004 1.41828 8.37732C1.41861 11.2631 2.84123 13.8166 5.02276 15.3728Z" fill="url(#paint11_radial_53_1127)"/>
<path d="M5.35774 14.4562C5.35774 14.8056 5.23181 15.1255 5.02237 15.3725C2.84084 13.816 1.41821 11.2625 1.41821 8.3767C1.41821 6.34942 2.12001 4.48663 3.29411 3.01766C3.32351 2.98055 3.34956 2.94645 3.37428 2.91368C3.37495 2.91268 3.37595 2.91168 3.37662 2.91068C3.47816 2.77996 3.58037 2.65626 3.69795 2.5436C3.70864 2.53357 3.71966 2.52321 3.73135 2.51284C3.8005 2.44966 3.87265 2.39015 3.94781 2.33398L4.98095 3.36802C4.83899 3.44457 4.71173 3.54487 4.60384 3.66355C4.5888 3.68026 4.57377 3.69765 4.55941 3.71503C4.31858 3.99619 4.09945 4.2954 3.90405 4.61166C3.62179 5.06833 3.38898 5.55877 3.21428 6.07596C2.96944 6.79807 2.83683 7.57234 2.83683 8.37737C2.83683 10.3552 3.63716 12.1458 4.93152 13.4422C4.93653 13.4469 4.94187 13.4522 4.94688 13.4573C5.20108 13.7133 5.35774 14.0664 5.35774 14.4562Z" fill="url(#paint12_radial_53_1127)"/>
<defs>
<radialGradient id="paint0_radial_53_1127" cx="0" cy="0" r="1" gradientUnits="userSpaceOnUse" gradientTransform="translate(13.3541 2.37867) scale(27.3871 27.4106)">
<stop stop-color="#FD418B"/>
<stop offset="0.9025" stop-color="#FF0366"/>
</radialGradient>
<radialGradient id="paint1_radial_53_1127" cx="0" cy="0" r="1" gradientUnits="userSpaceOnUse" gradientTransform="translate(11.2893 10.2834) rotate(6.63288) scale(3.50301 2.89893)">
<stop stop-color="#FD418B"/>
<stop offset="1" stop-color="#FF0366"/>
</radialGradient>
<radialGradient id="paint2_radial_53_1127" cx="0" cy="0" r="1" gradientUnits="userSpaceOnUse" gradientTransform="translate(12.5496 8.67722) rotate(7.03124) scale(5.84498 4.72577)">
<stop stop-color="#FBBCD5"/>
<stop offset="0.6496" stop-color="#FD418B"/>
<stop offset="1" stop-color="#FF0366"/>
</radialGradient>
<radialGradient id="paint3_radial_53_1127" cx="0" cy="0" r="1" gradientUnits="userSpaceOnUse" gradientTransform="translate(7.98355 10.1911) rotate(-176.102) scale(6.28178 5.07903)">
<stop stop-color="#FBBCD5"/>
<stop offset="0.6496" stop-color="#FD418B"/>
<stop offset="1" stop-color="#FF0366"/>
</radialGradient>
<radialGradient id="paint4_radial_53_1127" cx="0" cy="0" r="1" gradientUnits="userSpaceOnUse" gradientTransform="translate(11.7216 10.1863) rotate(-149.7) scale(6.55092 4.67839)">
<stop stop-color="#FBBCD5"/>
<stop offset="1" stop-color="#FF0366"/>
</radialGradient>
<radialGradient id="paint5_radial_53_1127" cx="0" cy="0" r="1" gradientUnits="userSpaceOnUse" gradientTransform="translate(8.16925 9.27918) rotate(-174.288) scale(5.60969 4.0072)">
<stop stop-color="#FBBCD5"/>
<stop offset="1" stop-color="#FF0366"/>
</radialGradient>
<radialGradient id="paint6_radial_53_1127" cx="0" cy="0" r="1" gradientUnits="userSpaceOnUse" gradientTransform="translate(12.7151 8.72481) rotate(6.96715) scale(5.54295 4.81383)">
<stop stop-color="#FBBCD5"/>
<stop offset="1" stop-color="#FF0366"/>
</radialGradient>
<radialGradient id="paint7_radial_53_1127" cx="0" cy="0" r="1" gradientUnits="userSpaceOnUse" gradientTransform="translate(7.35157 10.384) rotate(-173.033) scale(5.54437 4.81507)">
<stop stop-color="#FBBCD5"/>
<stop offset="1" stop-color="#FF0366"/>
</radialGradient>
<linearGradient id="paint8_linear_53_1127" x1="14.1109" y1="11.0477" x2="13.6654" y2="11.9029" gradientUnits="userSpaceOnUse">
<stop stop-color="#FD418B"/>
<stop offset="1" stop-color="#FF0366"/>
</linearGradient>
<linearGradient id="paint9_linear_53_1127" x1="6.50623" y1="6.99897" x2="5.71023" y2="8.62844" gradientUnits="userSpaceOnUse">
<stop stop-color="#FF0366"/>
<stop offset="1" stop-color="#FBBCD5"/>
</linearGradient>
<linearGradient id="paint10_linear_53_1127" x1="16.4506" y1="4.38147" x2="2.51936" y2="12.7538" gradientUnits="userSpaceOnUse">
<stop stop-color="#FD418B"/>
<stop offset="1" stop-color="#FF0366"/>
</linearGradient>
<radialGradient id="paint11_radial_53_1127" cx="0" cy="0" r="1" gradientUnits="userSpaceOnUse" gradientTransform="translate(-0.658333 15.5255) scale(16.0834 16.0972)">
<stop stop-color="white" stop-opacity="0.3"/>
<stop offset="0.8271" stop-color="white" stop-opacity="0"/>
</radialGradient>
<radialGradient id="paint12_radial_53_1127" cx="0" cy="0" r="1" gradientUnits="userSpaceOnUse" gradientTransform="translate(1.83568 15.4004) scale(10.4339 10.4428)">
<stop offset="1.38522e-07" stop-color="white" stop-opacity="0.2"/>
<stop offset="1" stop-color="white" stop-opacity="0"/>
</radialGradient>
</defs>
</svg>
