<svg width="32" height="32" viewBox="0 0 32 32" fill="none" xmlns="http://www.w3.org/2000/svg">
<path d="M15.9999 31.9998C24.8364 31.9998 31.9998 24.8364 31.9998 15.9999C31.9998 7.1634 24.8364 0 15.9999 0C7.1634 0 0 7.1634 0 15.9999C0 24.8364 7.1634 31.9998 15.9999 31.9998Z" fill="url(#paint0_linear_7058_2925)"/>
<path d="M15.9997 0C15.0196 0 14.0616 0.0929349 13.1299 0.261601C20.5962 1.6146 26.2602 8.14348 26.2602 15.9999C26.2602 18.5586 25.6562 20.9745 24.5882 23.1185C24.0468 20.6812 21.8035 18.8849 19.1688 19.0441C16.6085 19.1988 14.5015 21.2556 14.2908 23.812C14.1802 25.1549 14.5781 26.4023 15.3131 27.3827C16.48 28.9392 15.6613 31.186 13.7628 31.6101C13.5535 31.6569 13.3424 31.6996 13.1301 31.7382C14.0616 31.9071 15.0196 31.9998 16 31.9998C24.8362 32 31.9996 24.8366 31.9996 16.0001C31.9996 7.16361 24.8362 0 15.9997 0Z" fill="url(#paint1_linear_7058_2925)"/>
<path d="M7.90921 19.0333C9.77859 19.0333 11.294 17.5178 11.294 15.6485C11.294 13.7791 9.77859 12.2637 7.90921 12.2637C6.03984 12.2637 4.52441 13.7791 4.52441 15.6485C4.52441 17.5178 6.03984 19.0333 7.90921 19.0333Z" fill="url(#paint2_linear_7058_2925)"/>
<path d="M18.2188 12.2647C20.0882 12.2647 21.6036 10.7493 21.6036 8.87992C21.6036 7.01054 20.0882 5.49512 18.2188 5.49512C16.3494 5.49512 14.834 7.01054 14.834 8.87992C14.834 10.7493 16.3494 12.2647 18.2188 12.2647Z" fill="url(#paint3_linear_7058_2925)"/>
<defs>
<linearGradient id="paint0_linear_7058_2925" x1="0" y1="15.9999" x2="31.9998" y2="15.9999" gradientUnits="userSpaceOnUse">
<stop stop-color="#EAF6FF"/>
<stop offset="0.5213" stop-color="#D8ECFE"/>
<stop offset="1" stop-color="#B3DAFE"/>
</linearGradient>
<linearGradient id="paint1_linear_7058_2925" x1="-11.1422" y1="16.0001" x2="21.9226" y2="16.0001" gradientUnits="userSpaceOnUse">
<stop stop-color="#EAF6FF"/>
<stop offset="0.5213" stop-color="#D8ECFE"/>
<stop offset="1" stop-color="#B3DAFE"/>
</linearGradient>
<linearGradient id="paint2_linear_7058_2925" x1="-11.1423" y1="15.6485" x2="21.9225" y2="15.6485" gradientUnits="userSpaceOnUse">
<stop stop-color="#EAF6FF"/>
<stop offset="0.5213" stop-color="#D8ECFE"/>
<stop offset="1" stop-color="#B3DAFE"/>
</linearGradient>
<linearGradient id="paint3_linear_7058_2925" x1="-11.1418" y1="8.87992" x2="21.923" y2="8.87992" gradientUnits="userSpaceOnUse">
<stop stop-color="#EAF6FF"/>
<stop offset="0.5213" stop-color="#D8ECFE"/>
<stop offset="1" stop-color="#B3DAFE"/>
</linearGradient>
</defs>
</svg>
