<svg width="20" height="20" viewBox="0 0 20 20" fill="none" xmlns="http://www.w3.org/2000/svg">
<path d="M2.30834 8.33329C1.95001 8.33329 1.66667 8.04996 1.66667 7.69163V5.76663C1.66667 3.50829 3.50834 1.66663 5.76667 1.66663H7.69167C8.05 1.66663 8.33334 1.94996 8.33334 2.30829C8.33334 2.66663 8.05 2.94996 7.69167 2.94996H5.76667C4.20834 2.94996 2.95001 4.21663 2.95001 5.76663V7.69163C2.95001 8.04996 2.65834 8.33329 2.30834 8.33329Z" fill="#04004D"/>
<path d="M17.6917 8.33329C17.3417 8.33329 17.05 8.04996 17.05 7.69163V5.76663C17.05 4.20829 15.7833 2.94996 14.2333 2.94996H12.3083C11.95 2.94996 11.6667 2.65829 11.6667 2.30829C11.6667 1.95829 11.95 1.66663 12.3083 1.66663H14.2333C16.4917 1.66663 18.3333 3.50829 18.3333 5.76663V7.69163C18.3333 8.04996 18.05 8.33329 17.6917 8.33329Z" fill="#04004D"/>
<path d="M14.2333 18.3333H13.075C12.725 18.3333 12.4333 18.05 12.4333 17.6916C12.4333 17.3416 12.7167 17.05 13.075 17.05H14.2333C15.7917 17.05 17.05 15.7833 17.05 14.2333V13.0833C17.05 12.7333 17.3333 12.4417 17.6917 12.4417C18.0417 12.4417 18.3333 12.725 18.3333 13.0833V14.2333C18.3333 16.4917 16.4917 18.3333 14.2333 18.3333Z" fill="#04004D"/>
<path d="M7.69167 18.3333H5.76667C3.50834 18.3333 1.66667 16.4916 1.66667 14.2333V12.3083C1.66667 11.95 1.95001 11.6666 2.30834 11.6666C2.66667 11.6666 2.95001 11.95 2.95001 12.3083V14.2333C2.95001 15.7916 4.21667 17.05 5.76667 17.05H7.69167C8.04167 17.05 8.33334 17.3333 8.33334 17.6916C8.33334 18.05 8.05 18.3333 7.69167 18.3333Z" fill="#04004D"/>
<path d="M15.3833 9.35828H14.25H5.75001H4.61667C4.25834 9.35828 3.97501 9.64994 3.97501 9.99994C3.97501 10.3499 4.25834 10.6416 4.61667 10.6416H5.75001H14.25H15.3833C15.7417 10.6416 16.025 10.3499 16.025 9.99994C16.025 9.64994 15.7417 9.35828 15.3833 9.35828Z" fill="#04004D"/>
<path d="M5.75 11.6167V11.8917C5.75 13.275 6.86667 14.3917 8.25 14.3917H11.75C13.1333 14.3917 14.25 13.275 14.25 11.8917V11.6167C14.25 11.5167 14.175 11.4417 14.075 11.4417H5.925C5.825 11.4417 5.75 11.5167 5.75 11.6167Z" fill="#04004D"/>
<path d="M5.75 8.38328V8.10828C5.75 6.72494 6.86667 5.60828 8.25 5.60828H11.75C13.1333 5.60828 14.25 6.72494 14.25 8.10828V8.38328C14.25 8.48328 14.175 8.55828 14.075 8.55828H5.925C5.825 8.55828 5.75 8.48328 5.75 8.38328Z" fill="#04004D"/>
</svg>
