<svg width="20" height="20" viewBox="0 0 20 20" fill="none" xmlns="http://www.w3.org/2000/svg">
<path d="M2 8.85714H8.85714V2H2V8.85714ZM4.28571 4.28571H6.57143V6.57143H4.28571V4.28571ZM11.1429 2V8.85714H18V2H11.1429ZM15.7143 6.57143H13.4286V4.28571H15.7143V6.57143ZM2 18H8.85714V11.1429H2V18ZM4.28571 13.4286H6.57143V15.7143H4.28571V13.4286ZM16.8571 11.1429H18V15.7143H14.5714V14.5714H13.4286V18H11.1429V11.1429H14.5714V12.2857H16.8571V11.1429ZM16.8571 16.8571H18V18H16.8571V16.8571ZM14.5714 16.8571H15.7143V18H14.5714V16.8571Z" fill="#004DFF"/>
</svg>
