<svg width="32" height="32" viewBox="0 0 32 32" fill="none" xmlns="http://www.w3.org/2000/svg">
<g clip-path="url(#clip0_7058_2890)">
<path d="M31.4707 16.9769L31.4659 16.98C30.2992 17.7314 30.0211 19.3371 30.8654 20.4468L30.8663 20.4479C31.3778 21.1202 31.0248 22.1038 30.2069 22.2853L30.2053 22.2857C28.8553 22.5854 28.0509 23.9966 28.4683 25.3328L28.4698 25.3376C28.7225 26.1464 28.0598 26.9468 27.2308 26.8342L27.2282 26.8339C25.8575 26.6477 24.6258 27.6968 24.5695 29.0983L24.5694 29.0993C24.5353 29.9474 23.6426 30.4709 22.901 30.0778L22.8963 30.0753C21.6723 29.4264 20.1632 29.9835 19.6367 31.2786L19.6346 31.2836C19.3156 32.0683 18.3 32.2493 17.7364 31.6218C16.8047 30.5844 15.1953 30.5844 14.2636 31.6218C13.7001 32.2493 12.6844 32.0683 12.3654 31.2836L12.3634 31.2785C11.8369 29.9835 10.3278 29.4264 9.10381 30.0753L9.09917 30.0777C8.35752 30.4709 7.46472 29.9473 7.43071 29.0992L7.43065 29.0982C7.37437 27.6967 6.14262 26.6476 4.77195 26.8337L4.76926 26.8341C3.94027 26.9467 3.27755 26.1462 3.53023 25.3375L3.53173 25.3327C3.94924 23.9965 3.14472 22.5853 1.79476 22.2856L1.79319 22.2853C0.975247 22.1037 0.622369 21.1202 1.13387 20.4478L1.13462 20.4468C1.97892 19.3371 1.70083 17.7315 0.534149 16.98L0.529318 16.977C-0.176439 16.5224 -0.176439 15.4777 0.529318 15.0232L0.534149 15.02C1.70083 14.2686 1.97892 12.663 1.13462 11.5532L1.1338 11.5522C0.622306 10.8798 0.975247 9.89625 1.79313 9.71473L1.79476 9.71435C3.14472 9.41468 3.94918 8.00348 3.53173 6.66726L3.53023 6.66243C3.27762 5.85364 3.94033 5.0532 4.76932 5.16577L4.77195 5.16615C6.14256 5.35231 7.37437 4.30315 7.43065 2.90167L7.43071 2.90073C7.46479 2.05261 8.35752 1.52906 9.09917 1.92222L9.10381 1.92467C10.3278 2.57358 11.8369 2.01647 12.3634 0.721408L12.3655 0.716388C12.6845 -0.068302 13.7001 -0.249259 14.2637 0.378192C15.1954 1.41556 16.8048 1.41556 17.7365 0.378192C18.3 -0.249259 19.3158 -0.068302 19.6347 0.716388L19.6368 0.721471C20.1633 2.01653 21.6723 2.57364 22.8963 1.92473L22.901 1.92229C23.6426 1.52913 24.5354 2.05267 24.5694 2.9008L24.5695 2.9018C24.6258 4.30327 25.8575 5.35244 27.2282 5.16627L27.2309 5.16589C28.0599 5.05333 28.7226 5.85377 28.4699 6.66249L28.4684 6.66726C28.0509 8.00348 28.8554 9.41468 30.2054 9.71435L30.2069 9.71466C31.0249 9.89625 31.3778 10.8798 30.8663 11.5522L30.8654 11.5532C30.0211 12.6629 30.2992 14.2685 31.4659 15.0199L31.4707 15.023C32.1765 15.4776 32.1765 16.5223 31.4707 16.9769Z" fill="url(#paint0_linear_7058_2890)"/>
<path d="M31.471 15.0229L31.4661 15.0197C30.2995 14.2683 30.0214 12.6627 30.8657 11.5529L30.8665 11.5519C31.378 10.8796 31.025 9.89604 30.2072 9.71445L30.2056 9.71414C28.8556 9.41447 28.0511 8.0032 28.4686 6.66705L28.4701 6.66228C28.7228 5.85356 28.0601 5.05312 27.2311 5.16568L27.2285 5.16606C25.8579 5.35222 24.626 4.30306 24.5698 2.90159L24.5697 2.90058C24.5356 2.05246 23.6429 1.52891 22.9012 1.92207L22.8966 1.92458C22.5402 2.11351 22.1597 2.19953 21.7862 2.19552C21.9448 2.3825 22.0476 2.62413 22.0587 2.90058L22.0588 2.90159C22.115 4.30306 23.3468 5.35222 24.7175 5.16606L24.7201 5.16568C25.5491 5.05312 26.2118 5.85356 25.9591 6.66228L25.9576 6.66705C25.5401 8.00327 26.3446 9.41447 27.6946 9.71414L27.6962 9.71445C28.5141 9.89604 28.867 10.8796 28.3555 11.5519L28.3547 11.5529C27.5104 12.6627 27.7885 14.2683 28.9551 15.0197L28.96 15.0229C29.6657 15.4775 29.6657 16.5222 28.96 16.9767L28.9551 16.9798C27.7885 17.7312 27.5104 19.3369 28.3547 20.4466L28.3555 20.4477C28.867 21.12 28.514 22.1036 27.6962 22.2851L27.6945 22.2855C26.3446 22.5852 25.5401 23.9964 25.9576 25.3326L25.9591 25.3374C26.2117 26.1461 25.549 26.9465 24.72 26.834L24.7174 26.8336C23.3468 26.6474 22.115 27.6966 22.0587 29.098L22.0586 29.099C22.0475 29.3755 21.9448 29.6171 21.7861 29.8041C22.1596 29.8001 22.5401 29.8861 22.8966 30.0751L22.9012 30.0775C23.6429 30.4707 24.5357 29.9471 24.5697 29.099L24.5698 29.098C24.626 27.6966 25.8578 26.6474 27.2285 26.8336L27.2311 26.834C28.0601 26.9465 28.7228 26.1461 28.4701 25.3374L28.4686 25.3326C28.0512 23.9964 28.8556 22.5852 30.2056 22.2855L30.2072 22.2851C31.0251 22.1035 31.378 21.12 30.8665 20.4477L30.8657 20.4466C30.0214 19.3369 30.2995 17.7313 31.4662 16.9798L31.471 16.9767C32.1767 16.5222 32.1767 15.4775 31.471 15.0229Z" fill="url(#paint1_linear_7058_2890)"/>
<path d="M16.0002 27.1977C22.1847 27.1977 27.1982 22.1842 27.1982 15.9998C27.1982 9.81527 22.1847 4.80176 16.0002 4.80176C9.81576 4.80176 4.80225 9.81527 4.80225 15.9998C4.80225 22.1842 9.81576 27.1977 16.0002 27.1977Z" fill="url(#paint2_linear_7058_2890)"/>
<path d="M18.8909 16.2622C19.7534 16.2622 20.4527 15.563 20.4527 14.7005C20.4527 13.8379 19.7534 13.1387 18.8909 13.1387C18.0283 13.1387 17.3291 13.8379 17.3291 14.7005C17.3291 15.563 18.0283 16.2622 18.8909 16.2622Z" fill="url(#paint3_linear_7058_2890)"/>
<path d="M10.5857 17.1332C11.9295 17.1332 13.019 16.0438 13.019 14.6999C13.019 13.356 11.9295 12.2666 10.5857 12.2666C9.24178 12.2666 8.15234 13.356 8.15234 14.6999C8.15234 16.0438 9.24178 17.1332 10.5857 17.1332Z" fill="url(#paint4_linear_7058_2890)"/>
<path d="M16.0002 4.80176C15.5756 4.80176 15.1569 4.82623 14.7446 4.87222C16.8578 5.10802 18.7931 5.93211 20.3837 7.17653C19.8072 7.57202 19.4392 8.24922 19.4789 9.00976C19.5346 10.0774 20.4116 10.9416 21.4799 10.9828C21.4911 10.9832 21.5023 10.9835 21.5134 10.9838C22.8362 11.0141 23.9955 11.897 24.3282 13.1775C24.5624 14.0791 24.6871 15.0248 24.6871 15.9997C24.6871 18.4531 23.8976 20.7218 22.5594 22.5666C22.5639 22.4988 22.5669 22.4307 22.5669 22.3618C22.5669 20.6148 21.1175 19.2063 19.3556 19.2732C17.7536 19.334 16.4482 20.6393 16.3874 22.2413C16.3677 22.7593 16.4756 23.2504 16.6821 23.6855C17.3779 25.1514 16.4622 26.8919 14.8547 27.1135C14.8175 27.1186 14.7808 27.1232 14.7448 27.1272C15.157 27.1732 15.5758 27.1977 16.0003 27.1977C22.1848 27.1977 27.1983 22.1842 27.1983 15.9997C27.1983 9.81522 22.1846 4.80176 16.0002 4.80176Z" fill="url(#paint5_linear_7058_2890)"/>
</g>
<defs>
<linearGradient id="paint0_linear_7058_2890" x1="0.0412235" y1="16" x2="33.7569" y2="16" gradientUnits="userSpaceOnUse">
<stop stop-color="#FBB43E"/>
<stop offset="0.5841" stop-color="#FC9D00"/>
<stop offset="0.9984" stop-color="#FF0366"/>
</linearGradient>
<linearGradient id="paint1_linear_7058_2890" x1="-2.31137" y1="15.9998" x2="31.6269" y2="15.9998" gradientUnits="userSpaceOnUse">
<stop stop-color="#FBB43E"/>
<stop offset="0.5841" stop-color="#FC9D00"/>
<stop offset="0.9984" stop-color="#FF0366"/>
</linearGradient>
<linearGradient id="paint2_linear_7058_2890" x1="4.80225" y1="15.9998" x2="27.1982" y2="15.9998" gradientUnits="userSpaceOnUse">
<stop stop-color="#FCEC7C"/>
<stop offset="0.5213" stop-color="#FFDF00"/>
<stop offset="1" stop-color="#FC9D00"/>
</linearGradient>
<linearGradient id="paint3_linear_7058_2890" x1="-13.8668" y1="14.7005" x2="24.975" y2="14.7005" gradientUnits="userSpaceOnUse">
<stop stop-color="#FCEC7C"/>
<stop offset="0.5213" stop-color="#FFDF00"/>
<stop offset="1" stop-color="#FC9D00"/>
</linearGradient>
<linearGradient id="paint4_linear_7058_2890" x1="-13.8665" y1="14.6999" x2="24.9752" y2="14.6999" gradientUnits="userSpaceOnUse">
<stop stop-color="#FCEC7C"/>
<stop offset="0.5213" stop-color="#FFDF00"/>
<stop offset="1" stop-color="#FC9D00"/>
</linearGradient>
<linearGradient id="paint5_linear_7058_2890" x1="-13.8665" y1="15.9998" x2="24.9752" y2="15.9998" gradientUnits="userSpaceOnUse">
<stop stop-color="#FCEC7C"/>
<stop offset="0.5213" stop-color="#FFDF00"/>
<stop offset="1" stop-color="#FC9D00"/>
</linearGradient>
<clipPath id="clip0_7058_2890">
<rect width="32" height="32" fill="white"/>
</clipPath>
</defs>
</svg>
