<svg width="20" height="20" viewBox="0 0 20 20" fill="none" xmlns="http://www.w3.org/2000/svg">
<path d="M13.3337 3.125H6.66699C6.32533 3.125 6.04199 2.84167 6.04199 2.5C6.04199 2.15833 6.32533 1.875 6.66699 1.875H13.3337C13.6753 1.875 13.9587 2.15833 13.9587 2.5C13.9587 2.84167 13.6753 3.125 13.3337 3.125Z"/>
<path d="M13.3337 18.125H6.66699C6.32533 18.125 6.04199 17.8417 6.04199 17.5C6.04199 17.1583 6.32533 16.875 6.66699 16.875H13.3337C13.6753 16.875 13.9587 17.1583 13.9587 17.5C13.9587 17.8417 13.6753 18.125 13.3337 18.125Z"/>
<path d="M12.917 4.16699H7.08366C5.14199 4.16699 4.16699 5.14199 4.16699 7.08366V12.917C4.16699 14.8587 5.14199 15.8337 7.08366 15.8337H12.917C14.8587 15.8337 15.8337 14.8587 15.8337 12.917V7.08366C15.8337 5.14199 14.8587 4.16699 12.917 4.16699ZM12.0837 11.042H9.58366C9.24199 11.042 8.95866 10.7587 8.95866 10.417V7.91699C8.95866 7.57533 9.24199 7.29199 9.58366 7.29199C9.92533 7.29199 10.2087 7.57533 10.2087 7.91699V9.79199H12.0837C12.4253 9.79199 12.7087 10.0753 12.7087 10.417C12.7087 10.7587 12.4253 11.042 12.0837 11.042Z"/>
</svg>
