<svg width="16" height="16" viewBox="0 0 16 16" fill="none" xmlns="http://www.w3.org/2000/svg">
<path d="M1.28711 2.76905C1.44402 1.6522 1.95476 1.23069 3.02238 1.23069H12.6433C12.8016 1.23782 12.9511 1.30579 13.0606 1.42042C13.1701 1.53506 13.2311 1.68752 13.2309 1.84603V2.76905H1.28711ZM14.4616 2.79674V1.84603C14.4617 1.3612 14.271 0.895798 13.9308 0.550384C13.5905 0.204971 13.1281 0.00727258 12.6433 0H3.02238C0.345631 0 0.0410354 2.1814 0.00103801 3.31363C-0.000346004 3.32487 -0.000346004 3.33624 0.00103801 3.34747V3.3844V13.2299C0.00103801 13.7195 0.19553 14.1891 0.541729 14.5353C0.887927 14.8815 1.35747 15.0759 1.84707 15.0759H14.154C14.6436 15.0759 15.1131 14.8815 15.4593 14.5353C15.8055 14.1891 16 13.7195 16 13.2299V4.61509C15.9996 4.17915 15.8449 3.75744 15.5633 3.42463C15.2817 3.09182 14.8915 2.8694 14.4616 2.79674ZM12.4618 10.4609C12.1879 10.4609 11.9203 10.3797 11.6926 10.2275C11.4649 10.0754 11.2874 9.85916 11.1826 9.60617C11.0778 9.35318 11.0504 9.0748 11.1038 8.80623C11.1573 8.53765 11.2891 8.29096 11.4828 8.09733C11.6764 7.9037 11.9231 7.77183 12.1917 7.71841C12.4602 7.66499 12.7386 7.69241 12.9916 7.7972C13.2446 7.90199 13.4608 8.07945 13.613 8.30713C13.7651 8.53482 13.8463 8.8025 13.8463 9.07633C13.8467 9.25827 13.8112 9.43849 13.7417 9.60665C13.6723 9.77481 13.5703 9.9276 13.4417 10.0562C13.313 10.1849 13.1602 10.2869 12.9921 10.3563C12.8239 10.4257 12.6437 10.4613 12.4618 10.4609Z" fill="#004DFF"/>
</svg>
