<svg width="21" height="19" viewBox="0 0 21 19" fill="none" xmlns="http://www.w3.org/2000/svg">
<path d="M1.448 5.06997C1.62452 3.83175 2.1991 3.36443 3.40018 3.36443H14.2237C14.4019 3.37234 14.57 3.44769 14.6932 3.57479C14.8164 3.70188 14.885 3.87091 14.8848 4.04665V5.06997H1.448ZM16.2693 5.10067V4.04665C16.2694 3.50912 16.0549 2.99315 15.6721 2.6102C15.2894 2.22725 14.7691 2.00806 14.2237 2H3.40018C0.388835 2 0.0461648 4.41845 0.00116776 5.67373C-0.000389255 5.68619 -0.000389255 5.69879 0.00116776 5.71125C0.00116776 5.71125 0.00116776 5.75219 0.00116776 5.75219V16.6676C0.00116776 17.2104 0.219972 17.731 0.609445 18.1148C0.998918 18.4987 1.52716 18.7143 2.07796 18.7143H15.9232C16.474 18.7143 17.0023 18.4987 17.3917 18.1148C17.7812 17.731 18 17.2104 18 16.6676V7.11662C17.9995 6.63331 17.8255 6.16577 17.5087 5.79679C17.1919 5.42782 16.7529 5.18122 16.2693 5.10067V5.10067ZM14.0195 13.5977C13.7114 13.5977 13.4103 13.5076 13.1541 13.339C12.898 13.1703 12.6984 12.9306 12.5805 12.6501C12.4626 12.3696 12.4317 12.061 12.4918 11.7632C12.5519 11.4655 12.7003 11.192 12.9181 10.9773C13.1359 10.7626 13.4135 10.6164 13.7156 10.5572C14.0178 10.498 14.3309 10.5284 14.6156 10.6445C14.9002 10.7607 15.1434 10.9575 15.3146 11.2099C15.4857 11.4623 15.5771 11.7591 15.5771 12.0627C15.5775 12.2644 15.5376 12.4642 15.4594 12.6506C15.3813 12.8371 15.2666 13.0065 15.1219 13.1491C14.9772 13.2917 14.8053 13.4048 14.6161 13.4817C14.4269 13.5587 14.2242 13.5981 14.0195 13.5977Z" fill="#04004D"/>
<circle cx="16.3334" cy="4" r="4" fill="white"/>
<path fill-rule="evenodd" clip-rule="evenodd" d="M20.3334 4C20.3334 6.20915 18.5425 8 16.3334 8C14.1242 8 12.3334 6.20915 12.3334 4C12.3334 1.79086 14.1242 0 16.3334 0C18.5425 0 20.3334 1.79086 20.3334 4ZM16.8334 6C16.8334 6.27615 16.6095 6.5 16.3334 6.5C16.0572 6.5 15.8334 6.27615 15.8334 6C15.8334 5.72385 16.0572 5.5 16.3334 5.5C16.6095 5.5 16.8334 5.72385 16.8334 6ZM16.3334 1.5C16.0572 1.5 15.8334 1.72386 15.8334 2V4C15.8334 4.27615 16.0572 4.5 16.3334 4.5C16.6095 4.5 16.8334 4.27615 16.8334 4V2C16.8334 1.72386 16.6095 1.5 16.3334 1.5Z" fill="#FF0366"/>
</svg>
