<svg width="24" height="24" viewBox="0 0 24 24" fill="none" xmlns="http://www.w3.org/2000/svg">
<path d="M18.6719 4.75H17.3594C17.1953 4.75 17.0312 4.91406 17.0312 5.07812C17.0312 5.10547 17.0312 5.10547 17.0312 5.10547L17.1406 7.375C15.9102 5.89844 14.0508 4.96875 12 4.96875C8.25391 4.96875 5.19141 8.03125 5.21875 11.7773C5.21875 15.5234 8.25391 18.5312 12 18.5312C13.75 18.5312 15.3359 17.875 16.5391 16.8086C16.5938 16.7266 16.6484 16.6445 16.6484 16.5625C16.6484 16.4531 16.5938 16.3711 16.5391 16.3164L15.6094 15.3867C15.5547 15.332 15.4727 15.3047 15.3906 15.3047C15.3086 15.3047 15.2266 15.332 15.1719 15.3867C14.3242 16.125 13.2031 16.5625 12 16.5625C9.32031 16.5625 7.1875 14.4297 7.1875 11.75C7.1875 9.09766 9.32031 6.9375 12 6.9375C13.6406 6.9375 15.1172 7.78516 15.9922 9.07031L13.2031 8.93359C13.2031 8.93359 13.2031 8.93359 13.1758 8.93359C13.0117 8.93359 12.8477 9.09766 12.8477 9.26172H12.875V10.5742C12.875 10.7383 13.0117 10.9023 13.2031 10.9023H18.6719C18.8359 10.9023 19 10.7383 19 10.5742V5.07812C19 4.91406 18.8359 4.75 18.6719 4.75Z" fill="white"/>
</svg>
