<svg width="32" height="32" viewBox="0 0 32 32" fill="none" xmlns="http://www.w3.org/2000/svg">
<path d="M16 32C24.8366 32 32 24.8366 32 16C32 7.16344 24.8366 0 16 0C7.16344 0 0 7.16344 0 16C0 24.8366 7.16344 32 16 32Z" fill="url(#paint0_linear_7058_2913)"/>
<path d="M15.9996 0C15.577 0 15.1584 0.0166902 14.7441 0.0488157C16.5082 0.185725 18.1921 0.608878 19.7493 1.27172C22.9515 2.63473 23.5301 6.94745 20.7993 9.10482C20.7772 9.12232 20.7555 9.13914 20.7344 9.15539C18.8017 10.6382 16.4938 12.0096 13.9641 13.1634C13.2682 13.4808 12.5709 13.7746 11.8759 14.0439C11.3329 14.2544 10.9756 14.7768 10.9756 15.3591C10.9756 16.3509 11.9716 17.0344 12.8965 16.6762C13.6432 16.387 14.3909 16.0721 15.1358 15.7324C18.7887 14.0663 22.0379 11.9567 24.4876 9.67925C24.6199 9.55627 24.8175 9.35555 25.0431 9.11862C25.9918 8.1226 27.6486 8.41813 28.1923 9.68163C28.1979 9.69456 28.2034 9.70742 28.2089 9.72035C28.4842 10.3652 28.3902 11.112 27.9526 11.6598C27.7794 11.8766 27.5944 12.0952 27.3977 12.315C27.2921 12.4331 27.1835 12.5508 27.0726 12.6684C26.6158 11.9908 25.827 11.5556 24.9394 11.5962C23.6265 11.6562 22.614 12.7245 22.6203 14.0388C22.6203 14.0515 22.6204 14.0642 22.6208 14.0769C22.6497 15.5122 21.8964 16.8465 20.6502 17.5592C20.3217 17.747 19.9874 17.9314 19.6476 18.112C19.0548 18.4271 18.7404 19.1104 18.9233 19.7564C19.1693 20.6252 20.1517 21.0405 20.9439 20.6198C22.4767 19.8058 23.9141 18.9164 25.222 17.9754C27.0067 16.6914 29.4359 18.3517 28.8546 20.4721C28.848 20.4959 28.8414 20.5191 28.8348 20.5416C28.4998 21.6754 28.042 22.7563 27.4778 23.7699C26.8626 23.4393 26.1601 23.2504 25.4127 23.2504C22.9966 23.2504 21.038 25.209 21.038 27.6252C21.038 28.412 21.247 29.1494 21.6108 29.7872C19.5692 30.9925 17.2369 31.7576 14.7441 31.9511C15.1584 31.9833 15.577 32 15.9996 32C24.8362 32 31.9996 24.8366 31.9996 16C31.9996 7.16342 24.8362 0 15.9996 0V0Z" fill="url(#paint1_linear_7058_2913)"/>
<path d="M16.2398 21.115C15.9296 20.4621 15.1754 20.1474 14.4946 20.3905C11.4371 21.4825 8.45836 22.0895 5.88299 22.128C5.80061 22.1293 5.71929 22.1299 5.63816 22.1299C3.35549 22.1299 1.60591 21.6415 0.727539 20.7848C1.15966 22.1656 1.774 23.4659 2.54225 24.6576C3.46881 24.8531 4.50247 24.9535 5.63289 24.9535C5.72958 24.9535 5.82721 24.9528 5.92534 24.9513C8.79719 24.9083 12.0864 24.2447 15.4332 23.0522C16.2228 22.7708 16.5995 21.8721 16.2398 21.115Z" fill="url(#paint2_linear_7058_2913)"/>
<path d="M17.6892 6.75531C19.0331 6.75531 20.1225 5.66587 20.1225 4.32199C20.1225 2.97811 19.0331 1.88867 17.6892 1.88867C16.3453 1.88867 15.2559 2.97811 15.2559 4.32199C15.2559 5.66587 16.3453 6.75531 17.6892 6.75531Z" fill="url(#paint3_linear_7058_2913)"/>
<path d="M15.2548 30.5974C16.5987 30.5974 17.6881 29.508 17.6881 28.1641C17.6881 26.8202 16.5987 25.7308 15.2548 25.7308C14.6209 25.7308 14.0438 25.9734 13.6107 26.3705C13.3338 25.8613 12.7941 25.5156 12.1738 25.5156C11.2709 25.5156 10.5391 26.2475 10.5391 27.1504C10.5391 28.0532 11.271 28.7851 12.1738 28.7851C12.4215 28.7851 12.6563 28.7297 12.8667 28.631C13.0846 29.7514 14.0707 30.5974 15.2548 30.5974Z" fill="url(#paint4_linear_7058_2913)"/>
<path d="M7.55038 15.3762C9.44221 15.3762 10.9758 13.8425 10.9758 11.9507C10.9758 10.9378 10.5359 10.028 9.83706 9.40082C10.056 9.12273 10.1871 8.77205 10.1871 8.39062C10.1871 7.48778 9.45513 6.75586 8.55236 6.75586C7.64958 6.75586 6.91766 7.48778 6.91766 8.39062C6.91766 8.45556 6.92186 8.5195 6.92927 8.58249C5.33416 8.87489 4.125 10.2711 4.125 11.9507C4.12494 13.8425 5.65855 15.3762 7.55038 15.3762Z" fill="url(#paint5_linear_7058_2913)"/>
<path d="M21.7567 24.0957C21.7567 23.1929 21.0248 22.4609 20.122 22.4609C19.2192 22.4609 18.4873 23.1929 18.4873 24.0957C18.4873 24.9985 19.2192 25.7304 20.122 25.7304C21.0248 25.7304 21.7567 24.9985 21.7567 24.0957Z" fill="url(#paint6_linear_7058_2913)"/>
<path d="M4.68646 21.4452C5.5893 21.4452 6.32115 20.7133 6.32115 19.8105C6.32115 18.9077 5.58923 18.1758 4.68646 18.1758C3.78368 18.1758 3.05176 18.9077 3.05176 19.8105C3.05176 20.7133 3.78362 21.4452 4.68646 21.4452Z" fill="url(#paint7_linear_7058_2913)"/>
<defs>
<linearGradient id="paint0_linear_7058_2913" x1="-38.8527" y1="16" x2="30.6783" y2="16" gradientUnits="userSpaceOnUse">
<stop stop-color="#FCEC7C"/>
<stop offset="0.5841" stop-color="#FDE63E"/>
<stop offset="0.9984" stop-color="#04B800"/>
</linearGradient>
<linearGradient id="paint1_linear_7058_2913" x1="4.27083" y1="16" x2="39.0972" y2="16" gradientUnits="userSpaceOnUse">
<stop stop-color="#FFDF00"/>
<stop offset="0.5213" stop-color="#4FD143"/>
<stop offset="1" stop-color="#04B800"/>
</linearGradient>
<linearGradient id="paint2_linear_7058_2913" x1="4.27088" y1="22.631" x2="39.0972" y2="22.631" gradientUnits="userSpaceOnUse">
<stop stop-color="#FFDF00"/>
<stop offset="0.5213" stop-color="#4FD143"/>
<stop offset="1" stop-color="#04B800"/>
</linearGradient>
<linearGradient id="paint3_linear_7058_2913" x1="4.27139" y1="4.32199" x2="39.0977" y2="4.32199" gradientUnits="userSpaceOnUse">
<stop stop-color="#FDE63E"/>
<stop offset="0.5213" stop-color="#4FD143"/>
<stop offset="1" stop-color="#04B800"/>
</linearGradient>
<linearGradient id="paint4_linear_7058_2913" x1="4.27032" y1="28.0565" x2="39.0967" y2="28.0565" gradientUnits="userSpaceOnUse">
<stop stop-color="#FDE63E"/>
<stop offset="0.5213" stop-color="#4FD143"/>
<stop offset="1" stop-color="#04B800"/>
</linearGradient>
<linearGradient id="paint5_linear_7058_2913" x1="4.27107" y1="11.0661" x2="39.0974" y2="11.0661" gradientUnits="userSpaceOnUse">
<stop stop-color="#FFDF00"/>
<stop offset="0.5213" stop-color="#4FD143"/>
<stop offset="1" stop-color="#04B800"/>
</linearGradient>
<linearGradient id="paint6_linear_7058_2913" x1="4.27084" y1="24.0957" x2="39.0972" y2="24.0957" gradientUnits="userSpaceOnUse">
<stop stop-color="#FCEC7C"/>
<stop offset="0.5213" stop-color="#4FD143"/>
<stop offset="1" stop-color="#04B800"/>
</linearGradient>
<linearGradient id="paint7_linear_7058_2913" x1="4.27064" y1="19.8105" x2="39.097" y2="19.8105" gradientUnits="userSpaceOnUse">
<stop stop-color="#FDE63E"/>
<stop offset="0.5213" stop-color="#4FD143"/>
<stop offset="1" stop-color="#04B800"/>
</linearGradient>
</defs>
</svg>
