<svg width="13" height="13" viewBox="0 0 13 13" fill="none" xmlns="http://www.w3.org/2000/svg">
<path d="M0 4.04688C0 4.23828 0.136719 4.375 0.328125 4.375H1.42188C1.58594 4.375 1.75 4.23828 1.75 4.04688V1.75H4.04688C4.21094 1.75 4.375 1.61328 4.375 1.42188V0.328125C4.375 0.164062 4.21094 0 4.04688 0H0.65625C0.273438 0 0 0.300781 0 0.65625V4.04688ZM7.875 0.328125V1.42188C7.875 1.61328 8.01172 1.75 8.20312 1.75H10.5V4.04688C10.5 4.23828 10.6367 4.375 10.8281 4.375H11.9219C12.0859 4.375 12.25 4.23828 12.25 4.04688V0.65625C12.25 0.300781 11.9492 0 11.5938 0H8.20312C8.01172 0 7.875 0.164062 7.875 0.328125ZM11.9219 7.875H10.8281C10.6367 7.875 10.5 8.03906 10.5 8.20312V10.5H8.20312C8.01172 10.5 7.875 10.6641 7.875 10.8281V11.9219C7.875 12.1133 8.01172 12.25 8.20312 12.25H11.5938C11.9492 12.25 12.25 11.9766 12.25 11.5938V8.20312C12.25 8.03906 12.0859 7.875 11.9219 7.875ZM4.375 11.9219V10.8281C4.375 10.6641 4.21094 10.5 4.04688 10.5H1.75V8.20312C1.75 8.03906 1.58594 7.875 1.42188 7.875H0.328125C0.136719 7.875 0 8.03906 0 8.20312V11.5938C0 11.9766 0.273438 12.25 0.65625 12.25H4.04688C4.21094 12.25 4.375 12.1133 4.375 11.9219Z" fill="#04004D"/>
</svg>
