<svg width="17" height="20" viewBox="0 0 17 20" fill="none" xmlns="http://www.w3.org/2000/svg">
<g filter="url(#filter0_b_1570_2220)">
<path d="M0 1.89189C0 0.847029 0.847029 0 1.89189 0H14.3243C15.3692 0 16.2162 0.847029 16.2162 1.89189V18.1081C16.2162 19.153 15.3692 20 14.3243 20H1.89189C0.847029 20 0 19.153 0 18.1081V1.89189Z" fill="#554CFF"/>
</g>
<path d="M2.43243 14.4898C2.43243 14.1913 2.67444 13.9493 2.97297 13.9493H11.3514C11.6499 13.9493 11.8919 14.1913 11.8919 14.4898C11.8919 14.7884 11.6499 15.0304 11.3514 15.0304H2.97297C2.67444 15.0304 2.43243 14.7884 2.43243 14.4898Z" fill="white"/>
<path d="M2.43243 16.9223C2.43243 16.6237 2.67444 16.3817 2.97297 16.3817H10C10.2985 16.3817 10.5405 16.6237 10.5405 16.9223C10.5405 17.2208 10.2985 17.4628 10 17.4628H2.97297C2.67444 17.4628 2.43243 17.2208 2.43243 16.9223Z" fill="white"/>
<path d="M16.2162 8.0033H14.1665C14.0468 8.0033 13.9321 8.05077 13.8474 8.13481L12.4952 9.47704C12.4196 9.45679 12.3402 9.44599 12.2582 9.44599C11.7574 9.44599 11.3514 9.84906 11.3514 10.3463C11.3514 10.8435 11.7574 11.2465 12.2582 11.2465C12.759 11.2465 13.165 10.8435 13.165 10.3463C13.165 10.2649 13.1541 10.1861 13.1338 10.1111L14.3539 8.90003H16.2162V8.0033Z" fill="white"/>
<path d="M10.9727 3.43393C10.8905 3.4559 10.8042 3.46762 10.715 3.46762C10.1709 3.46762 9.72974 3.03092 9.72974 2.49223C9.72974 1.95354 10.1709 1.51685 10.715 1.51685C11.2592 1.51685 11.7003 1.95354 11.7003 2.49223C11.7003 2.58029 11.6885 2.66561 11.6664 2.74676L12.992 4.05881H16.2162V5.03036H12.7885C12.6583 5.03036 12.5337 4.97925 12.4417 4.88821L10.9727 3.43393Z" fill="white"/>
<path d="M16.2162 6.11157H11.3212C11.1932 6.11157 11.0706 6.1639 10.9801 6.25747L10.1415 7.12161C10.0607 7.09907 9.97568 7.08705 9.88792 7.08705C9.35277 7.08705 8.91895 7.5342 8.91895 8.0858C8.91895 8.63739 9.35277 9.08455 9.88792 9.08455C10.4231 9.08455 10.8569 8.63739 10.8569 8.0858C10.8569 7.99575 10.8453 7.90849 10.8237 7.82551L11.5213 7.1064H16.2162V6.11157Z" fill="white"/>
<defs>
<filter id="filter0_b_1570_2220" x="-12.31" y="-12.31" width="40.8362" height="44.62" filterUnits="userSpaceOnUse" color-interpolation-filters="sRGB">
<feFlood flood-opacity="0" result="BackgroundImageFix"/>
<feGaussianBlur in="BackgroundImageFix" stdDeviation="6.155"/>
<feComposite in2="SourceAlpha" operator="in" result="effect1_backgroundBlur_1570_2220"/>
<feBlend mode="normal" in="SourceGraphic" in2="effect1_backgroundBlur_1570_2220" result="shape"/>
</filter>
</defs>
</svg>
