<svg width="32" height="32" viewBox="0 0 32 32" fill="none" xmlns="http://www.w3.org/2000/svg">
<rect width="32" height="32" rx="6" fill="#D5E9FA"/>
<g clip-path="url(#clip0_1588_2648)">
<path d="M16.0391 6C10.543 6 6 10.4648 6 15.9609C6 21.457 10.543 26 16.0391 26C21.5351 26 26 21.457 26 15.9609C26 10.4648 21.5351 6 16.0391 6Z" fill="#BDE1FF"/>
<path d="M16.0391 8.34375C11.8437 8.34375 8.34375 11.7656 8.34375 15.9609C8.34375 20.1563 11.8437 23.6562 16.0391 23.6562C20.2345 23.6562 23.6562 20.1563 23.6562 15.9609C23.6562 11.7656 20.2345 8.34375 16.0391 8.34375Z" fill="#0084F4"/>
<path d="M17.2109 15.375H16.625V13.0312H17.2109C17.5391 13.0312 17.7969 13.289 17.7969 13.6172C17.7969 14.3906 18.9688 14.3906 18.9688 13.6172C18.9688 12.6445 18.1837 11.8594 17.2109 11.8594H16.625V11.2734C16.625 10.8867 16.332 10.6875 16.0391 10.6875C15.7461 10.6875 15.4531 10.8867 15.4531 11.2734V11.8594H14.7891C13.8163 11.8594 13.0312 12.6445 13.0312 13.6172V14.7891C13.0312 15.7618 13.8163 16.5469 14.7891 16.5469H15.4531V18.9688H14.7891C14.4609 18.9688 14.2031 18.711 14.2031 18.3828C14.2031 17.6094 13.0312 17.6094 13.0312 18.3828C13.0312 19.3555 13.8163 20.1406 14.7891 20.1406H15.4531V20.7266C15.4531 21.1133 15.7461 21.3125 16.0391 21.3125C16.332 21.3125 16.625 21.1133 16.625 20.7266V20.1406H17.2109C18.1837 20.1406 18.9688 19.3555 18.9688 18.3828V17.1328C18.9688 16.1601 18.1837 15.375 17.2109 15.375ZM15.4531 15.375H14.7891C14.4609 15.375 14.2031 15.1172 14.2031 14.7891V13.6172C14.2031 13.289 14.4609 13.0312 14.7891 13.0312H15.4531V15.375ZM17.7969 18.3828C17.7969 18.711 17.5391 18.9688 17.2109 18.9688H16.625V16.5469H17.2109C17.5391 16.5469 17.7969 16.8046 17.7969 17.1328V18.3828Z" fill="#BDE1FF"/>
</g>
<defs>
<clipPath id="clip0_1588_2648">
<rect width="20" height="20" fill="white" transform="translate(6 6)"/>
</clipPath>
</defs>
</svg>
