<svg width="20" height="20" viewBox="0 0 20 20" fill="none" xmlns="http://www.w3.org/2000/svg">
<g clip-path="url(#clip0_1570_2522)">
<path d="M18.4921 15.2822C19.4475 13.7494 20 11.9394 20 9.99961C20 4.47641 15.5232 0 10 0C4.4768 0 0 4.47641 0 9.99961C0 15.5244 4.4768 20 10 20C11.9398 20 13.7502 19.4473 15.2834 18.4914L19.6664 19.6656L18.4921 15.2822ZM10 4.66359C10.6932 4.66359 11.2556 5.22559 11.2556 5.91918C11.2556 6.61238 10.6936 7.17477 10 7.17477C9.30641 7.17477 8.74441 6.61277 8.74441 5.91918C8.74441 5.22559 9.3068 4.66359 10 4.66359ZM12.1972 15.3368H7.80281V13.4532H8.74441V9.68641H7.80281V7.8032H11.2556V9.68641V13.4532H12.1972V15.3368H12.1972Z" fill="#04004D"/>
</g>
<defs>
<clipPath id="clip0_1570_2522">
<rect width="20" height="20" fill="white"/>
</clipPath>
</defs>
</svg>
