<svg width="556" height="500" viewBox="0 0 556 500" fill="none" xmlns="http://www.w3.org/2000/svg">
<g opacity="0.5" filter="url(#filter0_f_6657_2882)">
<path d="M525.729 418.287L287.871 469.415L433.476 362.342L525.729 418.287Z" fill="#D5E9FA"/>
</g>
<path d="M492.718 285.752L453.446 353.923C453.446 353.923 408.245 444.323 280.054 453.956C274.089 450.444 259.151 441.619 248.384 425.436C248.377 425.428 248.377 425.421 248.377 425.421C236.402 407.422 229.585 380.331 245.968 341.326C254.86 318.355 298.579 259.076 314.14 251.666C325.254 249.443 402.317 242.774 402.317 242.774C402.317 242.774 411.209 241.292 422.324 246.479C433.439 251.666 492.718 285.752 492.718 285.752Z" fill="url(#paint0_linear_6657_2882)"/>
<g filter="url(#filter1_b_6657_2882)">
<path d="M406.414 253.682C396.596 263.315 387.156 273.859 378.182 284.878L377.293 284.774L369.816 283.9L310.063 367.631C310.063 367.631 314.353 369.195 319.259 370.899C319.481 370.973 319.696 371.047 319.918 371.129C304.483 398.042 293.235 421.101 287.448 433.483C287.381 433.624 287.315 433.757 287.255 433.891C281.631 430.564 269.612 423.028 260.809 409.809V409.794C250.473 394.27 245.915 372.381 260.046 338.733C267.715 318.919 309.604 267.324 323.03 260.929C332.619 259.01 393.61 252.23 393.61 252.23C393.61 252.23 398.596 251.392 405.554 253.423C405.836 253.504 406.125 253.593 406.414 253.682V253.682Z" fill="url(#paint1_linear_6657_2882)" fill-opacity="0.5"/>
</g>
<path d="M418.159 259.401C408.586 254.978 396.945 255.934 396.945 255.934C396.945 255.934 335.954 262.714 326.366 264.633C312.939 271.028 271.051 322.623 263.381 342.437C249.251 376.085 253.808 397.974 264.145 413.498V413.513C266.308 416.758 268.665 419.663 271.08 422.249C267.42 418.84 263.708 414.713 260.44 409.808V409.793C250.103 394.269 245.546 372.38 259.677 338.732C267.346 318.918 309.234 267.323 322.661 260.928C332.249 259.009 393.24 252.229 393.24 252.229C393.24 252.229 400.909 250.947 410.498 255.422C412.069 256.156 414.766 257.564 418.159 259.401V259.401Z" fill="url(#paint2_linear_6657_2882)"/>
<path d="M503.092 298.349C503.092 298.349 471.97 359.11 460.114 375.412C448.258 391.714 403.799 459.885 288.205 470.999C283.759 465.072 280.054 453.957 280.054 453.957C408.245 444.324 453.445 353.923 453.445 353.923L492.718 285.752L503.092 298.349Z" fill="url(#paint3_linear_6657_2882)"/>
<path d="M288.205 471.001C253.919 447.66 248.539 426.104 248.384 425.438C259.15 441.621 274.089 450.446 280.054 453.958C280.054 453.958 283.759 465.073 288.205 471.001Z" fill="url(#paint4_linear_6657_2882)"/>
<path d="M385.63 285.753C385.63 285.753 340.445 341.698 324.884 372.819C318.215 370.596 310.064 367.632 310.064 367.632L369.817 283.9L385.623 285.753H385.63Z" fill="#827CFF"/>
<g filter="url(#filter2_f_6657_2882)">
<path d="M10 304.914L323.809 372.344L375.308 288.612L302.691 10L10 304.914Z" fill="url(#paint5_linear_6657_2882)"/>
</g>
<path d="M405.526 242.582V243.323C409.298 243.323 415.226 243.99 422.013 247.154C432.35 251.977 485.249 282.314 491.711 286.026L452.809 353.552V353.575L452.786 353.597C452.675 353.819 441.242 376.338 414.336 399.775C398.531 413.55 380.562 424.924 360.926 433.594C336.444 444.405 309.294 451 280.225 453.208C274.43 449.792 259.684 441.004 249.11 425.206L248.984 425.013C233.787 402.169 232.994 374.107 246.65 341.593C250.807 330.848 263.167 311.027 278.135 291.102C293.57 270.554 307.434 255.734 314.362 252.37C325.64 250.162 401.599 243.575 402.369 243.508H402.429C402.429 243.508 403.585 243.315 405.511 243.315V242.574L405.526 242.582ZM405.511 242.574C403.481 242.574 402.303 242.767 402.303 242.767C402.303 242.767 325.24 249.436 314.125 251.659C298.564 259.069 254.846 318.348 245.954 341.319C229.571 380.324 236.388 407.415 248.362 425.413C248.362 425.413 248.362 425.421 248.369 425.428C259.136 441.612 274.074 450.437 280.039 453.949C408.231 444.316 453.431 353.915 453.431 353.915L492.703 285.744C492.703 285.744 433.424 251.659 422.309 246.472C415.233 243.174 409.061 242.574 405.511 242.574Z" fill="white"/>
<path d="M167.024 246.367C162.528 226.749 146.694 213.638 131.657 217.084C116.62 220.53 108.075 239.228 112.571 258.847C117.067 278.465 132.901 291.576 147.938 288.129C162.975 284.683 171.52 265.986 167.024 246.367Z" fill="url(#paint6_linear_6657_2882)"/>
<path d="M173.999 244.575C168.567 225.195 152.121 212.86 137.267 217.023C122.412 221.187 114.774 240.273 120.206 259.653C125.638 279.033 142.084 291.369 156.938 287.205C171.793 283.042 179.431 263.956 173.999 244.575Z" fill="url(#paint7_linear_6657_2882)"/>
<path d="M135.258 217.688L135.416 218.095C136.059 217.845 136.718 217.626 137.385 217.437C151.982 213.344 168.222 225.569 173.58 244.684C176.055 253.505 175.873 262.623 173.079 270.359C170.311 278.019 165.238 283.616 158.795 286.121C158.152 286.371 157.489 286.592 156.822 286.78C142.225 290.873 125.985 278.649 120.627 259.533C118.153 250.713 118.335 241.595 121.129 233.859C123.898 226.203 128.969 220.602 135.412 218.097L135.254 217.69L135.258 217.688ZM135.254 217.69C121.737 222.946 115.025 241.163 120.208 259.649C125.642 279.031 142.088 291.363 156.94 287.203C157.628 287.01 158.296 286.788 158.951 286.534C172.468 281.278 179.18 263.06 173.996 244.574C168.563 225.193 152.117 212.861 137.265 217.02C136.576 217.213 135.909 217.435 135.254 217.69V217.69Z" fill="url(#paint8_linear_6657_2882)"/>
<path d="M154.933 251.961C153.384 246.761 148.971 243.486 145.076 244.646C141.181 245.806 139.279 250.962 140.828 256.163C142.377 261.363 146.79 264.638 150.685 263.477C154.58 262.317 156.482 257.161 154.933 251.961Z" fill="#827CFF"/>
<path d="M153.457 231.949C157.955 234.869 161.817 239.853 163.958 246.166C166.051 252.344 166.098 258.629 164.475 263.802L164.423 263.968C164.182 264.661 163.723 265.204 163.092 265.436C162.368 265.704 161.57 265.508 160.904 264.975C160.369 264.551 159.901 263.914 159.638 263.127C159.339 262.25 159.335 261.362 159.562 260.632C160.747 256.875 160.724 252.36 159.22 247.925C158.602 246.109 157.785 244.441 156.823 242.966C156.143 241.928 155.391 240.98 154.579 240.134C154.055 239.593 153.51 239.093 152.944 238.639C152.806 238.524 152.665 238.415 152.516 238.309C151.904 237.915 151.214 237.79 150.576 238.028C150.249 238.151 149.968 238.354 149.743 238.619C149.158 239.282 148.533 239.891 147.859 240.434C147.435 240.777 146.996 241.092 146.538 241.383C145.733 241.892 144.878 242.319 143.971 242.657C143.063 242.996 142.15 243.225 141.227 243.359C140.705 243.436 140.179 243.481 139.651 243.494C138.817 243.519 137.977 243.466 137.148 243.344C137.103 243.338 137.059 243.331 137.012 243.321C136.704 243.287 136.397 243.317 136.099 243.428C135.407 243.683 134.918 244.318 134.702 245.123C134.692 245.17 134.678 245.217 134.668 245.263C134.479 246.044 134.345 246.854 134.26 247.684C134.137 248.884 134.12 250.131 134.224 251.397C134.365 253.168 134.731 254.988 135.345 256.796C136.851 261.235 139.544 264.754 142.692 266.864C143.345 267.303 143.878 267.999 144.171 268.874C144.439 269.659 144.473 270.456 144.311 271.137C144.113 271.987 143.62 272.67 142.895 272.938C142.265 273.173 141.581 273.051 140.972 272.665C136.47 269.639 132.717 264.73 130.622 258.548C128.527 252.366 128.484 245.837 130.206 240.606C130.36 240.134 130.53 239.67 130.712 239.22C130.863 238.852 131.018 238.492 131.182 238.143C131.236 238.051 131.291 237.964 131.348 237.882C131.796 237.216 132.401 236.713 133.129 236.44C133.717 236.22 134.331 236.173 134.935 236.281C135.226 236.378 135.518 236.466 135.814 236.543C137.845 237.055 139.885 236.992 141.822 236.277C143.788 235.54 145.416 234.224 146.661 232.499C146.696 232.457 146.726 232.413 146.758 232.363C146.869 232.202 146.978 232.038 147.087 231.874C147.516 231.314 148.063 230.89 148.71 230.653C149.435 230.385 150.195 230.375 150.932 230.585C151.037 230.614 151.14 230.649 151.248 230.687C151.587 230.85 151.922 231.024 152.257 231.212C152.662 231.434 153.067 231.68 153.462 231.938L153.457 231.949ZM132.021 244.49L132.037 244.399L132.022 244.48C131.996 244.607 131.97 244.734 131.946 244.865C131.972 244.738 131.995 244.617 132.021 244.49Z" fill="#827CFF"/>
<path d="M156.809 250.766C155.26 245.566 150.847 242.291 146.952 243.451C143.057 244.611 141.156 249.767 142.705 254.967C144.254 260.167 148.667 263.442 152.562 262.282C156.456 261.122 158.358 255.966 156.809 250.766Z" fill="url(#paint9_linear_6657_2882)"/>
<path d="M155.333 230.752C159.83 233.672 163.693 238.656 165.834 244.969C167.927 251.147 167.973 257.432 166.351 262.605L166.298 262.771C166.057 263.464 165.599 264.007 164.968 264.239C164.243 264.506 163.446 264.311 162.78 263.778C162.245 263.354 161.777 262.716 161.513 261.929C161.214 261.053 161.211 260.164 161.437 259.435C162.622 255.677 162.599 251.163 161.095 246.727C160.478 244.912 159.661 243.244 158.698 241.768C158.019 240.731 157.266 239.783 156.455 238.937C155.931 238.396 155.385 237.896 154.82 237.442C154.682 237.327 154.541 237.218 154.392 237.112C153.78 236.718 153.09 236.593 152.452 236.831C152.125 236.954 151.843 237.157 151.619 237.422C151.033 238.085 150.408 238.693 149.734 239.236C149.31 239.579 148.871 239.895 148.413 240.186C147.609 240.695 146.754 241.121 145.846 241.46C144.938 241.799 144.025 242.028 143.103 242.162C142.58 242.238 142.055 242.283 141.526 242.297C140.693 242.321 139.853 242.269 139.023 242.146C138.979 242.14 138.934 242.134 138.888 242.124C138.579 242.089 138.273 242.12 137.974 242.231C137.282 242.486 136.794 243.121 136.578 243.926C136.567 243.972 136.553 244.02 136.543 244.066C136.355 244.846 136.22 245.657 136.135 246.486C136.012 247.686 135.996 248.933 136.1 250.2C136.24 251.971 136.606 253.791 137.22 255.599C138.726 260.038 141.419 263.556 144.567 265.666C145.22 266.106 145.754 266.802 146.047 267.676C146.315 268.462 146.348 269.259 146.187 269.94C145.988 270.79 145.495 271.473 144.77 271.741C144.141 271.976 143.456 271.854 142.847 271.468C138.346 268.442 134.592 263.532 132.497 257.351C130.403 251.169 130.36 244.639 132.082 239.409C132.235 238.937 132.406 238.472 132.587 238.023C132.739 237.655 132.894 237.295 133.058 236.945C133.111 236.854 133.166 236.767 133.223 236.684C133.671 236.018 134.277 235.516 135.004 235.243C135.593 235.023 136.207 234.976 136.811 235.083C137.101 235.181 137.393 235.269 137.69 235.346C139.72 235.858 141.761 235.795 143.697 235.079C145.664 234.343 147.292 233.026 148.536 231.301C148.571 231.26 148.601 231.215 148.633 231.165C148.744 231.005 148.853 230.841 148.963 230.677C149.391 230.117 149.939 229.693 150.586 229.455C151.311 229.188 152.07 229.178 152.807 229.388C152.912 229.417 153.015 229.452 153.123 229.49C153.463 229.653 153.798 229.827 154.133 230.015C154.538 230.237 154.942 230.482 155.338 230.741L155.333 230.752ZM133.896 243.292L133.912 243.202L133.897 243.283C133.871 243.41 133.846 243.537 133.822 243.668C133.847 243.541 133.871 243.419 133.896 243.292" fill="url(#paint10_linear_6657_2882)"/>
<path d="M294.769 164.922C312.376 142.197 312.528 112.834 295.11 99.3392C277.691 85.8442 249.298 93.3272 231.691 116.053C214.085 138.778 213.932 168.141 231.35 181.636C248.769 195.131 277.162 187.648 294.769 164.922Z" fill="url(#paint11_linear_6657_2882)"/>
<path d="M303.061 171.002C319.557 147.458 318.301 118.122 300.255 105.478C282.209 92.8344 254.207 101.671 237.711 125.215C221.215 148.759 222.471 178.095 240.517 190.739C258.563 203.383 286.565 194.546 303.061 171.002Z" fill="url(#paint12_linear_6657_2882)"/>
<path d="M297.7 103.86L297.394 104.403C298.252 104.887 299.091 105.418 299.903 105.983C317.638 118.406 318.831 147.415 302.56 170.638C295.055 181.356 284.815 189.408 273.739 193.323C262.771 197.199 251.995 196.66 243.394 191.809C242.537 191.325 241.692 190.792 240.88 190.226C223.145 177.803 221.952 148.794 238.223 125.571C245.728 114.854 255.968 106.801 267.044 102.886C278.009 99.0156 288.788 99.5489 297.389 104.4L297.695 103.857L297.7 103.86ZM297.695 103.857C279.652 93.6797 253.448 102.754 237.716 125.214C221.22 148.76 222.48 178.094 240.52 190.739C241.356 191.325 242.205 191.861 243.08 192.354C261.122 202.532 287.326 193.458 303.059 170.998C319.555 147.451 318.294 118.118 300.255 105.473C299.419 104.887 298.569 104.35 297.695 103.857V103.857Z" fill="url(#paint13_linear_6657_2882)"/>
<path d="M291.443 122.719L287.324 128.104C289.836 130.237 291.115 132.804 291.17 135.827C291.225 138.85 290.038 141.945 287.61 145.121L279.697 140.471C281.029 138.732 281.736 137.212 281.823 135.916C281.919 134.617 281.385 133.622 280.23 132.941C279.196 132.337 278.136 132.212 277.033 132.569C275.937 132.925 274.921 133.712 273.986 134.938C273.051 136.164 272.626 137.349 272.721 138.461C272.82 139.569 273.346 140.882 274.289 142.395C275.238 143.91 276.082 145.396 276.829 146.862C277.576 148.329 278.07 149.788 278.319 151.238C278.567 152.688 278.493 154.178 278.108 155.685C277.714 157.195 276.874 158.798 275.587 160.483C273.401 163.344 270.775 165.17 267.706 165.979C264.637 166.789 261.531 166.483 258.384 165.072L254.534 170.108L250.813 167.923L254.684 162.863C251.576 160.481 249.921 157.693 249.717 154.515C249.516 151.331 250.737 148.012 253.38 144.557L261.265 149.191C259.811 151.097 259.099 152.778 259.124 154.231C259.154 155.687 259.897 156.844 261.348 157.698C262.405 158.323 263.5 158.475 264.625 158.157C265.752 157.834 266.766 157.089 267.671 155.903C268.68 154.583 269.171 153.371 269.134 152.256C269.1 151.149 268.576 149.808 267.554 148.244C266.536 146.674 265.645 145.17 264.871 143.724C264.103 142.282 263.59 140.833 263.341 139.383C263.093 137.933 263.177 136.463 263.58 134.987C263.987 133.506 264.831 131.92 266.126 130.232C268.283 127.412 270.952 125.611 274.129 124.826C277.305 124.042 280.491 124.371 283.684 125.815L287.725 120.529L291.446 122.714L291.443 122.719Z" fill="#554CFF"/>
<path d="M292.459 124.726L288.34 130.111C290.852 132.244 292.131 134.811 292.186 137.834C292.242 140.857 291.054 143.952 288.626 147.127L280.713 142.478C282.045 140.738 282.752 139.219 282.839 137.923C282.935 136.624 282.401 135.628 281.246 134.948C280.213 134.344 279.153 134.218 278.049 134.576C276.954 134.932 275.937 135.719 275.002 136.945C274.067 138.171 273.642 139.355 273.738 140.468C273.836 141.576 274.362 142.889 275.305 144.402C276.254 145.917 277.098 147.403 277.845 148.869C278.593 150.336 279.086 151.795 279.335 153.245C279.583 154.695 279.509 156.185 279.124 157.692C278.73 159.202 277.891 160.804 276.603 162.49C274.417 165.351 271.791 167.176 268.722 167.986C265.653 168.796 262.548 168.49 259.4 167.079L255.55 172.115L251.829 169.93L255.7 164.87C252.592 162.487 250.937 159.7 250.733 156.521C250.532 153.338 251.753 150.018 254.396 146.564L262.281 151.198C260.827 153.104 260.115 154.785 260.14 156.238C260.17 157.694 260.914 158.85 262.364 159.704C263.422 160.33 264.517 160.482 265.641 160.164C266.768 159.841 267.782 159.096 268.687 157.91C269.696 156.59 270.187 155.378 270.151 154.263C270.117 153.155 269.592 151.814 268.57 150.251C267.552 148.681 266.661 147.177 265.888 145.731C265.119 144.289 264.606 142.839 264.357 141.389C264.109 139.94 264.193 138.47 264.596 136.994C265.003 135.512 265.847 133.927 267.143 132.239C269.299 129.419 271.968 127.618 275.145 126.833C278.322 126.048 281.507 126.378 284.701 127.822L288.741 122.536L292.462 124.72L292.459 124.726Z" fill="white"/>
<circle cx="382.718" cy="184.505" r="6.66891" fill="#CFCCFF"/>
<circle cx="123.372" cy="171.163" r="6.66891" fill="#CFCCFF"/>
<path d="M367.283 314.549C372.206 280.968 355.331 250.686 329.592 246.913C303.853 243.14 278.997 267.304 274.074 300.885C269.151 334.466 286.026 364.748 311.765 368.522C337.504 372.295 362.36 348.131 367.283 314.549Z" fill="url(#paint14_linear_6657_2882)"/>
<path d="M379.339 316.001C382.645 282.222 364.337 252.785 338.447 250.251C312.556 247.717 288.888 273.045 285.582 306.824C282.276 340.603 300.584 370.041 326.474 372.575C352.365 375.109 376.033 349.78 379.339 316.001Z" fill="url(#paint15_linear_6657_2882)"/>
<path d="M334.882 250.061V250.797C336.045 250.797 337.216 250.855 338.378 250.966C363.821 253.453 381.875 282.591 378.614 315.909C377.113 331.283 371.255 345.502 362.136 355.953C353.105 366.301 341.712 371.998 330.054 371.998C328.892 371.998 327.714 371.939 326.551 371.828C301.108 369.341 283.055 340.203 286.315 306.886C287.817 291.511 293.675 277.292 302.794 266.841C311.824 256.5 323.217 250.797 334.875 250.797V250.061H334.882ZM334.875 250.061C310.419 250.061 288.737 274.591 285.587 306.812C282.282 340.593 300.593 370.025 326.478 372.564C327.677 372.682 328.862 372.741 330.047 372.741C354.504 372.741 376.186 348.211 379.336 315.99C382.64 282.208 364.329 252.776 338.445 250.237C337.245 250.119 336.06 250.061 334.875 250.061V250.061Z" fill="url(#paint16_linear_6657_2882)"/>
<path d="M344.858 315.955C345.601 306.836 340.667 298.992 333.836 298.435C327.006 297.878 320.866 304.82 320.123 313.939C319.379 323.058 324.314 330.903 331.144 331.459C337.975 332.016 344.115 325.075 344.858 315.955Z" fill="#554CFF"/>
<path d="M354.768 283.6C360.052 290.938 363.077 301.131 362.584 312.362C362.098 323.35 358.33 333.257 352.619 340.396L352.435 340.624C351.632 341.566 350.58 342.14 349.446 342.118C348.144 342.096 347.01 341.301 346.289 340.057C345.708 339.063 345.362 337.775 345.428 336.377C345.494 334.817 346.032 333.418 346.834 332.41C350.992 327.229 353.715 320.119 354.061 312.23C354.201 308.999 353.936 305.878 353.325 302.971C352.891 300.925 352.287 298.975 351.529 297.149C351.036 295.979 350.484 294.861 349.873 293.801C349.726 293.536 349.572 293.278 349.402 293.021C348.681 292.027 347.673 291.409 346.525 291.394C345.936 291.387 345.369 291.534 344.854 291.814C343.529 292.498 342.175 293.072 340.784 293.514C339.908 293.793 339.025 294.022 338.127 294.198C336.552 294.507 334.948 294.654 333.314 294.632C331.68 294.61 330.105 294.412 328.574 294.058C327.706 293.86 326.852 293.609 326.013 293.308C324.688 292.837 323.4 292.24 322.171 291.541C322.105 291.504 322.039 291.468 321.972 291.424C321.509 291.181 321.008 291.041 320.471 291.033C319.227 291.011 318.072 291.711 317.24 292.844C317.196 292.91 317.144 292.976 317.1 293.043C316.327 294.154 315.621 295.346 314.981 296.597C314.053 298.408 313.266 300.358 312.655 302.412C311.794 305.282 311.257 308.366 311.117 311.582C310.771 319.479 312.854 326.655 316.511 331.895C317.269 332.984 317.682 334.405 317.608 335.958C317.549 337.356 317.115 338.629 316.445 339.601C315.613 340.815 314.421 341.588 313.119 341.566C311.985 341.551 310.984 340.94 310.263 339.961C305.037 332.454 302.138 322.445 302.623 311.449C303.109 300.454 307.032 290.165 312.935 282.997C313.464 282.349 314.016 281.723 314.576 281.127C315.039 280.641 315.503 280.17 315.974 279.721C316.114 279.611 316.254 279.508 316.394 279.412C317.505 278.64 318.763 278.22 320.074 278.235C321.133 278.249 322.127 278.551 323.01 279.088C323.408 279.42 323.812 279.736 324.232 280.038C327.109 282.084 330.355 283.232 333.836 283.291C337.376 283.335 340.74 282.261 343.75 280.31C343.831 280.266 343.905 280.215 343.985 280.156C344.258 279.972 344.53 279.78 344.802 279.589C345.818 278.971 346.937 278.64 348.1 278.662C349.402 278.684 350.602 279.133 351.632 279.913C351.78 280.023 351.919 280.141 352.067 280.266C352.501 280.73 352.92 281.208 353.332 281.709C353.833 282.305 354.319 282.938 354.782 283.585L354.768 283.6ZM313.413 290.209L313.494 290.077L313.42 290.194C313.303 290.378 313.185 290.562 313.067 290.754C313.185 290.57 313.295 290.393 313.413 290.209Z" fill="#554CFF"/>
<path d="M348.538 315.225C349.281 306.105 344.346 298.261 337.516 297.705C330.686 297.148 324.546 304.089 323.802 313.209C323.059 322.328 327.994 330.172 334.824 330.729C341.655 331.286 347.794 324.344 348.538 315.225Z" fill="url(#paint17_linear_6657_2882)"/>
<path d="M358.447 282.866C363.731 290.203 366.756 300.397 366.263 311.628C365.777 322.616 362.009 332.522 356.298 339.661L356.114 339.889C355.312 340.831 354.259 341.405 353.126 341.383C351.823 341.361 350.69 340.566 349.968 339.323C349.387 338.329 349.041 337.041 349.107 335.643C349.173 334.082 349.711 332.684 350.513 331.676C354.671 326.495 357.394 319.385 357.74 311.495C357.88 308.264 357.615 305.144 357.004 302.237C356.57 300.191 355.967 298.24 355.208 296.415C354.715 295.245 354.163 294.126 353.553 293.066C353.405 292.801 353.251 292.544 353.081 292.286C352.36 291.293 351.352 290.674 350.204 290.66C349.615 290.652 349.048 290.8 348.533 291.079C347.208 291.764 345.854 292.338 344.463 292.779C343.587 293.059 342.704 293.287 341.806 293.464C340.231 293.773 338.627 293.92 336.993 293.898C335.359 293.876 333.784 293.677 332.253 293.324C331.385 293.125 330.531 292.875 329.692 292.573C328.367 292.102 327.079 291.506 325.85 290.807C325.784 290.77 325.718 290.733 325.652 290.689C325.188 290.446 324.687 290.306 324.15 290.299C322.906 290.277 321.751 290.976 320.919 292.11C320.875 292.176 320.824 292.242 320.779 292.308C320.007 293.42 319.3 294.612 318.66 295.863C317.732 297.674 316.945 299.624 316.334 301.677C315.473 304.548 314.936 307.631 314.796 310.848C314.45 318.745 316.533 325.92 320.191 331.161C320.949 332.25 321.361 333.67 321.287 335.223C321.228 336.622 320.794 337.895 320.124 338.866C319.293 340.081 318.1 340.853 316.798 340.831C315.664 340.817 314.663 340.206 313.942 339.227C308.717 331.72 305.817 321.711 306.303 310.715C306.788 299.72 310.711 289.431 316.614 282.262C317.144 281.614 317.696 280.989 318.255 280.393C318.719 279.907 319.182 279.436 319.653 278.987C319.793 278.877 319.933 278.774 320.073 278.678C321.184 277.905 322.443 277.486 323.753 277.5C324.813 277.515 325.806 277.817 326.689 278.354C327.087 278.685 327.492 279.002 327.911 279.304C330.789 281.35 334.034 282.498 337.516 282.557C341.056 282.601 344.419 281.526 347.429 279.576C347.51 279.532 347.584 279.48 347.665 279.421C347.937 279.237 348.209 279.046 348.482 278.855C349.497 278.236 350.616 277.905 351.779 277.927C353.081 277.949 354.281 278.398 355.312 279.178C355.459 279.289 355.599 279.407 355.746 279.532C356.18 279.995 356.599 280.474 357.012 280.974C357.512 281.57 357.998 282.203 358.462 282.851L358.447 282.866ZM317.092 289.475L317.173 289.342L317.099 289.46C316.982 289.644 316.864 289.828 316.746 290.019C316.864 289.835 316.974 289.659 317.092 289.475" fill="url(#paint18_linear_6657_2882)"/>
<g filter="url(#filter3_b_6657_2882)">
<path d="M471.229 288.561L437.351 347.373C437.351 347.373 398.353 425.362 287.768 433.669C287.664 433.61 287.56 433.543 287.449 433.484C287.271 433.372 287.078 433.269 286.886 433.15C292.584 420.946 303.803 397.886 319.26 370.9C319.482 370.974 319.697 371.048 319.919 371.129C321.571 371.7 323.268 372.278 324.884 372.819C340.444 341.697 385.63 285.752 385.63 285.752L378.183 284.878L377.294 284.774C386.275 273.711 395.722 263.115 405.555 253.423C405.718 253.26 405.881 253.104 406.044 252.941C407.46 253.393 408.956 253.964 410.498 254.683C420.086 259.158 471.229 288.561 471.229 288.561V288.561Z" fill="url(#paint19_linear_6657_2882)" fill-opacity="0.5"/>
</g>
<defs>
<filter id="filter0_f_6657_2882" x="257.871" y="332.342" width="297.858" height="167.072" filterUnits="userSpaceOnUse" color-interpolation-filters="sRGB">
<feFlood flood-opacity="0" result="BackgroundImageFix"/>
<feBlend mode="normal" in="SourceGraphic" in2="BackgroundImageFix" result="shape"/>
<feGaussianBlur stdDeviation="15" result="effect1_foregroundBlur_6657_2882"/>
</filter>
<filter id="filter1_b_6657_2882" x="221.146" y="222.059" width="215.268" height="241.832" filterUnits="userSpaceOnUse" color-interpolation-filters="sRGB">
<feFlood flood-opacity="0" result="BackgroundImageFix"/>
<feGaussianBlur in="BackgroundImage" stdDeviation="15"/>
<feComposite in2="SourceAlpha" operator="in" result="effect1_backgroundBlur_6657_2882"/>
<feBlend mode="normal" in="SourceGraphic" in2="effect1_backgroundBlur_6657_2882" result="shape"/>
</filter>
<filter id="filter2_f_6657_2882" x="0" y="0" width="385.308" height="382.344" filterUnits="userSpaceOnUse" color-interpolation-filters="sRGB">
<feFlood flood-opacity="0" result="BackgroundImageFix"/>
<feBlend mode="normal" in="SourceGraphic" in2="BackgroundImageFix" result="shape"/>
<feGaussianBlur stdDeviation="5" result="effect1_foregroundBlur_6657_2882"/>
</filter>
<filter id="filter3_b_6657_2882" x="266.886" y="232.941" width="224.343" height="220.727" filterUnits="userSpaceOnUse" color-interpolation-filters="sRGB">
<feFlood flood-opacity="0" result="BackgroundImageFix"/>
<feGaussianBlur in="BackgroundImage" stdDeviation="10"/>
<feComposite in2="SourceAlpha" operator="in" result="effect1_backgroundBlur_6657_2882"/>
<feBlend mode="normal" in="SourceGraphic" in2="effect1_backgroundBlur_6657_2882" result="shape"/>
</filter>
<linearGradient id="paint0_linear_6657_2882" x1="236.269" y1="348.269" x2="492.718" y2="348.269" gradientUnits="userSpaceOnUse">
<stop stop-color="#EDEEFF"/>
<stop offset="1" stop-color="#E9EDFF"/>
</linearGradient>
<linearGradient id="paint1_linear_6657_2882" x1="444.968" y1="241.478" x2="173.135" y2="446.977" gradientUnits="userSpaceOnUse">
<stop stop-color="#EDEEFF"/>
<stop offset="1" stop-color="#E9EDFF"/>
</linearGradient>
<linearGradient id="paint2_linear_6657_2882" x1="250.777" y1="337.153" x2="418.159" y2="337.153" gradientUnits="userSpaceOnUse">
<stop stop-color="#C7D4FE"/>
<stop offset="1" stop-color="#CFCCFF"/>
</linearGradient>
<linearGradient id="paint3_linear_6657_2882" x1="191.476" y1="484.478" x2="528.522" y2="321.03" gradientUnits="userSpaceOnUse">
<stop stop-color="#C7D4FE"/>
<stop offset="1" stop-color="#CFCCFF"/>
</linearGradient>
<linearGradient id="paint4_linear_6657_2882" x1="248.384" y1="448.223" x2="288.205" y2="448.223" gradientUnits="userSpaceOnUse">
<stop stop-color="#C7D4FE"/>
<stop offset="1" stop-color="#CFCCFF"/>
</linearGradient>
<linearGradient id="paint5_linear_6657_2882" x1="162.273" y1="158.568" x2="353.078" y2="340.852" gradientUnits="userSpaceOnUse">
<stop offset="0.0877922" stop-color="#D5E9FA" stop-opacity="0"/>
<stop offset="1" stop-color="#D5E9FA"/>
<stop offset="1" stop-color="#D5E9FA"/>
</linearGradient>
<linearGradient id="paint6_linear_6657_2882" x1="131.941" y1="299.614" x2="148.455" y2="200.782" gradientUnits="userSpaceOnUse">
<stop stop-color="#827CFF"/>
<stop offset="1" stop-color="#CFCCFF"/>
</linearGradient>
<linearGradient id="paint7_linear_6657_2882" x1="167.62" y1="291.928" x2="123.976" y2="207.216" gradientUnits="userSpaceOnUse">
<stop stop-color="#827CFF"/>
<stop offset="1" stop-color="#CFCCFF"/>
</linearGradient>
<linearGradient id="paint8_linear_6657_2882" x1="163.655" y1="284.241" x2="130.549" y2="219.983" gradientUnits="userSpaceOnUse">
<stop stop-color="#EDF1FD" stop-opacity="0.3"/>
<stop offset="1" stop-color="#EEF1FF"/>
</linearGradient>
<linearGradient id="paint9_linear_6657_2882" x1="142.873" y1="255.544" x2="156.63" y2="250.195" gradientUnits="userSpaceOnUse">
<stop stop-color="#EDEEFF"/>
<stop offset="1" stop-color="#E9EDFF"/>
</linearGradient>
<linearGradient id="paint10_linear_6657_2882" x1="132.189" y1="256.665" x2="165.394" y2="243.754" gradientUnits="userSpaceOnUse">
<stop stop-color="#EDEEFF"/>
<stop offset="1" stop-color="#E9EDFF"/>
</linearGradient>
<linearGradient id="paint11_linear_6657_2882" x1="204.185" y1="174.358" x2="328.331" y2="103.145" gradientUnits="userSpaceOnUse">
<stop stop-color="#554CFF"/>
<stop offset="1" stop-color="#CFCCFF"/>
</linearGradient>
<linearGradient id="paint12_linear_6657_2882" x1="244.966" y1="206.818" x2="299.059" y2="81.9177" gradientUnits="userSpaceOnUse">
<stop stop-color="#554CFF"/>
<stop offset="1" stop-color="#827CFF"/>
</linearGradient>
<linearGradient id="paint13_linear_6657_2882" x1="249.871" y1="195.477" x2="290.903" y2="100.735" gradientUnits="userSpaceOnUse">
<stop stop-color="#EDF1FD" stop-opacity="0.3"/>
<stop offset="1" stop-color="#EEF1FF"/>
</linearGradient>
<linearGradient id="paint14_linear_6657_2882" x1="279.604" y1="376.795" x2="365.956" y2="231.557" gradientUnits="userSpaceOnUse">
<stop stop-color="#554CFF"/>
<stop offset="1" stop-color="#CFCCFF"/>
</linearGradient>
<linearGradient id="paint15_linear_6657_2882" x1="340.377" y1="386.526" x2="323.552" y2="226.715" gradientUnits="userSpaceOnUse">
<stop stop-color="#554CFF"/>
<stop offset="1" stop-color="#827CFF"/>
</linearGradient>
<linearGradient id="paint16_linear_6657_2882" x1="338.842" y1="372.012" x2="326.08" y2="250.789" gradientUnits="userSpaceOnUse">
<stop stop-color="#EDF1FD" stop-opacity="0.3"/>
<stop offset="1" stop-color="#EEF1FF"/>
</linearGradient>
<linearGradient id="paint17_linear_6657_2882" x1="323.715" y1="314.218" x2="348.605" y2="314.218" gradientUnits="userSpaceOnUse">
<stop stop-color="#EDEEFF"/>
<stop offset="1" stop-color="#E9EDFF"/>
</linearGradient>
<linearGradient id="paint18_linear_6657_2882" x1="306.236" y1="309.449" x2="366.314" y2="309.449" gradientUnits="userSpaceOnUse">
<stop stop-color="#EDEEFF"/>
<stop offset="1" stop-color="#E9EDFF"/>
</linearGradient>
<linearGradient id="paint19_linear_6657_2882" x1="492.555" y1="266.857" x2="221.938" y2="435.818" gradientUnits="userSpaceOnUse">
<stop stop-color="#CEDBFE"/>
<stop offset="0.99" stop-color="#E9EDFF"/>
</linearGradient>
</defs>
</svg>
