<svg width="12" height="12" viewBox="0 0 12 12" fill="none" xmlns="http://www.w3.org/2000/svg">
<path d="M0.458672 0.458672C-0.115152 1.0325 -0.156126 1.92187 0.367154 2.44515L3.922 6L0.367154 9.55485C-0.156126 10.0781 -0.115152 10.9675 0.458672 11.5413C1.0325 12.1152 1.92187 12.1561 2.44515 11.6328L6 8.078L9.55485 11.6328C10.0781 12.1561 10.9675 12.1152 11.5413 11.5413C12.1152 10.9675 12.1561 10.0781 11.6328 9.55485L8.078 6L11.6328 2.44515C12.1561 1.92187 12.1152 1.0325 11.5413 0.458672C10.9675 -0.115152 10.0781 -0.156125 9.55485 0.367154L6 3.922L2.44515 0.367154C1.92187 -0.156126 1.0325 -0.115152 0.458672 0.458672Z" fill="#FF0366"/>
</svg>
