<svg width="20" height="10" viewBox="0 0 20 10" fill="none" xmlns="http://www.w3.org/2000/svg">
<path d="M15.3664 9.6C13.9408 9.6 12.716 9.1168 11.6216 8.12C11.3944 7.9168 11.1712 7.68801 10.9624 7.44801C10.6736 7.11359 10.7104 6.60801 11.0448 6.3184C11.3792 6.03121 11.8832 6.06641 12.1736 6.40078C12.3359 6.58879 12.512 6.76957 12.6943 6.93359C13.4951 7.66238 14.3439 8 15.3679 8C17.0399 8 18.3999 6.56481 18.3999 4.8C18.3999 3.0352 17.0391 1.6 15.3663 1.6C13.1103 1.6 11.9767 3.28879 10.6639 5.24559C9.2952 7.28641 7.74398 9.6 4.63359 9.6C2.07922 9.6 0 7.44719 0 4.8C0 2.15281 2.07922 0 4.63359 0C6.05918 0 7.28398 0.483203 8.3784 1.48C8.60559 1.6832 8.82879 1.91199 9.03762 2.15199C9.32641 2.48641 9.28961 2.99199 8.95523 3.2816C8.62082 3.56961 8.11602 3.53359 7.82645 3.19922C7.66406 3.01121 7.48805 2.83043 7.30566 2.66641C6.50488 1.93762 5.65605 1.6 4.63207 1.6C2.96008 1.6 1.60008 3.0352 1.60008 4.8C1.60008 6.56481 2.96086 8 4.63367 8C6.88969 8 8.02328 6.31121 9.33605 4.35441C10.7048 2.31363 12.2561 0 15.3664 0C17.9208 0 20 2.15281 20 4.8C20 7.44719 17.9208 9.6 15.3664 9.6Z" fill="#04004D"/>
</svg>
