<svg width="20" height="20" viewBox="0 0 20 20" fill="none" xmlns="http://www.w3.org/2000/svg">
<g clip-path="url(#clip0_3_14271)">
<path d="M15.4 4.24258L14.4351 5.48209C16.5149 7.10041 17.5524 9.72044 17.1429 12.3204C16.843 14.2283 15.8178 15.9051 14.2566 17.0424C12.6948 18.179 10.7844 18.641 8.87657 18.3395C4.93817 17.7193 2.23774 14.0108 2.85682 10.0721C3.15677 8.16405 4.18221 6.48711 5.74366 5.35018C7.10693 4.35777 8.73599 3.88112 10.3972 3.97566L9.03944 5.40014L10.0467 6.36139L12.1901 4.11118L12.1906 4.11201L13.1508 3.1037L12.1443 2.14348L12.1438 2.14379L9.89438 0L8.93344 1.00831L10.3991 2.40431C8.40673 2.31007 6.45523 2.88963 4.81937 4.08074C2.91886 5.46455 1.67098 7.50554 1.30559 9.8283C0.551913 14.6222 3.83851 19.1367 8.63236 19.8911C9.0957 19.9642 9.55882 20 10.019 20C11.8655 20 13.6597 19.4196 15.1809 18.3118C17.0816 16.9278 18.3293 14.8868 18.6947 12.5645C19.1931 9.40058 17.9305 6.21162 15.4 4.24258Z" fill="#FC9D00"/>
<path d="M10.8624 15.686V15.6857H10.8625V14.7818C11.9342 14.6622 12.9769 13.9852 12.9769 12.7C12.9769 10.9536 11.3531 10.7534 10.1671 10.6074C9.40873 10.5167 8.82835 10.4116 8.82835 9.95214C8.82835 9.31344 9.72859 9.2446 10.1158 9.2446C10.6904 9.2446 11.3035 9.51472 11.5117 9.85946L11.5722 9.95968L12.7635 9.4084L12.7046 9.28826C12.2607 8.38068 11.4651 8.1181 10.8622 8.0121V7.21631H9.46725V8.00869C8.16859 8.20026 7.39736 8.92102 7.39736 9.95214C7.39736 11.6335 8.92403 11.8041 10.0378 11.929C11.0305 12.0461 11.4925 12.2913 11.4925 12.7C11.4925 13.4806 10.4115 13.5416 10.08 13.5416C9.34236 13.5416 8.6311 13.1735 8.42539 12.6848L8.3743 12.5641L7.08008 13.1128L7.13169 13.2335C7.51493 14.1305 8.34189 14.6926 9.46746 14.8256V15.686H10.8624Z" fill="#FC9D00"/>
</g>
<defs>
<clipPath id="clip0_3_14271">
<rect width="20" height="20" fill="white"/>
</clipPath>
</defs>
</svg>
