<svg width="16" height="16" viewBox="0 0 16 16" fill="none" xmlns="http://www.w3.org/2000/svg">
<path d="M4.00862 2.74305L4.98123 2.92469C5.22438 2.97156 5.3855 3.20592 5.34156 3.44907C5.29469 3.69223 5.06032 3.85335 4.81717 3.80941L2.94519 3.45786C2.85145 3.44029 2.76649 3.39927 2.69911 3.33189C2.59072 3.2235 2.5497 3.06823 2.57607 2.91883L2.92762 1.04685C2.97449 0.803696 3.20885 0.642571 3.452 0.686514C3.69516 0.733387 3.85628 0.96775 3.81234 1.2109L3.69223 1.8554C4.949 0.97068 6.44893 0.496094 8.00159 0.496094C9.99661 0.496094 11.895 1.28121 13.3041 2.69325C14.7161 4.10529 15.5012 6.00071 15.5012 7.99573C15.5012 9.99075 14.7161 11.8891 13.3041 13.2982C11.892 14.7102 9.99661 15.4954 8.00159 15.4954C6.00657 15.4954 4.10822 14.7102 2.69911 13.2982C2.00188 12.601 1.45113 11.7748 1.07321 10.8638C0.695303 9.95559 0.501953 8.98005 0.501953 7.99573C0.501953 7.74672 0.704092 7.54458 0.953103 7.54458C1.20211 7.54458 1.40425 7.74672 1.40425 7.99573C1.40425 8.86287 1.57417 9.72123 1.9052 10.521C2.23624 11.3208 2.72255 12.0502 3.33482 12.6625C4.57695 13.9046 6.24386 14.596 8.00159 14.596C9.75638 14.596 11.4262 13.9046 12.6684 12.6625C13.9105 11.4204 14.6019 9.75345 14.6019 7.99573C14.6019 6.24093 13.9105 4.57109 12.6684 3.32896C11.4262 2.08684 9.75931 1.39546 8.00159 1.39546C6.55146 1.39546 5.15407 1.86712 4.01155 2.7372L4.00862 2.74305ZM7.55044 7.40689V3.4813C7.55044 3.23229 7.75258 3.03015 8.00159 3.03015C8.2506 3.03015 8.45274 3.23229 8.45274 3.4813V7.40689C8.4791 7.4274 8.50547 7.4479 8.52891 7.47427C8.66952 7.61489 8.74569 7.80238 8.74569 8.00159C8.74569 8.2008 8.66659 8.38829 8.52891 8.5289C8.38829 8.66952 8.2008 8.74569 8.00159 8.74569C7.80238 8.74569 7.61489 8.66659 7.47427 8.5289C7.45083 8.50547 7.43033 8.48203 7.40982 8.45567L3.49595 8.51133C3.24694 8.51426 3.04187 8.31505 3.03894 8.06604C3.03601 7.81703 3.23522 7.61489 3.48423 7.61196L7.40396 7.5563C7.42447 7.527 7.4479 7.50063 7.47427 7.4772C7.49771 7.45376 7.52407 7.43033 7.55044 7.40982V7.40689Z" fill="#FF0366"/>
</svg>
