<svg width="20" height="20" viewBox="0 0 20 20" fill="none" xmlns="http://www.w3.org/2000/svg">
<path d="M9.46875 6.53149L11.1562 6.96899C11.2812 7.00024 11.3438 7.09399 11.3438 7.21899C11.3438 7.37524 11.2188 7.50024 11.0625 7.50024H9.96875C9.84375 7.50024 9.71875 7.46899 9.625 7.40649C9.4375 7.34399 9.25 7.37524 9.125 7.46899L8.53125 8.03149C8.5 8.06274 8.5 8.09399 8.46875 8.12524C8.4375 8.15649 8.40625 8.21899 8.40625 8.28149C8.40625 8.43774 8.5 8.53149 8.59375 8.59399C8.90625 8.78149 9.28125 8.93774 9.65625 8.96899V9.50024C9.65625 9.78149 9.90625 10.0002 10.2188 10.0002H10.75C11.0625 10.0002 11.3125 9.78149 11.3125 9.50024V8.96899C12.3125 8.84399 13.0938 8.00024 12.9688 7.00024C12.875 6.28149 12.2813 5.71899 11.5 5.50024L9.8125 5.06274C9.6875 5.03149 9.625 4.93774 9.625 4.81274C9.625 4.65649 9.75 4.53149 9.90625 4.53149H11C11.125 4.53149 11.25 4.56274 11.375 4.62524C11.5312 4.68774 11.7188 4.65649 11.8438 4.56274L12.4375 4.00024C12.4688 3.96899 12.4688 3.93774 12.5 3.90649C12.5313 3.87524 12.5625 3.81274 12.5625 3.75024C12.5625 3.59399 12.4688 3.50024 12.375 3.43774C12.0625 3.25024 11.6875 3.12524 11.3125 3.06274V2.50024C11.3125 2.25024 11.0625 2.00024 10.75 2.00024H10.2188C9.90625 2.00024 9.6875 2.25024 9.6875 2.50024V3.06274C8.65625 3.18774 7.875 4.03149 8 5.03149C8.09375 5.75024 8.71875 6.31274 9.46875 6.53149ZM18.6562 12.2815C18.2812 11.9377 17.7188 11.969 17.3125 12.2815L14.4375 14.5627C14.0938 14.844 13.6563 15.0002 13.1875 15.0002H9.5C9.21875 15.0002 9 14.7815 9 14.5002C9 14.2502 9.21875 14.0002 9.5 14.0002H11.9375C12.4375 14.0002 12.9063 13.6877 12.9688 13.1877C12.9688 13.1252 13 13.0627 13 13.0315C13 13.0002 13 13.0002 13 13.0002C12.9688 12.469 12.5313 12.0002 12 12.0002H7C6.09375 12.0315 5.3125 12.3127 4.65625 12.844L3.21875 14.0002H1.5C1.21875 14.0002 1 14.2502 1 14.5002V17.5002C1 17.7815 1.21875 18.0002 1.5 18.0002H12.625C13.0938 18.0002 13.5313 17.844 13.875 17.5627L18.625 13.7815C18.8438 13.6252 19 13.344 19 13.0002C19 12.719 18.8438 12.4377 18.6562 12.2815Z" fill="#04B800"/>
</svg>
