<svg width="20" height="20" viewBox="0 0 20 20" fill="none" xmlns="http://www.w3.org/2000/svg">
<path d="M18.5814 10.3785C18.5814 13.2646 17.1588 15.8177 14.9773 17.3743C14.7682 17.1272 14.6359 16.8063 14.6359 16.4566C14.6359 16.0668 14.7929 15.7137 15.0468 15.4573C15.0521 15.452 15.0571 15.447 15.0621 15.4423C16.3565 14.1458 17.1568 12.3553 17.1568 10.3775C17.1568 9.56745 17.0225 8.78884 16.775 8.06239C16.775 8.06239 16.775 8.06238 16.775 8.06205C16.6006 7.55022 16.3695 7.06413 16.0899 6.61181C15.9096 6.31962 15.7085 6.04181 15.4894 5.77971C15.4349 5.71452 15.3791 5.65 15.322 5.58682C15.0671 5.34143 14.7208 5.19032 14.3386 5.19032C14.1429 5.19032 13.9562 5.23011 13.7865 5.30198C13.3573 5.4785 12.9134 5.62626 12.4568 5.74227C12.1698 5.81515 11.8782 5.87599 11.5819 5.9238C11.0622 6.00738 10.5288 6.05084 9.98565 6.05084C9.4452 6.05084 8.91477 6.00771 8.39803 5.92514C8.10576 5.87833 7.81784 5.81916 7.53492 5.74762H7.53458C7.08599 5.63462 6.64942 5.49087 6.22721 5.31937C6.20483 5.31068 6.18279 5.30132 6.16074 5.29195C6.00342 5.23144 5.83273 5.19868 5.65436 5.19868C5.23817 5.19868 4.86373 5.37821 4.60419 5.66371C4.58916 5.68042 4.57413 5.69781 4.55977 5.71519C4.31894 5.99635 4.09982 6.29555 3.90441 6.61181C3.62216 7.06848 3.38935 7.55891 3.21466 8.07609C2.96982 8.7982 2.83721 9.57247 2.83721 10.3775C2.83721 12.3553 3.63753 14.1458 4.93187 15.4423C4.93722 15.447 4.94223 15.4523 4.94724 15.4573C5.20143 15.7137 5.35842 16.0668 5.35842 16.4566C5.35842 16.8059 5.23249 17.1259 5.02306 17.3729C2.84155 15.8164 1.41895 13.2629 1.41895 10.3772C1.41895 8.34989 2.12073 6.48711 3.29482 5.01815C3.43411 4.84398 3.49223 4.73198 3.73172 4.51301C4.2361 4.05166 4.90749 3.77051 5.64434 3.77051C5.97703 3.77051 6.29636 3.82767 6.59297 3.93298C6.5933 3.93332 6.59364 3.93332 6.59397 3.93332C6.6895 3.96541 6.76599 4.00285 6.84783 4.03796C6.84816 4.03829 6.8485 4.03829 6.84883 4.03829C7.82051 4.42074 8.87869 4.63035 9.98565 4.63035C11.133 4.63035 12.2279 4.40503 13.2283 3.99583C13.2397 3.99115 13.2511 3.98647 13.2624 3.98179C13.5931 3.84673 13.9552 3.77184 14.335 3.77184C15.1553 3.77184 15.8939 4.1202 16.4119 4.67682C16.4159 4.6815 16.4199 4.68618 16.424 4.6902C16.464 4.73232 16.4941 4.76909 16.5292 4.81155C16.5305 4.81322 16.5315 4.81456 16.5328 4.8159C17.8068 6.31494 18.5814 8.25729 18.5814 10.3785Z" fill="url(#paint0_radial_904_1318)"/>
<path d="M14.0445 13.6483C14.0789 13.4981 14.0572 13.3566 13.9466 13.2378L13.9433 13.2341C13.9363 13.2268 13.9293 13.2198 13.9216 13.2124L13.9149 13.2064C13.9079 13.2 13.9005 13.1937 13.8929 13.1876L13.8855 13.1816C13.8755 13.1736 13.8648 13.1656 13.8534 13.1582C13.8407 13.1893 13.8281 13.2191 13.8147 13.2495C13.986 13.3579 14.0505 13.4968 14.0445 13.6483Z" fill="#554CFF"/>
<path d="M6.19449 9.94963C6.03048 9.82082 5.99674 9.65254 6.03683 9.47656C6.03181 9.61908 6.08626 9.75391 6.23324 9.85863C6.22021 9.88874 6.20718 9.91885 6.19449 9.94929" fill="#8F88FF"/>
<path d="M12.798 14.2268C12.4045 14.2268 11.9185 14.1563 11.3596 13.9299C9.94606 13.3576 9.11134 10.5076 7.16933 10.5076C6.84733 10.5086 6.59113 10.5872 6.59113 10.5872C6.24809 10.6794 6.02897 10.8757 5.89636 11.1013C5.90137 11.0575 5.90705 11.0137 5.91306 10.97C5.96283 10.6223 6.05603 10.2823 6.19097 9.95766C6.20366 9.92757 6.21636 9.89748 6.22972 9.86706C6.34696 9.60329 6.49159 9.35256 6.66128 9.11921C6.70236 9.06204 6.74278 9.00755 6.78687 8.95305C6.94854 8.92664 7.11455 8.91227 7.27822 8.9126C7.6717 8.9126 8.15837 8.98481 8.71752 9.21114C10.1311 9.78348 10.9658 12.6335 12.9078 12.6335C13.1026 12.6325 13.2963 12.6057 13.4844 12.5539C13.7923 12.4717 13.9998 12.3055 14.1364 12.1086C14.134 12.1237 14.132 12.1387 14.13 12.1537C14.0806 12.4991 13.9884 12.8364 13.8548 13.1587C13.8421 13.1898 13.8291 13.2202 13.8157 13.251C13.6941 13.5248 13.5435 13.7848 13.3661 14.0262C13.3234 14.0841 13.2796 14.1409 13.2342 14.1967C13.0902 14.2171 12.9446 14.2271 12.799 14.2268H12.798Z" fill="url(#paint1_radial_904_1318)"/>
<path d="M13.6 11.6356C11.6589 11.6356 10.8225 8.78394 9.40863 8.21227C8.85014 7.98594 8.3658 7.91507 7.97333 7.91507C7.79462 7.91473 7.61124 7.93045 7.43555 7.96187C8.15938 7.50387 9.00379 7.25748 9.86023 7.25781C10.076 7.25781 10.2915 7.27319 10.5052 7.30328L10.5186 7.30529C12.5845 7.60316 14.124 9.23158 14.3569 11.1712C14.3569 11.1712 14.3569 11.1733 14.3569 11.1743C14.3685 11.2786 14.3685 11.3839 14.3569 11.4885C14.2987 11.5139 14.2386 11.5356 14.1775 11.5524C13.9898 11.6042 13.7957 11.6346 13.601 11.6356" fill="url(#paint2_radial_904_1318)"/>
<path d="M6.47755 11.5049C8.41856 11.5049 9.25462 14.3565 10.6682 14.9282C11.2267 15.1545 11.7124 15.2258 12.1048 15.2258C12.2832 15.2258 12.4619 15.2107 12.6416 15.1789C11.9178 15.637 11.0747 15.8823 10.2183 15.882C10.0025 15.882 9.78706 15.8666 9.57328 15.8365L9.55992 15.8345C7.49399 15.5367 5.95447 13.9082 5.72166 11.9686C5.72166 11.9686 5.72166 11.9666 5.72166 11.9656C5.70997 11.8613 5.70997 11.7559 5.72166 11.6513C5.77978 11.6259 5.8399 11.6045 5.90136 11.5878C6.08908 11.536 6.28215 11.5062 6.47689 11.5052H6.47755V11.5049Z" fill="url(#paint3_radial_904_1318)"/>
<path d="M12.9077 12.634C10.9666 12.634 10.1312 9.78303 8.71732 9.2117C8.15817 8.98537 7.67149 8.91316 7.27801 8.91316C7.11434 8.91282 6.95067 8.92586 6.78934 8.95227C6.47201 9.00442 6.26893 9.09134 6.20312 9.1231L6.2058 9.11943C6.24221 9.06895 6.28028 9.02348 6.3187 8.97467C6.48771 8.90814 6.82474 8.80518 7.29405 8.80518C7.68719 8.80518 8.1742 8.87739 8.73302 9.10371C10.1466 9.67605 10.9813 12.526 12.9233 12.526C13.1181 12.525 13.3118 12.4983 13.4995 12.4465C14.0594 12.2964 14.2882 11.8688 14.3566 11.4887C14.3132 11.8929 14.0981 12.3903 13.4842 12.5548C13.2965 12.6066 13.1027 12.6334 12.9077 12.6344" fill="url(#paint4_radial_904_1318)"/>
<path d="M12.7839 14.3366C12.3904 14.3366 11.9034 14.2624 11.3443 14.0357C9.93069 13.4637 9.09463 10.6134 7.15395 10.6134C6.95921 10.6144 6.76581 10.6411 6.57809 10.6926C6.01827 10.8427 5.79213 11.2696 5.72266 11.6511C5.76608 11.2472 5.98019 10.7514 6.59245 10.5866C6.59245 10.5866 6.83529 10.5097 7.16965 10.5054C9.11066 10.5054 9.94605 13.3564 11.36 13.9277C11.9188 14.154 12.4058 14.2262 12.7993 14.2262C13.3975 14.2262 13.7807 14.0594 13.8765 14.013C13.8394 14.0651 13.8084 14.1199 13.7683 14.1701C13.5989 14.2366 13.2546 14.3399 12.7839 14.3366Z" fill="url(#paint5_radial_904_1318)"/>
<path d="M6.31738 8.97496C6.4864 8.90843 6.8241 8.80714 7.29374 8.80714C7.68688 8.80714 8.17389 8.87935 8.73271 9.10568C10.1463 9.67802 10.9824 12.528 12.923 12.528C13.1178 12.527 13.3112 12.5003 13.4989 12.4484C14.0591 12.2983 14.2869 11.8694 14.3553 11.489C14.2972 11.5147 14.2361 11.5364 14.1746 11.5532C13.9869 11.605 13.7942 11.6351 13.5994 11.6361C11.6584 11.6361 10.823 8.78541 9.40911 8.21374C8.85062 7.98741 8.36495 7.91553 7.97214 7.91553C7.79377 7.9152 7.6154 7.92957 7.4397 7.96133L7.43369 7.96267C7.04121 8.21207 6.69049 8.52197 6.39421 8.88102L6.31738 8.97496Z" fill="url(#paint6_radial_904_1318)"/>
<path d="M13.768 14.17C13.5989 14.2365 13.2526 14.3342 12.7829 14.3342C12.3898 14.3342 11.9028 14.2619 11.3439 14.0356C9.93036 13.4633 9.0943 10.6133 7.15362 10.6133C6.95888 10.6143 6.76548 10.641 6.57776 10.6928C6.0176 10.843 5.79113 11.2709 5.72266 11.6513C5.78078 11.6256 5.84023 11.6048 5.90169 11.5878C6.08941 11.536 6.28248 11.5059 6.47722 11.5049C8.41823 11.5049 9.25363 14.3556 10.6676 14.9272C11.226 15.1535 11.7117 15.2254 12.1045 15.2254C12.2829 15.2258 12.4613 15.2111 12.6366 15.1796L12.643 15.1786C13.0354 14.9292 13.3982 14.6223 13.6945 14.2636L13.768 14.17Z" fill="url(#paint7_radial_904_1318)"/>
<path fill-rule="evenodd" clip-rule="evenodd" d="M13.8146 13.2517L13.8153 13.25C13.9856 13.3576 14.0487 13.4907 14.0451 13.6418C14.0447 13.6448 14.0447 13.6478 14.0447 13.6485C14.0314 13.723 13.9893 13.8233 13.9465 13.8982C13.9462 13.8992 13.8994 13.9761 13.8747 14.0132C13.8049 14.0473 13.5818 14.1453 13.2334 14.1961C13.2788 14.1403 13.3229 14.0834 13.3653 14.0256C13.366 14.0256 13.4318 13.9337 13.4629 13.8869C13.5988 13.6856 13.7161 13.4737 13.8146 13.2517Z" fill="url(#paint8_linear_904_1318)"/>
<path d="M6.78665 8.95264C6.57788 8.98674 6.41922 9.03555 6.31667 9.07433C6.30966 9.077 6.30297 9.07967 6.29663 9.08201C6.25354 9.09906 6.22247 9.11344 6.20277 9.12313C6.17938 9.15824 6.15767 9.19334 6.13763 9.22944L6.13596 9.23212L6.13429 9.23513C6.0912 9.31068 6.0588 9.39192 6.03742 9.4765V9.48084C6.03241 9.62293 6.08753 9.75364 6.23416 9.85828C6.35041 9.59685 6.49471 9.34913 6.66239 9.11712C6.70381 9.06062 6.74289 9.00746 6.78665 8.95264Z" fill="url(#paint9_linear_904_1318)"/>
<path d="M19.9997 10.3782C19.9997 13.1309 18.8891 15.6242 17.0911 17.4334C17.0901 17.4344 17.0887 17.4358 17.0877 17.4371C17.0694 17.4558 17.0506 17.4742 17.0323 17.492C16.7784 17.731 16.4364 17.8774 16.0606 17.8774C15.6264 17.8774 15.2376 17.6822 14.977 17.3743C17.1585 15.8177 18.5811 13.2643 18.5811 10.3785C18.5811 8.25729 17.8045 6.31561 16.5312 4.81757C16.5299 4.8159 16.5289 4.81456 16.5276 4.81322C16.4938 4.77177 16.4628 4.73366 16.4264 4.69421C16.4227 4.68986 16.4183 4.68552 16.4143 4.68084C15.8963 4.12421 15.1614 3.77385 14.3411 3.77385C13.9616 3.77385 13.5995 3.8484 13.2685 3.9838C13.2571 3.98848 13.2455 3.99316 13.2344 3.99784C12.234 4.40704 11.1391 4.63236 9.99173 4.63236C8.88478 4.63236 7.82526 4.42375 6.85392 4.0413C6.85358 4.04097 6.85325 4.04097 6.85291 4.04097C6.74068 3.99316 6.6859 3.96708 6.59906 3.93599C6.59872 3.93566 6.59839 3.93566 6.59805 3.93566C6.30144 3.83035 5.98278 3.77185 5.6501 3.77185C4.91324 3.77185 4.23551 4.05233 3.73113 4.51368C3.56646 4.66412 3.36838 4.92555 3.29657 5.01582C2.12248 6.48478 1.4247 8.35157 1.4247 10.3788C1.4247 13.2646 2.84096 15.8171 5.02247 17.3736C4.76226 17.6815 4.37981 17.8781 3.94524 17.8781C3.56746 17.8781 3.22408 17.7303 2.96989 17.4893C2.96889 17.4883 2.96755 17.4869 2.96655 17.4863C2.95586 17.4756 2.94484 17.4649 2.93415 17.4542C2.92881 17.4492 2.92346 17.4435 2.91845 17.4381C1.11873 15.6288 0.00610352 13.1339 0.00610352 10.3795C0.00610352 7.57262 1.16082 5.03587 3.021 3.2189C3.18901 3.05475 3.3627 2.89629 3.54174 2.74484C3.54207 2.74451 3.54207 2.74451 3.54274 2.74418C3.68704 2.62148 3.83535 2.5028 3.98666 2.38847L3.98699 2.38813C4.03109 2.36005 4.07618 2.33398 4.12194 2.30857C4.48101 2.11199 4.8932 2 5.33144 2C5.6835 2 6.01852 2.07221 6.32282 2.20226C6.4601 2.2845 6.60073 2.36239 6.74369 2.43527C6.7497 2.43828 6.75571 2.44129 6.76206 2.44463C6.76239 2.44463 6.76239 2.44463 6.76239 2.44497C7.73273 2.93674 8.83 3.21355 9.9914 3.21355H10.0028C11.1718 3.21188 12.2758 2.92972 13.2498 2.42992C13.2752 2.41722 13.3002 2.40385 13.3253 2.39081C13.4138 2.34434 13.501 2.29587 13.5875 2.24572C13.9165 2.08826 14.2849 2 14.6744 2C15.107 2 15.5141 2.10899 15.8699 2.30088C15.9206 2.32829 15.9701 2.35738 16.0188 2.3878C16.1705 2.50213 16.3185 2.62048 16.4628 2.74317C16.6385 2.89227 16.8091 3.0474 16.9738 3.2082C18.8403 5.02417 19.9997 7.5656 19.9997 10.3782Z" fill="url(#paint10_linear_904_1318)"/>
<path d="M5.02272 17.3727C4.76251 17.6806 4.37371 17.8762 3.93914 17.8762C3.56136 17.8762 3.21799 17.7284 2.96379 17.4874C2.96279 17.4864 2.96146 17.485 2.96045 17.4844C2.94976 17.4737 2.93874 17.463 2.92805 17.4523C2.92271 17.4469 2.91736 17.4416 2.91235 17.4362C1.11263 15.6269 0 13.132 0 10.3776C0 7.61752 1.11664 5.11855 2.92271 3.30859L3.94783 4.33459C3.87301 4.39076 3.80052 4.45026 3.73138 4.51345C3.72002 4.52415 3.709 4.53418 3.69798 4.54421C3.53464 4.69765 3.46216 4.79761 3.37665 4.91128C3.37598 4.91228 3.37498 4.91362 3.37431 4.91429C3.34759 4.94839 3.32086 4.98316 3.29414 5.01826C2.12005 6.48722 1.41826 8.35 1.41826 10.3773C1.4186 13.263 2.84121 15.8165 5.02272 17.3727Z" fill="url(#paint11_radial_904_1318)"/>
<path d="M5.35843 16.4561C5.35843 16.8054 5.23251 17.1254 5.02307 17.3724C2.84156 15.8159 1.41895 13.2624 1.41895 10.3766C1.41895 8.34939 2.12073 6.48661 3.29483 5.01765C3.32422 4.98054 3.35028 4.94644 3.37499 4.91368C3.37566 4.91268 3.37666 4.91167 3.37733 4.91067C3.47888 4.77995 3.58109 4.65626 3.69866 4.5436C3.70935 4.53357 3.72038 4.5232 3.73207 4.51284C3.80121 4.44966 3.87336 4.39015 3.94851 4.33398L4.98165 5.36801C4.83969 5.44456 4.71243 5.54486 4.60454 5.66354C4.58951 5.68025 4.57448 5.69764 4.56011 5.71502C4.31928 5.99618 4.10016 6.29538 3.90476 6.61164C3.62251 7.06831 3.38969 7.55874 3.215 8.07592C2.97016 8.79803 2.83755 9.5723 2.83755 10.3773C2.83755 12.3551 3.63787 14.1457 4.93222 15.4421C4.93723 15.4468 4.94257 15.4521 4.94758 15.4572C5.20178 15.7132 5.35843 16.0663 5.35843 16.4561Z" fill="url(#paint12_radial_904_1318)"/>
<defs>
<radialGradient id="paint0_radial_904_1318" cx="0" cy="0" r="1" gradientUnits="userSpaceOnUse" gradientTransform="translate(13.3543 4.37915) scale(27.3869 27.4104)">
<stop stop-color="#827CFF"/>
<stop offset="0.9025" stop-color="#554CFF"/>
</radialGradient>
<radialGradient id="paint1_radial_904_1318" cx="0" cy="0" r="1" gradientUnits="userSpaceOnUse" gradientTransform="translate(11.2894 12.2838) rotate(6.63288) scale(3.50298 2.89891)">
<stop stop-color="#827CFF"/>
<stop offset="1" stop-color="#554CFF"/>
</radialGradient>
<radialGradient id="paint2_radial_904_1318" cx="0" cy="0" r="1" gradientUnits="userSpaceOnUse" gradientTransform="translate(12.5498 10.6767) rotate(7.03124) scale(5.84493 4.72573)">
<stop stop-color="#E3E2FF"/>
<stop offset="0.6496" stop-color="#9691FF"/>
<stop offset="1" stop-color="#554CFF"/>
</radialGradient>
<radialGradient id="paint3_radial_904_1318" cx="0" cy="0" r="1" gradientUnits="userSpaceOnUse" gradientTransform="translate(7.98328 12.1916) rotate(-176.102) scale(6.28172 5.07898)">
<stop stop-color="#E3E2FF"/>
<stop offset="0.6496" stop-color="#9691FF"/>
<stop offset="1" stop-color="#554CFF"/>
</radialGradient>
<radialGradient id="paint4_radial_904_1318" cx="0" cy="0" r="1" gradientUnits="userSpaceOnUse" gradientTransform="translate(11.722 12.1867) rotate(-149.7) scale(6.55086 4.67835)">
<stop stop-color="#E3E2FF"/>
<stop offset="1" stop-color="#554CFF"/>
</radialGradient>
<radialGradient id="paint5_radial_904_1318" cx="0" cy="0" r="1" gradientUnits="userSpaceOnUse" gradientTransform="translate(8.16947 11.2787) rotate(-174.288) scale(5.60964 4.00717)">
<stop stop-color="#E3E2FF"/>
<stop offset="1" stop-color="#554CFF"/>
</radialGradient>
<radialGradient id="paint6_radial_904_1318" cx="0" cy="0" r="1" gradientUnits="userSpaceOnUse" gradientTransform="translate(12.7143 10.7248) rotate(6.96715) scale(5.5429 4.81379)">
<stop stop-color="#E3E2FF"/>
<stop offset="1" stop-color="#554CFF"/>
</radialGradient>
<radialGradient id="paint7_radial_904_1318" cx="0" cy="0" r="1" gradientUnits="userSpaceOnUse" gradientTransform="translate(7.3518 12.384) rotate(-173.033) scale(5.54433 4.81502)">
<stop stop-color="#E3E2FF"/>
<stop offset="1" stop-color="#554CFF"/>
</radialGradient>
<linearGradient id="paint8_linear_904_1318" x1="14.1104" y1="13.0477" x2="13.6649" y2="13.9029" gradientUnits="userSpaceOnUse">
<stop stop-color="#827CFF"/>
<stop offset="1" stop-color="#554CFF"/>
</linearGradient>
<linearGradient id="paint9_linear_904_1318" x1="6.50598" y1="8.99848" x2="5.70999" y2="10.6279" gradientUnits="userSpaceOnUse">
<stop stop-color="#564DFF"/>
<stop offset="1" stop-color="#CFCCFF"/>
</linearGradient>
<linearGradient id="paint10_linear_904_1318" x1="16.4505" y1="6.38144" x2="2.51934" y2="14.7537" gradientUnits="userSpaceOnUse">
<stop stop-color="#827CFF"/>
<stop offset="1" stop-color="#554CFF"/>
</linearGradient>
<radialGradient id="paint11_radial_904_1318" cx="0" cy="0" r="1" gradientUnits="userSpaceOnUse" gradientTransform="translate(-0.658327 17.5254) scale(16.0833 16.0971)">
<stop stop-color="white" stop-opacity="0.3"/>
<stop offset="0.8271" stop-color="white" stop-opacity="0"/>
</radialGradient>
<radialGradient id="paint12_radial_904_1318" cx="0" cy="0" r="1" gradientUnits="userSpaceOnUse" gradientTransform="translate(1.83641 17.4003) scale(10.4338 10.4427)">
<stop offset="1.38522e-07" stop-color="white" stop-opacity="0.2"/>
<stop offset="1" stop-color="white" stop-opacity="0"/>
</radialGradient>
</defs>
</svg>
