<svg width="20" height="20" viewBox="0 0 20 20" fill="none" xmlns="http://www.w3.org/2000/svg">
<path d="M2.00012 9.57028V16.3925C2.00012 17.8326 3.16752 19 4.60759 19H14.8743C16.3144 19 17.4818 17.8326 17.4818 16.3925V10.0157L17.1683 9.60375L17.4818 8.99038V8.0817L17.1274 7.60298L17.4818 7.0564V6.14807L17.2228 5.73498L17.4818 5.12277V3.60747C17.4818 2.1674 16.3144 1 14.8744 1H10.5704C9.70606 1 8.87707 1.34337 8.26588 1.95456L2.95468 7.26576C2.34349 7.87695 2.00012 8.7059 2.00012 9.57028Z" fill="#BBCFFB"/>
<path d="M2 9.57105V10.1274C2 9.07447 2.85387 8.22063 3.9068 8.22063H6.61296C8.05285 8.22063 9.22014 7.0533 9.22014 5.61344V2.90729C9.22014 1.85433 10.074 1.00049 11.1269 1.00049H10.5706C9.70604 1.00049 8.87705 1.34418 8.26555 1.95509L2.9546 7.26603C2.34369 7.87754 2 8.70653 2 9.57105Z" fill="#3E78FD"/>
<path d="M9.40472 10.8577H4.09095C3.94094 10.8577 3.81934 10.7361 3.81934 10.5861C3.81934 10.4361 3.94094 10.3145 4.09095 10.3145H9.40472C9.55473 10.3145 9.67633 10.4361 9.67633 10.5861C9.67633 10.7361 9.55473 10.8577 9.40472 10.8577Z" fill="#3E78FD"/>
<path d="M11.7088 12.2786H4.09095C3.94094 12.2786 3.81934 12.157 3.81934 12.007C3.81934 11.857 3.94094 11.7354 4.09095 11.7354H11.7088C11.8588 11.7354 11.9804 11.857 11.9804 12.007C11.9804 12.157 11.8588 12.2786 11.7088 12.2786Z" fill="#3E78FD"/>
<path d="M11.7088 13.6995H4.09095C3.94094 13.6995 3.81934 13.5779 3.81934 13.4279C3.81934 13.2779 3.94094 13.1562 4.09095 13.1562H11.7088C11.8588 13.1562 11.9804 13.2779 11.9804 13.4279C11.9804 13.5779 11.8588 13.6995 11.7088 13.6995Z" fill="#3E78FD"/>
<path d="M11.7088 15.1199H4.09095C3.94094 15.1199 3.81934 14.9983 3.81934 14.8483C3.81934 14.6983 3.94094 14.5767 4.09095 14.5767H11.7088C11.8588 14.5767 11.9804 14.6983 11.9804 14.8483C11.9804 14.9983 11.8588 15.1199 11.7088 15.1199Z" fill="#3E78FD"/>
<path d="M15.0022 16.9998H12.2225C12.0725 16.9998 11.9509 16.8782 11.9509 16.7282C11.9509 16.5781 12.0725 16.4565 12.2225 16.4565H15.0022C15.1522 16.4565 15.2738 16.5781 15.2738 16.7282C15.2738 16.8782 15.1522 16.9998 15.0022 16.9998Z" fill="#3E78FD"/>
</svg>
