<svg width="10" height="10" viewBox="0 0 10 10" fill="none" xmlns="http://www.w3.org/2000/svg">
<path d="M4.22535 0.774648C4.22535 0.346822 4.57218 0 5 0C5.42783 0 5.77465 0.346822 5.77465 0.774648V4.22535H9.22535C9.65318 4.22535 10 4.57218 10 5C10 5.42783 9.65318 5.77465 9.22535 5.77465H5.77465V9.22535C5.77465 9.65318 5.42783 10 5 10C4.57218 10 4.22535 9.65318 4.22535 9.22535V5.77465H0.774648C0.346822 5.77465 0 5.42783 0 5C0 4.57218 0.346822 4.22535 0.774648 4.22535H4.22535V0.774648Z" fill="#004DFF"/>
</svg>
