<svg width="24" height="24" viewBox="0 0 24 24" fill="none" xmlns="http://www.w3.org/2000/svg">
<path d="M7.27078 11.9972C6.7549 11.8193 6.26963 11.5297 5.85965 11.1197L3.51935 8.77944C3.37704 8.63713 3.25293 8.48406 3.13874 8.32561L3.13833 8.3252C1.36645 8.60817 0 10.1488 0 11.9972C0 14.045 1.67549 15.7205 3.7233 15.7205H7.03291C9.08072 15.7205 10.7562 14.045 10.7562 11.9972C10.7562 11.8172 10.7388 11.6418 10.714 11.4685C10.4042 11.6989 10.0674 11.8752 9.7141 11.9972C8.92393 11.7246 8.06095 11.7246 7.27078 11.9972Z" fill="#554CFF"/>
<path d="M15.6752 3.13337C15.3898 1.36397 13.8504 0 12.0036 0C10.1569 0 8.61748 1.36397 8.33203 3.13337C8.49048 3.24755 8.64355 3.37166 8.78586 3.51397L11.1262 5.85427C11.5361 6.26425 11.8261 6.74952 12.0036 7.26541C12.2758 8.05557 12.2758 8.91855 12.0036 9.70872C11.8812 10.0637 11.7041 10.4025 11.472 10.7136C11.6462 10.7388 11.8228 10.7566 12.0036 10.7566C12.1844 10.7566 12.3611 10.7392 12.5352 10.7136C12.9196 10.6577 13.2844 10.5436 13.622 10.3789C14.3733 10.0128 14.9835 9.40258 15.3496 8.6513C15.5888 8.16065 15.7269 7.61291 15.7269 7.03291V3.7233C15.7269 3.52225 15.7062 3.32615 15.6752 3.13337Z" fill="#FC9D00"/>
<path d="M15.2223 20.4809L12.882 18.1406C12.472 17.7307 12.182 17.2454 12.0046 16.7295C11.7323 15.9393 11.7323 15.0764 12.0046 14.2862C12.127 13.9312 12.3041 13.5924 12.5362 13.2813C12.362 13.2561 12.1853 13.2383 12.0046 13.2383C11.8238 13.2383 11.6471 13.2557 11.4729 13.2813C11.0886 13.3372 10.7237 13.4513 10.3862 13.616C9.63488 13.9821 9.02467 14.5923 8.65854 15.3436C8.41943 15.8343 8.28125 16.382 8.28125 16.962V20.2716C8.28125 20.4727 8.30194 20.6688 8.33296 20.8615C8.61842 22.6309 10.1578 23.9949 12.0046 23.9949C13.8513 23.9949 15.3907 22.6309 15.6761 20.8615C15.5177 20.7469 15.3646 20.6228 15.2223 20.4809Z" fill="#0084F4"/>
<path d="M20.865 8.32617C20.7508 8.48462 20.6267 8.63769 20.4844 8.78L18.1441 11.1203C17.7341 11.5303 17.2489 11.8199 16.733 11.9978C15.9428 12.27 15.0798 12.27 14.2897 11.9978C13.9347 11.8753 13.5959 11.6982 13.2848 11.4662C13.2596 11.6403 13.2422 11.817 13.2422 11.9978C13.2422 12.1786 13.2596 12.3552 13.2848 12.5294C13.3406 12.9137 13.4548 13.2786 13.6195 13.6162C13.9856 14.3674 14.5958 14.9776 15.3471 15.3438C15.8377 15.5829 16.3855 15.7211 16.9655 15.7211H20.2751C20.4762 15.7211 20.6722 15.7004 20.865 15.6694C22.6344 15.3839 23.9984 13.8445 23.9984 11.9978C23.9984 10.151 22.6344 8.61121 20.865 8.32617Z" fill="#E3F7DF"/>
<path d="M20.4869 3.51318C19.1813 2.20754 17.1281 2.08343 15.6751 3.13257C15.7062 3.32536 15.7269 3.52145 15.7269 3.72251V7.03211C15.7269 7.61212 15.5887 8.15986 15.3496 8.65051C14.9834 9.40179 14.3732 10.012 13.6219 10.3781C13.2844 10.5428 12.9195 10.657 12.5352 10.7128C12.6406 10.8539 12.7532 10.9912 12.881 11.1191C13.0088 11.2469 13.1462 11.3594 13.2873 11.4649C13.5984 11.697 13.9372 11.8745 14.2921 11.9965C15.0823 12.2687 15.9453 12.2687 16.7355 11.9965C17.2513 11.8186 17.7366 11.529 18.1466 11.1191L20.4869 8.77875C20.6292 8.63644 20.7533 8.48337 20.8675 8.32493C21.9171 6.87201 21.7925 4.81923 20.4869 3.51318Z" fill="#FFDF00"/>
<path d="M20.865 15.6693C20.6722 15.7003 20.4761 15.721 20.275 15.721H16.9654C16.3854 15.721 15.8377 15.5828 15.347 15.3437C14.5958 14.9776 13.9856 14.3674 13.6194 13.6161C13.4548 13.2785 13.3406 12.9136 13.2847 12.5293C13.1437 12.6348 13.0063 12.7473 12.8785 12.8752C12.7507 13.003 12.6381 13.1403 12.5326 13.2814C12.3006 13.5925 12.1231 13.9313 12.001 14.2863C11.7288 15.0765 11.7288 15.9394 12.001 16.7296C12.1789 17.2455 12.4685 17.7308 12.8785 18.1407L15.2188 20.481C15.3611 20.6233 15.5142 20.7475 15.6726 20.8616C17.1255 21.9108 19.1787 21.7867 20.4844 20.481C21.79 19.1754 21.9145 17.1222 20.865 15.6693Z" fill="#04B800"/>
<path d="M12.0044 7.26503C11.8265 6.74914 11.5369 6.26387 11.1269 5.85389L8.78664 3.51318C8.64432 3.37086 8.49126 3.24675 8.33281 3.13257C6.87989 2.08343 4.8267 2.20754 3.52106 3.51318C2.21542 4.81881 2.09131 6.87118 3.14004 8.3241C3.33117 8.2939 3.52561 8.27363 3.72501 8.27363H7.03462C8.90247 8.27363 10.4563 9.66904 10.7157 11.4682C10.7174 11.467 10.719 11.4662 10.7207 11.4649C10.8618 11.3594 10.9991 11.2469 11.1269 11.1191C11.2548 10.9912 11.3673 10.8539 11.4728 10.7128C11.7049 10.4017 11.8824 10.0629 12.0044 9.70793C12.2766 8.91776 12.2766 8.05478 12.0044 7.26503Z" fill="#FF0366"/>
<path d="M7.03129 8.27441H3.72169C3.52229 8.27441 3.32785 8.29469 3.13672 8.3253C3.13672 8.3253 3.13713 8.32571 3.13713 8.32613C3.25131 8.48457 3.37542 8.63764 3.51774 8.77996L5.85804 11.1203C6.26802 11.5302 6.75329 11.8198 7.26917 11.9977C8.05934 11.7255 8.92232 11.7255 9.71249 11.9977C10.0658 11.8761 10.4025 11.6994 10.7124 11.469C10.453 9.66983 8.89915 8.27441 7.03129 8.27441Z" fill="#554CFF"/>
<path d="M11.1269 12.8746C10.999 12.7468 10.8617 12.6342 10.7206 12.5287C10.4095 12.2966 10.0707 12.1192 9.71574 11.9971C8.92557 11.7249 8.06259 11.7249 7.27242 11.9971C6.75654 12.175 6.27127 12.4646 5.86129 12.8746L3.52099 15.2149C3.37868 15.3572 3.25457 15.5103 3.14038 15.6687C2.09124 17.1216 2.21535 19.1748 3.52099 20.4805C4.82663 21.7861 6.87982 21.9102 8.33274 20.8611C8.30171 20.6683 8.28103 20.4722 8.28103 20.2711V16.9615C8.28103 16.3815 8.4192 15.8338 8.65832 15.3431C9.02444 14.5919 9.63465 13.9817 10.3859 13.6155C10.7235 13.4509 11.0884 13.3367 11.4727 13.2808C11.3672 13.1398 11.2547 13.0024 11.1269 12.8746Z" fill="#CFCCFF"/>
</svg>
