<svg width="24" height="25" viewBox="0 0 24 25" fill="none" xmlns="http://www.w3.org/2000/svg">
<path d="M15.5983 21.25V22.9688C15.5983 23.5383 15.1417 24 14.5785 24H3.01988C2.45661 24 2 23.5383 2 22.9688V7.15625C2 6.5867 2.45661 6.125 3.01988 6.125H6.0795V18.8438C6.0795 20.1706 7.14702 21.25 8.45921 21.25H15.5983ZM15.5983 6.46875V2H8.45921C7.89595 2 7.43934 2.4617 7.43934 3.03125V18.8438C7.43934 19.4133 7.89595 19.875 8.45921 19.875H20.0178C20.5811 19.875 21.0377 19.4133 21.0377 18.8438V7.5H16.6182C16.0573 7.5 15.5983 7.03594 15.5983 6.46875ZM20.739 5.13547L17.9368 2.30203C17.7455 2.10864 17.4861 2 17.2157 2H16.9582V6.125H21.0377V5.86465C21.0377 5.59116 20.9302 5.32887 20.739 5.13547Z" fill="#04004D"/>
</svg>
