<svg width="32" height="32" viewBox="0 0 32 32" fill="none" xmlns="http://www.w3.org/2000/svg">
<rect width="32" height="32" rx="6" fill="#554CFF"/>
<path d="M6.26617 16.9485L9.90261 20.5849C9.98647 20.6717 10.0868 20.741 10.1977 20.7886C10.3086 20.8363 10.4279 20.8614 10.5486 20.8624C10.6693 20.8635 10.789 20.8405 10.9008 20.7948C11.0125 20.749 11.114 20.6815 11.1994 20.5962C11.2847 20.5108 11.3522 20.4093 11.3979 20.2976C11.4436 20.1859 11.4666 20.0662 11.4656 19.9454C11.4645 19.8247 11.4395 19.7054 11.3918 19.5945C11.3442 19.4836 11.2749 19.3833 11.1881 19.2994L8.19439 16.3057L11.1881 13.312C11.2749 13.2282 11.3442 13.1279 11.3918 13.017C11.4395 12.906 11.4645 12.7867 11.4656 12.666C11.4666 12.5453 11.4436 12.4256 11.3979 12.3139C11.3522 12.2022 11.2847 12.1007 11.1994 12.0153C11.114 11.9299 11.0125 11.8624 10.9008 11.8167C10.789 11.771 10.6693 11.748 10.5486 11.7491C10.4279 11.7501 10.3086 11.7752 10.1977 11.8228C10.0868 11.8705 9.98647 11.9397 9.90261 12.0266L6.26617 15.663C6.09574 15.8335 6 16.0647 6 16.3057C6 16.5468 6.09574 16.778 6.26617 16.9485Z" fill="white"/>
<path d="M22.0943 12.0266C22.0104 11.9397 21.9101 11.8705 21.7992 11.8228C21.6883 11.7752 21.569 11.7501 21.4483 11.7491C21.3275 11.748 21.2078 11.771 21.0961 11.8167C20.9844 11.8624 20.8829 11.9299 20.7975 12.0153C20.7122 12.1007 20.6447 12.2022 20.5989 12.3139C20.5532 12.4256 20.5302 12.5453 20.5313 12.666C20.5323 12.7867 20.5574 12.906 20.6051 13.017C20.6527 13.1279 20.722 13.2282 20.8088 13.312L23.8025 16.3057L20.8088 19.2994C20.722 19.3833 20.6527 19.4836 20.6051 19.5945C20.5574 19.7054 20.5323 19.8247 20.5313 19.9454C20.5302 20.0662 20.5532 20.1859 20.5989 20.2976C20.6447 20.4093 20.7122 20.5108 20.7975 20.5962C20.8829 20.6815 20.9844 20.749 21.0961 20.7948C21.2078 20.8405 21.3275 20.8635 21.4483 20.8624C21.569 20.8614 21.6883 20.8363 21.7992 20.7886C21.9101 20.741 22.0104 20.6717 22.0943 20.5849L25.7307 16.9485C25.9011 16.778 25.9969 16.5468 25.9969 16.3057C25.9969 16.0647 25.9011 15.8335 25.7307 15.663L22.0943 12.0266Z" fill="white"/>
<path d="M16.9448 9.69276L13.3084 22.4203C13.2422 22.652 13.2707 22.9005 13.3877 23.1112C13.5046 23.3219 13.7004 23.4775 13.9321 23.5439C14.0135 23.5664 14.0976 23.5781 14.1821 23.5785C14.3796 23.5783 14.5718 23.5138 14.7294 23.3948C14.887 23.2757 15.0016 23.1085 15.0557 22.9185L18.6922 10.191C18.7301 10.0747 18.7441 9.95204 18.7335 9.83025C18.7229 9.70846 18.6879 9.59006 18.6304 9.48213C18.573 9.3742 18.4944 9.27896 18.3994 9.2021C18.3043 9.12525 18.1947 9.06836 18.0771 9.03484C17.9595 9.00132 17.8364 8.99186 17.7151 9.00702C17.5938 9.02217 17.4768 9.06164 17.3711 9.12307C17.2654 9.18449 17.1732 9.26659 17.0999 9.36448C17.0267 9.46237 16.9739 9.57402 16.9448 9.69276Z" fill="white"/>
</svg>
