<svg width="27" height="26" viewBox="0 0 27 26" fill="none" xmlns="http://www.w3.org/2000/svg">
<path fill-rule="evenodd" clip-rule="evenodd" d="M2.63476 2.63769C4.20947 1.06299 6.56584 0.460938 9.60319 0.460938H11.9632C12.452 0.460938 12.8483 0.857173 12.8483 1.34596C12.8483 1.83474 12.452 2.23097 11.9632 2.23097H9.60319C6.74042 2.23097 4.96671 2.80895 3.88637 3.8893C2.80602 4.96964 2.22804 6.74335 2.22804 9.60612V16.6863C2.22804 19.549 2.80602 21.3227 3.88637 22.4031C4.96671 23.4834 6.74042 24.0614 9.60319 24.0614H16.6833C19.5461 24.0614 21.3198 23.4834 22.4002 22.4031C23.4805 21.3227 24.0585 19.549 24.0585 16.6863V14.3262C24.0585 13.8374 24.4547 13.4412 24.9435 13.4412C25.4323 13.4412 25.8285 13.8374 25.8285 14.3262V16.6863C25.8285 19.7236 25.2265 22.08 23.6518 23.6547C22.0771 25.2294 19.7207 25.8314 16.6833 25.8314H9.60319C6.56584 25.8314 4.20947 25.2294 2.63476 23.6547C1.06006 22.08 0.458008 19.7236 0.458008 16.6863V9.60612C0.458008 6.56877 1.06006 4.2124 2.63476 2.63769Z" fill="#004DFF"/>
<path fill-rule="evenodd" clip-rule="evenodd" d="M20.4555 0.1827C21.7693 0.05374 23.0718 0.630697 24.3656 1.92451C25.6594 3.21833 26.2364 4.52086 26.1074 5.83464C25.983 7.10199 25.2187 8.15236 24.3656 9.00543L15.0568 18.3143C14.791 18.5714 14.4437 18.7961 14.1085 18.9646C13.7753 19.132 13.3829 19.2797 13.0087 19.3332L9.45237 19.8412C8.57669 19.9617 7.73884 19.7226 7.15102 19.1372C6.56194 18.5505 6.32099 17.7124 6.44978 16.8316C6.44986 16.8311 6.44995 16.8305 6.45004 16.8299L6.95656 13.2842C6.95663 13.2837 6.9567 13.2832 6.95677 13.2827C7.00992 12.9036 7.15686 12.5083 7.32553 12.1727C7.49456 11.8364 7.72214 11.4871 7.98609 11.2231L17.2847 1.92451C18.1378 1.07144 19.1881 0.307103 20.4555 0.1827ZM20.6284 1.94427C19.9723 2.00867 19.288 2.42436 18.5363 3.17612L9.2377 12.4747C9.14764 12.5648 9.02122 12.7405 8.90704 12.9676C8.79274 13.195 8.72745 13.401 8.70961 13.5288L8.7092 13.5317L8.20179 17.0836L8.20131 17.0869C8.14188 17.4918 8.2609 17.7444 8.40009 17.8831C8.54069 18.0231 8.79962 18.1438 9.20895 18.088C9.20965 18.0879 9.21035 18.0878 9.21106 18.0877L12.7584 17.5809C12.8799 17.5636 13.0834 17.4988 13.3136 17.3831C13.5387 17.2699 13.7205 17.1427 13.8215 17.0464L23.114 7.75383C23.8658 7.00207 24.2814 6.3178 24.3458 5.66172C24.4057 5.05206 24.1802 4.24235 23.114 3.17612C22.0478 2.10988 21.2381 1.88443 20.6284 1.94427Z" fill="#004DFF"/>
<path fill-rule="evenodd" clip-rule="evenodd" d="M16.3378 3.0321C16.8084 2.90016 17.2969 3.17474 17.4288 3.64538C18.1358 6.16722 20.1097 8.14313 22.6472 8.86208C23.1175 8.99533 23.3907 9.48457 23.2575 9.95484C23.1242 10.4251 22.635 10.6983 22.1647 10.5651C19.0381 9.67921 16.5988 7.24182 15.7245 4.12316C15.5925 3.65252 15.8671 3.16404 16.3378 3.0321Z" fill="#004DFF"/>
</svg>
