<svg width="42" height="18" viewBox="0 0 42 18" fill="none" xmlns="http://www.w3.org/2000/svg">
<g clip-path="url(#clip0_223_246)">
<path d="M2.39136 8.29942L3.29646 7.39501C3.56946 7.12131 3.56946 6.67822 3.29646 6.40452C3.02276 6.13152 2.57965 6.13152 2.30665 6.40452L0.206655 8.50452C-0.0670462 8.77822 -0.0670462 9.22131 0.206655 9.49501L2.30665 11.595C2.57965 11.868 3.02276 11.868 3.29646 11.595C3.56946 11.3213 3.56946 10.8782 3.29646 10.6045L2.39136 9.69942H8.40155C8.78795 9.69942 9.10155 9.38582 9.10155 8.99942C9.10155 8.61372 8.78795 8.29942 8.40155 8.29942H2.39136Z" fill="#667386"/>
<path d="M4.75851 11.8V13.2C4.75851 14.747 6.01221 16 7.55851 16H13.2032C14.7502 16 16.0032 14.747 16.0032 13.2C16.0032 10.8697 16.0032 7.131 16.0032 4.8C16.0032 3.2537 14.7502 2 13.2032 2C11.2019 2 9.56051 2 7.55851 2C6.01221 2 4.75851 3.2537 4.75851 4.8V6.2C4.75851 6.5864 5.07211 6.9 5.45851 6.9C5.84491 6.9 6.15851 6.5864 6.15851 6.2C6.15851 6.2 6.15851 5.5441 6.15851 4.8C6.15851 4.0272 6.78571 3.4 7.55851 3.4H13.2032C13.9767 3.4 14.6032 4.0272 14.6032 4.8V13.2C14.6032 13.9735 13.9767 14.6 13.2032 14.6C11.2019 14.6 9.56051 14.6 7.55851 14.6C6.78571 14.6 6.15851 13.9735 6.15851 13.2C6.15851 12.4566 6.15851 11.8 6.15851 11.8C6.15851 11.4143 5.84491 11.1 5.45851 11.1C5.07211 11.1 4.75851 11.4143 4.75851 11.8Z" fill="#667386"/>
</g>
<path d="M21.0537 14V5.21484H26.5889V6.53516H22.5327V8.76318H25.9795V10.0898H22.5327V12.6479H26.5889V14H21.0537ZM31.8511 14L30.4229 11.6704L28.9439 14H27.4204L29.6675 10.7119L27.4458 7.34131H29.0708L30.4991 9.6582L31.9717 7.34131H33.5015L31.2544 10.6357L33.5015 14H31.8511ZM36.1041 5.58936C36.1041 5.86865 36.0364 6.06331 35.901 6.17334C35.7698 6.27913 35.5645 6.33203 35.2852 6.33203C34.9805 6.33203 34.769 6.26855 34.6505 6.1416C34.5362 6.01465 34.4791 5.83057 34.4791 5.58936C34.4791 5.32699 34.5404 5.13867 34.6632 5.02441C34.7859 4.90592 34.9932 4.84668 35.2852 4.84668C35.5772 4.84668 35.7867 4.90381 35.9137 5.01807C36.0406 5.13232 36.1041 5.32275 36.1041 5.58936ZM34.6124 14V7.34131H35.9771V14H34.6124ZM41.3092 14C41.1188 14.0592 40.9029 14.1058 40.6617 14.1396C40.4248 14.1777 40.1984 14.1968 39.9825 14.1968C39.6186 14.1968 39.3076 14.1523 39.0494 14.0635C38.7955 13.9788 38.5861 13.8477 38.421 13.6699C38.2602 13.488 38.1417 13.2573 38.0655 12.978C37.9894 12.6987 37.9513 12.3687 37.9513 11.9878V8.45215H37.0563V7.34131H37.9513V5.48779H39.316V7.34131H40.9283V8.45215H39.316V11.7783C39.316 12.0153 39.3287 12.2163 39.3541 12.3813C39.3837 12.5422 39.4303 12.6733 39.4938 12.7749C39.5572 12.8765 39.6398 12.9505 39.7413 12.9971C39.8471 13.0436 39.9741 13.0669 40.1222 13.0669C40.2703 13.0669 40.4269 13.05 40.5919 13.0161C40.757 12.978 40.9008 12.9336 41.0236 12.8828L41.3092 14Z" fill="#667386"/>
<defs>
<clipPath id="clip0_223_246">
<rect width="16" height="16" fill="white" transform="translate(0 1)"/>
</clipPath>
</defs>
</svg>
