<svg width="24" height="24" viewBox="0 0 24 24" fill="none" xmlns="http://www.w3.org/2000/svg">
<path fill-rule="evenodd" clip-rule="evenodd" d="M6.42581 3C4.53379 3 3 4.53379 3 6.42581V7.99355C3 8.4425 3.36395 8.80645 3.8129 8.80645C4.26186 8.80645 4.62581 8.4425 4.62581 7.99355V6.42581C4.62581 5.43169 5.43169 4.62581 6.42581 4.62581H7.99355C8.4425 4.62581 8.80645 4.26186 8.80645 3.8129C8.80645 3.36395 8.4425 3 7.99355 3H6.42581ZM3 16.0065V17.5742C3 19.4662 4.53379 21 6.42581 21H7.99355C8.4425 21 8.80645 20.636 8.80645 20.1871C8.80645 19.7381 8.4425 19.3742 7.99355 19.3742H6.42581C5.43169 19.3742 4.62581 18.5683 4.62581 17.5742V16.0065C4.62581 15.5575 4.26186 15.1935 3.8129 15.1935C3.36395 15.1935 3 15.5575 3 16.0065ZM19.3742 16.0065V17.5742C19.3742 18.5683 18.5683 19.3742 17.5742 19.3742H16.0065C15.5575 19.3742 15.1935 19.7381 15.1935 20.1871C15.1935 20.636 15.5575 21 16.0065 21H17.5742C19.4662 21 21 19.4662 21 17.5742V16.0065C21 15.5575 20.636 15.1935 20.1871 15.1935C19.7381 15.1935 19.3742 15.5575 19.3742 16.0065ZM20.1871 8.80645C20.636 8.80645 21 8.4425 21 7.99355V6.42581C21 4.53379 19.4662 3 17.5742 3H16.0065C15.5575 3 15.1935 3.36395 15.1935 3.8129C15.1935 4.26186 15.5575 4.62581 16.0065 4.62581H17.5742C18.5683 4.62581 19.3742 5.43169 19.3742 6.42581V7.99355C19.3742 8.4425 19.7381 8.80645 20.1871 8.80645ZM3.38308 5.66574C3.7228 4.30132 4.95624 3.29032 6.42581 3.29032H7.99355C8.28216 3.29032 8.51613 3.52429 8.51613 3.8129C8.51613 3.84898 8.51247 3.8842 8.50551 3.91822C8.51247 3.88422 8.51612 3.84901 8.51612 3.81295C8.51612 3.52434 8.28215 3.29037 7.99354 3.29037H6.4258C4.95624 3.29037 3.72282 4.30135 3.38308 5.66574ZM4.34545 6.22029C4.33885 6.28792 4.33547 6.35649 4.33547 6.42585V7.9936C4.33547 8.02416 4.33285 8.05411 4.32781 8.08323C4.33285 8.05409 4.33548 8.02413 4.33548 7.99355V6.42581C4.33548 6.35646 4.33886 6.28791 4.34545 6.22029ZM3.30597 15.879C3.36286 15.652 3.56825 15.4839 3.8129 15.4839C4.10152 15.4839 4.33548 15.7178 4.33548 16.0065V17.5742C4.33548 18.7286 5.27135 19.6645 6.42581 19.6645H7.99355C8.28216 19.6645 8.51613 19.8985 8.51613 20.1871L8.51612 20.1871C8.51612 19.8985 8.28215 19.6646 7.99354 19.6646H6.42579C5.27134 19.6646 4.33547 18.7287 4.33547 17.5742V16.0065C4.33547 15.7179 4.1015 15.4839 3.81289 15.4839C3.56826 15.4839 3.36288 15.652 3.30597 15.879ZM20.0433 15.5039C20.089 15.4909 20.1372 15.4839 20.1871 15.4839C20.4757 15.4839 20.7097 15.7178 20.7097 16.0065V17.5742L20.7097 17.5742V16.0065C20.7097 15.7179 20.4757 15.4839 20.1871 15.4839C20.1372 15.4839 20.089 15.4909 20.0433 15.5039ZM17.9928 19.6226C17.8576 19.6501 17.7176 19.6645 17.5742 19.6645H16.0065C15.9422 19.6645 15.8807 19.6761 15.8239 19.6973C15.8807 19.6761 15.9422 19.6646 16.0064 19.6646H17.5742C17.7176 19.6646 17.8576 19.6501 17.9928 19.6226ZM20.7097 7.9936L20.7097 7.99355V6.42581C20.7097 4.69413 19.3059 3.29032 17.5742 3.29032H16.0065C15.7539 3.29032 15.5432 3.46945 15.4945 3.70759C15.5432 3.46948 15.7539 3.29037 16.0064 3.29037H17.5742C19.3059 3.29037 20.7097 4.69417 20.7097 6.42585V7.9936ZM7.84074 9.73753C7.91735 9.43593 8.19068 9.21283 8.51611 9.21283C8.90093 9.21283 9.21288 9.52478 9.21288 9.9096V11.129C9.21288 11.153 9.21167 11.1768 9.20929 11.2002C9.21167 11.1768 9.2129 11.153 9.2129 11.1289V9.90955C9.2129 9.52474 8.90094 9.21278 8.51612 9.21278C8.19067 9.21278 7.91734 9.43591 7.84074 9.73753ZM9.50322 11.1289V9.90955C9.50322 9.3644 9.06128 8.92246 8.51612 8.92246C7.97096 8.92246 7.52903 9.3644 7.52903 9.90955V11.1289C7.52903 11.6741 7.97096 12.116 8.51612 12.116C9.06128 12.116 9.50322 11.6741 9.50322 11.1289ZM14.7871 9.9096C14.7871 9.52478 15.0991 9.21283 15.4839 9.21283C15.7853 9.21283 16.042 9.40417 16.1391 9.67201C16.042 9.40415 15.7853 9.21278 15.4839 9.21278C15.0991 9.21278 14.7871 9.52474 14.7871 9.90955V11.1289C14.7871 11.1601 14.7892 11.1908 14.7931 11.221C14.7892 11.1908 14.7871 11.1601 14.7871 11.129V9.9096ZM16.471 11.1289V9.90955C16.471 9.3644 16.029 8.92246 15.4839 8.92246C14.9387 8.92246 14.4968 9.3644 14.4968 9.90955V11.1289C14.4968 11.6741 14.9387 12.116 15.4839 12.116C16.029 12.116 16.471 11.6741 16.471 11.1289ZM12.8403 9.55871C12.7679 9.35705 12.575 9.21283 12.3484 9.21283C12.0598 9.21283 11.8258 9.44679 11.8258 9.73541V13.1322C11.8258 13.2284 11.7478 13.3064 11.6516 13.3064H11.2161C10.9275 13.3064 10.6935 13.5403 10.6935 13.829C10.6935 13.8932 10.7051 13.9548 10.7264 14.0116C10.7051 13.9547 10.6935 13.8932 10.6935 13.8289C10.6935 13.5403 10.9275 13.3063 11.2161 13.3063H11.6516C11.7478 13.3063 11.8258 13.2283 11.8258 13.1321V9.73536C11.8258 9.44675 12.0598 9.21278 12.3484 9.21278C12.575 9.21278 12.7679 9.35703 12.8403 9.55871ZM9.00868 15.2976C9.20772 15.0886 9.5385 15.0805 9.7475 15.2796L9.96824 15.4898C11.1792 16.6431 13.0821 16.6431 14.293 15.4898L14.5138 15.2796C14.7228 15.0805 15.0536 15.0886 15.2526 15.2976C15.3031 15.3506 15.3403 15.4116 15.3643 15.4762C15.3403 15.4115 15.3031 15.3506 15.2526 15.2975C15.0536 15.0885 14.7228 15.0805 14.5138 15.2795L14.293 15.4898C13.0821 16.643 11.1792 16.643 9.96822 15.4898L9.74748 15.2795C9.53848 15.0805 9.2077 15.0885 9.00866 15.2975C8.88499 15.4274 8.84128 15.6043 8.87603 15.7673C8.8413 15.6043 8.88502 15.4274 9.00868 15.2976ZM13.1613 9.73536C13.1613 9.28641 12.7973 8.92246 12.3484 8.92246C11.8994 8.92246 11.5355 9.28641 11.5355 9.73536V13.016H11.2161C10.7672 13.016 10.4032 13.38 10.4032 13.8289C10.4032 14.2779 10.7672 14.6418 11.2161 14.6418H11.6516C12.4854 14.6418 13.1613 13.9659 13.1613 13.1321V9.73536ZM9.9477 15.0693C9.6226 14.7597 9.10805 14.7722 8.79842 15.0973C8.4888 15.4224 8.50135 15.937 8.82646 16.2466L9.0472 16.4568C10.7739 18.1013 13.4873 18.1013 15.2141 16.4568L15.4348 16.2466C15.7599 15.937 15.7725 15.4224 15.4628 15.0973C15.1532 14.7722 14.6387 14.7597 14.3136 15.0693L14.0928 15.2795C12.994 16.326 11.2673 16.326 10.1684 15.2795L9.9477 15.0693Z" fill="white"/>
</svg>
