<svg width="16" height="16" viewBox="0 0 17 16" fill="none" xmlns="http://www.w3.org/2000/svg">
<path d="M0 1.69707C0 0.759804 0.759804 0 1.69707 0H5.57609C6.51335 0 7.27316 0.759804 7.27316 1.69707V5.57609C7.27316 6.51335 6.51335 7.27316 5.57609 7.27316H1.69707C0.759804 7.27316 0 6.51335 0 5.57609V1.69707Z" fill="#667386"/>
<path d="M0 10.4236C0 9.48637 0.759804 8.72656 1.69707 8.72656H5.57609C6.51335 8.72656 7.27316 9.48637 7.27316 10.4236V14.3026C7.27316 15.2399 6.51335 15.9997 5.57609 15.9997H1.69707C0.759804 15.9997 0 15.2399 0 14.3026V10.4236Z" fill="#667386"/>
<path d="M8.73047 1.69707C8.73047 0.759804 9.49027 0 10.4275 0H14.3066C15.2438 0 16.0036 0.759804 16.0036 1.69707V5.57609C16.0036 6.51335 15.2438 7.27316 14.3066 7.27316H10.4275C9.49027 7.27316 8.73047 6.51335 8.73047 5.57609V1.69707Z" fill="#667386"/>
<path d="M8.73438 9.51853C8.73438 9.08114 9.08895 8.72656 9.52634 8.72656H11.3365C11.7739 8.72656 12.1285 9.08114 12.1285 9.51853V11.3287C12.1285 11.7661 11.7739 12.1207 11.3365 12.1207H9.52634C9.08895 12.1207 8.73438 11.7661 8.73438 11.3287V9.51853Z" fill="#667386"/>
<path d="M8.73438 13.3955C8.73438 12.9581 9.08895 12.6035 9.52634 12.6035H11.3365C11.7739 12.6035 12.1285 12.9581 12.1285 13.3955V15.2057C12.1285 15.6431 11.7739 15.9977 11.3365 15.9977H9.52634C9.08895 15.9977 8.73438 15.6431 8.73438 15.2057V13.3955Z" fill="#667386"/>
<path d="M12.6133 9.51853C12.6133 9.08114 12.9679 8.72656 13.4052 8.72656H15.2155C15.6528 8.72656 16.0074 9.08114 16.0074 9.51853V11.3287C16.0074 11.7661 15.6528 12.1207 15.2155 12.1207H13.4052C12.9679 12.1207 12.6133 11.7661 12.6133 11.3287V9.51853Z" fill="#667386"/>
<path d="M12.6133 13.3955C12.6133 12.9581 12.9679 12.6035 13.4052 12.6035H15.2155C15.6528 12.6035 16.0074 12.9581 16.0074 13.3955V15.2057C16.0074 15.6431 15.6528 15.9977 15.2155 15.9977H13.4052C12.9679 15.9977 12.6133 15.6431 12.6133 15.2057V13.3955Z" fill="#667386"/>
</svg>
