<svg width="24" height="24" viewBox="0 0 24 24" fill="none" xmlns="http://www.w3.org/2000/svg">
<g clip-path="url(#clip0_10049_19226)">
<path d="M24 2.8125V6.89062C24 7.40841 23.5803 7.82812 23.0625 7.82812C22.5447 7.82812 22.125 7.40841 22.125 6.89062V2.8125C22.125 2.29556 21.7044 1.875 21.1875 1.875H17.1094C16.5916 1.875 16.1719 1.45528 16.1719 0.9375C16.1719 0.419719 16.5916 0 17.1094 0H21.1875C22.7383 0 24 1.26169 24 2.8125ZM19.2121 3.46209L15.3049 7.36927C13.6881 6.04547 11.6228 5.25 9.375 5.25C4.20563 5.25 0 9.45563 0 14.625C0 19.7944 4.20563 24 9.375 24C11.07 24 12.649 23.5782 14.0679 22.7462C14.5146 22.4844 14.6644 21.91 14.4025 21.4634C14.1406 21.0166 13.5662 20.8669 13.1196 21.1288C11.9921 21.7898 10.7322 22.125 9.375 22.125C5.2395 22.125 1.875 18.7605 1.875 14.625C1.875 10.4895 5.2395 7.125 9.375 7.125C13.5105 7.125 16.875 10.4895 16.875 14.625C16.875 15.7255 16.593 16.8458 16.037 17.9548C15.8049 18.4176 15.992 18.981 16.4548 19.213C16.9177 19.4452 17.481 19.258 17.7131 18.7952C18.4011 17.4229 18.75 16.0199 18.75 14.625C18.75 12.3772 17.9545 10.3119 16.6307 8.69508L20.5379 4.78791C20.904 4.42177 20.904 3.82819 20.5379 3.46209C20.1718 3.096 19.5782 3.09595 19.2121 3.46209Z" fill="#667386"/>
</g>
<defs>
<clipPath id="clip0_10049_19226">
<rect width="24" height="24" fill="white"/>
</clipPath>
</defs>
</svg>
