<svg width="20" height="20" viewBox="0 0 20 20" fill="none" xmlns="http://www.w3.org/2000/svg">
<path d="M18.5816 10.3786C18.5816 13.2647 17.159 15.8178 14.9774 17.3744C14.7683 17.1273 14.6361 16.8064 14.6361 16.4567C14.6361 16.0669 14.793 15.7139 15.0469 15.4574C15.0523 15.4521 15.0573 15.4471 15.0623 15.4424C16.3566 14.1459 17.157 12.3554 17.157 10.3776C17.157 9.56751 17.0227 8.78889 16.7752 8.06243C16.7752 8.06243 16.7752 8.06243 16.7752 8.06209C16.6008 7.55026 16.3697 7.06417 16.0901 6.61184C15.9097 6.31965 15.7086 6.04184 15.4895 5.77973C15.435 5.71454 15.3793 5.65002 15.3221 5.58683C15.0673 5.34145 14.7209 5.19034 14.3388 5.19034C14.143 5.19034 13.9563 5.23012 13.7866 5.302C13.3574 5.47852 12.9135 5.62628 12.4569 5.74229C12.1699 5.81517 11.8783 5.87602 11.582 5.92382C11.0623 6.0074 10.5289 6.05086 9.98573 6.05086C9.44528 6.05086 8.91484 6.00774 8.3981 5.92516C8.10583 5.87836 7.8179 5.81918 7.53498 5.74764H7.53464C7.08605 5.63464 6.64947 5.49089 6.22726 5.31938C6.20488 5.31069 6.18284 5.30133 6.16079 5.29197C6.00346 5.23146 5.83278 5.1987 5.65441 5.1987C5.23821 5.1987 4.86376 5.37822 4.60423 5.66373C4.58919 5.68044 4.57416 5.69783 4.5598 5.71521C4.31897 5.99637 4.09985 6.29558 3.90444 6.61184C3.62219 7.06851 3.38937 7.55895 3.21467 8.07614C2.96983 8.79825 2.83722 9.57252 2.83722 10.3776C2.83722 12.3554 3.63755 14.1459 4.93191 15.4424C4.93725 15.4471 4.94226 15.4524 4.94727 15.4574C5.20147 15.7139 5.35846 16.0669 5.35846 16.4567C5.35846 16.8061 5.23253 17.126 5.0231 17.3731C2.84157 15.8165 1.41895 13.263 1.41895 10.3772C1.41895 8.34994 2.12074 6.48714 3.29484 5.01817C3.43413 4.84399 3.49225 4.73199 3.73175 4.51302C4.23613 4.05167 4.90752 3.77051 5.64439 3.77051C5.97708 3.77051 6.29641 3.82768 6.59302 3.93298C6.59336 3.93332 6.59369 3.93332 6.59402 3.93332C6.68956 3.96541 6.76605 4.00286 6.84788 4.03796C6.84822 4.03829 6.84855 4.03829 6.84889 4.03829C7.82057 4.42075 8.87877 4.63036 9.98573 4.63036C11.1331 4.63036 12.2281 4.40504 13.2285 3.99584C13.2398 3.99116 13.2512 3.98647 13.2625 3.98179C13.5932 3.84673 13.9553 3.77184 14.3351 3.77184C15.1555 3.77184 15.894 4.1202 16.4121 4.67683C16.4161 4.68151 16.4201 4.68619 16.4241 4.6902C16.4642 4.73233 16.4942 4.7691 16.5293 4.81156C16.5307 4.81323 16.5317 4.81457 16.533 4.81591C17.807 6.31497 18.5816 8.25733 18.5816 10.3786Z" fill="url(#paint0_radial_7531_14121)"/>
<path d="M14.0452 13.6493C14.0796 13.4991 14.0579 13.3576 13.9474 13.2388L13.944 13.2351C13.937 13.2278 13.93 13.2207 13.9223 13.2134L13.9156 13.2074C13.9086 13.201 13.9013 13.1946 13.8936 13.1886L13.8862 13.1826C13.8762 13.1746 13.8655 13.1665 13.8542 13.1592C13.8415 13.1903 13.8288 13.2201 13.8154 13.2505C13.9868 13.3589 14.0512 13.4977 14.0452 13.6493Z" fill="#554CFF"/>
<path d="M6.19449 9.94963C6.03048 9.82083 5.99674 9.65254 6.03683 9.47656C6.03181 9.61909 6.08626 9.75391 6.23324 9.85863C6.22021 9.88874 6.20719 9.91885 6.19449 9.9493" fill="#8F88FF"/>
<path d="M12.7981 14.2264C12.4047 14.2264 11.9187 14.1558 11.3598 13.9295C9.94622 13.3572 9.11149 10.5071 7.16946 10.5071C6.84746 10.5081 6.59126 10.5867 6.59126 10.5867C6.24822 10.679 6.02909 10.8752 5.89648 11.1009C5.90149 11.0571 5.90717 11.0133 5.91319 10.9695C5.96296 10.6218 6.05615 10.2818 6.1911 9.95718C6.20379 9.92709 6.21648 9.897 6.22984 9.86658C6.34709 9.60281 6.49172 9.35207 6.66141 9.11872C6.70249 9.06155 6.74291 9.00706 6.787 8.95257C6.94867 8.92616 7.11468 8.91178 7.27835 8.91212C7.67184 8.91212 8.15851 8.98433 8.71767 9.21066C10.1313 9.783 10.966 12.633 12.908 12.633C13.1028 12.632 13.2965 12.6053 13.4846 12.5535C13.7925 12.4712 14 12.3051 14.1366 12.1082C14.1342 12.1232 14.1322 12.1382 14.1302 12.1533C14.0808 12.4986 13.9886 12.836 13.855 13.1582C13.8423 13.1893 13.8293 13.2197 13.8159 13.2505C13.6943 13.5243 13.5437 13.7844 13.3663 14.0258C13.3236 14.0836 13.2798 14.1405 13.2344 14.1963C13.0904 14.2167 12.9448 14.2267 12.7991 14.2264H12.7981Z" fill="url(#paint1_radial_7531_14121)"/>
<path d="M13.6 11.6357C11.659 11.6357 10.8226 8.78396 9.40864 8.21228C8.85015 7.98595 8.36581 7.91507 7.97333 7.91507C7.79463 7.91474 7.61125 7.93045 7.43555 7.96188C8.15938 7.50387 9.0038 7.25748 9.86025 7.25781C10.076 7.25781 10.2915 7.27319 10.5053 7.30328L10.5186 7.30529C12.5846 7.60316 14.1241 9.2316 14.3569 11.1713C14.3569 11.1713 14.3569 11.1733 14.3569 11.1743C14.3686 11.2786 14.3686 11.3839 14.3569 11.4886C14.2988 11.514 14.2387 11.5357 14.1775 11.5524C13.9898 11.6042 13.7958 11.6346 13.601 11.6357" fill="url(#paint2_radial_7531_14121)"/>
<path d="M6.47756 11.5049C8.41859 11.5049 9.25466 14.3566 10.6683 14.9283C11.2268 15.1546 11.7124 15.2258 12.1049 15.2258C12.2833 15.2258 12.462 15.2107 12.6417 15.179C11.9179 15.637 11.0748 15.8824 10.2183 15.882C10.0025 15.882 9.7871 15.8667 9.57332 15.8366L9.55996 15.8346C7.494 15.5367 5.95448 13.9083 5.72166 11.9686C5.72166 11.9686 5.72166 11.9666 5.72166 11.9656C5.70997 11.8613 5.70997 11.756 5.72166 11.6513C5.77978 11.6259 5.8399 11.6045 5.90136 11.5878C6.08909 11.536 6.28216 11.5062 6.47689 11.5052H6.47756V11.5049Z" fill="url(#paint3_radial_7531_14121)"/>
<path d="M12.9077 12.6346C10.9667 12.6346 10.1313 9.78353 8.71735 9.21219C8.15819 8.98586 7.67151 8.91365 7.27802 8.91365C7.11435 8.91331 6.95068 8.92635 6.78934 8.95276C6.47202 9.00491 6.26893 9.09184 6.20312 9.1236L6.2058 9.11992C6.24221 9.06944 6.28028 9.02397 6.3187 8.97516C6.48772 8.90863 6.82475 8.80566 7.29406 8.80566C7.68721 8.80566 8.17422 8.87788 8.73305 9.10421C10.1466 9.67655 10.9814 12.5266 12.9234 12.5266C13.1182 12.5256 13.3119 12.4988 13.4996 12.447C14.0594 12.2969 14.2883 11.8693 14.3567 11.4892C14.3133 11.8934 14.0982 12.3908 13.4842 12.5553C13.2965 12.6071 13.1028 12.6339 12.9077 12.6349" fill="url(#paint4_radial_7531_14121)"/>
<path d="M12.783 14.3361C12.3895 14.3361 11.9025 14.2619 11.3434 14.0352C9.92976 13.4632 9.09368 10.6129 7.15299 10.6129C6.95825 10.6139 6.76485 10.6406 6.57712 10.6921C6.01729 10.8422 5.79116 11.2691 5.72168 11.6506C5.7651 11.2467 5.97921 10.7509 6.59149 10.5861C6.59149 10.5861 6.83432 10.5092 7.16869 10.5049C9.10972 10.5049 9.94512 13.3559 11.3591 13.9273C11.9179 14.1536 12.4049 14.2258 12.7984 14.2258C13.3966 14.2258 13.7798 14.059 13.8756 14.0125C13.8385 14.0647 13.8075 14.1195 13.7674 14.1696C13.598 14.2362 13.2537 14.3395 12.783 14.3361Z" fill="url(#paint5_radial_7531_14121)"/>
<path d="M6.31738 8.97448C6.4864 8.90796 6.8241 8.80666 7.29374 8.80666C7.68689 8.80666 8.17391 8.87887 8.73273 9.1052C10.1463 9.67755 10.9824 12.5276 12.9231 12.5276C13.1178 12.5266 13.3112 12.4998 13.499 12.448C14.0591 12.2979 14.2869 11.869 14.3554 11.4885C14.2973 11.5143 14.2362 11.536 14.1747 11.5527C13.987 11.6045 13.7942 11.6346 13.5995 11.6356C11.6585 11.6356 10.8231 8.78493 9.40914 8.21325C8.85065 7.98692 8.36497 7.91504 7.97215 7.91504C7.79378 7.91471 7.61541 7.92909 7.43971 7.96085L7.4337 7.96218C7.04122 8.21158 6.69049 8.52149 6.39421 8.88054L6.31738 8.97448Z" fill="url(#paint6_radial_7531_14121)"/>
<path d="M13.7671 14.17C13.598 14.2366 13.2517 14.3342 12.782 14.3342C12.3889 14.3342 11.9019 14.262 11.343 14.0357C9.92942 13.4633 9.09335 10.6133 7.15265 10.6133C6.95792 10.6143 6.76451 10.641 6.57679 10.6928C6.01663 10.843 5.79016 11.2709 5.72168 11.6513C5.7798 11.6256 5.83926 11.6049 5.90072 11.5878C6.08844 11.536 6.28151 11.5059 6.47625 11.5049C8.41728 11.5049 9.25268 14.3556 10.6666 14.9273C11.2251 15.1536 11.7108 15.2255 12.1036 15.2255C12.282 15.2258 12.4604 15.2111 12.6357 15.1797L12.6421 15.1787C13.0345 14.9293 13.3973 14.6224 13.6936 14.2637L13.7671 14.17Z" fill="url(#paint7_radial_7531_14121)"/>
<path fill-rule="evenodd" clip-rule="evenodd" d="M13.8156 13.2517L13.8162 13.25C13.9866 13.3576 14.0497 13.4907 14.046 13.6418C14.0457 13.6448 14.0457 13.6478 14.0457 13.6485C14.0323 13.7231 13.9903 13.8233 13.9475 13.8982C13.9472 13.8992 13.9004 13.9761 13.8757 14.0132C13.8059 14.0473 13.5828 14.1453 13.2344 14.1961C13.2798 14.1403 13.3239 14.0834 13.3663 14.0256C13.367 14.0256 13.4328 13.9337 13.4638 13.8869C13.5998 13.6856 13.717 13.4737 13.8156 13.2517Z" fill="url(#paint8_linear_7531_14121)"/>
<path d="M6.78666 8.95312C6.57789 8.98722 6.41922 9.03603 6.31667 9.07481C6.30966 9.07749 6.30298 9.08016 6.29663 9.0825C6.25354 9.09955 6.22248 9.11393 6.20277 9.12362C6.17938 9.15873 6.15767 9.19383 6.13763 9.22993L6.13596 9.23261L6.13429 9.23562C6.0912 9.31117 6.0588 9.39241 6.03742 9.47699V9.48134C6.03241 9.62342 6.08753 9.75414 6.23417 9.85877C6.35041 9.59734 6.49471 9.34962 6.6624 9.11761C6.70382 9.06111 6.7429 9.00795 6.78666 8.95312Z" fill="url(#paint9_linear_7531_14121)"/>
<path d="M19.9997 10.3782C19.9997 13.131 18.8891 15.6243 17.091 17.4336C17.09 17.4346 17.0887 17.4359 17.0877 17.4373C17.0693 17.456 17.0506 17.4744 17.0322 17.4921C16.7783 17.7311 16.4363 17.8776 16.0605 17.8776C15.6263 17.8776 15.2375 17.6823 14.9769 17.3744C17.1585 15.8179 18.5811 13.2644 18.5811 10.3786C18.5811 8.25735 17.8045 6.31566 16.5312 4.8176C16.5298 4.81593 16.5288 4.81459 16.5275 4.81325C16.4938 4.7718 16.4627 4.73368 16.4263 4.69424C16.4226 4.68989 16.4183 4.68554 16.4143 4.68086C15.8962 4.12423 15.1613 3.77387 14.341 3.77387C13.9615 3.77387 13.5994 3.84842 13.2684 3.98382C13.257 3.9885 13.2453 3.99318 13.2343 3.99786C12.2339 4.40706 11.139 4.63239 9.99159 4.63239C8.88462 4.63239 7.82509 4.42378 6.85374 4.04132C6.85341 4.04099 6.85307 4.04099 6.85274 4.04099C6.74051 3.99318 6.68573 3.9671 6.59888 3.93601C6.59855 3.93568 6.59821 3.93568 6.59788 3.93568C6.30126 3.83037 5.9826 3.77186 5.64991 3.77186C4.91305 3.77186 4.23531 4.05235 3.73093 4.51371C3.56625 4.66415 3.36817 4.92558 3.29636 5.01585C2.12225 6.48482 1.42447 8.35163 1.42447 10.3789C1.42447 13.2647 2.84074 15.8172 5.02227 17.3738C4.76207 17.6817 4.37961 17.8782 3.94504 17.8782C3.56725 17.8782 3.22387 17.7305 2.96968 17.4894C2.96868 17.4884 2.96734 17.4871 2.96634 17.4864C2.95565 17.4757 2.94463 17.465 2.93394 17.4543C2.92859 17.4493 2.92325 17.4436 2.91824 17.4383C1.1185 15.629 0.00585938 13.134 0.00585938 10.3796C0.00585938 7.57268 1.16059 5.0359 3.02078 3.21891C3.1888 3.05476 3.36249 2.8963 3.54153 2.74485C3.54187 2.74452 3.54187 2.74452 3.54253 2.74418C3.68683 2.62149 3.83514 2.50281 3.98646 2.38847L3.98679 2.38814C4.03088 2.36006 4.07598 2.33398 4.12174 2.30857C4.48082 2.112 4.89301 2 5.33125 2C5.68331 2 6.01834 2.07221 6.32264 2.20226C6.45992 2.2845 6.60055 2.3624 6.74351 2.43528C6.74953 2.43829 6.75554 2.44129 6.76188 2.44464C6.76222 2.44464 6.76222 2.44464 6.76222 2.44497C7.73257 2.93675 8.82984 3.21356 9.99126 3.21356H10.0026C11.1717 3.21189 12.2757 2.92973 13.2497 2.42993C13.2751 2.41722 13.3001 2.40385 13.3252 2.39081C13.4137 2.34434 13.5009 2.29587 13.5874 2.24572C13.9164 2.08826 14.2848 2 14.6743 2C15.1069 2 15.5141 2.10899 15.8698 2.30088C15.9206 2.3283 15.97 2.35738 16.0188 2.3878C16.1704 2.50214 16.3184 2.62049 16.4627 2.74318C16.6384 2.89228 16.8091 3.04741 16.9738 3.20821C18.8403 5.0242 19.9997 7.56566 19.9997 10.3782Z" fill="url(#paint10_linear_7531_14121)"/>
<path d="M5.02277 17.3728C4.76256 17.6807 4.37375 17.8763 3.93918 17.8763C3.5614 17.8763 3.21802 17.7286 2.96382 17.4875C2.96282 17.4865 2.96148 17.4852 2.96048 17.4845C2.94979 17.4738 2.93877 17.4631 2.92808 17.4524C2.92274 17.4471 2.91739 17.4417 2.91238 17.4364C1.11264 15.6271 0 13.1321 0 10.3777C0 7.61757 1.11665 5.11857 2.92274 3.30859L3.94787 4.3346C3.87304 4.39077 3.80056 4.45028 3.73142 4.51346C3.72006 4.52416 3.70904 4.53419 3.69801 4.54422C3.53468 4.69767 3.46219 4.79763 3.37668 4.91129C3.37601 4.9123 3.37501 4.91363 3.37434 4.9143C3.34762 4.9484 3.3209 4.98317 3.29418 5.01827C2.12007 6.48725 1.41828 8.35005 1.41828 10.3773C1.41861 13.2631 2.84123 15.8166 5.02277 17.3728Z" fill="url(#paint11_radial_7531_14121)"/>
<path d="M5.3575 16.4562C5.3575 16.8056 5.23157 17.1255 5.02213 17.3726C2.8406 15.816 1.41797 13.2625 1.41797 10.3767C1.41797 8.34943 2.11976 6.48663 3.29387 5.01766C3.32327 4.98055 3.34932 4.94645 3.37404 4.91368C3.37471 4.91268 3.37571 4.91168 3.37638 4.91068C3.47792 4.77996 3.58013 4.65626 3.69771 4.5436C3.7084 4.53357 3.71942 4.52321 3.73111 4.51284C3.80026 4.44966 3.87241 4.39015 3.94756 4.33398L4.98071 5.36802C4.83875 5.44457 4.71149 5.54487 4.6036 5.66355C4.58856 5.68027 4.57353 5.69765 4.55917 5.71504C4.31834 5.99619 4.09921 6.2954 3.90381 6.61166C3.62155 7.06834 3.38874 7.55878 3.21404 8.07596C2.9692 8.79808 2.83659 9.57235 2.83659 10.3774C2.83659 12.3552 3.63692 14.1458 4.93128 15.4422C4.93629 15.4469 4.94163 15.4523 4.94664 15.4573C5.20084 15.7134 5.3575 16.0664 5.3575 16.4562Z" fill="url(#paint12_radial_7531_14121)"/>
<defs>
<radialGradient id="paint0_radial_7531_14121" cx="0" cy="0" r="1" gradientUnits="userSpaceOnUse" gradientTransform="translate(13.3544 4.37916) scale(27.3871 27.4106)">
<stop stop-color="#827CFF"/>
<stop offset="0.9025" stop-color="#554CFF"/>
</radialGradient>
<radialGradient id="paint1_radial_7531_14121" cx="0" cy="0" r="1" gradientUnits="userSpaceOnUse" gradientTransform="translate(11.2895 12.2834) rotate(6.63288) scale(3.50302 2.89894)">
<stop stop-color="#827CFF"/>
<stop offset="1" stop-color="#554CFF"/>
</radialGradient>
<radialGradient id="paint2_radial_7531_14121" cx="0" cy="0" r="1" gradientUnits="userSpaceOnUse" gradientTransform="translate(12.5499 10.6767) rotate(7.03123) scale(5.84499 4.72577)">
<stop stop-color="#E3E2FF"/>
<stop offset="0.6496" stop-color="#9691FF"/>
<stop offset="1" stop-color="#554CFF"/>
</radialGradient>
<radialGradient id="paint3_radial_7531_14121" cx="0" cy="0" r="1" gradientUnits="userSpaceOnUse" gradientTransform="translate(7.98331 12.1916) rotate(-176.102) scale(6.28178 5.07904)">
<stop stop-color="#E3E2FF"/>
<stop offset="0.6496" stop-color="#9691FF"/>
<stop offset="1" stop-color="#554CFF"/>
</radialGradient>
<radialGradient id="paint4_radial_7531_14121" cx="0" cy="0" r="1" gradientUnits="userSpaceOnUse" gradientTransform="translate(11.7221 12.1872) rotate(-149.7) scale(6.55092 4.6784)">
<stop stop-color="#E3E2FF"/>
<stop offset="1" stop-color="#554CFF"/>
</radialGradient>
<radialGradient id="paint5_radial_7531_14121" cx="0" cy="0" r="1" gradientUnits="userSpaceOnUse" gradientTransform="translate(8.16852 11.2782) rotate(-174.288) scale(5.60969 4.00721)">
<stop stop-color="#E3E2FF"/>
<stop offset="1" stop-color="#554CFF"/>
</radialGradient>
<radialGradient id="paint6_radial_7531_14121" cx="0" cy="0" r="1" gradientUnits="userSpaceOnUse" gradientTransform="translate(12.7144 10.7243) rotate(6.96714) scale(5.54295 4.81384)">
<stop stop-color="#E3E2FF"/>
<stop offset="1" stop-color="#554CFF"/>
</radialGradient>
<radialGradient id="paint7_radial_7531_14121" cx="0" cy="0" r="1" gradientUnits="userSpaceOnUse" gradientTransform="translate(7.35084 12.384) rotate(-173.033) scale(5.54438 4.81507)">
<stop stop-color="#E3E2FF"/>
<stop offset="1" stop-color="#554CFF"/>
</radialGradient>
<linearGradient id="paint8_linear_7531_14121" x1="14.1114" y1="13.0477" x2="13.6658" y2="13.9029" gradientUnits="userSpaceOnUse">
<stop stop-color="#827CFF"/>
<stop offset="1" stop-color="#554CFF"/>
</linearGradient>
<linearGradient id="paint9_linear_7531_14121" x1="6.50599" y1="8.99897" x2="5.70998" y2="10.6284" gradientUnits="userSpaceOnUse">
<stop stop-color="#564DFF"/>
<stop offset="1" stop-color="#CFCCFF"/>
</linearGradient>
<linearGradient id="paint10_linear_7531_14121" x1="16.4504" y1="6.38148" x2="2.51912" y2="14.7538" gradientUnits="userSpaceOnUse">
<stop stop-color="#827CFF"/>
<stop offset="1" stop-color="#554CFF"/>
</linearGradient>
<radialGradient id="paint11_radial_7531_14121" cx="0" cy="0" r="1" gradientUnits="userSpaceOnUse" gradientTransform="translate(-0.658334 17.5255) scale(16.0834 16.0972)">
<stop stop-color="white" stop-opacity="0.3"/>
<stop offset="0.8271" stop-color="white" stop-opacity="0"/>
</radialGradient>
<radialGradient id="paint12_radial_7531_14121" cx="0" cy="0" r="1" gradientUnits="userSpaceOnUse" gradientTransform="translate(1.83544 17.4004) scale(10.4339 10.4429)">
<stop offset="1.38522e-07" stop-color="white" stop-opacity="0.2"/>
<stop offset="1" stop-color="white" stop-opacity="0"/>
</radialGradient>
</defs>
</svg>