<svg width="24" height="24" viewBox="0 0 24 24" fill="none" xmlns="http://www.w3.org/2000/svg">
<g clip-path="url(#clip0_10049_19220)">
<path d="M8.83221 3.66586C8.46447 3.30141 8.46185 2.70778 8.8263 2.34005L10.4929 0.6585C10.9138 0.233859 11.4739 0 12.0703 0C12.6666 0 13.2268 0.233859 13.6477 0.6585L15.3143 2.34005C15.6787 2.70778 15.6761 3.30141 15.3084 3.66586C15.1256 3.84703 14.887 3.9375 14.6484 3.9375C14.4071 3.9375 14.1658 3.84488 13.9825 3.65995L12.3159 1.97841C12.2268 1.88845 12.1237 1.875 12.0703 1.875C12.0168 1.875 11.9138 1.88845 11.8247 1.97841L10.158 3.66C9.79352 4.02764 9.19999 4.03027 8.83221 3.66586ZM23.7049 2.34005L22.0383 0.6585C21.6174 0.233859 21.0573 0 20.4609 0C19.8646 0 19.3044 0.233859 18.8836 0.6585L17.2169 2.34005C16.8525 2.70778 16.8551 3.30141 17.2228 3.66586C17.5906 4.03027 18.1841 4.02764 18.5486 3.65995L20.2153 1.97836C20.3044 1.88841 20.4074 1.87495 20.4609 1.87495C20.5144 1.87495 20.6174 1.88841 20.7065 1.97836L22.3732 3.65991C22.5565 3.84488 22.7977 3.9375 23.039 3.9375C23.2775 3.9375 23.5162 3.84703 23.699 3.66586C24.0667 3.30141 24.0693 2.70778 23.7049 2.34005ZM3.34099 1.97841C3.39068 1.9283 3.42775 1.90083 3.45082 1.88634C3.47388 1.90083 3.51096 1.9283 3.56065 1.97841C3.57447 1.99238 3.58882 2.00592 3.60349 2.019L5.4941 3.70055C5.67274 3.85945 5.89516 3.93755 6.11679 3.93755C6.37516 3.93755 6.63241 3.83133 6.81766 3.62311C7.16177 3.23625 7.12708 2.64366 6.74018 2.29955L4.86944 0.635625C4.33765 0.111 3.80561 0 3.45082 0C3.09204 0 2.55204 0.113531 2.01429 0.653437L0.304426 2.33077C-0.0651829 2.69334 -0.0709016 3.28687 0.291677 3.65653C0.654255 4.02614 1.24779 4.03186 1.61744 3.66928L3.33166 1.98773C3.3348 1.98464 3.3379 1.9815 3.34099 1.97841ZM20.5078 4.07812C19.99 4.07812 19.5703 4.49784 19.5703 5.01562V8.01562C19.5703 11.8693 16.6848 15.0615 12.9609 15.5457V5.01562C12.9609 4.49784 12.5412 4.07812 12.0234 4.07812C11.5056 4.07812 11.0859 4.49784 11.0859 5.01562V15.5569C7.31688 15.1145 4.38279 11.9015 4.38279 8.01562V5.01562C4.38279 4.49784 3.96307 4.07812 3.44529 4.07812C2.9275 4.07812 2.50779 4.49784 2.50779 5.01562V8.01562C2.50779 12.9363 6.28094 16.9918 11.0859 17.4422V19.7812H9.67966C9.16188 19.7812 8.74216 20.201 8.74216 20.7188C8.74216 21.2365 9.16188 21.6562 9.67966 21.6562H11.0859V23.0625C11.0859 23.5803 11.5056 24 12.0234 24C12.5412 24 12.9609 23.5803 12.9609 23.0625V21.6562H14.3672C14.8849 21.6562 15.3047 21.2365 15.3047 20.7188C15.3047 20.201 14.8849 19.7812 14.3672 19.7812H12.9609V17.4334C17.7212 16.9394 21.4453 12.9043 21.4453 8.01562V5.01562C21.4453 4.49784 21.0256 4.07812 20.5078 4.07812Z" fill="#667386"/>
</g>
<defs>
<clipPath id="clip0_10049_19220">
<rect width="24" height="24" fill="white"/>
</clipPath>
</defs>
</svg>
