<svg width="32" height="32" viewBox="0 0 32 32" fill="none" xmlns="http://www.w3.org/2000/svg">
<rect width="32" height="32" rx="6" fill="#FC9D00"/>
<path d="M26 16.25V15.75C26 15.4737 25.7763 15.25 25.5 15.25H16.75V14H19C19.5522 14 20 13.5522 20 13V9C20 8.44781 19.5522 8 19 8H13C12.4478 8 12 8.44781 12 9V13C12 13.5522 12.4478 14 13 14H15.25V15.25H6.5C6.22375 15.25 6 15.4737 6 15.75V16.25C6 16.5262 6.22375 16.75 6.5 16.75H9.75V18H8C7.44781 18 7 18.4478 7 19V23C7 23.5522 7.44781 24 8 24H13C13.5522 24 14 23.5522 14 23V19C14 18.4478 13.5522 18 13 18H11.25V16.75H20.75V18H19C18.4478 18 18 18.4478 18 19V23C18 23.5522 18.4478 24 19 24H24C24.5522 24 25 23.5522 25 23V19C25 18.4478 24.5522 18 24 18H22.25V16.75H25.5C25.7763 16.75 26 16.5262 26 16.25ZM14 12V10H18V12H14ZM12 22H9V20H12V22ZM23 22H20V20H23V22Z" fill="white"/>
</svg>
