<svg width="21" height="25" viewBox="0 0 21 25" fill="none" xmlns="http://www.w3.org/2000/svg">
<path d="M0 11.927V21.0234C0 22.9435 1.55653 24.5 3.47662 24.5H17.1656C19.0857 24.5 20.6422 22.9435 20.6422 21.0234V12.5209L20.2243 11.9717L20.6422 11.1538V9.94227L20.1697 9.30397L20.6422 8.5752V7.36409L20.297 6.81331L20.6422 5.99703V3.97662C20.6422 2.05653 19.0857 0.5 17.1657 0.5H11.427C10.2746 0.5 9.16926 0.957828 8.35434 1.77275L1.27275 8.85434C0.457828 9.66927 0 10.7745 0 11.927V11.927Z" fill="#BBCFFB"/>
<path d="M0 11.9279V12.6698C0 11.2658 1.1385 10.1273 2.54241 10.1273H6.15061C8.07047 10.1273 9.62686 8.57091 9.62686 6.6511V3.04289C9.62686 1.63894 10.7653 0.500488 12.1693 0.500488H11.4274C10.2747 0.500488 9.16941 0.958738 8.35406 1.77329L1.2728 8.85455C0.45825 9.66989 0 10.7752 0 11.9279V11.9279Z" fill="#3E78FD"/>
<path d="M9.87295 13.6433H2.78794C2.58792 13.6433 2.42578 13.4811 2.42578 13.2811C2.42578 13.0811 2.58792 12.9189 2.78794 12.9189H9.87295C10.073 12.9189 10.2351 13.0811 10.2351 13.2811C10.2351 13.4811 10.073 13.6433 9.87295 13.6433Z" fill="#3E78FD"/>
<path d="M12.945 15.5378H2.78794C2.58792 15.5378 2.42578 15.3756 2.42578 15.1756C2.42578 14.9756 2.58792 14.8135 2.78794 14.8135H12.9451C13.1451 14.8135 13.3072 14.9756 13.3072 15.1756C13.3072 15.3756 13.1451 15.5378 12.945 15.5378V15.5378Z" fill="#3E78FD"/>
<path d="M12.945 17.4323H2.78794C2.58792 17.4323 2.42578 17.2702 2.42578 17.0702C2.42578 16.8701 2.58792 16.708 2.78794 16.708H12.9451C13.1451 16.708 13.3072 16.8701 13.3072 17.0702C13.3072 17.2702 13.1451 17.4323 12.945 17.4323V17.4323Z" fill="#3E78FD"/>
<path d="M12.945 19.3259H2.78794C2.58792 19.3259 2.42578 19.1637 2.42578 18.9637C2.42578 18.7637 2.58792 18.6016 2.78794 18.6016H12.9451C13.1451 18.6016 13.3072 18.7637 13.3072 18.9637C13.3072 19.1637 13.1451 19.3259 12.945 19.3259V19.3259Z" fill="#3E78FD"/>
<path d="M17.3359 21.8327H13.6297C13.4297 21.8327 13.2676 21.6706 13.2676 21.4706C13.2676 21.2705 13.4297 21.1084 13.6297 21.1084H17.3359C17.5359 21.1084 17.6981 21.2705 17.6981 21.4706C17.6981 21.6706 17.5359 21.8327 17.3359 21.8327Z" fill="#3E78FD"/>
</svg>
