<svg width="16" height="16" viewBox="0 0 16 16" fill="none" xmlns="http://www.w3.org/2000/svg">
<path d="M14.6671 0H5.33389C4.60068 0 4.00049 0.600195 4.00049 1.3334V10.6666C4.00049 11.3998 4.60068 12 5.33389 12H14.6671C15.4003 12 16.0005 11.3998 16.0005 10.6666V1.3334C16.0005 0.600195 15.4003 0 14.6671 0ZM12.3325 6L12.3331 4.37359L7.37287 9.3334L6.66709 8.625L11.6249 3.66801L9.9999 3.6666V2.6666H12.6665C13.0351 2.66738 13.3331 2.96539 13.3325 3.3334L13.3339 6.00059L12.3325 6Z"/>
<path d="M6.6666 13.3344V14.6676H1.3334V9.33437H2.6666V8.00098H0.666602C0.300195 8.00098 0 8.30117 0 8.66758V15.3344C0 15.7002 0.300195 16.001 0.666602 16.001H7.3334C7.6998 16.001 8 15.7002 8 15.3344V13.3344H6.6666Z"/>
</svg>
