<svg width="16" height="16" viewBox="0 0 16 16" fill="none" xmlns="http://www.w3.org/2000/svg">
<path d="M14.0642 1.93286C13.8781 1.74439 13.6565 1.59475 13.4122 1.49262C13.1678 1.39048 12.9057 1.33789 12.6408 1.33789C12.376 1.33789 12.1138 1.39048 11.8695 1.49262C11.6252 1.59475 11.4035 1.74439 11.2175 1.93286L9.9375 3.23286L12.7642 6.05952L14.0442 4.77952C14.2339 4.59481 14.3851 4.37424 14.489 4.13063C14.5929 3.88701 14.6473 3.62519 14.6492 3.36037C14.651 3.09555 14.6003 2.83299 14.4998 2.58794C14.3994 2.34289 14.2513 2.12022 14.0642 1.93286Z" fill="#667386"/>
<path d="M8.99143 4.17969L3.39809 9.77302C3.34795 9.82457 3.30531 9.88292 3.27143 9.94635L1.41809 13.6864C1.36433 13.7873 1.33744 13.9004 1.34001 14.0147C1.34259 14.1291 1.37454 14.2409 1.43279 14.3393C1.49105 14.4377 1.57365 14.5195 1.67265 14.5768C1.77165 14.6341 1.88373 14.6649 1.99809 14.6664C2.09967 14.6668 2.20001 14.644 2.29143 14.5997L6.03143 12.7464C6.09486 12.7125 6.15321 12.6698 6.20476 12.6197L11.7981 7.02635L8.99143 4.17969Z" fill="#667386"/>
<path d="M13.9987 14.6654H7.9987C7.82189 14.6654 7.65232 14.5951 7.52729 14.4701C7.40227 14.3451 7.33203 14.1755 7.33203 13.9987C7.33203 13.8219 7.40227 13.6523 7.52729 13.5273C7.65232 13.4023 7.82189 13.332 7.9987 13.332H13.9987C14.1755 13.332 14.3451 13.4023 14.4701 13.5273C14.5951 13.6523 14.6654 13.8219 14.6654 13.9987C14.6654 14.1755 14.5951 14.3451 14.4701 14.4701C14.3451 14.5951 14.1755 14.6654 13.9987 14.6654Z" fill="#667386"/>
</svg>
