<svg width="24" height="24" viewBox="0 0 24 24" fill="none" xmlns="http://www.w3.org/2000/svg">
<path d="M4.832 19.0352H19.168C20.728 19.0352 22 17.7672 22 16.2032C22 15.9832 21.82 15.8032 21.6 15.8032H20.7608V7.35564C20.7608 6.03724 19.6884 4.96484 18.37 4.96484H5.6288C4.3104 4.96484 3.238 6.03724 3.238 7.35564V15.8032H2.4C2.18 15.8032 2 15.9832 2 16.2032C2 17.7672 3.272 19.0352 4.832 19.0352V19.0352ZM4.038 7.35564C4.038 6.47844 4.7516 5.76484 5.6288 5.76484H18.37C19.2472 5.76484 19.9608 6.47844 19.9608 7.35564V15.8032H4.038V7.35564Z" fill="white"/>
<path d="M13.7462 9.77948C13.6342 9.58748 13.3902 9.51948 13.1982 9.63148L12.4022 10.0915V9.17148C12.4022 8.95148 12.2222 8.77148 12.0022 8.77148C11.7822 8.77148 11.6022 8.95148 11.6022 9.17148V10.0915L10.8022 9.63148C10.6102 9.51948 10.3662 9.58748 10.2582 9.77948C10.1462 9.96748 10.2102 10.2155 10.4022 10.3235L11.1982 10.7835L10.4022 11.2435C10.2142 11.3555 10.1462 11.5995 10.2582 11.7915C10.3302 11.9195 10.4662 11.9915 10.6022 11.9915C10.6702 11.9915 10.7422 11.9755 10.8022 11.9395L11.6022 11.4755V12.3995C11.6022 12.6195 11.7822 12.7995 12.0022 12.7995C12.2222 12.7995 12.4022 12.6195 12.4022 12.3995V11.4795L13.1982 11.9395C13.2622 11.9755 13.3302 11.9915 13.3982 11.9915C13.5382 11.9915 13.6702 11.9195 13.7462 11.7915C13.8582 11.5995 13.7902 11.3555 13.5982 11.2435L12.8022 10.7835L13.5982 10.3235C13.7902 10.2155 13.8582 9.96748 13.7462 9.77948V9.77948Z" fill="white"/>
<path d="M8.82556 9.77948C8.71356 9.58748 8.46956 9.51948 8.27756 9.63148L7.48156 10.0915V9.17148C7.48156 8.95148 7.30156 8.77148 7.08156 8.77148C6.85756 8.77148 6.68156 8.95148 6.68156 9.17148V10.0915L5.88156 9.63148C5.68956 9.51948 5.44556 9.58748 5.33356 9.77948C5.22556 9.96748 5.28956 10.2155 5.48156 10.3235L6.27756 10.7835L5.48156 11.2435C5.28956 11.3555 5.22556 11.5995 5.33356 11.7915C5.40956 11.9195 5.54556 11.9915 5.68156 11.9915C5.74956 11.9915 5.81756 11.9755 5.88156 11.9395L6.68156 11.4755V12.3995C6.68156 12.6195 6.85756 12.7995 7.08156 12.7995C7.30156 12.7995 7.48156 12.6195 7.48156 12.3995V11.4795L8.27756 11.9395C8.34156 11.9755 8.40956 11.9915 8.47756 11.9915C8.61356 11.9915 8.74956 11.9195 8.82556 11.7915C8.93356 11.5995 8.86956 11.3555 8.67756 11.2435L7.88156 10.7835L8.67756 10.3235C8.86956 10.2155 8.93356 9.96748 8.82556 9.77948V9.77948Z" fill="white"/>
<path d="M18.6593 9.77948C18.5513 9.58748 18.3073 9.51948 18.1153 9.63148L17.3153 10.0915V9.17148C17.3153 8.95148 17.1353 8.77148 16.9153 8.77148C16.6953 8.77148 16.5153 8.95148 16.5153 9.17148V10.0915L15.7193 9.63148C15.5273 9.51948 15.2833 9.58748 15.1713 9.77948C15.0593 9.96748 15.1273 10.2155 15.3193 10.3235L16.1153 10.7835L15.3193 11.2435C15.1273 11.3555 15.0593 11.5995 15.1713 11.7915C15.2473 11.9195 15.3793 11.9915 15.5193 11.9915C15.5873 11.9915 15.6553 11.9755 15.7193 11.9395L16.5153 11.4795V12.3995C16.5153 12.6195 16.6953 12.7995 16.9153 12.7995C17.1353 12.7995 17.3153 12.6195 17.3153 12.3995V11.4755L18.1153 11.9395C18.1753 11.9755 18.2473 11.9915 18.3153 11.9915C18.4513 11.9915 18.5873 11.9195 18.6593 11.7915C18.7713 11.5995 18.7033 11.3555 18.5153 11.2435L17.7193 10.7835L18.5153 10.3235C18.7073 10.2155 18.7713 9.96748 18.6593 9.77948V9.77948Z" fill="white"/>
</svg>
