<svg width="12" height="12" viewBox="0 0 12 12" fill="none" xmlns="http://www.w3.org/2000/svg">
<path fill-rule="evenodd" clip-rule="evenodd" d="M5.05769 9.36539C2.67862 9.36539 0.75 7.43677 0.75 5.05769C0.75 2.67862 2.67862 0.75 5.05769 0.75C7.43677 0.75 9.36539 2.67862 9.36539 5.05769C9.36539 7.43677 7.43677 9.36539 5.05769 9.36539ZM5.05769 8.28846C6.842 8.28846 8.28846 6.842 8.28846 5.05769C8.28846 3.27339 6.842 1.82692 5.05769 1.82692C3.27339 1.82692 1.82692 3.27339 1.82692 5.05769C1.82692 6.842 3.27339 8.28846 5.05769 8.28846ZM11.0923 11.0923C11.3026 10.882 11.3026 10.5411 11.0923 10.3308L9.20767 8.44617C8.99739 8.23589 8.65646 8.23589 8.44617 8.44617C8.23589 8.65646 8.23589 8.99739 8.44617 9.20767L10.3308 11.0923C10.5411 11.3026 10.882 11.3026 11.0923 11.0923Z" fill="#04004D"/>
</svg>
