<svg width="16" height="16" viewBox="0 0 16 16" fill="none" xmlns="http://www.w3.org/2000/svg">
<path d="M14.0694 2.59502L8.06644 0.0937958C7.87885 0.0312653 7.69126 0 7.50366 0C7.28481 0 7.09722 0.0312653 6.90962 0.0937958L0.906693 2.59502C0.343918 2.84514 0 3.37665 0 3.97069C0 10.1925 3.56424 14.4758 6.90962 15.8828C7.28481 16.0391 7.69126 16.0391 8.06644 15.8828C10.7553 14.7572 15.0073 10.9116 15.0073 3.97069C15.0073 3.37665 14.6321 2.84514 14.0694 2.59502ZM7.50366 13.9443V2.03224L12.9751 4.31461C12.8813 9.03566 10.4113 12.4748 7.50366 13.9443Z" fill="white"/>
</svg>
