<svg width="24" height="24" viewBox="0 0 24 24" fill="none" xmlns="http://www.w3.org/2000/svg">
<path d="M21.5287 15.9304C21.3687 15.6604 20.9187 15.2404 19.7987 15.4404C19.1787 15.5504 18.5487 15.6004 17.9187 15.5704C15.5887 15.4704 13.4787 14.4004 12.0087 12.7504C10.7087 11.3004 9.90873 9.41036 9.89873 7.37036C9.89873 6.23036 10.1187 5.13036 10.5687 4.09036C11.0087 3.08036 10.6987 2.55036 10.4787 2.33036C10.2487 2.10036 9.70873 1.78036 8.64873 2.22036C4.55873 3.94036 2.02873 8.04036 2.32873 12.4304C2.62873 16.5604 5.52873 20.0904 9.36873 21.4204C10.2887 21.7404 11.2587 21.9304 12.2587 21.9704C12.4187 21.9804 12.5787 21.9904 12.7387 21.9904C16.0887 21.9904 19.2287 20.4104 21.2087 17.7204C21.8787 16.7904 21.6987 16.2004 21.5287 15.9304Z" fill="#FFDF00"/>
</svg>
