<svg width="25" height="32" viewBox="0 0 25 32" fill="none" xmlns="http://www.w3.org/2000/svg">
<path d="M12.5813 9.51245L13.125 9.7561V5.45239C14.2139 5.06396 15 4.0332 15 2.8125C15 1.26172 13.7383 0 12.1875 0C10.6367 0 9.375 1.26172 9.375 2.8125C9.375 4.0332 10.1611 5.06396 11.25 5.45239V9.75635L11.7937 9.51245C12.0374 9.4187 12.3376 9.4187 12.5813 9.51245Z" fill="white"/>
<path d="M9.375 8.5C9.375 8.25635 9.28125 8.01245 9.09375 7.84375L5.34424 4.01538C5.51904 3.64941 5.625 3.24438 5.625 2.8125C5.625 1.26172 4.36328 0 2.8125 0C1.26172 0 0 1.26172 0 2.8125C0 4.36328 1.26172 5.625 2.8125 5.625C3.2439 5.625 3.64819 5.51953 4.01392 5.34521L7.5 8.8938V11.5L9.375 10.6375V8.5Z" fill="white"/>
<path d="M20.3611 5.34521C20.7268 5.51953 21.1311 5.625 21.5625 5.625C23.1133 5.625 24.375 4.36328 24.375 2.8125C24.375 1.26172 23.1133 0 21.5625 0C20.0117 0 18.75 1.26172 18.75 2.8125C18.75 3.24438 18.856 3.64941 19.0308 4.01538L15.2812 7.84375C15.0938 8.01245 15 8.25635 15 8.5V10.6375L16.875 11.5V8.8938L20.3611 5.34521Z" fill="white"/>
<path d="M1.875 26.7332C1.875 27.0884 2.07544 27.4126 2.39307 27.5718L11.25 32.0002V20.7986L1.875 16.1113V26.7332Z" fill="white"/>
<path d="M13.125 32.0005L21.9819 27.572C22.2996 27.4128 22.5 27.0886 22.5 26.7334V16.1113L13.125 20.7988V32.0005Z" fill="white"/>
<path d="M15.9382 13.1873C15.4131 13.1873 15.0007 12.7747 15.0007 12.2498V10.6372L13.1257 9.75586V12.2498C13.1257 12.7747 12.7134 13.1873 12.1882 13.1873C11.6631 13.1873 11.2507 12.7747 11.2507 12.2498V9.75586L9.37573 10.6372V12.2498C9.37573 12.7747 8.96338 13.1873 8.43823 13.1873C7.91309 13.1873 7.50073 12.7747 7.50073 12.2498V11.4998L1.98828 14.0684L12.1882 19.1685L22.3882 14.0684L16.8757 11.4998V12.2498C16.8757 12.7747 16.4634 13.1873 15.9382 13.1873Z" fill="white"/>
</svg>
