<svg width="16" height="16" viewBox="0 0 16 16" fill="none" xmlns="http://www.w3.org/2000/svg">
<path d="M3.99789 12.8719L3.34949 13.5197V9.94691C3.34949 9.80093 3.2915 9.66093 3.18827 9.5577C3.08505 9.45448 2.94504 9.39648 2.79906 9.39648C2.65308 9.39648 2.51308 9.45448 2.40985 9.5577C2.30663 9.66093 2.24864 9.80093 2.24864 9.94691V13.5197L1.60078 12.8719C1.49697 12.7716 1.35793 12.7161 1.21361 12.7174C1.06929 12.7186 0.931238 12.7765 0.829185 12.8786C0.727131 12.9806 0.669244 13.1187 0.66799 13.263C0.666735 13.4073 0.722215 13.5464 0.82248 13.6502L2.29762 15.1253C2.36347 15.1913 2.44168 15.2436 2.52777 15.2793C2.61386 15.315 2.70614 15.3334 2.79934 15.3334C2.89254 15.3334 2.98482 15.315 3.07091 15.2793C3.157 15.2436 3.2352 15.1913 3.30105 15.1253L4.7762 13.6502C4.82877 13.5994 4.8707 13.5387 4.89955 13.4715C4.92839 13.4044 4.94358 13.3321 4.94421 13.2591C4.94485 13.186 4.93092 13.1135 4.90325 13.0458C4.87557 12.9782 4.8347 12.9167 4.78302 12.8651C4.73134 12.8134 4.66988 12.7725 4.60224 12.7448C4.53459 12.7172 4.46211 12.7032 4.38902 12.7039C4.31594 12.7045 4.24371 12.7197 4.17656 12.7485C4.1094 12.7774 4.04867 12.8193 3.99789 12.8719Z" fill="#667386"/>
<path d="M3.30496 0.874074C3.23911 0.808118 3.16091 0.755793 3.07482 0.720092C2.98873 0.684392 2.89644 0.666016 2.80324 0.666016C2.71005 0.666016 2.61776 0.684392 2.53167 0.720092C2.44558 0.755793 2.36738 0.808118 2.30153 0.874074L0.826387 2.34922C0.726122 2.45303 0.670642 2.59207 0.671896 2.73639C0.67315 2.88071 0.731038 3.01876 0.833091 3.12082C0.935145 3.22287 1.0732 3.28076 1.21752 3.28201C1.36184 3.28327 1.50088 3.22779 1.60469 3.12752L2.25254 2.47967V6.05249C2.25254 6.19847 2.31053 6.33847 2.41376 6.4417C2.51698 6.54492 2.65699 6.60292 2.80297 6.60292C2.94895 6.60292 3.08895 6.54492 3.19218 6.4417C3.2954 6.33847 3.3534 6.19847 3.3534 6.05249V2.47967L3.9996 3.12752C4.05037 3.18009 4.11111 3.22203 4.17826 3.25087C4.24542 3.27972 4.31764 3.2949 4.39073 3.29554C4.46381 3.29617 4.53629 3.28225 4.60394 3.25457C4.67159 3.2269 4.73304 3.18602 4.78472 3.13434C4.8364 3.08266 4.87727 3.02121 4.90495 2.95356C4.93263 2.88592 4.94655 2.81344 4.94592 2.74035C4.94528 2.66726 4.9301 2.59504 4.90125 2.52788C4.8724 2.46073 4.83047 2.39999 4.7779 2.34922L3.30496 0.874074Z" fill="#667386"/>
<path d="M14.3787 1.7168H6.35902C6.21304 1.7168 6.07303 1.77479 5.96981 1.87801C5.86658 1.98124 5.80859 2.12124 5.80859 2.26722C5.80859 2.41321 5.86658 2.55321 5.96981 2.65643C6.07303 2.75966 6.21304 2.81765 6.35902 2.81765H14.3787C14.5247 2.81765 14.6647 2.75966 14.7679 2.65643C14.8712 2.55321 14.9292 2.41321 14.9292 2.26722C14.9292 2.12124 14.8712 1.98124 14.7679 1.87801C14.6647 1.77479 14.5247 1.7168 14.3787 1.7168Z" fill="#667386"/>
<path d="M12.7401 5.50195H6.35511C6.20913 5.50195 6.06913 5.55994 5.9659 5.66317C5.86268 5.76639 5.80469 5.9064 5.80469 6.05238C5.80469 6.19836 5.86268 6.33836 5.9659 6.44159C6.06913 6.54482 6.20913 6.60281 6.35511 6.60281H12.7401C12.886 6.60281 13.0261 6.54482 13.1293 6.44159C13.2325 6.33836 13.2905 6.19836 13.2905 6.05238C13.2905 5.9064 13.2325 5.76639 13.1293 5.66317C13.0261 5.55994 12.886 5.50195 12.7401 5.50195Z" fill="#667386"/>
<path d="M11.1054 9.28711H6.35902C6.21304 9.28711 6.07303 9.3451 5.96981 9.44833C5.86658 9.55155 5.80859 9.69155 5.80859 9.83754C5.80859 9.98352 5.86658 10.1235 5.96981 10.2267C6.07303 10.33 6.21304 10.388 6.35902 10.388H11.1054C11.2513 10.388 11.3913 10.33 11.4946 10.2267C11.5978 10.1235 11.6558 9.98352 11.6558 9.83754C11.6558 9.69155 11.5978 9.55155 11.4946 9.44833C11.3913 9.3451 11.2513 9.28711 11.1054 9.28711Z" fill="#667386"/>
<path d="M9.46838 13.0723H6.35902C6.21304 13.0723 6.07303 13.1303 5.96981 13.2335C5.86658 13.3367 5.80859 13.4767 5.80859 13.6227C5.80859 13.7687 5.86658 13.9087 5.96981 14.0119C6.07303 14.1151 6.21304 14.1731 6.35902 14.1731H9.46838C9.61436 14.1731 9.75437 14.1151 9.85759 14.0119C9.96082 13.9087 10.0188 13.7687 10.0188 13.6227C10.0188 13.4767 9.96082 13.3367 9.85759 13.2335C9.75437 13.1303 9.61436 13.0723 9.46838 13.0723Z" fill="#667386"/>
</svg>
