<svg width="24" height="24" viewBox="0 0 24 24" fill="none" xmlns="http://www.w3.org/2000/svg">
<g clip-path="url(#clip0_10049_19237)">
<path d="M23.5928 11.3652L18.8193 9.17533L20.6462 4.25153C20.7412 3.99553 20.6783 3.70773 20.4852 3.51468C20.2922 3.32163 20.0044 3.25868 19.7484 3.35371L14.8246 5.18064L12.6348 0.407236C12.521 0.159104 12.273 0 12 0C11.727 0 11.479 0.159104 11.3652 0.407236L9.17533 5.18073L4.25158 3.35376C3.99562 3.25872 3.70777 3.32168 3.51473 3.51473C3.32168 3.70777 3.25877 3.99558 3.35381 4.25158L5.18073 9.17538L0.407236 11.3652C0.159104 11.479 0 11.727 0 12C0 12.273 0.159104 12.521 0.407236 12.6348L5.18073 14.8247L3.35376 19.7484C3.25877 20.0044 3.32168 20.2922 3.51468 20.4853C3.64803 20.6186 3.8266 20.6899 4.00866 20.6899C4.09015 20.6899 4.17237 20.6756 4.25153 20.6462L9.17533 18.8193L11.3652 23.5928C11.479 23.8409 11.727 24 12 24C12.273 24 12.521 23.8409 12.6348 23.5928L14.8247 18.8193L19.7485 20.6462C19.8276 20.6756 19.9098 20.6899 19.9913 20.6899C20.1734 20.6899 20.352 20.6186 20.4853 20.4853C20.6784 20.2922 20.7413 20.0044 20.6463 19.7484L18.8194 14.8246L23.5929 12.6348C23.841 12.5209 24.0001 12.2729 24.0001 12C24 11.727 23.8409 11.479 23.5928 11.3652ZM12 17.5865C8.91956 17.5865 6.41348 15.0804 6.41348 12C6.41348 8.91956 8.91956 6.41347 12 6.41347C15.0804 6.41347 17.5865 8.91956 17.5865 12C17.5865 15.0804 15.0804 17.5865 12 17.5865ZM17.75 8.04177C17.2664 7.34151 16.6585 6.73355 15.9582 6.24999L18.8069 5.19298L17.75 8.04177ZM12 2.37352L13.2653 5.13179C12.8548 5.05636 12.432 5.0166 12 5.0166C11.568 5.0166 11.1452 5.05632 10.7347 5.13179L12 2.37352ZM8.04177 6.25004C7.34151 6.73359 6.73355 7.34151 6.24999 8.04181L5.19298 5.19307L8.04177 6.25004ZM5.1318 10.7346C5.05636 11.1451 5.0166 11.568 5.0166 12C5.0166 12.4319 5.05632 12.8548 5.1318 13.2653L2.37352 12L5.1318 10.7346ZM6.25004 15.9582C6.73359 16.6584 7.34151 17.2664 8.04181 17.75L5.19307 18.807L6.25004 15.9582ZM12 21.6265L10.7347 18.8682C11.1452 18.9436 11.568 18.9834 12 18.9834C12.432 18.9834 12.8548 18.9437 13.2653 18.8682L12 21.6265ZM15.9582 17.75C16.6584 17.2664 17.2664 16.6585 17.75 15.9582L18.807 18.807L15.9582 17.75ZM18.8682 13.2653C18.9436 12.8548 18.9834 12.432 18.9834 12C18.9834 11.568 18.9437 11.1452 18.8682 10.7347L21.6265 12L18.8682 13.2653Z" fill="#667386"/>
</g>
<defs>
<clipPath id="clip0_10049_19237">
<rect width="24" height="24" fill="white"/>
</clipPath>
</defs>
</svg>
