<svg width="24" height="24" viewBox="0 0 24 24" fill="none" xmlns="http://www.w3.org/2000/svg">
<path d="M5.60938 6.04344C5.60938 7.44646 6.33747 8.73077 7.48737 9.45883L7.49362 7.64023C7.15933 7.18712 6.97494 6.63406 6.97494 6.04344C6.97494 4.56543 8.18106 3.3624 9.65915 3.3624C11.1402 3.3624 12.3464 4.56543 12.3464 6.04344C12.3464 6.69029 12.1183 7.2996 11.7152 7.77458L11.6933 9.5463C12.9276 8.84013 13.7088 7.52145 13.7088 6.04344C13.7088 3.81551 11.8933 2 9.65915 2C7.42802 2 5.60938 3.81551 5.60938 6.04344Z" fill="white"/>
<path d="M18.0994 13.2124C18.0897 11.9682 16.6432 11.2828 15.6746 12.0718C15.3707 11.1071 14.1494 10.6994 13.3185 11.3719C13.0215 10.4421 11.8723 10.0317 11.053 10.6094L11.0906 7.37531C11.084 6.54236 10.4105 5.91933 9.63438 5.90039C8.73044 5.9151 8.10978 6.6499 8.11578 7.45343L8.09388 14.6029L7.49082 14.0124C6.91786 13.4459 5.99709 13.4501 5.42219 14.0248C4.85337 14.6067 4.85905 15.5274 5.44095 16.0966L8.80947 19.2901C9.05947 19.5307 9.20632 19.8651 9.20632 20.2119L9.21571 21.1993C9.21883 21.6399 9.57815 21.9992 10.0218 21.9992H10.025L16.2745 21.9524C16.4902 21.9524 16.6933 21.8649 16.8432 21.7118C16.9932 21.5587 17.0776 21.3556 17.0745 21.143L17.0682 20.1994C17.0651 19.84 17.2151 19.4932 17.4776 19.2495C17.9026 18.8526 18.1369 18.3339 18.1338 17.7964L18.0994 13.2124Z" fill="white"/>
</svg>
