<svg width="20" height="20" viewBox="0 0 20 20" fill="none" xmlns="http://www.w3.org/2000/svg">
<path d="M2.98725 9.10355H4.0993C4.41207 9.10355 4.65533 8.82554 4.65533 8.54753V4.65533H15.7759V15.7759H10.7716C10.4936 15.7759 10.2156 16.0192 10.2156 16.3319V17.444C10.2156 17.722 10.4936 18 10.7716 18H16.3319C17.2702 18 18 17.2355 18 16.3319V4.0993C18 3.16101 17.2702 2.43122 16.3319 2.43122H4.0993C3.19576 2.43122 2.43122 3.16101 2.43122 4.0993V8.54753C2.43122 8.82554 2.70923 9.10355 2.98725 9.10355Z" />
<path d="M5.96288 15.5273L12.432 9.05814C12.5605 8.92961 12.5605 8.67256 12.432 8.54404L11.2324 7.34446C11.0825 7.19451 10.8469 7.21594 10.7183 7.34446L4.2492 13.8136L3.24242 12.8068C2.79258 12.357 2 12.6783 2 13.3209L2.02142 17.0267C2 17.4337 2.32131 17.7551 2.72831 17.7336L6.43414 17.7551C7.07677 17.7551 7.39809 16.9625 6.94825 16.5126L5.96288 15.5273Z"/>
</svg>
