<svg width="24" height="24" viewBox="0 0 24 24" fill="none" xmlns="http://www.w3.org/2000/svg">
<path d="M15.1639 2.66812C15.0819 2.27359 14.7304 1.99235 14.328 2.00016H9.3281C8.92576 1.99235 8.57421 2.27359 8.49608 2.66812L7.82812 5.41807H15.8514L15.1639 2.66812Z" fill="white"/>
<path d="M7.80469 18.582L8.48827 21.332C8.5703 21.7265 8.91795 22.0078 9.32029 21.9999H14.3202C14.7225 22.0078 15.0741 21.7265 15.1522 21.332L15.8202 18.582H7.80469Z" fill="white"/>
<path d="M15.1639 6.16797H8.49996C7.12108 6.16797 6 7.28904 6 8.66793V15.3358C6 16.7147 7.12108 17.8358 8.49996 17.8358H15.1678C16.5467 17.8358 17.6678 16.7147 17.6678 15.3358V8.66793C17.6639 7.28514 16.5467 6.16797 15.1639 6.16797ZM9.33198 12.8319C8.87105 12.8319 8.49996 12.4569 8.49996 11.9999C8.49996 11.539 8.87495 11.1679 9.33198 11.1679C9.79291 11.1679 10.164 11.5429 10.164 11.9999C10.164 12.4608 9.79291 12.8319 9.33198 12.8319ZM11.8319 12.8319C11.371 12.8319 10.9999 12.4569 10.9999 11.9999C10.9999 11.539 11.3749 11.1679 11.8319 11.1679C12.2929 11.1679 12.664 11.5429 12.664 11.9999C12.664 12.4608 12.2929 12.8319 11.8319 12.8319ZM14.3319 12.8319C13.871 12.8319 13.4999 12.4569 13.4999 11.9999C13.4999 11.539 13.8749 11.1679 14.3319 11.1679C14.7928 11.1679 15.1639 11.5429 15.1639 11.9999C15.1639 12.4608 14.7928 12.8319 14.3319 12.8319Z" fill="white"/>
</svg>
