<svg width="32" height="32" viewBox="0 0 32 32" fill="none" xmlns="http://www.w3.org/2000/svg">
<g clip-path="url(#clip0_9580_25192)">
<path d="M11.6364 0H2.90912C1.30466 0 0 1.30466 0 2.90912V11.6364C0 13.2408 1.30466 14.5455 2.90912 14.5455H11.6364C13.2408 14.5455 14.5455 13.2409 14.5455 11.6364V2.90912C14.5454 1.30466 13.2408 0 11.6364 0Z" fill="white"/>
<path d="M29.0895 0H20.3622C18.7578 0 17.4531 1.30466 17.4531 2.90912V11.6364C17.4531 13.2408 18.7578 14.5455 20.3622 14.5455H29.0895C30.6939 14.5455 31.9986 13.2409 31.9986 11.6364V2.90912C31.9986 1.30466 30.6939 0 29.0895 0Z" fill="white"/>
<path d="M11.6364 17.4551H2.90912C1.30466 17.4551 0 18.7597 0 20.3642V29.0915C0 30.6959 1.30466 32.0006 2.90912 32.0006H11.6364C13.2408 32.0006 14.5455 30.6959 14.5455 29.0915V20.3642C14.5454 18.7597 13.2408 17.4551 11.6364 17.4551Z" fill="white"/>
<path d="M28.3633 23.2724H26.1815V21.0906C26.1815 20.6886 25.8562 20.3633 25.4542 20.3633H23.9997C23.5977 20.3633 23.2724 20.6886 23.2724 21.0906V23.2724H21.0906C20.6886 23.2724 20.3633 23.5977 20.3633 23.9997V25.4542C20.3633 25.8562 20.6886 26.1815 21.0906 26.1815H23.2724V28.3633C23.2724 28.7653 23.5977 29.0906 23.9997 29.0906H25.4542C25.8562 29.0906 26.1815 28.7653 26.1815 28.3633V26.1815H28.3633C28.7653 26.1815 29.0906 25.8562 29.0906 25.4542V23.9997C29.0906 23.5977 28.7653 23.2724 28.3633 23.2724Z" fill="white"/>
</g>
<defs>
<clipPath id="clip0_9580_25192">
<rect width="32" height="32" fill="white"/>
</clipPath>
</defs>
</svg>
