<svg width="24" height="24" viewBox="0 0 24 24" fill="none" xmlns="http://www.w3.org/2000/svg">
<path d="M21.0222 6.87762C18.5176 4.3881 15.1982 3 11.6526 3C8.10687 3 4.78751 4.3881 2.2829 6.87762C1.9057 7.26991 1.9057 7.9036 2.2829 8.2808C2.67519 8.658 3.30889 8.658 3.68609 8.2808C5.79841 6.15339 8.63495 4.99162 11.6375 4.99162C14.64 4.99162 17.4765 6.15339 19.5889 8.2808C19.9661 8.658 20.6148 8.658 20.992 8.2808C21.3994 7.88852 21.3994 7.26991 21.0222 6.87762Z" fill="white"/>
<path d="M5.10321 9.68459C4.72601 10.0769 4.72601 10.7106 5.10321 11.0878C5.4955 11.465 6.1292 11.465 6.5064 11.0878C9.32786 8.26632 13.9448 8.26632 16.7813 11.0878C17.1736 11.4801 17.8073 11.4801 18.2147 11.0878C18.5919 10.6955 18.5919 10.0618 18.2147 9.68459C14.5936 6.06347 8.72434 6.06347 5.10321 9.68459Z" fill="white"/>
<path d="M11.6497 10.9668C10.2465 10.9668 8.90371 11.5251 7.9079 12.5209C7.5307 12.9131 7.5307 13.5468 7.9079 13.924C8.30019 14.3012 8.93388 14.3012 9.31109 13.924C9.94478 13.2904 10.7595 12.9584 11.6346 12.9584C12.5097 12.9584 13.3547 13.3054 13.9582 13.924C14.3354 14.3163 14.9691 14.3163 15.3614 13.924C15.7386 13.5318 15.7386 12.8981 15.3614 12.5209C14.3957 11.51 13.0529 10.9668 11.6497 10.9668Z" fill="white"/>
<path d="M11.6504 14.9492C9.97565 14.9492 8.63281 16.3222 8.63281 17.9819C8.63281 19.6567 9.97565 20.9995 11.6504 20.9995C13.3252 20.9995 14.668 19.6567 14.668 17.9819C14.668 16.3071 13.3252 14.9492 11.6504 14.9492ZM11.6504 20.1998C11.4543 20.1998 11.3034 20.0339 11.3034 19.8528C11.3034 19.6567 11.4694 19.5058 11.6504 19.5058C11.8466 19.4907 11.9974 19.6567 11.9974 19.8528C11.9974 20.049 11.8466 20.1998 11.6504 20.1998ZM11.9824 18.7212C11.9673 18.9174 11.8013 19.0381 11.6353 19.0381C11.4392 19.0381 11.3034 18.8872 11.2883 18.7061L11.1223 16.3373C11.1072 16.0356 11.3487 15.764 11.6655 15.764C11.9522 15.7791 12.1936 16.0205 12.1936 16.3071C12.1936 16.3524 12.1332 17.0314 11.9824 18.7212Z" fill="white"/>
</svg>
