<svg width="20" height="20" viewBox="0 0 20 20" fill="none" xmlns="http://www.w3.org/2000/svg">
<path d="M4.16797 8.33268H5.83464C7.5013 8.33268 8.33464 7.49935 8.33464 5.83268V4.16602C8.33464 2.49935 7.5013 1.66602 5.83464 1.66602H4.16797C2.5013 1.66602 1.66797 2.49935 1.66797 4.16602V5.83268C1.66797 7.49935 2.5013 8.33268 4.16797 8.33268Z" stroke="#04004D" stroke-width="1.5" stroke-miterlimit="10" stroke-linecap="round" stroke-linejoin="round"/>
<path d="M14.168 8.33268H15.8346C17.5013 8.33268 18.3346 7.49935 18.3346 5.83268V4.16602C18.3346 2.49935 17.5013 1.66602 15.8346 1.66602H14.168C12.5013 1.66602 11.668 2.49935 11.668 4.16602V5.83268C11.668 7.49935 12.5013 8.33268 14.168 8.33268Z" stroke="#04004D" stroke-width="1.5" stroke-miterlimit="10" stroke-linecap="round" stroke-linejoin="round"/>
<path d="M4.16797 18.3327H5.83464C7.5013 18.3327 8.33464 17.4993 8.33464 15.8327V14.166C8.33464 12.4993 7.5013 11.666 5.83464 11.666H4.16797C2.5013 11.666 1.66797 12.4993 1.66797 14.166V15.8327C1.66797 17.4993 2.5013 18.3327 4.16797 18.3327Z" stroke="#04004D" stroke-width="1.5" stroke-miterlimit="10" stroke-linecap="round" stroke-linejoin="round"/>
<path d="M12 15H18" stroke="#04004D" stroke-width="1.5" stroke-linecap="round"/>
<path d="M15 12L15 18" stroke="#04004D" stroke-width="1.5" stroke-linecap="round"/>
</svg>
