<svg width="32" height="32" viewBox="0 0 32 32" fill="none" xmlns="http://www.w3.org/2000/svg">
<rect width="32" height="32" rx="6" fill="#04B800"/>
<path d="M23.6904 16.0002C23.691 15.7365 23.7496 15.4761 23.8621 15.2375C23.9746 14.999 24.1383 14.7882 24.3414 14.62C24.6327 14.3811 24.8431 14.058 24.9437 13.6949C25.0443 13.3319 25.0304 12.9466 24.9037 12.5919C24.5113 11.4841 23.9189 10.4578 23.1558 9.56414C22.9116 9.2771 22.5848 9.07251 22.2199 8.97838C21.855 8.88425 21.47 8.90517 21.1175 9.03829C20.8702 9.1307 20.6056 9.16724 20.3426 9.14528C20.0796 9.12331 19.8247 9.04339 19.5962 8.91125C19.3677 8.7791 19.1713 8.59802 19.0211 8.38099C18.8709 8.16396 18.7706 7.91636 18.7275 7.65598C18.6622 7.28105 18.4832 6.93525 18.2148 6.66548C17.9463 6.39571 17.6014 6.21502 17.2268 6.1479C16.0872 5.94891 14.9216 5.95073 13.7826 6.15327C13.4071 6.217 13.0609 6.39614 12.792 6.66576C12.5231 6.93539 12.3449 7.28211 12.2821 7.65771C12.2388 7.91799 12.1384 8.16545 11.9881 8.38234C11.8378 8.59923 11.6414 8.78018 11.413 8.91219C11.1845 9.04421 10.9296 9.12403 10.6667 9.14593C10.4037 9.16782 10.1392 9.13125 9.89204 9.03883C9.53508 8.90743 9.14627 8.88932 8.77864 8.98697C8.411 9.08462 8.08243 9.29329 7.83773 9.58452C7.09415 10.4703 6.51052 11.4788 6.11301 12.5648C5.98291 12.9226 5.96637 13.3118 6.06566 13.6793C6.16495 14.0468 6.37523 14.3747 6.66779 14.6183C6.87157 14.7861 7.0357 14.9969 7.14841 15.2357C7.26112 15.4744 7.31961 15.7351 7.3197 15.9991C7.31979 16.2631 7.26146 16.5239 7.14891 16.7627C7.03636 17.0015 6.87237 17.2124 6.6687 17.3804C6.37742 17.6193 6.16708 17.9424 6.06644 18.3054C5.9658 18.6685 5.97978 19.0537 6.10646 19.4085C6.4988 20.5163 7.09126 21.5425 7.85437 22.4362C8.09857 22.7232 8.42544 22.9277 8.79028 23.0218C9.15513 23.116 9.54014 23.0951 9.89268 22.9621C10.1399 22.8697 10.4045 22.8331 10.6676 22.8551C10.9306 22.8771 11.1855 22.957 11.414 23.0892C11.6424 23.2213 11.8388 23.4024 11.989 23.6195C12.1392 23.8365 12.2395 24.0841 12.2827 24.3445C12.3446 24.7208 12.5225 25.0685 12.7915 25.3388C13.0605 25.6092 13.4073 25.7888 13.7833 25.8526C14.923 26.0509 16.0885 26.0491 17.2276 25.8472C17.6029 25.7834 17.9491 25.6042 18.2179 25.3346C18.4868 25.065 18.6649 24.7183 18.7276 24.3428C18.771 24.0825 18.8714 23.835 19.0217 23.6181C19.1719 23.4012 19.3684 23.2203 19.5968 23.0883C19.8253 22.9563 20.0801 22.8764 20.3431 22.8545C20.606 22.8327 20.8706 22.8692 21.1177 22.9616C21.4741 23.0966 21.8639 23.1164 22.2322 23.0185C22.6005 22.9205 22.9289 22.7096 23.1711 22.4154C23.9157 21.5304 24.4997 20.5219 24.8968 19.4356C25.0268 19.0776 25.0433 18.6882 24.9438 18.3206C24.8442 17.9529 24.6337 17.6249 24.3408 17.3814C24.1377 17.213 23.9742 17.0019 23.8618 16.7632C23.7494 16.5245 23.6909 16.264 23.6904 16.0002ZM21.7436 21.2537C21.2465 21.0703 20.7151 20.9985 20.1871 21.0433C19.6592 21.0882 19.1475 21.2485 18.6883 21.5129C18.2264 21.7835 17.8285 22.1509 17.522 22.5898C17.2156 23.0287 17.0078 23.5289 16.913 24.0557C15.974 24.2257 15.0115 24.2178 14.0754 24.0326C13.9332 23.1932 13.4983 22.4312 12.8478 21.8818C12.1974 21.3324 11.3734 21.0311 10.5219 21.0314C10.0852 21.0325 9.65187 21.1091 9.24123 21.2579C8.93221 20.8949 8.65632 20.505 8.41688 20.0928C8.17388 19.6774 7.97928 19.2355 7.83691 18.7757C8.24428 18.4369 8.57211 18.0127 8.79712 17.533C9.02213 17.0533 9.13882 16.53 9.13891 16.0002C9.13607 15.4643 9.01664 14.9354 8.78892 14.4503C8.5612 13.9652 8.23064 13.5355 7.82018 13.1909C8.14621 12.2933 8.6368 11.4644 9.26678 10.7467C9.76401 10.9296 10.2953 11.0012 10.8232 10.9564C11.3511 10.9116 11.8628 10.7515 12.3221 10.4874C12.784 10.2169 13.1819 9.84952 13.4884 9.41058C13.7948 8.97164 14.0026 8.47153 14.0974 7.94465C15.0363 7.77459 15.9987 7.78181 16.935 7.96593C17.0238 8.48933 17.2269 8.98669 17.53 9.42254C17.8331 9.85839 18.2286 10.222 18.6883 10.4874C19.1521 10.7525 19.6683 10.9126 20.2006 10.9566C20.7329 11.0006 21.2684 10.9274 21.7694 10.7421C22.0784 11.1052 22.3542 11.4952 22.5935 11.9076C22.8365 12.323 23.0311 12.7649 23.1735 13.2247C22.7658 13.5636 22.4377 13.9882 22.2127 14.4683C21.9877 14.9484 21.8712 15.4721 21.8715 16.0023C21.8719 16.5325 21.989 17.0562 22.2146 17.536C22.4403 18.0158 22.7689 18.4399 23.177 18.7784L23.1904 18.8095C22.8645 19.7072 22.3739 20.5361 21.7436 21.2537Z" fill="white"/>
<path d="M19.9692 13.5646C19.8206 13.5333 19.6665 13.5394 19.5208 13.5823C19.3751 13.6253 19.2423 13.7037 19.1344 13.8106L17.5883 15.3567C17.4227 15.5282 17.331 15.758 17.3331 15.9964C17.3351 16.2349 17.4308 16.463 17.5994 16.6316C17.768 16.8003 17.9961 16.8959 18.2346 16.898C18.4731 16.9 18.7028 16.8084 18.8743 16.6427L19.1199 16.3985C19.0205 17.2887 18.5968 18.111 17.9296 18.7085C17.2623 19.3061 16.3984 19.6369 15.5027 19.6378C15.0849 19.6412 14.6699 19.5687 14.2779 19.4237C14.1662 19.3815 14.0472 19.3617 13.9279 19.3654C13.8085 19.3692 13.691 19.3964 13.5821 19.4456C13.4733 19.4947 13.3752 19.5648 13.2934 19.6519C13.2116 19.739 13.1478 19.8413 13.1056 19.953C13.0634 20.0648 13.0436 20.1837 13.0473 20.3031C13.0511 20.4225 13.0783 20.54 13.1275 20.6489C13.1766 20.7577 13.2467 20.8558 13.3338 20.9376C13.4209 21.0194 13.5232 21.0832 13.6349 21.1254C14.2323 21.3481 14.8652 21.4604 15.5027 21.4567C16.9495 21.4551 18.3365 20.8797 19.3595 19.8567C20.3825 18.8337 20.958 17.4466 20.9595 15.9999C20.9632 15.3624 20.851 14.7295 20.6282 14.1321C20.5746 13.99 20.4861 13.8636 20.371 13.7644C20.2559 13.6653 20.1178 13.5966 19.9692 13.5646Z" fill="white"/>
<path d="M13.4184 15.3569C13.334 15.2724 13.2337 15.2054 13.1234 15.1596C13.0131 15.1139 12.8948 15.0904 12.7754 15.0904C12.6559 15.0904 12.5377 15.1139 12.4274 15.1596C12.317 15.2054 12.2168 15.2724 12.1324 15.3569L11.8868 15.6011C11.9862 14.711 12.4099 13.8887 13.0771 13.2912C13.7443 12.6938 14.6082 12.363 15.5038 12.362C15.9216 12.3586 16.3366 12.4311 16.7286 12.5761C16.9542 12.6614 17.2045 12.6535 17.4244 12.5542C17.6442 12.4549 17.8157 12.2724 17.9009 12.0467C17.9862 11.8211 17.9783 11.5708 17.879 11.3509C17.7798 11.1311 17.5972 10.9596 17.3716 10.8744C16.7742 10.6516 16.1413 10.5394 15.5038 10.5431C14.057 10.5446 12.67 11.1201 11.647 12.1431C10.624 13.1661 10.0486 14.5531 10.047 15.9999C10.0433 16.6374 10.1555 17.2703 10.3783 17.8677C10.4319 18.0098 10.5204 18.1362 10.6355 18.2354C10.7506 18.3345 10.8888 18.4032 11.0373 18.4352C11.1004 18.4485 11.1648 18.4553 11.2293 18.4554C11.3487 18.4555 11.467 18.4319 11.5773 18.3862C11.6876 18.3405 11.7879 18.2735 11.8723 18.189L13.4184 16.6429C13.5029 16.5585 13.5699 16.4582 13.6156 16.3479C13.6613 16.2376 13.6849 16.1193 13.6849 15.9999C13.6849 15.8804 13.6613 15.7622 13.6156 15.6519C13.5699 15.5415 13.5029 15.4413 13.4184 15.3569Z" fill="white"/>
</svg>
