<svg width="20" height="20" viewBox="0 0 20 20" fill="none" xmlns="http://www.w3.org/2000/svg">
<path d="M16.125 7.29199C16.5898 7.29199 17 6.90918 17 6.41699V4.66699C17 4.20215 16.5898 3.79199 16.125 3.79199H3.875C3.38281 3.79199 3 4.20215 3 4.66699V6.41699C3 6.90918 3.38281 7.29199 3.875 7.29199H16.125ZM14.8125 4.88574C15.168 4.88574 15.4688 5.18652 15.4688 5.54199C15.4688 5.9248 15.168 6.19824 14.8125 6.19824C14.4297 6.19824 14.1562 5.9248 14.1562 5.54199C14.1562 5.18652 14.4297 4.88574 14.8125 4.88574ZM13.0625 4.88574C13.418 4.88574 13.7188 5.18652 13.7188 5.54199C13.7188 5.9248 13.418 6.19824 13.0625 6.19824C12.6797 6.19824 12.4062 5.9248 12.4062 5.54199C12.4062 5.18652 12.6797 4.88574 13.0625 4.88574ZM16.125 11.667C16.5898 11.667 17 11.2842 17 10.792V9.04199C17 8.57715 16.5898 8.16699 16.125 8.16699H3.875C3.38281 8.16699 3 8.57715 3 9.04199V10.792C3 11.2842 3.38281 11.667 3.875 11.667H16.125ZM14.8125 9.26074C15.168 9.26074 15.4688 9.56152 15.4688 9.91699C15.4688 10.2998 15.168 10.5732 14.8125 10.5732C14.4297 10.5732 14.1562 10.2998 14.1562 9.91699C14.1562 9.56152 14.4297 9.26074 14.8125 9.26074ZM13.0625 9.26074C13.418 9.26074 13.7188 9.56152 13.7188 9.91699C13.7188 10.2998 13.418 10.5732 13.0625 10.5732C12.6797 10.5732 12.4062 10.2998 12.4062 9.91699C12.4062 9.56152 12.6797 9.26074 13.0625 9.26074ZM16.125 16.042C16.5898 16.042 17 15.6592 17 15.167V13.417C17 12.9521 16.5898 12.542 16.125 12.542H3.875C3.38281 12.542 3 12.9521 3 13.417V15.167C3 15.6592 3.38281 16.042 3.875 16.042H16.125ZM14.8125 13.6357C15.168 13.6357 15.4688 13.9365 15.4688 14.292C15.4688 14.6748 15.168 14.9482 14.8125 14.9482C14.4297 14.9482 14.1562 14.6748 14.1562 14.292C14.1562 13.9365 14.4297 13.6357 14.8125 13.6357ZM13.0625 13.6357C13.418 13.6357 13.7188 13.9365 13.7188 14.292C13.7188 14.6748 13.418 14.9482 13.0625 14.9482C12.6797 14.9482 12.4062 14.6748 12.4062 14.292C12.4062 13.9365 12.6797 13.6357 13.0625 13.6357Z" fill="#0084F4"/>
</svg>