<svg width="26" height="23" viewBox="0 0 26 23" fill="none" xmlns="http://www.w3.org/2000/svg">
<path d="M26 0.866667C26 1.09652 25.9087 1.31696 25.7462 1.47949C25.5836 1.64202 25.3632 1.73333 25.1333 1.73333H0.866667C0.636812 1.73333 0.416372 1.64202 0.253841 1.47949C0.0913094 1.31696 0 1.09652 0 0.866667C0 0.636812 0.0913094 0.416373 0.253841 0.253841C0.416372 0.0913094 0.636812 0 0.866667 0H25.1333C25.3632 0 25.5836 0.0913094 25.7462 0.253841C25.9087 0.416373 26 0.636812 26 0.866667ZM25.1333 8.66667H0.866667C0.636812 8.66667 0.416372 8.75798 0.253841 8.92051C0.0913094 9.08304 0 9.30348 0 9.53333C0 9.76319 0.0913094 9.98363 0.253841 10.1462C0.416372 10.3087 0.636812 10.4 0.866667 10.4H25.1333C25.3632 10.4 25.5836 10.3087 25.7462 10.1462C25.9087 9.98363 26 9.76319 26 9.53333C26 9.30348 25.9087 9.08304 25.7462 8.92051C25.5836 8.75798 25.3632 8.66667 25.1333 8.66667ZM13 17.3333H0.866667C0.636812 17.3333 0.416372 17.4246 0.253841 17.5872C0.0913094 17.7497 0 17.9701 0 18.2C0 18.4299 0.0913094 18.6503 0.253841 18.8128C0.416372 18.9754 0.636812 19.0667 0.866667 19.0667H13C13.2299 19.0667 13.4503 18.9754 13.6128 18.8128C13.7754 18.6503 13.8667 18.4299 13.8667 18.2C13.8667 17.9701 13.7754 17.7497 13.6128 17.5872C13.4503 17.4246 13.2299 17.3333 13 17.3333ZM25.1333 17.3333H22.5333V14.7333C22.5333 14.5035 22.442 14.283 22.2795 14.1205C22.117 13.958 21.8965 13.8667 21.6667 13.8667C21.4368 13.8667 21.2164 13.958 21.0538 14.1205C20.8913 14.283 20.8 14.5035 20.8 14.7333V17.3333H18.2C17.9701 17.3333 17.7497 17.4246 17.5872 17.5872C17.4246 17.7497 17.3333 17.9701 17.3333 18.2C17.3333 18.4299 17.4246 18.6503 17.5872 18.8128C17.7497 18.9754 17.9701 19.0667 18.2 19.0667H20.8V21.6667C20.8 21.8965 20.8913 22.117 21.0538 22.2795C21.2164 22.442 21.4368 22.5333 21.6667 22.5333C21.8965 22.5333 22.117 22.442 22.2795 22.2795C22.442 22.117 22.5333 21.8965 22.5333 21.6667V19.0667H25.1333C25.3632 19.0667 25.5836 18.9754 25.7462 18.8128C25.9087 18.6503 26 18.4299 26 18.2C26 17.9701 25.9087 17.7497 25.7462 17.5872C25.5836 17.4246 25.3632 17.3333 25.1333 17.3333Z" fill="#04004D"/>
</svg>
