<svg width="12" height="12" viewBox="0 0 12 12" fill="none" xmlns="http://www.w3.org/2000/svg">
<path d="M1.5 1.5H1.99997V0.499969C1.99997 0.22403 2.224 0 2.50003 0H3C3.27603 0 3.49997 0.22403 3.49997 0.499969V1.5H8.50003V0.499969C8.50003 0.22403 8.72397 0 9 0H9.49997C9.776 0 10 0.22403 10 0.499969V1.5H10.5C11.327 1.5 12 2.173 12 3V10.5C12 11.327 11.327 12 10.5 12H1.5C0.673004 12 0 11.327 0 10.5V3C0 2.173 0.673004 1.5 1.5 1.5ZM1.00003 10.5C1.00003 10.7755 1.22452 11 1.5 11H10.5C10.7755 11 11 10.7755 11 10.5V5.02002H1.00003V10.5Z" fill="#004DFF"/>
</svg>
