<svg width="23" height="17" viewBox="0 0 23 17" fill="none" xmlns="http://www.w3.org/2000/svg">
<path d="M0.015625 6.62537L22.6439 6.51465L22.6593 9.70868L22.6628 9.7985C22.6822 13.438 17.6296 16.412 11.3823 16.4427C5.13492 16.4734 0.0446696 13.5463 0.0368754 9.90982C0.0441553 9.88211 0.0381779 9.84844 0.0385286 9.8189L0.015625 6.62537Z" fill="url(#paint0_linear_10989_20174)"/>
<g style="mix-blend-mode:multiply">
<path d="M22.6517 9.2834L22.6524 9.37493L22.6465 9.2845L22.6517 9.2834Z" fill="url(#paint1_linear_10989_20174)" style="mix-blend-mode:multiply"/>
<path d="M11.3672 15.7364C17.6168 15.7063 22.6671 12.7317 22.6501 9.09277L22.6538 9.70853L22.6573 9.79835C22.6767 13.4379 17.6241 16.4119 11.3768 16.4425C5.12941 16.4732 0.03916 13.5462 0.031366 9.90968C0.0386458 9.88197 0.0326685 9.8483 0.0330192 9.81876L0.0287214 9.20531C0.0388251 12.8424 5.11984 15.767 11.3672 15.7364Z" fill="url(#paint2_linear_10989_20174)" style="mix-blend-mode:multiply"/>
<path d="M0.0240894 9.4855L0.0234439 9.39397C0.0254031 9.42412 0.0221302 9.45535 0.0240894 9.4855Z" fill="url(#paint3_linear_10989_20174)" style="mix-blend-mode:multiply"/>
</g>
<g style="mix-blend-mode:multiply">
<path d="M7.91084 16.1411C7.8046 16.1132 7.70065 16.0859 7.59247 16.0748L7.55278 7.70908L7.86906 7.70818L7.91084 16.1411Z" fill="#FCEC7C"/>
<path d="M6.48641 15.8113C6.38016 15.7834 6.27391 15.7555 6.16767 15.7276L6.1307 7.71815L6.44697 7.71728L6.48641 15.8113Z" fill="#FCEC7C"/>
<path d="M5.06346 15.3537C4.95392 15.3101 4.84098 15.2606 4.74591 15.2184L4.70979 7.72275L5.02606 7.72188L5.06346 15.3537Z" fill="#FCEC7C"/>
<path d="M9.33299 16.3391C9.22711 16.3286 9.12063 16.3204 9.01537 16.3076L8.97216 7.70147L9.29073 7.7012L9.33299 16.3391Z" fill="#FCEC7C"/>
<path d="M2.21284 13.7603C2.10437 13.675 1.99591 13.5897 1.89328 13.501L1.86675 7.73623L2.18302 7.73536L2.21284 13.7603Z" fill="#FCEC7C"/>
<path d="M0.784135 12.2346C0.665277 12.0551 0.558548 11.8679 0.464675 11.6741L0.445312 7.74326L0.761587 7.74239L0.784135 12.2346Z" fill="#FCEC7C"/>
<path d="M3.63941 14.6933C3.53351 14.6359 3.42177 14.5818 3.32171 14.521L3.28824 7.72973L3.60452 7.72883L3.63941 14.6933Z" fill="#FCEC7C"/>
<path d="M10.7543 16.426C10.6489 16.423 10.5406 16.4218 10.4375 16.4194L10.3962 7.70266L10.7148 7.7024L10.7543 16.426Z" fill="#FCEC7C"/>
<path d="M12.1749 16.4141C12.07 16.4187 11.9651 16.4232 11.8586 16.4249L11.8152 7.68785L12.1337 7.68755L12.1749 16.4141Z" fill="#FCEC7C"/>
<path d="M15.0141 16.076C14.9073 16.0973 14.8045 16.1222 14.6977 16.1435L14.6562 7.68107L14.9725 7.6802L15.0141 16.076Z" fill="#FCEC7C"/>
<path d="M13.5963 16.3035C13.4919 16.3156 13.3841 16.3218 13.2803 16.3316L13.2371 7.67855L13.5557 7.67829L13.5963 16.3035Z" fill="#FCEC7C"/>
<path d="M16.4411 15.7099C16.3364 15.7417 16.2318 15.7735 16.1255 15.8023L16.0854 7.66371L16.4017 7.66281L16.4411 15.7099Z" fill="#FCEC7C"/>
<path d="M22.1036 11.8516C22.0071 12.026 21.9016 12.1953 21.7877 12.3588L21.7655 7.63954L22.0818 7.63867L22.1036 11.8516Z" fill="#FCEC7C"/>
<path d="M20.689 13.5344C20.5901 13.6196 20.4796 13.7016 20.3767 13.7832L20.3465 7.64711L20.6627 7.64624L20.689 13.5344Z" fill="#FCEC7C"/>
<path d="M17.8545 15.2169C17.7497 15.2586 17.6444 15.3025 17.5373 15.3435L17.5011 7.66018L17.8174 7.65931L17.8545 15.2169Z" fill="#FCEC7C"/>
<path d="M19.2735 14.5233C19.1715 14.5829 19.0608 14.6377 18.9588 14.6875L18.9242 7.64654L19.2405 7.64567L19.2735 14.5233Z" fill="#FCEC7C"/>
</g>
<path d="M11.2819 0.00024288C17.5307 -0.0306745 22.6109 2.89405 22.6289 6.5328C22.6469 10.1716 17.5959 13.1464 11.3471 13.1773C5.0983 13.2082 0.0180519 10.2835 4.798e-05 6.64476C-0.0179558 3.00601 5.0331 0.0311603 11.2819 0.00024288Z" fill="url(#paint4_linear_10989_20174)"/>
<path style="mix-blend-mode:screen" d="M11.3576 13.0272C17.4735 12.999 22.4279 10.1449 22.6223 6.60352C22.6266 6.68118 22.6442 6.75494 22.6433 6.8337C22.6603 10.4726 17.6107 13.4449 11.3627 13.4779C5.11478 13.5109 0.0257289 10.5792 0.015625 6.94211C0.0159536 6.86565 0.0307496 6.79054 0.0356976 6.7153C0.258952 10.2553 5.24122 13.0577 11.3576 13.0272Z" fill="url(#paint5_radial_10989_20174)"/>
<path d="M11.2934 1.66424C15.9649 1.64113 19.7627 3.82699 19.7762 6.54649C19.7896 9.266 16.0136 11.4893 11.3422 11.5124C6.67073 11.5356 2.87287 9.3497 2.85941 6.63019C2.84596 3.91069 6.622 1.68736 11.2934 1.66424Z" fill="url(#paint6_linear_10989_20174)"/>
<path style="mix-blend-mode:screen" d="M11.016 1.94105C6.49952 1.96214 2.82913 4.04491 2.60306 6.6447C2.59658 6.55658 2.57963 6.47065 2.57825 6.39128C2.55266 3.6686 6.34393 1.45464 11.0105 1.42606C15.6771 1.39748 19.4792 3.58867 19.4927 6.31062C19.4916 6.39923 19.4784 6.4871 19.4704 6.57389C19.2251 3.96388 15.536 1.91594 11.016 1.94105Z" fill="url(#paint7_radial_10989_20174)"/>
<path d="M11.3073 2.21878C6.78788 2.24158 3.1204 4.32264 2.89433 6.92243C2.88493 6.83601 2.87091 6.74838 2.86723 6.66841C2.85318 3.94876 6.63291 1.73176 11.3024 1.70148C15.9719 1.6712 19.7682 3.86579 19.7823 6.58543C19.7835 6.67465 19.768 6.76192 19.7617 6.85163C19.5135 4.24331 15.8238 2.19769 11.3073 2.21878Z" fill="#FB8950"/>
<path style="mix-blend-mode:color-dodge" d="M16.6261 9.99036C19.164 9.11287 21.5735 9.42009 22.0079 10.6765C22.4423 11.933 20.7372 13.6629 18.1994 14.5404C15.6615 15.4179 13.252 15.1107 12.8176 13.8542C12.3832 12.5978 14.0883 10.8678 16.6261 9.99036Z" fill="url(#paint8_radial_10989_20174)"/>
<path d="M12.5429 3.80472L12.5215 4.2319L12.518 4.22923L12.4963 4.22478L12.5174 3.79804L12.5395 3.80283L12.5429 3.80472Z" fill="#FB8950"/>
<path d="M12.5429 3.80472L12.5215 4.2319L12.518 4.22923L12.4963 4.22478L12.5174 3.79804L12.5395 3.80283L12.5426 3.80516" fill="#FB8950"/>
<path d="M14.4766 4.42773L14.4552 4.85491C14.443 4.90705 14.4332 4.95962 14.4262 5.0122L14.448 4.58535C14.4547 4.53235 14.4642 4.47974 14.4766 4.42773V4.42773Z" fill="#FB8950"/>
<path d="M14.4766 4.42676L14.4552 4.85394C14.443 4.90607 14.4332 4.95865 14.4262 5.01122L14.448 4.58437C14.4547 4.53137 14.4642 4.47876 14.4766 4.42676" fill="#FB8950"/>
<path d="M14.4139 5.12488L14.4353 4.6977C14.4371 4.65935 14.4406 4.62156 14.4453 4.58398L14.4235 5.01083C14.4179 5.05052 14.4157 5.08653 14.4139 5.12488Z" fill="#FB8950"/>
<path d="M14.4453 4.58398L14.4235 5.01083C14.4192 5.04874 14.4157 5.08653 14.4139 5.12488L14.4353 4.6977C14.4371 4.65935 14.4406 4.62156 14.4453 4.58398Z" fill="#FB8950"/>
<path d="M10.8125 5.24902L10.7914 5.67576C10.788 5.68165 10.785 5.68778 10.7825 5.6941L10.8043 5.26725C10.8088 5.26225 10.8115 5.25592 10.8125 5.24902Z" fill="#FB8950"/>
<path d="M10.8125 5.24902L10.7914 5.67576C10.788 5.68165 10.785 5.68778 10.7825 5.6941L10.8043 5.26725C10.8083 5.26192 10.8097 5.25458 10.8125 5.24902Z" fill="#FB8950"/>
<path d="M10.9003 5.24648L10.8194 5.68052L10.8157 5.68086L10.8969 5.2471L10.9003 5.24648Z" fill="#FB8950"/>
<path d="M11.3363 5.32645L11.2554 5.76356L11.3356 5.32667L11.3363 5.32645Z" fill="#FB8950"/>
<path d="M11.2427 5.3135L11.2422 5.31348L11.2208 5.74043L11.2213 5.74046L11.2427 5.3135Z" fill="#FB8950"/>
<path d="M10.5231 5.46285L10.5013 5.8897C10.393 5.79923 10.2596 5.74396 10.1189 5.73122L10.1403 5.30404C10.2811 5.31716 10.4145 5.37251 10.5231 5.46285V5.46285Z" fill="#FB8950"/>
<path d="M10.5247 5.46219L10.5028 5.88904C10.455 5.84767 10.4011 5.81388 10.3431 5.78885L10.3644 5.36167C10.4227 5.38682 10.4767 5.42071 10.5247 5.46219" fill="#FB8950"/>
<path d="M10.3653 5.36344L10.3439 5.79062C10.273 5.7604 10.198 5.74076 10.1213 5.73233L10.1427 5.30515C10.2194 5.31383 10.2943 5.33346 10.3653 5.36344" fill="#FB8950"/>
<path d="M10.7546 5.9043L10.7332 6.33148C10.7377 6.23569 10.7119 6.14107 10.6593 6.06112C10.6181 5.99742 10.5676 5.9403 10.5094 5.89169L10.5312 5.46484C10.5892 5.51373 10.6397 5.5708 10.6812 5.63428C10.7332 5.71429 10.7589 5.80871 10.7546 5.9043V5.9043Z" fill="#FB8950"/>
<path d="M10.7546 5.90527L10.7332 6.33245C10.7377 6.23667 10.7119 6.14205 10.6593 6.0621C10.6181 5.99839 10.5676 5.94128 10.5094 5.89267L10.5312 5.46582C10.5892 5.51471 10.6397 5.57178 10.6812 5.63525C10.7334 5.71531 10.7593 5.80986 10.7551 5.90561" fill="#FB8950"/>
<path d="M12.2698 5.98041L12.2487 6.40714C12.2379 6.28386 12.202 6.16422 12.143 6.05564L12.1641 5.62891C12.223 5.73749 12.259 5.85713 12.2698 5.98041V5.98041Z" fill="#FB8950"/>
<path d="M12.2698 5.98139L12.2487 6.40812C12.2379 6.28484 12.202 6.1652 12.143 6.05662L12.1641 5.62988C12.223 5.73846 12.259 5.8581 12.2698 5.98139" fill="#FB8950"/>
<path d="M11.7159 5.96669L11.6945 6.39387L11.6946 6.37442C11.6944 6.20357 11.6458 6.03649 11.5546 5.89252C11.4835 5.78087 11.3913 5.68421 11.2833 5.6079L11.3043 5.18116C11.4127 5.257 11.505 5.35357 11.576 5.46534C11.6673 5.60959 11.7159 5.77692 11.7161 5.94801L11.7159 5.96669Z" fill="#FB8950"/>
<path d="M11.7159 5.96571L11.6945 6.39289L11.6946 6.37344C11.6944 6.2026 11.6458 6.03551 11.5546 5.89154C11.4835 5.77989 11.3913 5.68323 11.2833 5.60692L11.3043 5.18019C11.4127 5.25603 11.505 5.35259 11.576 5.46436C11.6673 5.60861 11.7159 5.77594 11.7161 5.94704L11.7159 5.96571Z" fill="#FB8950"/>
<path d="M6.44234 5.69898L6.46418 5.27213C6.46182 5.34116 6.48092 5.40914 6.51885 5.46667C6.60486 5.60118 6.77342 5.69892 6.97129 5.74487C7.13679 5.78338 7.30904 5.78348 7.4749 5.74518C7.66106 5.70075 7.79945 5.61196 7.876 5.49748L7.85451 5.92388C7.75678 6.05408 7.61366 6.14268 7.45385 6.17192C7.28801 6.21044 7.11571 6.21033 6.95024 6.1716C6.75159 6.12577 6.58281 6.02926 6.49746 5.89385C6.45954 5.83617 6.4403 5.76814 6.44234 5.69898V5.69898Z" fill="#FB8950"/>
<path d="M7.87784 5.49932L7.85633 5.92572C7.81138 5.99109 7.75218 6.0454 7.68323 6.08454L7.70506 5.65769C7.77357 5.61827 7.83258 5.56419 7.87784 5.49932" fill="#FB8950"/>
<path d="M7.70457 5.65835L7.68274 6.0852C7.6119 6.1265 7.53514 6.1566 7.45519 6.17442C7.28935 6.21294 7.11705 6.21283 6.95158 6.1741C6.89202 6.16048 6.8338 6.14157 6.77763 6.11761L6.79725 5.68909C6.85324 5.71335 6.91135 5.73241 6.97087 5.74603C7.13636 5.78454 7.30862 5.78465 7.47448 5.74635C7.55456 5.72812 7.63152 5.69801 7.7028 5.65701" fill="#FB8950"/>
<path d="M6.79443 5.68923L6.77304 6.11641C6.66025 6.07184 6.56326 5.99487 6.49422 5.89516C6.4563 5.83748 6.43706 5.76944 6.4391 5.70028L6.46094 5.27344C6.45858 5.34247 6.47768 5.41044 6.5156 5.46797C6.58467 5.56767 6.68166 5.64463 6.79443 5.68923" fill="#FB8950"/>
<path d="M8.44769 6.99998L8.46875 6.57324C8.46228 6.7192 8.48701 6.86474 8.54129 7.0001L8.51945 7.42695C8.46541 7.2915 8.44094 7.14592 8.44769 6.99998V6.99998Z" fill="#FB8950"/>
<path d="M8.54129 7.00108L8.51945 7.42793C8.46541 7.29247 8.44095 7.1469 8.4477 7.00096L8.46875 6.57422C8.46228 6.72018 8.48701 6.86572 8.54129 7.00108" fill="#FB8950"/>
<path d="M16.3125 7.35059L16.2911 7.77776C16.2902 7.79762 16.288 7.81741 16.2846 7.83701C16.2817 7.85605 16.2777 7.8749 16.2726 7.89347L16.2937 7.46674C16.2989 7.44828 16.303 7.42953 16.3061 7.4106C16.3093 7.39071 16.3113 7.37059 16.3125 7.35059Z" fill="#FB8950"/>
<path d="M16.3125 7.35059L16.2911 7.77776C16.2902 7.79762 16.288 7.81741 16.2846 7.83701C16.2817 7.85605 16.2777 7.8749 16.2726 7.89347L16.2937 7.46674C16.2989 7.44828 16.303 7.42953 16.3061 7.4106C16.3093 7.39071 16.3113 7.37059 16.3125 7.35059" fill="#FB8950"/>
<path d="M14.6784 7.45612L14.657 7.88331C14.6594 7.81427 14.6403 7.7463 14.6024 7.68877C14.5601 7.62498 14.5051 7.5707 14.4407 7.52933C14.2756 7.41891 14.1181 7.29744 13.9693 7.16576C13.878 7.08437 13.7914 7.00032 13.7108 6.91383C13.5714 6.76501 13.4462 6.60344 13.3368 6.43122C13.2348 6.27111 13.1502 6.10041 13.0847 5.92206C13.0501 5.8279 13.0219 5.73145 13.0004 5.63337C12.9664 5.48339 12.9491 5.33007 12.9486 5.17616L12.9485 5.15237C12.9456 5.09247 12.9267 5.03449 12.8939 4.9844C12.8128 4.85355 12.6521 4.75826 12.4655 4.71032C12.4547 4.70709 12.4433 4.70475 12.4322 4.70197C12.2512 4.65852 12.0655 4.62458 11.8753 4.60016C11.5986 4.56343 11.3195 4.54718 11.0403 4.55155C10.6454 4.55634 10.2521 4.60451 9.86742 4.69518C8.92306 4.91967 8.22519 5.3724 7.86075 5.92235L7.88225 5.49595C8.24658 4.94522 8.94489 4.49282 9.88925 4.26833C10.2739 4.17793 10.667 4.12966 11.0616 4.12437C11.3409 4.12039 11.6199 4.13663 11.8967 4.17298C12.0839 4.19751 12.2696 4.23164 12.4532 4.27524L12.4869 4.28314C12.6739 4.33141 12.8332 4.4277 12.9153 4.55722C12.9483 4.60737 12.967 4.66556 12.9696 4.72564L12.9697 4.74942C12.9703 4.90332 12.9877 5.05663 13.0214 5.20663C13.043 5.30497 13.0712 5.40168 13.1059 5.49611C13.1716 5.6741 13.2561 5.84451 13.3578 6.00448C13.467 6.17686 13.5922 6.33845 13.7319 6.48709C13.8125 6.57359 13.899 6.65764 13.9904 6.73902C14.1392 6.87063 14.2966 6.99223 14.4614 7.10304C14.526 7.14414 14.5811 7.19847 14.6231 7.26247C14.6613 7.31955 14.6807 7.38728 14.6784 7.45612V7.45612Z" fill="#FB8950"/>
<path d="M14.673 7.45658L14.6516 7.88377C14.6539 7.81474 14.6348 7.74676 14.5969 7.68923C14.5546 7.62544 14.4996 7.57116 14.4353 7.5298C14.2701 7.41937 14.1126 7.2979 13.9639 7.16622C13.8725 7.08484 13.7859 7.00079 13.7054 6.91429C13.5659 6.76548 13.4407 6.60391 13.3313 6.43168C13.2293 6.27157 13.1448 6.10087 13.0793 5.92253C13.0446 5.82836 13.0164 5.73191 12.9949 5.63383C12.961 5.48386 12.9436 5.33054 12.9432 5.17663L12.9431 5.15284C12.9401 5.09293 12.9213 5.03495 12.8885 4.98487C12.8183 4.88362 12.7198 4.80549 12.6052 4.76027L12.6271 4.33342C12.7415 4.37854 12.8399 4.45656 12.9099 4.55768C12.9428 4.60784 12.9615 4.66603 12.9641 4.7261L12.9642 4.74989C12.9649 4.90379 12.9822 5.05709 13.016 5.2071C13.0375 5.30543 13.0657 5.40215 13.1004 5.49657C13.1662 5.67456 13.2506 5.84498 13.3524 6.00495C13.4615 6.17733 13.5868 6.33892 13.7264 6.48755C13.807 6.57405 13.8936 6.6581 13.9849 6.73949C14.1337 6.87109 14.2911 6.99269 14.456 7.10351C14.5205 7.1446 14.5756 7.19893 14.6176 7.26293C14.6558 7.32017 14.6751 7.38807 14.6726 7.45703" fill="#FB8950"/>
<path d="M12.6308 4.33477L12.609 4.76162C12.5619 4.74139 12.5134 4.72485 12.4638 4.71213C12.453 4.7089 12.4416 4.70656 12.4305 4.70378C12.2495 4.66032 12.0639 4.62639 11.8736 4.60197C11.5969 4.56524 11.3178 4.54899 11.0386 4.55336C10.6437 4.55815 10.2504 4.60632 9.86572 4.69699C9.45863 4.78971 9.06751 4.94305 8.70542 5.15187L8.72648 4.72513C9.08878 4.51615 9.48018 4.36277 9.88755 4.27014C10.2722 4.17974 10.6653 4.13147 11.0599 4.12618C11.3392 4.1222 11.6183 4.13844 11.895 4.17479C12.0822 4.19932 12.2679 4.23345 12.4516 4.27705L12.4852 4.28494C12.5349 4.29777 12.5836 4.31442 12.6308 4.33477" fill="#FB8950"/>
<path d="M8.72459 4.72471L8.70353 5.15144C8.36703 5.3418 8.07766 5.60584 7.85717 5.92373L7.87867 5.49733C8.09875 5.17915 8.38802 4.91494 8.72459 4.72471" fill="#FB8950"/>
<path d="M10.6328 5.92676L10.611 6.35361C10.5862 6.85349 9.74729 7.3331 9.72591 7.7575L9.7473 7.33032C9.76691 6.90458 10.6072 6.42675 10.6328 5.92676Z" fill="#FB8950"/>
<path d="M10.6328 5.92676L10.611 6.35361C10.5862 6.85349 9.74729 7.3331 9.72591 7.7575L9.7473 7.33032C9.76868 6.90592 10.6072 6.42675 10.6328 5.92676Z" fill="#FB8950"/>
<path d="M11.6016 5.9873L11.5797 6.41415C11.5588 6.83889 10.7198 7.31772 10.695 7.8176L10.716 7.39086C10.7412 6.89054 11.5802 6.41171 11.6016 5.9873Z" fill="#FB8950"/>
<path d="M11.6016 5.9873L11.5797 6.41415C11.5588 6.83889 10.7198 7.31772 10.695 7.8176L10.716 7.39086C10.7412 6.89054 11.5802 6.41171 11.6016 5.9873Z" fill="#FB8950"/>
<path d="M16.2891 7.4668L16.268 7.89353C16.243 7.95344 16.2152 8.01335 16.1853 8.07237C16.1488 8.14384 16.1082 8.21431 16.0639 8.28411L16.0853 7.85692C16.1292 7.78757 16.1698 7.71711 16.2067 7.64519C16.2366 7.58617 16.2645 7.52704 16.2891 7.4668Z" fill="#FB8950"/>
<path d="M16.2891 7.4668L16.268 7.89353C16.243 7.95344 16.2152 8.01335 16.1853 8.07237C16.1488 8.14384 16.1082 8.21431 16.0639 8.28411L16.0853 7.85692C16.1292 7.78757 16.1698 7.71711 16.2067 7.64519C16.2366 7.58617 16.2645 7.52704 16.2891 7.4668Z" fill="#FB8950"/>
<path d="M9.84535 7.73544L9.86719 7.30859L9.86666 7.32771C9.86719 7.49858 9.916 7.66561 10.0075 7.8095L9.98597 8.23591C9.89433 8.09225 9.84539 7.92534 9.84483 7.75456L9.84535 7.73544Z" fill="#FB8950"/>
<path d="M10.0075 7.80852L9.98597 8.23493C9.89433 8.09127 9.84539 7.92436 9.84483 7.75358L9.84535 7.73446L9.86719 7.30762L9.86666 7.32673C9.86719 7.49761 9.916 7.66464 10.0075 7.80852" fill="#FB8950"/>
<path d="M11.598 7.90618L11.5769 8.33292C11.5354 8.29669 11.4977 8.25635 11.4643 8.21251L11.4844 7.78711C11.5184 7.83032 11.5564 7.87019 11.598 7.90618V7.90618Z" fill="#FB8950"/>
<path d="M11.598 7.90716L11.5769 8.3339C11.5354 8.29766 11.4977 8.25732 11.4643 8.21349L11.4844 7.78809C11.5179 7.83185 11.5555 7.87232 11.5967 7.90893" fill="#FB8950"/>
<path d="M12.9953 6.72164L12.9738 7.14805C12.9477 7.66716 12.506 8.12894 11.8115 8.35981L11.8329 7.93263C12.5271 7.70221 12.9695 7.24031 12.9953 6.72164Z" fill="#FB8950"/>
<path d="M12.9919 6.72017L12.9704 7.14658C12.9511 7.54052 12.6927 7.89996 12.2679 8.15066L12.2893 7.72348C12.7148 7.47189 12.9731 7.11167 12.9922 6.71973" fill="#FB8950"/>
<path d="M12.295 7.72487L12.2736 8.15205C12.1283 8.23684 11.9746 8.30601 11.8148 8.35839L11.8362 7.93121C11.996 7.87896 12.1498 7.80978 12.295 7.72487" fill="#FB8950"/>
<path d="M11.8292 7.93178L11.8078 8.35896C11.7585 8.37498 11.7079 8.38699 11.6566 8.39484L11.6776 7.9681C11.729 7.95992 11.7797 7.94778 11.8292 7.93178V7.93178Z" fill="#FB8950"/>
<path d="M11.8292 7.93178L11.8078 8.35896C11.7585 8.37498 11.7079 8.38699 11.6566 8.39484L11.6776 7.9681C11.729 7.95992 11.7797 7.94778 11.8292 7.93178" fill="#FB8950"/>
<path d="M10.8094 7.79752L10.8308 7.37034C10.8261 7.46614 10.852 7.56081 10.9047 7.64069C10.9464 7.704 10.9969 7.76105 11.0546 7.81012C11.2361 7.96711 11.4854 7.98905 11.6807 7.96752L11.6596 8.39426C11.464 8.41623 11.2147 8.39429 11.0331 8.23652C10.9751 8.1878 10.9245 8.13087 10.8828 8.06754C10.8308 7.98752 10.8051 7.89311 10.8094 7.79752V7.79752Z" fill="#FB8950"/>
<path d="M11.6774 7.96815L11.6563 8.39489C11.498 8.41608 11.3372 8.39614 11.1891 8.33701L11.2105 7.90982C11.3584 7.96898 11.5192 7.98906 11.6774 7.96815" fill="#FB8950"/>
<path d="M11.2116 7.91028L11.1902 8.33747C11.1323 8.31255 11.0786 8.27887 11.0309 8.23762C10.9729 8.18889 10.9223 8.13197 10.8806 8.06863C10.8283 7.98857 10.8025 7.89403 10.8067 7.79828L10.8281 7.37109C10.8235 7.46689 10.8494 7.56156 10.902 7.64145C10.9437 7.70476 10.9942 7.7618 11.0519 7.81088C11.0998 7.85166 11.1534 7.88505 11.2112 7.90995" fill="#FB8950"/>
<path d="M11.2785 7.98331L11.2566 8.41015L11.2341 8.41337L11.2556 7.98697L11.2785 7.98331Z" fill="#FB8950"/>
<path d="M11.2785 7.98331L11.2566 8.41015L11.2341 8.41337L11.2556 7.98697L11.2785 7.98331Z" fill="#FB8950"/>
<path d="M10.1077 7.94131L10.0867 8.36805C10.0495 8.327 10.0159 8.28281 9.98632 8.23598L10.0078 7.80957C10.0374 7.85619 10.0708 7.90026 10.1077 7.94131V7.94131Z" fill="#FB8950"/>
<path d="M10.1077 7.94229L10.0867 8.36903C10.0495 8.32798 10.0159 8.28379 9.98632 8.23695L10.0078 7.81055C10.0374 7.85717 10.0708 7.90123 10.1077 7.94229" fill="#FB8950"/>
<path d="M10.1825 7.95645L10.161 8.38285L10.0835 8.36694L10.1046 7.94021L10.1825 7.95645Z" fill="#FB8950"/>
<path d="M10.1825 7.95645L10.161 8.38285L10.0835 8.36694L10.1046 7.94021L10.1825 7.95645Z" fill="#FB8950"/>
<path d="M10.2272 7.96532L10.2053 8.39217L10.1943 8.39016L10.2157 7.96299L10.2272 7.96532Z" fill="#FB8950"/>
<path d="M10.2272 7.9663L10.2053 8.39315L10.1943 8.39114L10.2157 7.96396L10.2272 7.9663Z" fill="#FB8950"/>
<path d="M11.2568 7.98869L11.2353 8.41509C11.0584 8.43921 10.8799 8.44877 10.7016 8.44367L10.723 8.01649C10.9013 8.02163 11.0799 8.01233 11.2568 7.98869V7.98869Z" fill="#FB8950"/>
<path d="M11.2568 7.98869L11.2353 8.41509C11.0584 8.43921 10.8799 8.44877 10.7016 8.44367L10.723 8.01649C10.9013 8.02163 11.0799 8.01233 11.2568 7.98869" fill="#FB8950"/>
<path d="M10.6687 8.01432L10.6472 8.44073C10.6293 8.4405 10.6109 8.43916 10.5929 8.43816L10.6147 8.01131L10.6687 8.01432Z" fill="#FB8950"/>
<path d="M10.6687 8.01432L10.6472 8.44073C10.6293 8.4405 10.6109 8.43916 10.5929 8.43816L10.6147 8.01131L10.6687 8.01432Z" fill="#FB8950"/>
<path d="M10.7266 8.0166L10.7052 8.44379L10.6998 8.45645L10.7212 8.02927C10.7232 8.02516 10.725 8.02093 10.7266 8.0166V8.0166Z" fill="#FB8950"/>
<path d="M10.7266 8.01562L10.7052 8.44281L10.6998 8.45548L10.7212 8.0283C10.7232 8.02418 10.725 8.01995 10.7266 8.01562" fill="#FB8950"/>
<path d="M10.7266 8.1084L10.6529 8.5336L10.646 8.54578L10.7197 8.12058L10.7266 8.1084Z" fill="#FB8950"/>
<path d="M10.7266 8.1084L10.6547 8.53275L10.646 8.54578L10.7183 8.1217L10.7266 8.1084Z" fill="#FB8950"/>
<path d="M10.3216 8.12039L10.3005 8.54712C10.2213 8.49841 10.1496 8.43833 10.0879 8.36878L10.1094 7.94238C10.1714 8.01139 10.2428 8.0713 10.3216 8.12039Z" fill="#FB8950"/>
<path d="M10.3216 8.12136L10.3005 8.5481C10.2213 8.49939 10.1496 8.43931 10.0879 8.36976L10.1094 7.94336C10.1715 8.01251 10.2431 8.07255 10.322 8.1217" fill="#FB8950"/>
<path d="M10.1026 8.1058L10.0812 8.53298C9.85895 8.48289 9.64308 8.4079 9.43771 8.30943C9.07707 8.13596 8.79408 7.90181 8.62681 7.63567C8.5857 7.57031 8.55055 7.50137 8.52178 7.42967L8.54362 7.00282C8.57167 7.07466 8.60669 7.14355 8.6482 7.20849C8.8167 7.47485 9.09946 7.71023 9.45877 7.8827C9.66434 7.98085 9.88029 8.05567 10.1026 8.1058V8.1058Z" fill="#FB8950"/>
<path d="M10.1052 8.10682L10.0838 8.53401C9.89684 8.49196 9.71428 8.43234 9.53859 8.35594L9.55998 7.92876C9.73564 8.00525 9.9182 8.06487 10.1052 8.10682" fill="#FB8950"/>
<path d="M9.56064 7.92784L9.53925 8.35502C9.50589 8.34035 9.47287 8.32522 9.44096 8.30954C9.08033 8.13607 8.79734 7.90192 8.63006 7.63577C8.58895 7.57042 8.5538 7.50148 8.52504 7.42978L8.54688 7.00293C8.57492 7.07477 8.60995 7.14366 8.65146 7.20859C8.81995 7.47496 9.10271 7.71033 9.46202 7.88281C9.49471 7.89837 9.52729 7.91317 9.56064 7.92784Z" fill="#FB8950"/>
<path d="M10.7011 8.05542L10.6793 8.48226C10.657 8.50739 10.6296 8.52741 10.5989 8.54097C10.5682 8.55453 10.5349 8.5613 10.5014 8.56082L10.5228 8.13364C10.5564 8.13427 10.5897 8.12759 10.6205 8.11409C10.6513 8.10058 10.6788 8.08057 10.7011 8.05542V8.05542Z" fill="#FB8950"/>
<path d="M10.7055 8.05455L10.6837 8.48139C10.6709 8.49885 10.6547 8.51346 10.6361 8.52429L10.6575 8.09711C10.6761 8.08624 10.6924 8.07177 10.7055 8.05455Z" fill="#FB8950"/>
<path d="M10.6519 8.09462L10.6305 8.52181C10.5902 8.54324 10.5457 8.55542 10.5002 8.55746L10.5216 8.13028C10.5671 8.12841 10.6117 8.11622 10.6519 8.09462" fill="#FB8950"/>
<path d="M10.0747 8.11193L10.1101 8.603L10.0348 8.57991L9.99981 8.08838L10.0747 8.11193Z" fill="#FB8950"/>
<path d="M10.3924 8.12946L10.3714 8.5562L10.3023 8.54663L10.3233 8.11989L10.3924 8.12946Z" fill="#FB8950"/>
<path d="M10.3924 8.12946L10.3714 8.5562L10.3023 8.54663L10.3233 8.11989L10.3924 8.12946Z" fill="#FB8950"/>
<path d="M10.526 8.13116L10.5046 8.55835C10.4589 8.56224 10.4128 8.56163 10.3672 8.55655L10.3883 8.12981C10.434 8.13453 10.4801 8.13499 10.526 8.13116V8.13116Z" fill="#FB8950"/>
<path d="M10.526 8.13214L10.5046 8.55932C10.4589 8.56321 10.4128 8.56261 10.3672 8.55752L10.3883 8.13078C10.434 8.13551 10.4801 8.13596 10.526 8.13214" fill="#FB8950"/>
<path d="M8.82973 9.4708L8.85156 9.04395C8.84901 9.11309 8.868 9.18124 8.9059 9.23893C8.99752 9.3659 9.13015 9.45723 9.28149 9.49755L9.32041 9.50945L9.29935 9.93619L9.25966 9.9244C9.10853 9.88402 8.97615 9.79263 8.88484 9.66566C8.84669 9.60809 8.82743 9.53999 8.82973 9.4708V9.4708Z" fill="#FB8950"/>
<path d="M9.31718 9.50974L9.29612 9.93648L9.25642 9.92469C9.22515 9.91488 9.19443 9.90337 9.16442 9.89021L9.18548 9.46348C9.21555 9.47637 9.24647 9.48783 9.27826 9.49784L9.31718 9.50974Z" fill="#FB8950"/>
<path d="M9.18871 9.46319L9.16765 9.88992C9.05325 9.84481 8.95485 9.76679 8.88484 9.66566C8.84669 9.60809 8.82743 9.53999 8.82973 9.4708L8.85156 9.04395C8.84901 9.11309 8.868 9.18124 8.9059 9.23893C8.97591 9.34005 9.0743 9.41808 9.18871 9.46319" fill="#FB8950"/>
<path d="M16.0865 7.85759L16.0651 8.28477C15.5639 9.07247 14.578 9.72224 13.2352 10.0417C11.9328 10.3421 10.5769 10.3061 9.29493 9.93728L9.31599 9.51055C10.5985 9.87878 11.9549 9.91409 13.2576 9.61318C14.5991 9.2955 15.5836 8.64751 16.0865 7.85759Z" fill="#FB8950"/>
<path d="M16.0844 7.85709L16.063 8.28428C15.7929 8.70808 15.3843 9.09295 14.8526 9.4061L14.874 8.97892C15.4048 8.6651 15.8157 8.28189 16.0844 7.85709Z" fill="#FB8950"/>
<path d="M14.877 8.97906L14.8556 9.40624C14.35 9.69781 13.8037 9.91168 13.2352 10.0407C11.9328 10.3411 10.5768 10.3051 9.2949 9.93626L9.31596 9.50952C10.5987 9.87813 11.9554 9.91368 13.2585 9.61283C13.8268 9.48377 14.3728 9.26965 14.878 8.97773" fill="#FB8950"/>
<path d="M11.836 7.96867C11.7847 7.98433 11.7321 7.99599 11.6787 8.00355C11.4756 8.02241 11.2156 7.99549 11.0238 7.83036C10.9628 7.77872 10.9092 7.71899 10.8647 7.65293C10.4597 7.02461 11.6938 6.44091 11.6809 5.91981C11.6777 5.74324 11.6242 5.56972 11.5266 5.41929C11.4508 5.30273 11.353 5.20149 11.2387 5.12137L11.3015 5.13525C11.5333 5.18946 11.759 5.26924 11.9743 5.37308C12.3534 5.55784 12.6528 5.80549 12.8307 6.08232C12.875 6.15028 12.9128 6.22206 12.9437 6.2967C13.2294 7.00641 12.7484 7.68168 11.836 7.96867ZM12.1416 5.59502C12.2049 5.70808 12.2444 5.83217 12.2578 5.95958C12.2444 5.83217 12.2049 5.70808 12.1416 5.59502V5.59502ZM11.4723 7.81318C11.5077 7.85913 11.5476 7.90156 11.5913 7.93982C11.5478 7.90132 11.5079 7.85892 11.4723 7.81318" fill="#FFE26C"/>
<path d="M9.94375 7.81524C10.0192 7.93197 10.1162 8.03378 10.2295 8.1151L10.1672 8.10081C9.93492 8.04543 9.70889 7.96468 9.49329 7.86005C9.11549 7.67552 8.81693 7.42852 8.63841 7.15125C8.59413 7.08358 8.55653 7.01195 8.52615 6.93739C8.2384 6.22977 8.7224 5.55254 9.63372 5.26479C9.68508 5.24937 9.73768 5.23795 9.79104 5.23063C9.99349 5.2113 10.2533 5.23805 10.4449 5.40298C10.5057 5.45467 10.5591 5.51432 10.6037 5.58022C11.0107 6.21008 9.77469 6.79294 9.78723 7.31377C9.79098 7.49093 9.84525 7.66481 9.94375 7.81524V7.81524Z" fill="#FFE26C"/>
<path d="M11.3319 7.97181L11.3089 7.97491C11.1313 7.9942 10.9518 7.9992 10.7721 7.98987C10.7706 7.99413 10.7689 7.99829 10.7669 8.00233L10.7591 8.01274L10.7509 8.02358C10.729 8.04742 10.7019 8.06611 10.6715 8.07841C10.6412 8.09071 10.6082 8.09633 10.5749 8.09489C10.5288 8.0976 10.4823 8.09605 10.4361 8.09027L10.3663 8.07913C10.2857 8.02843 10.2122 7.9671 10.1479 7.89693L10.2264 7.91457L10.1475 7.89659C10.1094 7.85493 10.0747 7.81037 10.0438 7.76336C9.94826 7.61826 9.89515 7.45118 9.89056 7.28143C9.87408 6.77947 11.0657 6.22781 10.6673 5.61823C10.624 5.5542 10.5718 5.49631 10.5123 5.44637C10.4008 5.35406 10.2652 5.29592 10.1231 5.27955L10.1899 5.27208C10.3689 5.2521 10.5499 5.2468 10.731 5.25623C10.7635 5.19233 10.8373 5.16429 10.9291 5.1594C10.9747 5.15779 11.0205 5.1602 11.0659 5.16662C11.0911 5.16998 11.1119 5.17267 11.134 5.1764C11.1421 5.18255 11.1548 5.19213 11.1712 5.20443C11.2817 5.2828 11.3769 5.38082 11.4515 5.49315C11.5469 5.63828 11.5998 5.80544 11.6039 5.97517C11.6204 6.47713 10.4287 7.02879 10.8271 7.63836C10.8705 7.70237 10.9227 7.76025 10.9821 7.81023C11.0826 7.89459 11.2037 7.95056 11.3319 7.97181V7.97181ZM10.7194 7.98619L10.665 7.98192L10.7181 7.98594L10.7194 7.98619ZM10.7806 5.26028L10.7833 5.26232C10.7872 5.25712 10.7884 5.24987 10.7911 5.24441C10.7875 5.24918 10.7836 5.25439 10.7833 5.26232L10.7806 5.26028ZM10.255 7.92386L10.2665 7.92645L10.255 7.92386Z" fill="#FFE26C"/>
<path d="M16.0921 7.92434C15.6008 8.69937 14.6256 9.33223 13.2915 9.63376C11.997 9.9172 10.6457 9.8673 9.36437 9.48873L9.32546 9.47653C9.17426 9.43499 9.04114 9.34314 8.94851 9.21644C8.90766 9.15709 8.88789 9.0861 8.89242 9.01497C8.89694 8.94384 8.92548 8.87672 8.97342 8.82448C9.06964 8.71886 9.19815 8.64761 9.33977 8.62136C9.52306 8.58125 9.71439 8.58834 9.8958 8.64194C10.8182 8.91691 11.7919 8.95408 12.7245 8.74991C13.0805 8.67226 13.4242 8.5491 13.7471 8.38346C13.9444 8.28122 14.1294 8.15758 14.2989 8.01475C14.3987 7.93101 14.4912 7.83912 14.5756 7.73999C14.5944 7.7151 14.6131 7.69022 14.6315 7.66576C14.6651 7.61415 14.6823 7.55351 14.6809 7.49156C14.6796 7.4296 14.6598 7.36913 14.624 7.3178C14.5815 7.25398 14.526 7.19959 14.4613 7.15821C14.2958 7.04673 14.1377 6.92464 13.9881 6.79274C13.8962 6.71118 13.809 6.62704 13.7278 6.54053C13.5871 6.39186 13.4606 6.23052 13.35 6.05867C13.2469 5.89919 13.161 5.72955 13.0936 5.55261C13.058 5.45874 13.0288 5.36268 13.0063 5.26508C12.9711 5.11619 12.9522 4.96421 12.9499 4.81182L12.9495 4.78826C12.9463 4.72876 12.9271 4.67094 12.8937 4.62092C12.8115 4.4905 12.6508 4.39476 12.4639 4.34496L12.4303 4.33678C12.2469 4.29164 12.0615 4.25587 11.8747 4.22958C11.5986 4.19064 11.3204 4.17157 11.0423 4.17253C10.6491 4.17355 10.258 4.21715 9.87577 4.30256C8.93731 4.51475 8.24642 4.95524 7.88932 5.49666C7.81428 5.6092 7.67735 5.69564 7.49236 5.73765C7.32752 5.7738 7.1559 5.77186 6.99061 5.73196C6.79298 5.68435 6.62335 5.58665 6.53687 5.45166C6.50169 5.40082 6.48205 5.34111 6.48038 5.27988C6.47871 5.21866 6.49508 5.15859 6.52747 5.10709C7.04233 4.33133 8.00454 3.71947 9.31188 3.4238C10.6305 3.1347 12.0079 3.19233 13.3094 3.59107C13.422 3.62663 13.5316 3.66363 13.6384 3.70206C13.7257 3.73361 13.8115 3.76679 13.8958 3.80161L13.9608 3.83478C14.1161 3.91535 14.2493 4.03313 14.3481 4.1773C14.4131 4.2754 14.448 4.3898 14.4486 4.50635C14.4369 4.55771 14.428 4.60971 14.4219 4.66212C14.3823 5.04499 14.4805 5.43179 14.699 5.754C14.9348 6.11996 15.2885 6.4323 15.719 6.68141L15.753 6.70017C15.7923 6.72293 15.8326 6.74439 15.8736 6.76575C16.0067 6.84304 16.1206 6.9495 16.2066 7.07687C16.2874 7.19585 16.3214 7.33979 16.3017 7.48059C16.2989 7.4993 16.2949 7.51781 16.2899 7.53604C16.2661 7.59542 16.2389 7.65368 16.2097 7.7118C16.1748 7.7868 16.1351 7.85614 16.0921 7.92434ZM12.51 3.87311L12.5144 3.87647L12.5113 3.87412L12.4893 3.86915L12.5096 3.87355" fill="#FFE26C"/>
<defs>
<linearGradient id="paint0_linear_10989_20174" x1="22.5534" y1="11.4775" x2="0.285082" y2="11.5877" gradientUnits="userSpaceOnUse">
<stop stop-color="#FF9E6E"/>
<stop offset="0.19" stop-color="#FFE585"/>
<stop offset="0.3" stop-color="#FFE4A7"/>
<stop offset="0.43" stop-color="#FFE585"/>
<stop offset="0.57" stop-color="#FF9E6E"/>
<stop offset="0.68" stop-color="#FFA16F"/>
<stop offset="0.77" stop-color="#FFAC73"/>
<stop offset="0.86" stop-color="#FFBE79"/>
<stop offset="0.9" stop-color="#FFC87C"/>
<stop offset="1" stop-color="#FF9E6E"/>
</linearGradient>
<linearGradient id="paint1_linear_10989_20174" x1="4.17439" y1="12.1725" x2="4.01569" y2="12.7641" gradientUnits="userSpaceOnUse">
<stop stop-color="#FFBB96"/>
<stop offset="0.23" stop-color="#FFFBC9"/>
<stop offset="0.54" stop-color="#F9B673"/>
<stop offset="0.64" stop-color="#F9B876"/>
<stop offset="0.72" stop-color="#FABE81"/>
<stop offset="0.81" stop-color="#FCC993"/>
<stop offset="0.86" stop-color="#FED2A3"/>
<stop offset="0.97" stop-color="#FFC28C"/>
</linearGradient>
<linearGradient id="paint2_linear_10989_20174" x1="30402.6" y1="-1735.65" x2="32513.2" y2="-1735.65" gradientUnits="userSpaceOnUse">
<stop stop-color="#FF9E6E"/>
<stop offset="0.19" stop-color="#FFE585"/>
<stop offset="0.3" stop-color="#FFE4A7"/>
<stop offset="0.43" stop-color="#FFE585"/>
<stop offset="0.57" stop-color="#FF9E6E"/>
<stop offset="0.68" stop-color="#FFA16F"/>
<stop offset="0.77" stop-color="#FFAC73"/>
<stop offset="0.86" stop-color="#FFBE79"/>
<stop offset="0.9" stop-color="#FFC87C"/>
<stop offset="1" stop-color="#FF9E6E"/>
</linearGradient>
<linearGradient id="paint3_linear_10989_20174" x1="38.102" y1="-111.836" x2="38.1025" y2="-111.838" gradientUnits="userSpaceOnUse">
<stop stop-color="#FFBB96"/>
<stop offset="0.23" stop-color="#FFFBC9"/>
<stop offset="0.54" stop-color="#F9B673"/>
<stop offset="0.64" stop-color="#F9B876"/>
<stop offset="0.72" stop-color="#FABE81"/>
<stop offset="0.81" stop-color="#FCC993"/>
<stop offset="0.86" stop-color="#FED2A3"/>
<stop offset="0.97" stop-color="#FFC28C"/>
</linearGradient>
<linearGradient id="paint4_linear_10989_20174" x1="-9.69208" y1="-14.3464" x2="17.1507" y2="11.7719" gradientUnits="userSpaceOnUse">
<stop offset="0.04" stop-color="#FF9E6E"/>
<stop offset="0.3" stop-color="#FFAD73"/>
<stop offset="0.82" stop-color="#FFD680"/>
<stop offset="1" stop-color="#FFD897"/>
</linearGradient>
<radialGradient id="paint5_radial_10989_20174" cx="0" cy="0" r="1" gradientUnits="userSpaceOnUse" gradientTransform="translate(16.2075 11.4635) rotate(179.717) scale(14.2208 14.2208)">
<stop stop-color="white"/>
<stop offset="1"/>
</radialGradient>
<linearGradient id="paint6_linear_10989_20174" x1="24178.4" y1="2861.93" x2="23582" y2="1842.56" gradientUnits="userSpaceOnUse">
<stop offset="0.04" stop-color="#FF9E6E"/>
<stop offset="0.3" stop-color="#FFAD73"/>
<stop offset="0.82" stop-color="#FFD680"/>
<stop offset="1" stop-color="#FFE78F"/>
</linearGradient>
<radialGradient id="paint7_radial_10989_20174" cx="0" cy="0" r="1" gradientUnits="userSpaceOnUse" gradientTransform="translate(7316.47 -9222.68) rotate(-75.2835) scale(200.769 431.801)">
<stop stop-color="white"/>
<stop offset="1"/>
</radialGradient>
<radialGradient id="paint8_radial_10989_20174" cx="0" cy="0" r="1" gradientUnits="userSpaceOnUse" gradientTransform="translate(6.10437 16.3596) rotate(-109.073) scale(2.40859 4.81719)">
<stop stop-color="#FBB43E"/>
<stop offset="1"/>
</radialGradient>
</defs>
</svg>
