<svg width="23" height="24" viewBox="0 0 23 24" fill="none" xmlns="http://www.w3.org/2000/svg">
<path d="M0.015625 14.181L22.6474 14.0703L22.6627 17.2648L22.6663 17.3547C22.6857 20.9947 17.6323 23.9692 11.384 23.9999C5.13571 24.0305 0.0446741 21.1031 0.0368787 17.466C0.0441596 17.4383 0.0381814 17.4046 0.0385321 17.3751L0.015625 14.181Z" fill="url(#paint0_linear_10989_20379)"/>
<g style="mix-blend-mode:multiply">
<path d="M22.6552 16.8401L22.6559 16.9316L22.65 16.8412L22.6552 16.8401Z" fill="url(#paint1_linear_10989_20379)" style="mix-blend-mode:multiply"/>
<path d="M11.3689 23.294C17.6195 23.264 22.6706 20.2889 22.6535 16.6494L22.6572 17.2653L22.6608 17.3551C22.6802 20.9952 17.6268 23.9696 11.3785 24.0003C5.1302 24.031 0.0391624 21.1035 0.0313672 17.4664C0.0386481 17.4387 0.0326699 17.4051 0.0330207 17.3755L0.0287222 16.762C0.0388274 20.3996 5.12062 23.3247 11.3689 23.294Z" fill="url(#paint2_linear_10989_20379)" style="mix-blend-mode:multiply"/>
<path d="M0.0240895 17.0422L0.0234439 16.9507C0.0254034 16.9808 0.02213 17.0121 0.0240895 17.0422Z" fill="url(#paint3_linear_10989_20379)" style="mix-blend-mode:multiply"/>
</g>
<g style="mix-blend-mode:multiply">
<path d="M7.91199 23.698C7.80572 23.6701 7.70176 23.6428 7.59356 23.6317L7.55387 15.2648L7.87019 15.2639L7.91199 23.698Z" fill="#FCEC7C"/>
<path d="M6.48733 23.3682C6.38107 23.3403 6.27481 23.3124 6.16854 23.2845L6.13157 15.2738L6.44789 15.273L6.48733 23.3682Z" fill="#FCEC7C"/>
<path d="M5.06417 22.9105C4.95461 22.8669 4.84165 22.8175 4.74657 22.7752L4.71044 15.2784L5.02677 15.2776L5.06417 22.9105Z" fill="#FCEC7C"/>
<path d="M9.33435 23.8961C9.22846 23.8856 9.12196 23.8774 9.01668 23.8646L8.97347 15.2571L9.29209 15.2569L9.33435 23.8961Z" fill="#FCEC7C"/>
<path d="M2.21311 21.3169C2.10463 21.2316 1.99615 21.1463 1.8935 21.0576L1.86696 15.2919L2.18328 15.291L2.21311 21.3169Z" fill="#FCEC7C"/>
<path d="M0.784187 19.7909C0.665311 19.6114 0.558565 19.4242 0.464678 19.2304L0.445312 15.2989L0.761635 15.2981L0.784187 19.7909Z" fill="#FCEC7C"/>
<path d="M3.6399 22.2501C3.53398 22.1926 3.42223 22.1386 3.32215 22.0777L3.28868 15.2854L3.60501 15.2845L3.6399 22.2501Z" fill="#FCEC7C"/>
<path d="M10.7559 23.983C10.6505 23.98 10.5421 23.9788 10.439 23.9764L10.3977 15.2583L10.7164 15.2581L10.7559 23.983Z" fill="#FCEC7C"/>
<path d="M12.1767 23.9711C12.0718 23.9757 11.9669 23.9802 11.8603 23.9819L11.8169 15.2435L12.1355 15.2432L12.1767 23.9711Z" fill="#FCEC7C"/>
<path d="M15.0164 23.633C14.9095 23.6543 14.8067 23.6791 14.6998 23.7005L14.6584 15.2367L14.9747 15.2359L15.0164 23.633Z" fill="#FCEC7C"/>
<path d="M13.5984 23.8605C13.4939 23.8726 13.3861 23.8788 13.2823 23.8886L13.2391 15.2342L13.5577 15.234L13.5984 23.8605Z" fill="#FCEC7C"/>
<path d="M16.4435 23.2668C16.3389 23.2986 16.2342 23.3304 16.1279 23.3592L16.0878 15.2194L16.4041 15.2185L16.4435 23.2668Z" fill="#FCEC7C"/>
<path d="M22.1069 19.4079C22.0104 19.5823 21.9049 19.7516 21.791 19.9152L21.7688 15.1952L22.0851 15.1943L22.1069 19.4079Z" fill="#FCEC7C"/>
<path d="M20.6921 21.091C20.5932 21.1761 20.4827 21.2582 20.3798 21.3399L20.3495 15.2028L20.6658 15.2019L20.6921 21.091Z" fill="#FCEC7C"/>
<path d="M17.8572 22.7738C17.7524 22.8154 17.647 22.8593 17.5399 22.9003L17.5037 15.2159L17.82 15.215L17.8572 22.7738Z" fill="#FCEC7C"/>
<path d="M19.2764 22.08C19.1743 22.1396 19.0636 22.1945 18.9616 22.2442L18.9271 15.2022L19.2434 15.2013L19.2764 22.08Z" fill="#FCEC7C"/>
</g>
<path d="M11.2836 7.55493C17.5334 7.52401 22.6144 10.4492 22.6324 14.0885C22.6504 17.7278 17.5986 20.7031 11.3488 20.734C5.09908 20.765 0.0180547 17.8398 4.79873e-05 14.2005C-0.0179586 10.5612 5.03387 7.58585 11.2836 7.55493Z" fill="url(#paint4_linear_10989_20379)"/>
<path style="mix-blend-mode:screen" d="M11.3594 20.5839C17.4761 20.5557 22.4313 17.7011 22.6257 14.1592C22.63 14.2369 22.6477 14.3106 22.6468 14.3894C22.6638 18.0289 17.6134 21.0016 11.3645 21.0346C5.11556 21.0676 0.0257305 18.1355 0.015625 14.4978C0.0159536 14.4214 0.0307519 14.3462 0.0357007 14.271C0.258989 17.8115 5.24202 20.6143 11.3594 20.5839Z" fill="url(#paint5_radial_10989_20379)"/>
<path d="M11.2947 9.21893C15.9669 9.19581 19.7653 11.382 19.7788 14.1019C19.7922 16.8218 16.0156 19.0455 11.3435 19.0686C6.67131 19.0918 2.87287 16.9056 2.85941 14.1856C2.84595 11.4657 6.62258 9.24205 11.2947 9.21893Z" fill="url(#paint6_linear_10989_20379)"/>
<path style="mix-blend-mode:screen" d="M11.0251 9.49581C6.50793 9.51691 2.83698 11.6 2.61088 14.2002C2.60439 14.1121 2.58744 14.0261 2.58607 13.9467C2.56047 11.2236 6.35232 9.00933 11.0196 8.98075C15.687 8.95216 19.4896 11.1437 19.5031 13.8661C19.502 13.9547 19.4888 14.0426 19.4808 14.1294C19.2355 11.519 15.5458 9.4707 11.0251 9.49581Z" fill="url(#paint7_radial_10989_20379)"/>
<path d="M11.3086 9.77355C6.78848 9.79635 3.12044 11.8777 2.89434 14.4779C2.88493 14.3915 2.87091 14.3038 2.86723 14.2239C2.85318 11.5038 6.63349 9.28646 11.3037 9.25617C15.9739 9.22588 19.7708 11.4208 19.7848 14.1409C19.7861 14.2301 19.7706 14.3174 19.7643 14.4071C19.516 11.7984 15.8258 9.75245 11.3086 9.77355Z" fill="#FB8950"/>
<path style="mix-blend-mode:color-dodge" d="M16.6267 17.5461C19.165 16.6685 21.5748 16.9757 22.0093 18.2324C22.4438 19.489 20.7384 21.2192 18.2002 22.0968C15.662 22.9744 13.2521 22.6672 12.8176 21.4105C12.3831 20.1539 14.0885 18.4237 16.6267 17.5461Z" fill="url(#paint8_radial_10989_20379)"/>
<path d="M12.5429 11.3594L12.5215 11.7867L12.518 11.784L12.4963 11.7795L12.5174 11.3527L12.5395 11.3575L12.5429 11.3594Z" fill="#FB8950"/>
<path d="M12.5429 11.3594L12.5215 11.7867L12.518 11.784L12.4963 11.7795L12.5174 11.3527L12.5395 11.3575L12.5426 11.3599" fill="#FB8950"/>
<path d="M14.4766 11.9814L14.4552 12.4087C14.4429 12.4608 14.4332 12.5134 14.4262 12.566L14.448 12.1391C14.4547 12.0861 14.4642 12.0335 14.4766 11.9814Z" fill="#FB8950"/>
<path d="M14.4766 11.9814L14.4552 12.4087C14.4429 12.4608 14.4332 12.5134 14.4262 12.566L14.448 12.1391C14.4547 12.0861 14.4642 12.0335 14.4766 11.9814Z" fill="#FB8950"/>
<path d="M14.4217 12.6806L14.4431 12.2534C14.4449 12.215 14.4484 12.1772 14.4531 12.1396L14.4313 12.5666C14.4257 12.6063 14.4235 12.6423 14.4217 12.6806Z" fill="#FB8950"/>
<path d="M14.4531 12.1396L14.4313 12.5666C14.427 12.6045 14.4235 12.6423 14.4217 12.6806L14.4431 12.2534C14.4449 12.215 14.4484 12.1772 14.4531 12.1396Z" fill="#FB8950"/>
<path d="M10.8125 12.8027L10.7914 13.2295C10.788 13.2354 10.785 13.2416 10.7825 13.2479L10.8043 12.821C10.8088 12.816 10.8115 12.8096 10.8125 12.8027Z" fill="#FB8950"/>
<path d="M10.8125 12.8018L10.7914 13.2286C10.788 13.2344 10.785 13.2406 10.7825 13.2469L10.8043 12.82C10.8083 12.8147 10.8097 12.8073 10.8125 12.8018Z" fill="#FB8950"/>
<path d="M10.9003 12.8012L10.8194 13.2353L10.8157 13.2356L10.8969 12.8018L10.9003 12.8012Z" fill="#FB8950"/>
<path d="M11.3363 12.8811L11.2554 13.3183L11.3356 12.8814L11.3363 12.8811Z" fill="#FB8950"/>
<path d="M11.2427 12.8672L11.2422 12.8672L11.2207 13.2942L11.2213 13.2942L11.2427 12.8672Z" fill="#FB8950"/>
<path d="M10.5232 13.0176L10.5013 13.4445C10.393 13.354 10.2597 13.2987 10.1189 13.286L10.1403 12.8587C10.2811 12.8719 10.4146 12.9272 10.5232 13.0176Z" fill="#FB8950"/>
<path d="M10.5247 13.0169L10.5028 13.4438C10.455 13.4024 10.4011 13.3686 10.343 13.3436L10.3644 12.9164C10.4227 12.9415 10.4767 12.9754 10.5247 13.0169Z" fill="#FB8950"/>
<path d="M10.3653 12.9181L10.3439 13.3454C10.273 13.3152 10.198 13.2955 10.1213 13.2871L10.1427 12.8598C10.2194 12.8685 10.2943 12.8882 10.3653 12.9181Z" fill="#FB8950"/>
<path d="M10.7547 13.4591L10.7333 13.8863C10.7377 13.7905 10.7119 13.6959 10.6594 13.6159C10.6182 13.5522 10.5676 13.4951 10.5094 13.4464L10.5312 13.0195C10.5892 13.0684 10.6397 13.1255 10.6812 13.189C10.7333 13.269 10.7589 13.3634 10.7547 13.4591Z" fill="#FB8950"/>
<path d="M10.7547 13.4591L10.7333 13.8863C10.7377 13.7905 10.7119 13.6959 10.6594 13.6159C10.6182 13.5522 10.5676 13.4951 10.5094 13.4464L10.5312 13.0195C10.5892 13.0684 10.6397 13.1255 10.6812 13.189C10.7335 13.2691 10.7593 13.3636 10.7551 13.4594" fill="#FB8950"/>
<path d="M12.2698 13.5342L12.2487 13.961C12.2379 13.8377 12.202 13.718 12.143 13.6094L12.1641 13.1826C12.223 13.2912 12.259 13.4109 12.2698 13.5342Z" fill="#FB8950"/>
<path d="M12.2698 13.5342L12.2487 13.961C12.2379 13.8377 12.202 13.718 12.143 13.6094L12.1641 13.1826C12.223 13.2912 12.259 13.4109 12.2698 13.5342Z" fill="#FB8950"/>
<path d="M11.716 13.5205L11.6946 13.9478L11.6947 13.9283C11.6945 13.7574 11.6459 13.5903 11.5546 13.4463C11.4835 13.3347 11.3913 13.238 11.2832 13.1617L11.3043 12.7349C11.4127 12.8107 11.5051 12.9073 11.576 13.0191C11.6673 13.1634 11.7159 13.3307 11.7162 13.5018L11.716 13.5205Z" fill="#FB8950"/>
<path d="M11.716 13.5215L11.6946 13.9487L11.6947 13.9293C11.6945 13.7584 11.6459 13.5913 11.5546 13.4473C11.4835 13.3356 11.3913 13.239 11.2832 13.1627L11.3043 12.7359C11.4127 12.8117 11.5051 12.9083 11.576 13.0201C11.6673 13.1643 11.7159 13.3317 11.7162 13.5028L11.716 13.5215Z" fill="#FB8950"/>
<path d="M6.44228 13.2528L6.46412 12.8259C6.46176 12.895 6.48086 12.9629 6.51879 13.0205C6.60482 13.155 6.77341 13.2528 6.97131 13.2987C7.13683 13.3372 7.30911 13.3374 7.475 13.299C7.66119 13.2546 7.7996 13.1658 7.87616 13.0513L7.85466 13.4778C7.75692 13.608 7.61377 13.6966 7.45394 13.7258C7.28807 13.7644 7.11574 13.7643 6.95025 13.7255C6.75157 13.6797 6.58276 13.5832 6.4974 13.4477C6.45948 13.39 6.44023 13.322 6.44228 13.2528Z" fill="#FB8950"/>
<path d="M7.87784 13.0521L7.85634 13.4785C7.81137 13.5439 7.75216 13.5982 7.6832 13.6374L7.70504 13.2105C7.77356 13.171 7.83258 13.1169 7.87784 13.0521Z" fill="#FB8950"/>
<path d="M7.70466 13.2111L7.68282 13.6381C7.61197 13.6794 7.5352 13.7095 7.45524 13.7273C7.28938 13.7658 7.11705 13.7657 6.95155 13.727C6.89198 13.7134 6.83376 13.6944 6.77757 13.6705L6.79719 13.2419C6.85319 13.2662 6.91132 13.2852 6.97084 13.2988C7.13636 13.3374 7.30864 13.3375 7.47453 13.2992C7.55463 13.2809 7.63159 13.2508 7.70288 13.2098" fill="#FB8950"/>
<path d="M6.79448 13.242L6.77309 13.6693C6.66028 13.6247 6.56328 13.5477 6.49422 13.448C6.4563 13.3903 6.43705 13.3223 6.4391 13.2531L6.46094 12.8262C6.45858 12.8952 6.47768 12.9632 6.51561 13.0207C6.58469 13.1204 6.6817 13.1974 6.79448 13.242Z" fill="#FB8950"/>
<path d="M8.44769 14.5557L8.46875 14.1289C8.46228 14.2749 8.48701 14.4204 8.5413 14.5558L8.51946 14.9827C8.46541 14.8473 8.44094 14.7017 8.44769 14.5557Z" fill="#FB8950"/>
<path d="M8.5413 14.5578L8.51946 14.9847C8.46541 14.8492 8.44094 14.7036 8.44769 14.5577L8.46875 14.1309C8.46228 14.2768 8.48702 14.4224 8.5413 14.5578Z" fill="#FB8950"/>
<path d="M16.3125 14.9053L16.2911 15.3325C16.2902 15.3524 16.288 15.3722 16.2846 15.3918C16.2817 15.4108 16.2777 15.4297 16.2726 15.4482L16.2937 15.0214C16.2989 15.003 16.303 14.9842 16.3061 14.9653C16.3093 14.9454 16.3113 14.9253 16.3125 14.9053Z" fill="#FB8950"/>
<path d="M16.3125 14.9053L16.2911 15.3325C16.2902 15.3524 16.288 15.3722 16.2846 15.3918C16.2817 15.4108 16.2777 15.4297 16.2726 15.4482L16.2937 15.0214C16.2989 15.003 16.303 14.9842 16.3061 14.9653C16.3093 14.9454 16.3113 14.9253 16.3125 14.9053Z" fill="#FB8950"/>
<path d="M14.6791 15.0116L14.6577 15.4388C14.6601 15.3698 14.641 15.3018 14.603 15.2443C14.5608 15.1805 14.5057 15.1262 14.4414 15.0848C14.2762 14.9744 14.1187 14.8529 13.9699 14.7212C13.8785 14.6398 13.792 14.5557 13.7114 14.4692C13.5719 14.3204 13.4467 14.1588 13.3373 13.9865C13.2352 13.8264 13.1507 13.6557 13.0852 13.4773C13.0505 13.3831 13.0223 13.2866 13.0008 13.1885C12.9669 13.0385 12.9495 12.8852 12.9491 12.7313L12.9489 12.7075C12.946 12.6476 12.9271 12.5896 12.8944 12.5395C12.8132 12.4086 12.6525 12.3133 12.4658 12.2654C12.4551 12.2621 12.4436 12.2598 12.4325 12.257C12.2515 12.2135 12.0658 12.1796 11.8755 12.1552C11.5988 12.1184 11.3197 12.1022 11.0404 12.1066C10.6455 12.1114 10.2521 12.1595 9.86737 12.2502C8.92287 12.4747 8.22489 12.9275 7.8604 13.4776L7.8819 13.0511C8.24629 12.5003 8.9447 12.0478 9.88921 11.8233C10.2739 11.7329 10.667 11.6846 11.0618 11.6793C11.3411 11.6753 11.6202 11.6916 11.8969 11.7279C12.0842 11.7525 12.27 11.7866 12.4536 11.8302L12.4872 11.8381C12.6743 11.8864 12.8336 11.9827 12.9158 12.1122C12.9487 12.1624 12.9674 12.2206 12.97 12.2807L12.9701 12.3045C12.9707 12.4584 12.9881 12.6117 13.0219 12.7617C13.0434 12.8601 13.0716 12.9568 13.1064 13.0513C13.1721 13.2293 13.2565 13.3997 13.3583 13.5597C13.4675 13.7321 13.5928 13.8937 13.7324 14.0424C13.813 14.1289 13.8996 14.213 13.991 14.2944C14.1398 14.426 14.2972 14.5476 14.4621 14.6584C14.5267 14.6995 14.5817 14.7539 14.6238 14.8179C14.662 14.875 14.6814 14.9427 14.6791 15.0116Z" fill="#FB8950"/>
<path d="M14.6811 15.0118L14.6597 15.439C14.662 15.37 14.6429 15.302 14.605 15.2444C14.5627 15.1806 14.5077 15.1263 14.4434 15.085C14.2782 14.9745 14.1207 14.853 13.9719 14.7213C13.8805 14.6399 13.7939 14.5559 13.7134 14.4694C13.5739 14.3205 13.4486 14.1589 13.3392 13.9867C13.2372 13.8266 13.1527 13.6558 13.0872 13.4775C13.0525 13.3833 13.0243 13.2868 13.0028 13.1887C12.9689 13.0387 12.9515 12.8854 12.951 12.7314L12.9509 12.7077C12.948 12.6477 12.9291 12.5897 12.8963 12.5397C12.8262 12.4384 12.7276 12.3602 12.613 12.315L12.6349 11.8881C12.7493 11.9332 12.8477 12.0113 12.9177 12.1124C12.9507 12.1626 12.9694 12.2208 12.972 12.2808L12.9721 12.3046C12.9727 12.4586 12.9901 12.6119 13.0239 12.7619C13.0454 12.8603 13.0736 12.957 13.1083 13.0514C13.174 13.2295 13.2585 13.3999 13.3603 13.5599C13.4695 13.7323 13.5947 13.8939 13.7344 14.0426C13.815 14.1291 13.9016 14.2131 13.9929 14.2945C14.1418 14.4262 14.2992 14.5478 14.4641 14.6586C14.5286 14.6997 14.5837 14.7541 14.6257 14.8181C14.664 14.8753 14.6832 14.9432 14.6807 15.0122" fill="#FB8950"/>
<path d="M12.6312 11.8897L12.6093 12.3166C12.5623 12.2964 12.5137 12.2799 12.4641 12.2671C12.4533 12.2639 12.4419 12.2616 12.4308 12.2588C12.2498 12.2153 12.0641 12.1814 11.8738 12.157C11.5971 12.1202 11.3179 12.104 11.0387 12.1083C10.6438 12.1131 10.2504 12.1613 9.86565 12.252C9.4585 12.3447 9.06731 12.4981 8.70517 12.7069L8.72623 12.2801C9.08859 12.0711 9.48005 11.9177 9.88748 11.8251C10.2721 11.7347 10.6653 11.6864 11.0601 11.6811C11.3393 11.6771 11.6184 11.6934 11.8952 11.7297C12.0824 11.7542 12.2682 11.7884 12.4519 11.832L12.4855 11.8399C12.5353 11.8527 12.584 11.8694 12.6312 11.8897Z" fill="#FB8950"/>
<path d="M8.72462 12.2804L8.70356 12.7072C8.367 12.8976 8.07758 13.1617 7.85706 13.4796L7.87856 13.0531C8.09868 12.7349 8.38799 12.4707 8.72462 12.2804Z" fill="#FB8950"/>
<path d="M10.6328 13.4805L10.611 13.9074C10.5862 14.4073 9.74715 14.887 9.72577 15.3115L9.74716 14.8842C9.76677 14.4584 10.6072 13.9805 10.6328 13.4805Z" fill="#FB8950"/>
<path d="M10.6328 13.4814L10.611 13.9084C10.5862 14.4083 9.74715 14.888 9.72577 15.3125L9.74716 14.8852C9.76854 14.4608 10.6072 13.9815 10.6328 13.4814Z" fill="#FB8950"/>
<path d="M11.6016 13.543L11.5797 13.9699C11.5588 14.3947 10.7197 14.8736 10.6949 15.3735L10.7159 14.9467C10.7411 14.4463 11.5802 13.9674 11.6016 13.543Z" fill="#FB8950"/>
<path d="M11.6016 13.542L11.5797 13.9689C11.5588 14.3937 10.7197 14.8726 10.6949 15.3726L10.7159 14.9458C10.7411 14.4454 11.5802 13.9665 11.6016 13.542Z" fill="#FB8950"/>
<path d="M16.2969 15.0215L16.2758 15.4483C16.2508 15.5082 16.223 15.5681 16.1931 15.6271C16.1566 15.6986 16.116 15.7691 16.0717 15.8389L16.0931 15.4117C16.137 15.3423 16.1776 15.2718 16.2145 15.1999C16.2444 15.1409 16.2723 15.0817 16.2969 15.0215Z" fill="#FB8950"/>
<path d="M16.2969 15.0215L16.2758 15.4483C16.2508 15.5082 16.223 15.5681 16.1931 15.6271C16.1566 15.6986 16.116 15.7691 16.0717 15.8389L16.0931 15.4117C16.137 15.3423 16.1776 15.2718 16.2145 15.1999C16.2444 15.1409 16.2723 15.0817 16.2969 15.0215Z" fill="#FB8950"/>
<path d="M9.84535 15.2902L9.86719 14.8633L9.86666 14.8824C9.86719 15.0533 9.91601 15.2204 10.0075 15.3643L9.98598 15.7907C9.89433 15.6471 9.84538 15.4801 9.84482 15.3093L9.84535 15.2902Z" fill="#FB8950"/>
<path d="M10.0075 15.3633L9.98598 15.7898C9.89433 15.6461 9.84538 15.4791 9.84482 15.3083L9.84535 15.2892L9.86719 14.8623L9.86666 14.8814C9.86719 15.0523 9.91601 15.2194 10.0075 15.3633Z" fill="#FB8950"/>
<path d="M11.598 15.4628L11.577 15.8896C11.5354 15.8534 11.4977 15.8131 11.4643 15.7692L11.4844 15.3438C11.5184 15.387 11.5564 15.4268 11.598 15.4628Z" fill="#FB8950"/>
<path d="M11.598 15.4628L11.577 15.8896C11.5354 15.8534 11.4977 15.8131 11.4643 15.7692L11.4844 15.3438C11.5179 15.3875 11.5555 15.428 11.5967 15.4646" fill="#FB8950"/>
<path d="M12.9953 14.2763L12.9738 14.7028C12.9477 15.222 12.506 15.6839 11.8114 15.9148L11.8328 15.4875C12.527 15.2571 12.9695 14.7951 12.9953 14.2763Z" fill="#FB8950"/>
<path d="M12.9919 14.2768L12.9704 14.7033C12.9511 15.0973 12.6927 15.4568 12.2678 15.7075L12.2892 15.2803C12.7148 15.0286 12.9731 14.6684 12.9922 14.2764" fill="#FB8950"/>
<path d="M12.295 15.2815L12.2736 15.7088C12.1283 15.7936 11.9745 15.8628 11.8148 15.9151L11.8362 15.4879C11.996 15.4356 12.1498 15.3665 12.295 15.2815Z" fill="#FB8950"/>
<path d="M11.8292 15.4875L11.8079 15.9147C11.7585 15.9307 11.7079 15.9427 11.6566 15.9506L11.6776 15.5238C11.729 15.5156 11.7797 15.5035 11.8292 15.4875Z" fill="#FB8950"/>
<path d="M11.8292 15.4865L11.8079 15.9137C11.7585 15.9297 11.7079 15.9418 11.6566 15.9496L11.6776 15.5228C11.729 15.5146 11.7797 15.5025 11.8292 15.4865Z" fill="#FB8950"/>
<path d="M10.8094 15.3523L10.8308 14.925C10.8261 15.0208 10.852 15.1155 10.9047 15.1954C10.9464 15.2587 10.9969 15.3158 11.0546 15.3649C11.2362 15.5219 11.4855 15.5438 11.6808 15.5223L11.6597 15.9491C11.4641 15.9711 11.2148 15.9491 11.0331 15.7913C10.9751 15.7426 10.9245 15.6857 10.8828 15.6223C10.8308 15.5423 10.8051 15.4479 10.8094 15.3523Z" fill="#FB8950"/>
<path d="M11.6774 15.5219L11.6564 15.9487C11.4981 15.9699 11.3372 15.95 11.1891 15.8908L11.2105 15.4636C11.3584 15.5227 11.5192 15.5428 11.6774 15.5219Z" fill="#FB8950"/>
<path d="M11.2117 15.4641L11.1903 15.8913C11.1323 15.8664 11.0786 15.8327 11.0309 15.7915C10.9729 15.7427 10.9223 15.6858 10.8806 15.6224C10.8283 15.5424 10.8025 15.4478 10.8067 15.3521L10.8281 14.9248C10.8235 15.0206 10.8494 15.1153 10.902 15.1952C10.9437 15.2585 10.9942 15.3156 11.052 15.3647C11.0998 15.4054 11.1535 15.4388 11.2112 15.4637" fill="#FB8950"/>
<path d="M11.2785 15.539L11.2566 15.9659L11.2341 15.9691L11.2556 15.5426L11.2785 15.539Z" fill="#FB8950"/>
<path d="M11.2785 15.5399L11.2566 15.9669L11.2341 15.9701L11.2556 15.5436L11.2785 15.5399Z" fill="#FB8950"/>
<path d="M10.1077 15.496L10.0867 15.9228C10.0495 15.8818 10.0159 15.8376 9.98631 15.7907L10.0078 15.3643C10.0374 15.4109 10.0708 15.455 10.1077 15.496Z" fill="#FB8950"/>
<path d="M10.1077 15.497L10.0867 15.9238C10.0495 15.8827 10.0159 15.8386 9.98631 15.7917L10.0078 15.3652C10.0374 15.4119 10.0708 15.4559 10.1077 15.497Z" fill="#FB8950"/>
<path d="M10.1826 15.5121L10.1611 15.9386L10.0835 15.9227L10.1046 15.4959L10.1826 15.5121Z" fill="#FB8950"/>
<path d="M10.1826 15.5111L10.1611 15.9376L10.0835 15.9217L10.1046 15.4949L10.1826 15.5111Z" fill="#FB8950"/>
<path d="M10.2272 15.52L10.2053 15.9469L10.1943 15.9449L10.2157 15.5177L10.2272 15.52Z" fill="#FB8950"/>
<path d="M10.2272 15.52L10.2053 15.9469L10.1943 15.9449L10.2157 15.5177L10.2272 15.52Z" fill="#FB8950"/>
<path d="M11.2569 15.5434L11.2354 15.9699C11.0585 15.994 10.8799 16.0036 10.7016 15.9985L10.723 15.5712C10.9013 15.5764 11.0799 15.5671 11.2569 15.5434Z" fill="#FB8950"/>
<path d="M11.2569 15.5434L11.2354 15.9699C11.0585 15.994 10.8799 16.0036 10.7016 15.9985L10.723 15.5712C10.9013 15.5764 11.0799 15.5671 11.2569 15.5434Z" fill="#FB8950"/>
<path d="M10.6687 15.569L10.6472 15.9955C10.6293 15.9953 10.6109 15.9939 10.5929 15.9929L10.6147 15.566L10.6687 15.569Z" fill="#FB8950"/>
<path d="M10.6687 15.569L10.6472 15.9955C10.6293 15.9953 10.6109 15.9939 10.5929 15.9929L10.6147 15.566L10.6687 15.569Z" fill="#FB8950"/>
<path d="M10.7266 15.5713L10.7052 15.9985L10.6998 16.0112L10.7212 15.584C10.7232 15.5798 10.725 15.5756 10.7266 15.5713Z" fill="#FB8950"/>
<path d="M10.7266 15.5713L10.7052 15.9985L10.6998 16.0112L10.7212 15.584C10.7232 15.5798 10.725 15.5756 10.7266 15.5713Z" fill="#FB8950"/>
<path d="M10.7266 15.6641L10.6529 16.0893L10.646 16.1015L10.7197 15.6762L10.7266 15.6641Z" fill="#FB8950"/>
<path d="M10.7266 15.6641L10.6547 16.0885L10.646 16.1015L10.7183 15.6774L10.7266 15.6641Z" fill="#FB8950"/>
<path d="M10.3216 15.6751L10.3005 16.1019C10.2213 16.0532 10.1496 15.9931 10.0879 15.9235L10.1094 15.4971C10.1714 15.5661 10.2428 15.626 10.3216 15.6751Z" fill="#FB8950"/>
<path d="M10.3216 15.6751L10.3005 16.1019C10.2213 16.0532 10.1496 15.9931 10.0879 15.9235L10.1094 15.4971C10.1715 15.5662 10.2431 15.6263 10.322 15.6754" fill="#FB8950"/>
<path d="M10.1029 15.6607L10.0815 16.0879C9.85914 16.0378 9.64324 15.9628 9.43784 15.8643C9.07715 15.6908 8.79412 15.4566 8.62682 15.1905C8.5857 15.1251 8.55054 15.0561 8.52178 14.9844L8.54361 14.5575C8.57166 14.6294 8.6067 14.6983 8.64821 14.7632C8.81673 15.0296 9.09954 15.265 9.4589 15.4375C9.6645 15.5357 9.88049 15.6105 10.1029 15.6607Z" fill="#FB8950"/>
<path d="M10.1053 15.6606L10.0839 16.0878C9.89687 16.0458 9.71429 15.9861 9.53857 15.9097L9.55997 15.4825C9.73565 15.559 9.91824 15.6186 10.1053 15.6606Z" fill="#FB8950"/>
<path d="M9.5608 15.4817L9.5394 15.9089C9.50604 15.8943 9.47301 15.8791 9.4411 15.8635C9.08041 15.69 8.79738 15.4558 8.63008 15.1896C8.58896 15.1242 8.5538 15.0553 8.52504 14.9836L8.54688 14.5566C8.57492 14.6285 8.60996 14.6974 8.65147 14.7623C8.81999 15.0287 9.1028 15.2642 9.46216 15.4367C9.49485 15.4522 9.52744 15.467 9.5608 15.4817Z" fill="#FB8950"/>
<path d="M10.7011 15.6111L10.6793 16.038C10.657 16.0631 10.6296 16.0832 10.5989 16.0967C10.5682 16.1103 10.5349 16.1171 10.5014 16.1166L10.5228 15.6893C10.5564 15.69 10.5897 15.6833 10.6205 15.6698C10.6513 15.6563 10.6788 15.6362 10.7011 15.6111Z" fill="#FB8950"/>
<path d="M10.7055 15.6102L10.6837 16.0371C10.6709 16.0546 10.6547 16.0692 10.6361 16.08L10.6575 15.6528C10.6761 15.6419 10.6924 15.6274 10.7055 15.6102Z" fill="#FB8950"/>
<path d="M10.6519 15.6503L10.6305 16.0775C10.5902 16.099 10.5457 16.1112 10.5002 16.1132L10.5216 15.686C10.5671 15.6841 10.6117 15.6719 10.6519 15.6503Z" fill="#FB8950"/>
<path d="M10.0748 15.6676L10.1101 16.1587L10.0348 16.1357L9.9998 15.644L10.0748 15.6676Z" fill="#FB8950"/>
<path d="M10.3924 15.6851L10.3714 16.1119L10.3023 16.1024L10.3233 15.6756L10.3924 15.6851Z" fill="#FB8950"/>
<path d="M10.3924 15.6851L10.3714 16.1119L10.3023 16.1024L10.3233 15.6756L10.3924 15.6851Z" fill="#FB8950"/>
<path d="M10.526 15.6868L10.5047 16.1141C10.4589 16.118 10.4128 16.1174 10.3672 16.1123L10.3882 15.6855C10.434 15.6902 10.4802 15.6907 10.526 15.6868Z" fill="#FB8950"/>
<path d="M10.526 15.6878L10.5047 16.1151C10.4589 16.119 10.4128 16.1184 10.3672 16.1133L10.3882 15.6865C10.434 15.6912 10.4802 15.6916 10.526 15.6878Z" fill="#FB8950"/>
<path d="M8.82973 17.0265L8.85156 16.5996C8.84901 16.6688 8.868 16.7369 8.90591 16.7946C8.99754 16.9216 9.13019 17.013 9.28155 17.0533L9.32048 17.0652L9.29942 17.492L9.25972 17.4802C9.10857 17.4398 8.97617 17.3484 8.88485 17.2214C8.84669 17.1638 8.82743 17.0957 8.82973 17.0265Z" fill="#FB8950"/>
<path d="M9.31719 17.0654L9.29613 17.4922L9.25643 17.4804C9.22515 17.4706 9.19443 17.4591 9.16441 17.4459L9.18547 17.0191C9.21555 17.032 9.24648 17.0435 9.27827 17.0535L9.31719 17.0654Z" fill="#FB8950"/>
<path d="M9.18876 17.0189L9.1677 17.4457C9.05328 17.4006 8.95487 17.3226 8.88485 17.2214C8.84669 17.1638 8.82743 17.0957 8.82973 17.0265L8.85156 16.5996C8.84901 16.6688 8.868 16.7369 8.90591 16.7946C8.97593 16.8958 9.07434 16.9738 9.18876 17.0189Z" fill="#FB8950"/>
<path d="M16.087 15.4127L16.0656 15.8399C15.5643 16.6277 14.5783 17.2776 13.2353 17.5971C11.9327 17.8975 10.5766 17.8616 9.29443 17.4927L9.31549 17.0659C10.5982 17.4342 11.9548 17.4695 13.2577 17.1685C14.5994 16.8508 15.584 16.2027 16.087 15.4127Z" fill="#FB8950"/>
<path d="M16.0844 15.4128L16.063 15.84C15.7929 16.2639 15.3842 16.6488 14.8525 16.962L14.8739 16.5348C15.4047 16.2209 15.8156 15.8377 16.0844 15.4128Z" fill="#FB8950"/>
<path d="M14.8775 16.5341L14.8561 16.9614C14.3504 17.253 13.8041 17.4669 13.2354 17.5959C11.9328 17.8963 10.5767 17.8604 9.29455 17.4915L9.31561 17.0647C10.5986 17.4333 11.9555 17.4689 13.2587 17.168C13.8272 17.0389 14.3732 16.8248 14.8785 16.5328" fill="#FB8950"/>
<path d="M11.8361 15.5238C11.7848 15.5395 11.7322 15.5512 11.6788 15.5587C11.4757 15.5776 11.2155 15.5507 11.0237 15.3855C10.9627 15.3339 10.9091 15.2741 10.8646 15.208C10.4596 14.5796 11.6938 13.9958 11.681 13.4747C11.6778 13.2981 11.6243 13.1245 11.5267 12.9741C11.4508 12.8575 11.353 12.7562 11.2387 12.6761L11.3014 12.69C11.5333 12.7442 11.7591 12.824 11.9744 12.9278C12.3535 13.1126 12.653 13.3603 12.8309 13.6372C12.8752 13.7052 12.913 13.777 12.9439 13.8516C13.2297 14.5614 12.7486 15.2368 11.8361 15.5238ZM12.1417 13.1498C12.205 13.2629 12.2445 13.387 12.2579 13.5144C12.2445 13.387 12.205 13.2629 12.1417 13.1498ZM11.4723 15.3683C11.5077 15.4143 11.5476 15.4567 11.5913 15.495C11.5478 15.4565 11.5079 15.4141 11.4723 15.3683Z" fill="#FFE26C"/>
<path d="M9.94381 15.3704C10.0193 15.4871 10.1163 15.589 10.2296 15.6703L10.1673 15.656C9.93498 15.6006 9.70891 15.5199 9.49328 15.4152C9.11542 15.2307 8.81682 14.9836 8.63827 14.7063C8.59399 14.6386 8.55638 14.567 8.52599 14.4924C8.2382 13.7847 8.72227 13.1074 9.63374 12.8196C9.68511 12.8041 9.73771 12.7927 9.79108 12.7854C9.99356 12.7661 10.2534 12.7928 10.445 12.9578C10.5058 13.0095 10.5593 13.0691 10.6039 13.135C11.011 13.765 9.77473 14.3479 9.78727 14.8689C9.79101 15.046 9.84529 15.2199 9.94381 15.3704Z" fill="#FFE26C"/>
<path d="M11.332 15.527L11.3091 15.5301C11.1314 15.5494 10.9518 15.5544 10.7721 15.5451C10.7706 15.5493 10.7689 15.5535 10.767 15.5575L10.7591 15.5679L10.751 15.5788C10.729 15.6026 10.7019 15.6213 10.6716 15.6336C10.6412 15.6459 10.6082 15.6515 10.5749 15.6501C10.5288 15.6528 10.4823 15.6513 10.4361 15.6455L10.3662 15.6343C10.2856 15.5836 10.2121 15.5223 10.1479 15.4521L10.2263 15.4697L10.1474 15.4518C10.1093 15.4101 10.0746 15.3655 10.0437 15.3185C9.94817 15.1734 9.89505 15.0063 9.89046 14.8365C9.87398 14.3345 11.0658 13.7827 10.6673 13.1731C10.624 13.109 10.5718 13.0511 10.5123 13.0012C10.4008 12.9088 10.2652 12.8507 10.123 12.8343L10.1898 12.8269C10.3688 12.8069 10.5499 12.8016 10.731 12.811C10.7635 12.7471 10.8373 12.719 10.9292 12.7142C10.9748 12.7125 11.0205 12.715 11.066 12.7214C11.0912 12.7247 11.112 12.7274 11.134 12.7312C11.1422 12.7373 11.1549 12.7469 11.1713 12.7592C11.2818 12.8376 11.377 12.9356 11.4516 13.048C11.5471 13.1931 11.5999 13.3603 11.604 13.53C11.6205 14.0321 10.4287 14.5838 10.8272 15.1935C10.8705 15.2575 10.9227 15.3154 10.9822 15.3654C11.0827 15.4498 11.2038 15.5057 11.332 15.527ZM10.7194 15.5414L10.665 15.5371L10.7182 15.5411L10.7194 15.5414ZM10.7806 12.815L10.7833 12.8171C10.7873 12.8119 10.7885 12.8046 10.7911 12.7992C10.7876 12.804 10.7836 12.8092 10.7833 12.8171L10.7806 12.815ZM10.2549 15.479L10.2665 15.4816L10.2549 15.479Z" fill="#FFE26C"/>
<path d="M16.0931 15.4801C15.6017 16.2553 14.6263 16.8882 13.292 17.1898C11.9973 17.4733 10.6458 17.4234 9.36429 17.0448L9.32539 17.0326C9.17416 16.991 9.04102 16.8992 8.94837 16.7724C8.90752 16.7131 8.88775 16.6421 8.89227 16.5709C8.89679 16.4998 8.92534 16.4327 8.97328 16.3804C9.06953 16.2748 9.19805 16.2035 9.33969 16.1773C9.52301 16.1371 9.71437 16.1442 9.89581 16.1978C10.8184 16.4729 11.7922 16.51 12.7249 16.3058C13.081 16.2282 13.4248 16.105 13.7477 15.9393C13.945 15.8371 14.1301 15.7134 14.2996 15.5706C14.3994 15.4868 14.492 15.3949 14.5763 15.2958C14.5951 15.2709 14.6139 15.246 14.6323 15.2215C14.6658 15.1699 14.683 15.1092 14.6817 15.0473C14.6803 14.9853 14.6605 14.9248 14.6247 14.8735C14.5822 14.8097 14.5267 14.7553 14.462 14.7139C14.2965 14.6024 14.1384 14.4803 13.9887 14.3484C13.8968 14.2668 13.8096 14.1826 13.7284 14.0961C13.5877 13.9474 13.4612 13.7861 13.3506 13.6142C13.2474 13.4547 13.1615 13.285 13.0941 13.108C13.0585 13.0142 13.0293 12.9181 13.0068 12.8205C12.9716 12.6716 12.9527 12.5195 12.9504 12.3671L12.95 12.3436C12.9468 12.2841 12.9275 12.2262 12.8942 12.1762C12.8119 12.0458 12.6512 11.95 12.4643 11.9002L12.4307 11.892C12.2473 11.8469 12.0618 11.8111 11.875 11.7848C11.5989 11.7459 11.3206 11.7268 11.0424 11.7277C10.6492 11.7288 10.258 11.7724 9.87577 11.8578C8.93717 12.07 8.24617 12.5106 7.88902 13.0521C7.81397 13.1646 7.67702 13.2511 7.492 13.2931C7.32714 13.3293 7.15549 13.3273 6.99018 13.2874C6.79252 13.2398 6.62286 13.1421 6.53637 13.0071C6.50118 12.9562 6.48154 12.8965 6.47987 12.8353C6.4782 12.774 6.49457 12.714 6.52696 12.6625C7.0419 11.8866 8.00426 11.2746 9.3118 10.9789C10.6306 10.6898 12.0082 10.7474 13.3099 11.1462C13.4225 11.1818 13.5322 11.2188 13.639 11.2572C13.7263 11.2888 13.8121 11.3219 13.8965 11.3568L13.9614 11.3899C14.1168 11.4705 14.25 11.5883 14.3488 11.7325C14.4138 11.8306 14.4487 11.9451 14.4493 12.0616C14.4376 12.113 14.4287 12.165 14.4226 12.2174C14.383 12.6003 14.4812 12.9872 14.6997 13.3095C14.9356 13.6755 15.2893 13.9879 15.7199 14.237L15.7539 14.2558C15.7932 14.2785 15.8335 14.3 15.8745 14.3214C16.0076 14.3987 16.1216 14.5051 16.2075 14.6325C16.2884 14.7515 16.3224 14.8955 16.3027 15.0363C16.2999 15.055 16.2959 15.0735 16.2909 15.0918C16.2671 15.1512 16.2399 15.2094 16.2107 15.2676C16.1758 15.3426 16.1361 15.4119 16.0931 15.4801ZM12.5104 11.4283L12.5148 11.4316L12.5117 11.4293L12.4897 11.4243L12.51 11.4287" fill="#FFE26C"/>
<path d="M0.015625 10.4027L22.6474 10.292L22.6627 13.4865L22.6663 13.5763C22.6857 17.2164 17.6323 20.1909 11.384 20.2216C5.13571 20.2522 0.0446741 17.3247 0.0368787 13.6877C0.0441596 13.66 0.0381814 13.6263 0.0385321 13.5968L0.015625 10.4027Z" fill="url(#paint9_linear_10989_20379)"/>
<g style="mix-blend-mode:multiply">
<path d="M22.6552 13.0627L22.6559 13.1543L22.65 13.0638L22.6552 13.0627Z" fill="url(#paint10_linear_10989_20379)" style="mix-blend-mode:multiply"/>
<path d="M11.3689 19.5167C17.6195 19.4866 22.6706 16.5115 22.6535 12.8721L22.6572 13.4879L22.6608 13.5778C22.6802 17.2178 17.6268 20.1923 11.3785 20.223C5.1302 20.2536 0.0391624 17.3261 0.0313672 13.6891C0.0386481 13.6614 0.0326699 13.6277 0.0330207 13.5982L0.0287222 12.9846C0.0388274 16.6223 5.12062 19.5473 11.3689 19.5167Z" fill="url(#paint11_linear_10989_20379)" style="mix-blend-mode:multiply"/>
<path d="M0.0240895 13.2649L0.0234439 13.1733C0.0254034 13.2035 0.02213 13.2347 0.0240895 13.2649Z" fill="url(#paint12_linear_10989_20379)" style="mix-blend-mode:multiply"/>
</g>
<g style="mix-blend-mode:multiply">
<path d="M7.91199 19.9207C7.80572 19.8928 7.70176 19.8655 7.59356 19.8544L7.55387 11.4874L7.87019 11.4865L7.91199 19.9207Z" fill="#FCEC7C"/>
<path d="M6.48733 19.5909C6.38107 19.563 6.27481 19.535 6.16854 19.5071L6.13157 11.4965L6.44789 11.4956L6.48733 19.5909Z" fill="#FCEC7C"/>
<path d="M5.06417 19.1332C4.95461 19.0896 4.84165 19.0401 4.74657 18.9979L4.71044 11.5011L5.02677 11.5002L5.06417 19.1332Z" fill="#FCEC7C"/>
<path d="M9.33435 20.1188C9.22846 20.1083 9.12196 20.1 9.01668 20.0872L8.97347 11.4798L9.29209 11.4795L9.33435 20.1188Z" fill="#FCEC7C"/>
<path d="M2.21311 17.5395C2.10463 17.4542 1.99615 17.369 1.8935 17.2803L1.86696 11.5146L2.18328 11.5137L2.21311 17.5395Z" fill="#FCEC7C"/>
<path d="M0.784187 16.0136C0.665311 15.8341 0.558565 15.6468 0.464678 15.4531L0.445312 11.5216L0.761635 11.5207L0.784187 16.0136Z" fill="#FCEC7C"/>
<path d="M3.6399 18.4727C3.53398 18.4153 3.42223 18.3612 3.32215 18.3004L3.28868 11.5081L3.60501 11.5072L3.6399 18.4727Z" fill="#FCEC7C"/>
<path d="M10.7559 20.2057C10.6505 20.2027 10.5421 20.2014 10.439 20.199L10.3977 11.481L10.7164 11.4807L10.7559 20.2057Z" fill="#FCEC7C"/>
<path d="M12.1767 20.1938C12.0718 20.1983 11.9669 20.2029 11.8603 20.2045L11.8169 11.4662L12.1355 11.4659L12.1767 20.1938Z" fill="#FCEC7C"/>
<path d="M15.0164 19.8556C14.9095 19.877 14.8067 19.9018 14.6998 19.9231L14.6584 11.4594L14.9747 11.4585L15.0164 19.8556Z" fill="#FCEC7C"/>
<path d="M13.5984 20.0831C13.4939 20.0952 13.3861 20.1015 13.2823 20.1112L13.2391 11.4569L13.5577 11.4566L13.5984 20.0831Z" fill="#FCEC7C"/>
<path d="M16.4435 19.4895C16.3389 19.5213 16.2342 19.553 16.1279 19.5819L16.0878 11.442L16.4041 11.4411L16.4435 19.4895Z" fill="#FCEC7C"/>
<path d="M22.1069 15.6306C22.0104 15.805 21.9049 15.9743 21.791 16.1378L21.7688 11.4179L22.0851 11.417L22.1069 15.6306Z" fill="#FCEC7C"/>
<path d="M20.6921 17.3136C20.5932 17.3988 20.4827 17.4809 20.3798 17.5625L20.3495 11.4254L20.6658 11.4246L20.6921 17.3136Z" fill="#FCEC7C"/>
<path d="M17.8572 18.9964C17.7524 19.038 17.647 19.082 17.5399 19.123L17.5037 11.4385L17.82 11.4376L17.8572 18.9964Z" fill="#FCEC7C"/>
<path d="M19.2764 18.3026C19.1743 18.3622 19.0636 18.4171 18.9616 18.4669L18.9271 11.4249L19.2434 11.424L19.2764 18.3026Z" fill="#FCEC7C"/>
</g>
<path d="M11.2836 3.77759C17.5334 3.74666 22.6144 6.67184 22.6324 10.3111C22.6504 13.9505 17.5986 16.9258 11.3488 16.9567C5.09908 16.9876 0.0180547 14.0624 4.79873e-05 10.4231C-0.0179586 6.78381 5.03387 3.80851 11.2836 3.77759Z" fill="url(#paint13_linear_10989_20379)"/>
<path style="mix-blend-mode:screen" d="M11.3594 16.8065C17.4761 16.7783 22.4313 13.9238 22.6257 10.3818C22.63 10.4595 22.6477 10.5333 22.6468 10.6121C22.6638 14.2515 17.6134 17.2243 11.3645 17.2573C5.11556 17.2902 0.0257305 14.3581 0.015625 10.7205C0.0159536 10.644 0.0307519 10.5689 0.0357007 10.4936C0.258989 14.0342 5.24202 16.837 11.3594 16.8065Z" fill="url(#paint14_radial_10989_20379)"/>
<path d="M11.2947 5.44159C15.9669 5.41847 19.7653 7.60466 19.7788 10.3246C19.7922 13.0445 16.0156 15.2682 11.3435 15.2913C6.67131 15.3144 2.87287 13.1282 2.85941 10.4083C2.84595 7.68838 6.62258 5.4647 11.2947 5.44159Z" fill="url(#paint15_linear_10989_20379)"/>
<path style="mix-blend-mode:screen" d="M11.0251 5.71847C6.50793 5.73957 2.83698 7.82265 2.61088 10.4228C2.60439 10.3347 2.58744 10.2488 2.58607 10.1694C2.56047 7.44629 6.35232 5.23199 11.0196 5.2034C15.687 5.17482 19.4896 7.36634 19.5031 10.0887C19.502 10.1773 19.4888 10.2652 19.4808 10.352C19.2355 7.74161 15.5458 5.69336 11.0251 5.71847Z" fill="url(#paint16_radial_10989_20379)"/>
<path d="M11.3086 5.9962C6.78848 6.019 3.12044 8.10039 2.89434 10.7006C2.88493 10.6141 2.87091 10.5265 2.86723 10.4465C2.85318 7.72645 6.63349 5.50911 11.3037 5.47883C15.9739 5.44854 19.7708 7.64347 19.7848 10.3635C19.7861 10.4528 19.7706 10.54 19.7643 10.6298C19.516 8.02105 15.8258 5.97511 11.3086 5.9962Z" fill="#FB8950"/>
<path style="mix-blend-mode:color-dodge" d="M16.6267 13.7688C19.165 12.8911 21.5748 13.1984 22.0093 14.455C22.4438 15.7117 20.7384 17.4418 18.2002 18.3195C15.662 19.1971 13.2521 18.8898 12.8176 17.6332C12.3831 16.3766 14.0885 14.6464 16.6267 13.7688Z" fill="url(#paint17_radial_10989_20379)"/>
<path d="M12.5429 7.58304L12.5215 8.01029L12.518 8.00762L12.4963 8.00316L12.5174 7.57636L12.5395 7.58115L12.5429 7.58304Z" fill="#FB8950"/>
<path d="M12.5429 7.58304L12.5215 8.01029L12.518 8.00762L12.4963 8.00316L12.5174 7.57636L12.5395 7.58115L12.5426 7.58348" fill="#FB8950"/>
<path d="M14.4766 8.20508L14.4552 8.63232C14.4429 8.68446 14.4332 8.73705 14.4262 8.78963L14.448 8.36272C14.4547 8.30971 14.4642 8.25709 14.4766 8.20508Z" fill="#FB8950"/>
<path d="M14.4766 8.20508L14.4552 8.63232C14.4429 8.68446 14.4332 8.73705 14.4262 8.78963L14.448 8.36272C14.4547 8.30971 14.4642 8.25709 14.4766 8.20508Z" fill="#FB8950"/>
<path d="M14.4217 8.90328L14.4431 8.47604C14.4449 8.43768 14.4484 8.39988 14.4531 8.3623L14.4313 8.78922C14.4257 8.82891 14.4235 8.86493 14.4217 8.90328Z" fill="#FB8950"/>
<path d="M14.4531 8.36328L14.4313 8.7902C14.427 8.82811 14.4235 8.86591 14.4217 8.90426L14.4431 8.47702C14.4449 8.43866 14.4484 8.40086 14.4531 8.36328Z" fill="#FB8950"/>
<path d="M10.8125 9.02637L10.7914 9.45317C10.788 9.45906 10.785 9.46519 10.7825 9.47151L10.8043 9.0446C10.8088 9.0396 10.8115 9.03326 10.8125 9.02637Z" fill="#FB8950"/>
<path d="M10.8125 9.02637L10.7914 9.45317C10.788 9.45906 10.785 9.46519 10.7825 9.47151L10.8043 9.0446C10.8083 9.03926 10.8097 9.03193 10.8125 9.02637Z" fill="#FB8950"/>
<path d="M10.9003 9.0248L10.8194 9.4589L10.8157 9.45925L10.8969 9.02542L10.9003 9.0248Z" fill="#FB8950"/>
<path d="M11.3363 9.10477L11.2554 9.54194L11.3356 9.10499L11.3363 9.10477Z" fill="#FB8950"/>
<path d="M11.2427 9.09182L11.2422 9.0918L11.2207 9.51882L11.2213 9.51884L11.2427 9.09182Z" fill="#FB8950"/>
<path d="M10.5232 9.24023L10.5013 9.66714C10.393 9.57666 10.2597 9.52138 10.1189 9.50864L10.1403 9.0814C10.2811 9.09452 10.4146 9.14987 10.5232 9.24023Z" fill="#FB8950"/>
<path d="M10.5247 9.24052L10.5028 9.66744C10.455 9.62607 10.4011 9.59228 10.343 9.56724L10.3644 9.13999C10.4227 9.16514 10.4767 9.19904 10.5247 9.24052Z" fill="#FB8950"/>
<path d="M10.3653 9.14178L10.3439 9.56902C10.273 9.53881 10.198 9.51916 10.1213 9.51073L10.1427 9.08348C10.2194 9.09216 10.2943 9.11179 10.3653 9.14178Z" fill="#FB8950"/>
<path d="M10.7547 9.68268L10.7333 10.1099C10.7377 10.0141 10.7119 9.91949 10.6594 9.83953C10.6182 9.77582 10.5676 9.7187 10.5094 9.67008L10.5312 9.24316C10.5892 9.29206 10.6397 9.34914 10.6812 9.41262C10.7333 9.49265 10.7589 9.58708 10.7547 9.68268Z" fill="#FB8950"/>
<path d="M10.7547 9.68268L10.7333 10.1099C10.7377 10.0141 10.7119 9.91949 10.6594 9.83953C10.6182 9.77582 10.5676 9.7187 10.5094 9.67008L10.5312 9.24316C10.5892 9.29206 10.6397 9.34914 10.6812 9.41262C10.7335 9.49269 10.7593 9.58725 10.7551 9.68302" fill="#FB8950"/>
<path d="M12.2698 9.75781L12.2487 10.1846C12.2379 10.0613 12.202 9.94165 12.143 9.83305L12.1641 9.40625C12.223 9.51485 12.259 9.63451 12.2698 9.75781Z" fill="#FB8950"/>
<path d="M12.2698 9.75878L12.2487 10.1856C12.2379 10.0623 12.202 9.94262 12.143 9.83403L12.1641 9.40723C12.223 9.51582 12.259 9.63548 12.2698 9.75878Z" fill="#FB8950"/>
<path d="M11.716 9.74513L11.6946 10.1724L11.6947 10.1529C11.6945 9.98205 11.6459 9.81494 11.5546 9.67094C11.4835 9.55928 11.3913 9.4626 11.2832 9.38628L11.3043 8.95948C11.4127 9.03533 11.5051 9.13192 11.576 9.2437C11.6673 9.38797 11.7159 9.55533 11.7162 9.72645L11.716 9.74513Z" fill="#FB8950"/>
<path d="M11.716 9.74415L11.6946 10.1714L11.6947 10.1519C11.6945 9.98107 11.6459 9.81397 11.5546 9.66997C11.4835 9.55831 11.3913 9.46163 11.2832 9.38531L11.3043 8.95851C11.4127 9.03436 11.5051 9.13094 11.576 9.24272C11.6673 9.387 11.7159 9.55435 11.7162 9.72548L11.716 9.74415Z" fill="#FB8950"/>
<path d="M6.44228 9.47647L6.46412 9.04956C6.46176 9.1186 6.48086 9.18658 6.51879 9.24412C6.60482 9.37866 6.77341 9.47642 6.97131 9.52237C7.13683 9.56088 7.30911 9.56099 7.475 9.52268C7.66119 9.47824 7.7996 9.38944 7.87616 9.27494L7.85466 9.70141C7.75692 9.83162 7.61377 9.92023 7.45394 9.94948C7.28807 9.988 7.11574 9.9879 6.95025 9.94917C6.75157 9.90333 6.58276 9.8068 6.4974 9.67137C6.45948 9.61368 6.44023 9.54564 6.44228 9.47647Z" fill="#FB8950"/>
<path d="M7.87784 9.27569L7.85634 9.70216C7.81137 9.76753 7.75216 9.82186 7.6832 9.861L7.70504 9.43408C7.77356 9.39466 7.83258 9.34057 7.87784 9.27569Z" fill="#FB8950"/>
<path d="M7.70466 9.43478L7.68282 9.8617C7.61197 9.903 7.5352 9.9331 7.45524 9.95093C7.28938 9.98945 7.11705 9.98935 6.95155 9.95062C6.89198 9.93699 6.83376 9.91808 6.77757 9.89411L6.79719 9.46553C6.85319 9.48979 6.91132 9.50886 6.97084 9.52248C7.13636 9.56099 7.30864 9.5611 7.47453 9.52279C7.55463 9.50456 7.63159 9.47444 7.70288 9.43345" fill="#FB8950"/>
<path d="M6.79448 9.46566L6.77309 9.89291C6.66028 9.84833 6.56328 9.77135 6.49422 9.67162C6.4563 9.61393 6.43705 9.54589 6.4391 9.47672L6.46094 9.0498C6.45858 9.11885 6.47768 9.18683 6.51561 9.24437C6.58469 9.34408 6.6817 9.42105 6.79448 9.46566Z" fill="#FB8950"/>
<path d="M8.44769 10.7784L8.46875 10.3516C8.46228 10.4975 8.48701 10.6431 8.5413 10.7785L8.51946 11.2054C8.46541 11.0699 8.44094 10.9243 8.44769 10.7784Z" fill="#FB8950"/>
<path d="M8.5413 10.7795L8.51946 11.2064C8.46541 11.0709 8.44094 10.9253 8.44769 10.7793L8.46875 10.3525C8.46228 10.4985 8.48702 10.6441 8.5413 10.7795Z" fill="#FB8950"/>
<path d="M16.3125 11.1289L16.2911 11.5561C16.2902 11.576 16.288 11.5958 16.2846 11.6154C16.2817 11.6344 16.2777 11.6533 16.2726 11.6719L16.2937 11.2451C16.2989 11.2266 16.303 11.2079 16.3061 11.1889C16.3093 11.169 16.3113 11.1489 16.3125 11.1289Z" fill="#FB8950"/>
<path d="M16.3125 11.1299L16.2911 11.5571C16.2902 11.577 16.288 11.5968 16.2846 11.6164C16.2817 11.6354 16.2777 11.6543 16.2726 11.6729L16.2937 11.2461C16.2989 11.2276 16.303 11.2088 16.3061 11.1899C16.3093 11.17 16.3113 11.1499 16.3125 11.1299Z" fill="#FB8950"/>
<path d="M14.6791 11.2352L14.6577 11.6625C14.6601 11.5934 14.641 11.5254 14.603 11.4679C14.5608 11.4041 14.5057 11.3498 14.4414 11.3084C14.2762 11.198 14.1187 11.0765 13.9699 10.9448C13.8785 10.8634 13.792 10.7793 13.7114 10.6928C13.5719 10.544 13.4467 10.3824 13.3373 10.2101C13.2352 10.05 13.1507 9.87929 13.0852 9.70092C13.0505 9.60674 13.0223 9.51027 13.0008 9.41218C12.9669 9.26218 12.9495 9.10883 12.9491 8.9549L12.9489 8.93111C12.946 8.87119 12.9271 8.81321 12.8944 8.76311C12.8132 8.63224 12.6525 8.53694 12.4658 8.48898C12.4551 8.48576 12.4436 8.48342 12.4325 8.48064C12.2515 8.43717 12.0658 8.40323 11.8755 8.37881C11.5988 8.34207 11.3197 8.32582 11.0404 8.33019C10.6455 8.33499 10.2521 8.38316 9.86737 8.47385C8.92287 8.69837 8.22489 9.15117 7.8604 9.70121L7.8819 9.27474C8.24629 8.72393 8.9447 8.27145 9.88921 8.04693C10.2739 7.95651 10.667 7.90824 11.0618 7.90295C11.3411 7.89897 11.6202 7.91521 11.8969 7.95157C12.0842 7.9761 12.27 8.01023 12.4536 8.05384L12.4872 8.06174C12.6743 8.11002 12.8336 8.20633 12.9158 8.33586C12.9487 8.38602 12.9674 8.44422 12.97 8.5043L12.9701 8.5281C12.9707 8.68202 12.9881 8.83535 13.0219 8.98538C13.0434 9.08372 13.0716 9.18046 13.1064 9.27489C13.1721 9.45291 13.2565 9.62335 13.3583 9.78335C13.4675 9.95576 13.5928 10.1174 13.7324 10.266C13.813 10.3525 13.8996 10.4366 13.991 10.518C14.1398 10.6496 14.2972 10.7712 14.4621 10.8821C14.5267 10.9232 14.5817 10.9775 14.6238 11.0415C14.662 11.0986 14.6814 11.1664 14.6791 11.2352Z" fill="#FB8950"/>
<path d="M14.6811 11.2364L14.6597 11.6636C14.662 11.5946 14.6429 11.5266 14.605 11.469C14.5627 11.4052 14.5077 11.351 14.4434 11.3096C14.2782 11.1991 14.1207 11.0777 13.9719 10.946C13.8805 10.8646 13.7939 10.7805 13.7134 10.694C13.5739 10.5451 13.4486 10.3836 13.3392 10.2113C13.2372 10.0512 13.1527 9.88044 13.0872 9.70207C13.0525 9.60789 13.0243 9.51142 13.0028 9.41333C12.9689 9.26333 12.9515 9.10999 12.951 8.95605L12.9509 8.93226C12.948 8.87234 12.9291 8.81436 12.8963 8.76427C12.8262 8.663 12.7276 8.58486 12.613 8.53964L12.6349 8.11272C12.7493 8.15784 12.8477 8.23588 12.9177 8.33702C12.9507 8.38718 12.9694 8.44538 12.972 8.50546L12.9721 8.52925C12.9727 8.68317 12.9901 8.8365 13.0239 8.98653C13.0454 9.08488 13.0736 9.18161 13.1083 9.27605C13.174 9.45407 13.2585 9.62451 13.3603 9.7845C13.4695 9.95691 13.5947 10.1185 13.7344 10.2672C13.815 10.3537 13.9016 10.4378 13.9929 10.5192C14.1418 10.6508 14.2992 10.7724 14.4641 10.8832C14.5286 10.9243 14.5837 10.9787 14.6257 11.0427C14.664 11.0999 14.6832 11.1678 14.6807 11.2368" fill="#FB8950"/>
<path d="M12.6312 8.11433L12.6093 8.54125C12.5623 8.52102 12.5137 8.50447 12.4641 8.49175C12.4533 8.48852 12.4419 8.48618 12.4308 8.4834C12.2498 8.43993 12.0641 8.40599 11.8738 8.38157C11.5971 8.34483 11.3179 8.32859 11.0387 8.33295C10.6438 8.33775 10.2504 8.38592 9.86565 8.47661C9.4585 8.56934 9.06731 8.7227 8.70517 8.93156L8.72623 8.50476C9.08859 8.29575 9.48005 8.14234 9.88748 8.04969C10.2721 7.95928 10.6653 7.911 11.0601 7.90571C11.3393 7.90173 11.6184 7.91797 11.8952 7.95433C12.0824 7.97886 12.2682 8.01299 12.4519 8.0566L12.4855 8.0645C12.5353 8.07732 12.584 8.09398 12.6312 8.11433Z" fill="#FB8950"/>
<path d="M8.72462 8.505L8.70356 8.9318C8.367 9.12218 8.07758 9.38626 7.85706 9.70421L7.87856 9.27774C8.09868 8.95951 8.38799 8.69527 8.72462 8.505Z" fill="#FB8950"/>
<path d="M10.6328 9.7041L10.611 10.131C10.5862 10.631 9.74715 11.1107 9.72577 11.5351L9.74716 11.1079C9.76677 10.6821 10.6072 10.2042 10.6328 9.7041Z" fill="#FB8950"/>
<path d="M10.6328 9.7041L10.611 10.131C10.5862 10.631 9.74715 11.1107 9.72577 11.5351L9.74716 11.1079C9.76854 10.6834 10.6072 10.2042 10.6328 9.7041Z" fill="#FB8950"/>
<path d="M11.6016 9.7666L11.5797 10.1935C11.5588 10.6183 10.7197 11.0972 10.6949 11.5972L10.7159 11.1704C10.7411 10.67 11.5802 10.1911 11.6016 9.7666Z" fill="#FB8950"/>
<path d="M11.6016 9.76562L11.5797 10.1925C11.5588 10.6173 10.7197 11.0962 10.6949 11.5962L10.7159 11.1694C10.7411 10.669 11.5802 10.1901 11.6016 9.76562Z" fill="#FB8950"/>
<path d="M16.2969 11.2451L16.2758 11.6719C16.2508 11.7318 16.223 11.7918 16.1931 11.8508C16.1566 11.9223 16.116 11.9927 16.0717 12.0626L16.0931 11.6353C16.137 11.5659 16.1776 11.4955 16.2145 11.4235C16.2444 11.3645 16.2723 11.3054 16.2969 11.2451Z" fill="#FB8950"/>
<path d="M16.2969 11.2451L16.2758 11.6719C16.2508 11.7318 16.223 11.7918 16.1931 11.8508C16.1566 11.9223 16.116 11.9927 16.0717 12.0626L16.0931 11.6353C16.137 11.5659 16.1776 11.4955 16.2145 11.4235C16.2444 11.3645 16.2723 11.3054 16.2969 11.2451Z" fill="#FB8950"/>
<path d="M9.84535 11.5148L9.86719 11.0879L9.86666 11.107C9.86719 11.2779 9.91601 11.445 10.0075 11.5889L9.98598 12.0153C9.89433 11.8717 9.84538 11.7047 9.84482 11.5339L9.84535 11.5148Z" fill="#FB8950"/>
<path d="M10.0075 11.5879L9.98598 12.0144C9.89433 11.8707 9.84538 11.7038 9.84482 11.5329L9.84535 11.5138L9.86719 11.0869L9.86666 11.106C9.86719 11.2769 9.91601 11.444 10.0075 11.5879Z" fill="#FB8950"/>
<path d="M11.598 11.6855L11.577 12.1123C11.5354 12.0761 11.4977 12.0357 11.4643 11.9919L11.4844 11.5664C11.5184 11.6096 11.5564 11.6495 11.598 11.6855Z" fill="#FB8950"/>
<path d="M11.598 11.6865L11.577 12.1133C11.5354 12.077 11.4977 12.0367 11.4643 11.9929L11.4844 11.5674C11.5179 11.6112 11.5555 11.6516 11.5967 11.6882" fill="#FB8950"/>
<path d="M12.9953 10.5L12.9738 10.9265C12.9477 11.4456 12.506 11.9075 11.8114 12.1384L11.8328 11.7112C12.527 11.4807 12.9695 11.0187 12.9953 10.5Z" fill="#FB8950"/>
<path d="M12.9919 10.4985L12.9704 10.925C12.9511 11.319 12.6927 11.6785 12.2678 11.9292L12.2892 11.502C12.7148 11.2503 12.9731 10.8901 12.9922 10.498" fill="#FB8950"/>
<path d="M12.295 11.5032L12.2736 11.9305C12.1283 12.0153 11.9745 12.0844 11.8148 12.1368L11.8362 11.7096C11.996 11.6573 12.1498 11.5881 12.295 11.5032Z" fill="#FB8950"/>
<path d="M11.8292 11.7111L11.8079 12.1383C11.7585 12.1544 11.7079 12.1664 11.6566 12.1742L11.6776 11.7474C11.729 11.7392 11.7797 11.7271 11.8292 11.7111Z" fill="#FB8950"/>
<path d="M11.8292 11.7111L11.8079 12.1383C11.7585 12.1544 11.7079 12.1664 11.6566 12.1742L11.6776 11.7474C11.729 11.7392 11.7797 11.7271 11.8292 11.7111Z" fill="#FB8950"/>
<path d="M10.8094 11.5759L10.8308 11.1487C10.8261 11.2445 10.852 11.3392 10.9047 11.4191C10.9464 11.4824 10.9969 11.5394 11.0546 11.5885C11.2362 11.7455 11.4855 11.7675 11.6808 11.7459L11.6597 12.1727C11.4641 12.1947 11.2148 12.1728 11.0331 12.015C10.9751 11.9662 10.9245 11.9093 10.8828 11.846C10.8308 11.7659 10.8051 11.6715 10.8094 11.5759Z" fill="#FB8950"/>
<path d="M11.6774 11.7465L11.6564 12.1733C11.4981 12.1945 11.3372 12.1746 11.1891 12.1154L11.2105 11.6882C11.3584 11.7473 11.5192 11.7674 11.6774 11.7465Z" fill="#FB8950"/>
<path d="M11.2117 11.6887L11.1903 12.1159C11.1323 12.091 11.0786 12.0573 11.0309 12.0161C10.9729 11.9673 10.9223 11.9104 10.8806 11.8471C10.8283 11.767 10.8025 11.6724 10.8067 11.5767L10.8281 11.1494C10.8235 11.2452 10.8494 11.3399 10.902 11.4198C10.9437 11.4831 10.9942 11.5402 11.052 11.5893C11.0998 11.63 11.1535 11.6634 11.2112 11.6884" fill="#FB8950"/>
<path d="M11.2863 11.7616L11.2644 12.1885L11.2419 12.1918L11.2634 11.7653L11.2863 11.7616Z" fill="#FB8950"/>
<path d="M11.2863 11.7616L11.2644 12.1885L11.2419 12.1918L11.2634 11.7653L11.2863 11.7616Z" fill="#FB8950"/>
<path d="M10.1077 11.7197L10.0867 12.1465C10.0495 12.1054 10.0159 12.0612 9.98631 12.0144L10.0078 11.5879C10.0374 11.6345 10.0708 11.6786 10.1077 11.7197Z" fill="#FB8950"/>
<path d="M10.1077 11.7206L10.0867 12.1474C10.0495 12.1064 10.0159 12.0622 9.98631 12.0153L10.0078 11.5889C10.0374 11.6355 10.0708 11.6796 10.1077 11.7206Z" fill="#FB8950"/>
<path d="M10.1826 11.7358L10.1611 12.1622L10.0835 12.1463L10.1046 11.7195L10.1826 11.7358Z" fill="#FB8950"/>
<path d="M10.1826 11.7358L10.1611 12.1622L10.0835 12.1463L10.1046 11.7195L10.1826 11.7358Z" fill="#FB8950"/>
<path d="M10.2272 11.7436L10.2053 12.1706L10.1943 12.1686L10.2157 11.7413L10.2272 11.7436Z" fill="#FB8950"/>
<path d="M10.2272 11.7446L10.2053 12.1715L10.1943 12.1695L10.2157 11.7423L10.2272 11.7446Z" fill="#FB8950"/>
<path d="M11.2569 11.768L11.2354 12.1945C11.0585 12.2186 10.8799 12.2282 10.7016 12.2231L10.723 11.7958C10.9013 11.801 11.0799 11.7917 11.2569 11.768Z" fill="#FB8950"/>
<path d="M11.2569 11.767L11.2354 12.1935C11.0585 12.2176 10.8799 12.2272 10.7016 12.2221L10.723 11.7949C10.9013 11.8 11.0799 11.7907 11.2569 11.767Z" fill="#FB8950"/>
<path d="M10.6687 11.7936L10.6472 12.2201C10.6293 12.2199 10.6109 12.2185 10.5929 12.2175L10.6147 11.7906L10.6687 11.7936Z" fill="#FB8950"/>
<path d="M10.6687 11.7936L10.6472 12.2201C10.6293 12.2199 10.6109 12.2185 10.5929 12.2175L10.6147 11.7906L10.6687 11.7936Z" fill="#FB8950"/>
<path d="M10.7266 11.7949L10.7052 12.2222L10.6998 12.2348L10.7212 11.8076C10.7232 11.8035 10.725 11.7992 10.7266 11.7949Z" fill="#FB8950"/>
<path d="M10.7266 11.7949L10.7052 12.2222L10.6998 12.2348L10.7212 11.8076C10.7232 11.8035 10.725 11.7992 10.7266 11.7949Z" fill="#FB8950"/>
<path d="M10.7266 11.8877L10.6529 12.313L10.646 12.3251L10.7197 11.8999L10.7266 11.8877Z" fill="#FB8950"/>
<path d="M10.7266 11.8877L10.6547 12.3121L10.646 12.3251L10.7183 11.901L10.7266 11.8877Z" fill="#FB8950"/>
<path d="M10.3216 11.8987L10.3005 12.3255C10.2213 12.2768 10.1496 12.2167 10.0879 12.1472L10.1094 11.7207C10.1714 11.7897 10.2428 11.8496 10.3216 11.8987Z" fill="#FB8950"/>
<path d="M10.3216 11.8997L10.3005 12.3265C10.2213 12.2778 10.1496 12.2177 10.0879 12.1481L10.1094 11.7217C10.1715 11.7908 10.2431 11.8509 10.322 11.9" fill="#FB8950"/>
<path d="M10.1029 11.8843L10.0815 12.3115C9.85914 12.2614 9.64324 12.1864 9.43784 12.088C9.07715 11.9145 8.79412 11.6803 8.62682 11.4141C8.5857 11.3487 8.55054 11.2798 8.52178 11.2081L8.54361 10.7811C8.57166 10.853 8.6067 10.9219 8.64821 10.9868C8.81673 11.2533 9.09954 11.4887 9.4589 11.6612C9.6645 11.7593 9.88049 11.8342 10.1029 11.8843Z" fill="#FB8950"/>
<path d="M10.1053 11.8852L10.0839 12.3124C9.89687 12.2704 9.71429 12.2108 9.53857 12.1344L9.55997 11.7071C9.73565 11.7836 9.91824 11.8432 10.1053 11.8852Z" fill="#FB8950"/>
<path d="M9.5608 11.7063L9.5394 12.1336C9.50604 12.1189 9.47301 12.1037 9.4411 12.0881C9.08041 11.9146 8.79738 11.6804 8.63008 11.4142C8.58896 11.3488 8.5538 11.2799 8.52504 11.2082L8.54688 10.7812C8.57492 10.8531 8.60996 10.922 8.65147 10.9869C8.81999 11.2534 9.1028 11.4888 9.46216 11.6613C9.49485 11.6768 9.52744 11.6916 9.5608 11.7063Z" fill="#FB8950"/>
<path d="M10.7011 11.8337L10.6793 12.2607C10.657 12.2858 10.6296 12.3058 10.5989 12.3194C10.5682 12.3329 10.5349 12.3397 10.5014 12.3392L10.5228 11.912C10.5564 11.9126 10.5897 11.9059 10.6205 11.8924C10.6513 11.8789 10.6788 11.8589 10.7011 11.8337Z" fill="#FB8950"/>
<path d="M10.7055 11.8348L10.6837 12.2617C10.6709 12.2792 10.6547 12.2938 10.6361 12.3046L10.6575 11.8774C10.6761 11.8665 10.6924 11.852 10.7055 11.8348Z" fill="#FB8950"/>
<path d="M10.6519 11.8749L10.6305 12.3022C10.5902 12.3236 10.5457 12.3358 10.5002 12.3378L10.5216 11.9106C10.5671 11.9087 10.6117 11.8965 10.6519 11.8749Z" fill="#FB8950"/>
<path d="M10.0748 11.8903L10.1101 12.3814L10.0348 12.3583L9.9998 11.8667L10.0748 11.8903Z" fill="#FB8950"/>
<path d="M10.3924 11.9078L10.3714 12.3346L10.3023 12.325L10.3233 11.8982L10.3924 11.9078Z" fill="#FB8950"/>
<path d="M10.3924 11.9078L10.3714 12.3346L10.3023 12.325L10.3233 11.8982L10.3924 11.9078Z" fill="#FB8950"/>
<path d="M10.526 11.9095L10.5047 12.3367C10.4589 12.3406 10.4128 12.34 10.3672 12.3349L10.3882 11.9081C10.434 11.9129 10.4802 11.9133 10.526 11.9095Z" fill="#FB8950"/>
<path d="M10.526 11.9095L10.5047 12.3367C10.4589 12.3406 10.4128 12.34 10.3672 12.3349L10.3882 11.9081C10.434 11.9129 10.4802 11.9133 10.526 11.9095Z" fill="#FB8950"/>
<path d="M8.82973 13.2502L8.85156 12.8232C8.84901 12.8924 8.868 12.9606 8.90591 13.0183C8.99754 13.1452 9.13019 13.2366 9.28155 13.2769L9.32048 13.2888L9.29942 13.7156L9.25972 13.7038C9.10857 13.6634 8.97617 13.572 8.88485 13.4451C8.84669 13.3875 8.82743 13.3194 8.82973 13.2502Z" fill="#FB8950"/>
<path d="M9.31719 13.2891L9.29613 13.7159L9.25643 13.7041C9.22515 13.6943 9.19443 13.6827 9.16441 13.6696L9.18547 13.2428C9.21555 13.2557 9.24648 13.2671 9.27827 13.2771L9.31719 13.2891Z" fill="#FB8950"/>
<path d="M9.18876 13.2425L9.1677 13.6693C9.05328 13.6242 8.95487 13.5462 8.88485 13.4451C8.84669 13.3875 8.82743 13.3194 8.82973 13.2502L8.85156 12.8232C8.84901 12.8924 8.868 12.9606 8.90591 13.0183C8.97593 13.1194 9.07434 13.1974 9.18876 13.2425Z" fill="#FB8950"/>
<path d="M16.087 11.6353L16.0656 12.0626C15.5643 12.8504 14.5783 13.5003 13.2353 13.8198C11.9327 14.1202 10.5766 14.0843 9.29443 13.7154L9.31549 13.2885C10.5982 13.6568 11.9548 13.6922 13.2577 13.3912C14.5994 13.0735 15.584 12.4254 16.087 11.6353Z" fill="#FB8950"/>
<path d="M16.0844 11.6354L16.063 12.0627C15.7929 12.4866 15.3842 12.8715 14.8525 13.1847L14.8739 12.7574C15.4047 12.4436 15.8156 12.0603 16.0844 11.6354Z" fill="#FB8950"/>
<path d="M14.8775 12.7568L14.8561 13.184C14.3504 13.4756 13.8041 13.6895 13.2354 13.8186C11.9328 14.119 10.5767 14.083 9.29455 13.7141L9.31561 13.2873C10.5986 13.656 11.9555 13.6915 13.2587 13.3906C13.8272 13.2616 14.3732 13.0474 14.8785 12.7555" fill="#FB8950"/>
<path d="M11.8361 11.7475C11.7848 11.7631 11.7322 11.7748 11.6788 11.7823C11.4757 11.8012 11.2155 11.7743 11.0237 11.6091C10.9627 11.5575 10.9091 11.4977 10.8646 11.4317C10.4596 10.8033 11.6938 10.2195 11.681 9.69829C11.6778 9.52169 11.6243 9.34815 11.5267 9.19769C11.4508 9.08111 11.353 8.97986 11.2387 8.89972L11.3014 8.91361C11.5333 8.96783 11.7591 9.04762 11.9744 9.15147C12.3535 9.33626 12.653 9.58395 12.8309 9.86082C12.8752 9.92879 12.913 10.0006 12.9439 10.0752C13.2297 10.7851 12.7486 11.4604 11.8361 11.7475ZM12.1417 9.37345C12.205 9.48653 12.2445 9.61063 12.2579 9.73806C12.2445 9.61063 12.205 9.48653 12.1417 9.37345ZM11.4723 11.5919C11.5077 11.6379 11.5476 11.6803 11.5913 11.7186C11.5478 11.6801 11.5079 11.6377 11.4723 11.5919Z" fill="#FFE26C"/>
<path d="M9.94381 11.594C10.0193 11.7108 10.1163 11.8126 10.2296 11.8939L10.1673 11.8796C9.93498 11.8243 9.70891 11.7435 9.49328 11.6389C9.11542 11.4543 8.81682 11.2073 8.63827 10.9299C8.59399 10.8623 8.55638 10.7906 8.52599 10.716C8.2382 10.0083 8.72227 9.33099 9.63374 9.04319C9.68511 9.02777 9.73771 9.01635 9.79108 9.00903C9.99356 8.98969 10.2534 9.01645 10.445 9.1814C10.5058 9.2331 10.5593 9.29276 10.6039 9.35867C11.011 9.98863 9.77473 10.5716 9.78727 11.0925C9.79101 11.2697 9.84529 11.4436 9.94381 11.594Z" fill="#FFE26C"/>
<path d="M11.332 11.7497L11.3091 11.7527C11.1314 11.772 10.9518 11.777 10.7721 11.7677C10.7706 11.772 10.7689 11.7761 10.767 11.7802L10.7591 11.7906L10.751 11.8014C10.729 11.8253 10.7019 11.844 10.6716 11.8563C10.6412 11.8686 10.6082 11.8742 10.5749 11.8727C10.5288 11.8755 10.4823 11.8739 10.4361 11.8681L10.3662 11.857C10.2856 11.8063 10.2121 11.7449 10.1479 11.6748L10.2263 11.6924L10.1474 11.6744C10.1093 11.6328 10.0746 11.5882 10.0437 11.5412C9.94817 11.396 9.89505 11.2289 9.89046 11.0592C9.87398 10.5571 11.0658 10.0054 10.6673 9.39572C10.624 9.33167 10.5718 9.27377 10.5123 9.22383C10.4008 9.1315 10.2652 9.07335 10.123 9.05698L10.1898 9.04951C10.3688 9.02953 10.5499 9.02422 10.731 9.03366C10.7635 8.96975 10.8373 8.9417 10.9292 8.93681C10.9748 8.9352 11.0205 8.93761 11.066 8.94403C11.0912 8.94739 11.112 8.95009 11.134 8.95381C11.1422 8.95997 11.1549 8.96954 11.1713 8.98185C11.2818 9.06023 11.377 9.15827 11.4516 9.27062C11.5471 9.41576 11.5999 9.58295 11.604 9.7527C11.6205 10.2547 10.4287 10.8065 10.8272 11.4162C10.8705 11.4802 10.9227 11.5381 10.9822 11.588C11.0827 11.6724 11.2038 11.7284 11.332 11.7497ZM10.7194 11.764L10.665 11.7598L10.7182 11.7638L10.7194 11.764ZM10.7806 9.0377L10.7833 9.03975C10.7873 9.03455 10.7885 9.02729 10.7911 9.02184C10.7876 9.02661 10.7836 9.03181 10.7833 9.03975L10.7806 9.0377ZM10.2549 11.7017L10.2665 11.7043L10.2549 11.7017Z" fill="#FFE26C"/>
<path d="M16.0931 11.7028C15.6017 12.4779 14.6263 13.1109 13.292 13.4125C11.9973 13.696 10.6458 13.646 9.36429 13.2674L9.32539 13.2552C9.17416 13.2137 9.04102 13.1218 8.94837 12.9951C8.90752 12.9357 8.88775 12.8647 8.89227 12.7936C8.89679 12.7224 8.92534 12.6553 8.97328 12.6031C9.06953 12.4974 9.19805 12.4262 9.33969 12.3999C9.52301 12.3598 9.71437 12.3669 9.89581 12.4205C10.8184 12.6955 11.7922 12.7327 12.7249 12.5285C13.081 12.4508 13.4248 12.3276 13.7477 12.162C13.945 12.0597 14.1301 11.9361 14.2996 11.7932C14.3994 11.7095 14.492 11.6176 14.5763 11.5184C14.5951 11.4935 14.6139 11.4686 14.6323 11.4442C14.6658 11.3925 14.683 11.3319 14.6817 11.2699C14.6803 11.208 14.6605 11.1475 14.6247 11.0962C14.5822 11.0323 14.5267 10.9779 14.462 10.9365C14.2965 10.825 14.1384 10.7029 13.9887 10.571C13.8968 10.4894 13.8096 10.4053 13.7284 10.3188C13.5877 10.1701 13.4612 10.0087 13.3506 9.83684C13.2474 9.67733 13.1615 9.50766 13.0941 9.33069C13.0585 9.23681 13.0293 9.14073 13.0068 9.04312C12.9716 8.89421 12.9527 8.74221 12.9504 8.58979L12.95 8.56623C12.9468 8.50672 12.9275 8.44889 12.8942 8.39887C12.8119 8.26842 12.6512 8.17267 12.4643 8.12286L12.4307 8.11468C12.2473 8.06954 12.0618 8.03375 11.875 8.00747C11.5989 7.96851 11.3206 7.94945 11.0424 7.95041C10.6492 7.95143 10.258 7.99503 9.87577 8.08045C8.93717 8.29268 8.24617 8.73324 7.88902 9.27474C7.81397 9.3873 7.67702 9.47375 7.492 9.51576C7.32714 9.55192 7.15549 9.54998 6.99018 9.51007C6.79252 9.46246 6.62286 9.36474 6.53637 9.22973C6.50118 9.17889 6.48154 9.11917 6.47987 9.05793C6.4782 8.99669 6.49457 8.93662 6.52696 8.88511C7.0419 8.10923 8.00426 7.49727 9.3118 7.20156C10.6306 6.91242 12.0082 6.97006 13.3099 7.36885C13.4225 7.40442 13.5322 7.44143 13.639 7.47987C13.7263 7.51142 13.8121 7.5446 13.8965 7.57942L13.9614 7.6126C14.1168 7.69318 14.25 7.81098 14.3488 7.95518C14.4138 8.05329 14.4487 8.16771 14.4493 8.28428C14.4376 8.33565 14.4287 8.38765 14.4226 8.44007C14.383 8.823 14.4812 9.20985 14.6997 9.53212C14.9356 9.89814 15.2893 10.2105 15.7199 10.4597L15.7539 10.4784C15.7932 10.5012 15.8335 10.5227 15.8745 10.544C16.0076 10.6213 16.1216 10.7278 16.2075 10.8552C16.2884 10.9742 16.3224 11.1182 16.3027 11.259C16.2999 11.2777 16.2959 11.2962 16.2909 11.3144C16.2671 11.3738 16.2399 11.4321 16.2107 11.4902C16.1758 11.5652 16.1361 11.6346 16.0931 11.7028ZM12.5104 7.65094L12.5148 7.6543L12.5117 7.65195L12.4897 7.64697L12.51 7.65138" fill="#FFE26C"/>
<path d="M0.015625 6.62636L22.6474 6.51562L22.6627 9.71014L22.6663 9.79998C22.6857 13.4401 17.6323 16.4145 11.384 16.4452C5.13571 16.4759 0.0446741 13.5484 0.0368787 9.91132C0.0441596 9.8836 0.0381814 9.84993 0.0385321 9.82039L0.015625 6.62636Z" fill="url(#paint18_linear_10989_20379)"/>
<g style="mix-blend-mode:multiply">
<path d="M22.6552 9.28539L22.6559 9.37692L22.65 9.28648L22.6552 9.28539Z" fill="url(#paint19_linear_10989_20379)" style="mix-blend-mode:multiply"/>
<path d="M11.3689 15.7393C17.6195 15.7093 22.6706 12.7342 22.6535 9.09473L22.6572 9.71058L22.6608 9.80042C22.6802 13.4405 17.6268 16.415 11.3785 16.4456C5.1302 16.4763 0.0391624 13.5488 0.0313672 9.91176C0.0386481 9.88404 0.0326699 9.85037 0.0330207 9.82083L0.0287222 9.20729C0.0388274 12.8449 5.12062 15.77 11.3689 15.7393Z" fill="url(#paint20_linear_10989_20379)" style="mix-blend-mode:multiply"/>
<path d="M0.0240895 9.48751L0.0234439 9.39597C0.0254034 9.42612 0.02213 9.45736 0.0240895 9.48751Z" fill="url(#paint21_linear_10989_20379)" style="mix-blend-mode:multiply"/>
</g>
<g style="mix-blend-mode:multiply">
<path d="M7.91199 16.1434C7.80572 16.1154 7.70176 16.0882 7.59356 16.077L7.55387 7.71007L7.87019 7.70917L7.91199 16.1434Z" fill="#FCEC7C"/>
<path d="M6.48733 15.8135C6.38107 15.7856 6.27481 15.7577 6.16854 15.7298L6.13157 7.71914L6.44789 7.71827L6.48733 15.8135Z" fill="#FCEC7C"/>
<path d="M5.06417 15.3558C4.95461 15.3122 4.84165 15.2628 4.74657 15.2205L4.71044 7.72374L5.02677 7.72287L5.06417 15.3558Z" fill="#FCEC7C"/>
<path d="M9.33435 16.3415C9.22846 16.3309 9.12196 16.3227 9.01668 16.3099L8.97347 7.70245L9.29209 7.70219L9.33435 16.3415Z" fill="#FCEC7C"/>
<path d="M2.21311 13.7622C2.10463 13.6769 1.99615 13.5916 1.8935 13.5029L1.86696 7.73722L2.18328 7.73635L2.21311 13.7622Z" fill="#FCEC7C"/>
<path d="M0.784187 12.2362C0.665311 12.0567 0.558565 11.8695 0.464678 11.6757L0.445312 7.74425L0.761635 7.74338L0.784187 12.2362Z" fill="#FCEC7C"/>
<path d="M3.6399 14.6954C3.53398 14.6379 3.42223 14.5839 3.32215 14.523L3.28868 7.73072L3.60501 7.72982L3.6399 14.6954Z" fill="#FCEC7C"/>
<path d="M10.7559 16.4283C10.6505 16.4254 10.5421 16.4241 10.439 16.4217L10.3977 7.70365L10.7164 7.70338L10.7559 16.4283Z" fill="#FCEC7C"/>
<path d="M12.1767 16.4164C12.0718 16.421 11.9669 16.4255 11.8603 16.4272L11.8169 7.68883L12.1355 7.68854L12.1767 16.4164Z" fill="#FCEC7C"/>
<path d="M15.0164 16.0783C14.9095 16.0996 14.8067 16.1245 14.6998 16.1458L14.6584 7.68206L14.9747 7.68118L15.0164 16.0783Z" fill="#FCEC7C"/>
<path d="M13.5984 16.3058C13.4939 16.3179 13.3861 16.3241 13.2823 16.3339L13.2391 7.67953L13.5577 7.67927L13.5984 16.3058Z" fill="#FCEC7C"/>
<path d="M16.4435 15.7121C16.3389 15.7439 16.2342 15.7757 16.1279 15.8045L16.0878 7.66469L16.4041 7.66379L16.4435 15.7121Z" fill="#FCEC7C"/>
<path d="M22.1069 11.8533C22.0104 12.0276 21.9049 12.1969 21.791 12.3605L21.7688 7.64052L22.0851 7.63965L22.1069 11.8533Z" fill="#FCEC7C"/>
<path d="M20.6921 13.5363C20.5932 13.6214 20.4827 13.7035 20.3798 13.7852L20.3495 7.64809L20.6658 7.64722L20.6921 13.5363Z" fill="#FCEC7C"/>
<path d="M17.8572 15.2191C17.7524 15.2607 17.647 15.3046 17.5399 15.3456L17.5037 7.66116L17.82 7.66029L17.8572 15.2191Z" fill="#FCEC7C"/>
<path d="M19.2764 14.5253C19.1743 14.5849 19.0636 14.6398 18.9616 14.6895L18.9271 7.64752L19.2434 7.64665L19.2764 14.5253Z" fill="#FCEC7C"/>
</g>
<path d="M11.2836 0.000242917C17.5334 -0.0306792 22.6144 2.89449 22.6324 6.5338C22.6504 10.1731 17.5986 13.1484 11.3488 13.1794C5.09908 13.2103 0.0180547 10.2851 4.79873e-05 6.64578C-0.0179586 3.00647 5.03387 0.0311651 11.2836 0.000242917Z" fill="url(#paint22_linear_10989_20379)"/>
<path style="mix-blend-mode:screen" d="M11.3594 13.0292C17.4761 13.001 22.4313 10.1464 22.6257 6.60449C22.63 6.68217 22.6477 6.75594 22.6468 6.83471C22.6638 10.4742 17.6134 13.4469 11.3645 13.4799C5.11556 13.5129 0.0257305 10.5808 0.015625 6.94313C0.0159536 6.86667 0.0307519 6.79155 0.0357007 6.7163C0.258989 10.2568 5.24202 13.0597 11.3594 13.0292Z" fill="url(#paint23_radial_10989_20379)"/>
<path d="M11.2947 1.66424C15.9669 1.64113 19.7653 3.82732 19.7788 6.54724C19.7922 9.26716 16.0156 11.4908 11.3435 11.5139C6.67131 11.5371 2.87287 9.35087 2.85941 6.63095C2.84595 3.91103 6.62258 1.68736 11.2947 1.66424Z" fill="url(#paint24_linear_10989_20379)"/>
<path style="mix-blend-mode:screen" d="M11.0251 1.94113C6.50793 1.96222 2.83698 4.04531 2.61088 6.6455C2.60439 6.55736 2.58744 6.47142 2.58607 6.39204C2.56047 3.66894 6.35232 1.45464 11.0196 1.42606C15.687 1.39747 19.4896 3.589 19.5031 6.31137C19.502 6.39999 19.4888 6.48788 19.4808 6.57468C19.2355 3.96426 15.5458 1.91602 11.0251 1.94113Z" fill="url(#paint25_radial_10989_20379)"/>
<path d="M11.3086 2.21886C6.78848 2.24166 3.12044 4.32304 2.89434 6.92323C2.88493 6.8368 2.87091 6.74916 2.86723 6.66917C2.85318 3.94911 6.63349 1.73177 11.3037 1.70148C15.9739 1.67119 19.7708 3.86612 19.7848 6.58618C19.7861 6.67541 19.7706 6.7627 19.7643 6.85242C19.516 4.2437 15.8258 2.19776 11.3086 2.21886Z" fill="#FB8950"/>
<path style="mix-blend-mode:color-dodge" d="M16.6267 9.99142C19.165 9.11379 21.5748 9.42106 22.0093 10.6777C22.4438 11.9343 20.7384 13.6645 18.2002 14.5421C15.662 15.4197 13.2521 15.1125 12.8176 13.8559C12.3831 12.5992 14.0885 10.869 16.6267 9.99142Z" fill="url(#paint26_radial_10989_20379)"/>
<path d="M12.5429 3.80667L12.5215 4.23392L12.518 4.23125L12.4963 4.2268L12.5174 3.8L12.5395 3.80478L12.5429 3.80667Z" fill="#FB8950"/>
<path d="M12.5429 3.80667L12.5215 4.23392L12.518 4.23125L12.4963 4.2268L12.5174 3.8L12.5395 3.80478L12.5426 3.80712" fill="#FB8950"/>
<path d="M14.4766 4.42871L14.4552 4.85596C14.4429 4.9081 14.4332 4.96068 14.4262 5.01327L14.448 4.58635C14.4547 4.53334 14.4642 4.48072 14.4766 4.42871Z" fill="#FB8950"/>
<path d="M14.4766 4.42871L14.4552 4.85596C14.4429 4.9081 14.4332 4.96068 14.4262 5.01327L14.448 4.58635C14.4547 4.53334 14.4642 4.48072 14.4766 4.42871Z" fill="#FB8950"/>
<path d="M14.4217 5.12692L14.4431 4.69967C14.4449 4.66132 14.4484 4.62351 14.4531 4.58594L14.4313 5.01285C14.4257 5.05254 14.4235 5.08856 14.4217 5.12692Z" fill="#FB8950"/>
<path d="M14.4531 4.58691L14.4313 5.01383C14.427 5.05174 14.4235 5.08954 14.4217 5.12789L14.4431 4.70065C14.4449 4.66229 14.4484 4.62449 14.4531 4.58691Z" fill="#FB8950"/>
<path d="M10.8125 5.25L10.7914 5.6768C10.788 5.68269 10.785 5.68882 10.7825 5.69515L10.8043 5.26823C10.8088 5.26323 10.8115 5.25689 10.8125 5.25Z" fill="#FB8950"/>
<path d="M10.8125 5.25L10.7914 5.6768C10.788 5.68269 10.785 5.68882 10.7825 5.69515L10.8043 5.26823C10.8083 5.26289 10.8097 5.25556 10.8125 5.25Z" fill="#FB8950"/>
<path d="M10.9003 5.24844L10.8194 5.68253L10.8157 5.68288L10.8969 5.24906L10.9003 5.24844Z" fill="#FB8950"/>
<path d="M11.3363 5.3284L11.2554 5.76558L11.3356 5.32862L11.3363 5.3284Z" fill="#FB8950"/>
<path d="M11.2427 5.31448L11.2422 5.31445L11.2207 5.74147L11.2213 5.7415L11.2427 5.31448Z" fill="#FB8950"/>
<path d="M10.5232 5.46386L10.5013 5.89077C10.393 5.80029 10.2597 5.74502 10.1189 5.73228L10.1403 5.30503C10.2811 5.31815 10.4146 5.37351 10.5232 5.46386Z" fill="#FB8950"/>
<path d="M10.5247 5.46416L10.5028 5.89107C10.455 5.8497 10.4011 5.81591 10.343 5.79087L10.3644 5.36362C10.4227 5.38878 10.4767 5.42268 10.5247 5.46416Z" fill="#FB8950"/>
<path d="M10.3653 5.36541L10.3439 5.79266C10.273 5.76244 10.198 5.74279 10.1213 5.73436L10.1427 5.30711C10.2194 5.3158 10.2943 5.33543 10.3653 5.36541Z" fill="#FB8950"/>
<path d="M10.7547 5.90632L10.7333 6.33356C10.7377 6.23777 10.7119 6.14313 10.6594 6.06317C10.6182 5.99945 10.5676 5.94233 10.5094 5.89371L10.5312 5.4668C10.5892 5.51569 10.6397 5.57277 10.6812 5.63626C10.7333 5.71628 10.7589 5.81071 10.7547 5.90632Z" fill="#FB8950"/>
<path d="M10.7547 5.90632L10.7333 6.33356C10.7377 6.23777 10.7119 6.14313 10.6594 6.06317C10.6182 5.99945 10.5676 5.94233 10.5094 5.89371L10.5312 5.4668C10.5892 5.51569 10.6397 5.57277 10.6812 5.63626C10.7335 5.71632 10.7593 5.81088 10.7551 5.90665" fill="#FB8950"/>
<path d="M12.2698 5.98144L12.2487 6.40824C12.2379 6.28494 12.202 6.16528 12.143 6.05668L12.1641 5.62988C12.223 5.73848 12.259 5.85814 12.2698 5.98144Z" fill="#FB8950"/>
<path d="M12.2698 5.98242L12.2487 6.40922C12.2379 6.28592 12.202 6.16626 12.143 6.05766L12.1641 5.63086C12.223 5.73946 12.259 5.85912 12.2698 5.98242Z" fill="#FB8950"/>
<path d="M11.716 5.96876L11.6946 6.39601L11.6947 6.37655C11.6945 6.20568 11.6459 6.03858 11.5546 5.89458C11.4835 5.78291 11.3913 5.68624 11.2832 5.60992L11.3043 5.18312C11.4127 5.25897 11.5051 5.35555 11.576 5.46733C11.6673 5.61161 11.7159 5.77896 11.7162 5.95009L11.716 5.96876Z" fill="#FB8950"/>
<path d="M11.716 5.96778L11.6946 6.39503L11.6947 6.37557C11.6945 6.20471 11.6459 6.0376 11.5546 5.8936C11.4835 5.78194 11.3913 5.68526 11.2832 5.60894L11.3043 5.18214C11.4127 5.25799 11.5051 5.35457 11.576 5.46636C11.6673 5.61063 11.7159 5.77799 11.7162 5.94911L11.716 5.96778Z" fill="#FB8950"/>
<path d="M6.44228 5.7001L6.46412 5.27319C6.46176 5.34223 6.48086 5.41022 6.51879 5.46775C6.60482 5.60229 6.77341 5.70005 6.97131 5.746C7.13683 5.78451 7.30911 5.78462 7.475 5.74631C7.66119 5.70187 7.7996 5.61307 7.87616 5.49857L7.85466 5.92504C7.75692 6.05526 7.61377 6.14387 7.45394 6.17311C7.28807 6.21164 7.11574 6.21153 6.95025 6.1728C6.75157 6.12696 6.58276 6.03043 6.4974 5.895C6.45948 5.83731 6.44023 5.76927 6.44228 5.7001Z" fill="#FB8950"/>
<path d="M7.87784 5.49932L7.85634 5.92579C7.81137 5.99117 7.75216 6.04549 7.6832 6.08463L7.70504 5.65772C7.77356 5.61829 7.83258 5.5642 7.87784 5.49932Z" fill="#FB8950"/>
<path d="M7.70466 5.65841L7.68282 6.08533C7.61197 6.12664 7.5352 6.15674 7.45524 6.17456C7.28938 6.21309 7.11705 6.21298 6.95155 6.17425C6.89198 6.16062 6.83376 6.14171 6.77757 6.11774L6.79719 5.68916C6.85319 5.71343 6.91132 5.73249 6.97084 5.74611C7.13636 5.78463 7.30864 5.78473 7.47453 5.74643C7.55463 5.72819 7.63159 5.69808 7.70288 5.65708" fill="#FB8950"/>
<path d="M6.79448 5.68929L6.77309 6.11654C6.66028 6.07196 6.56328 5.99498 6.49422 5.89525C6.4563 5.83756 6.43705 5.76952 6.4391 5.70035L6.46094 5.27344C6.45858 5.34248 6.47768 5.41046 6.51561 5.468C6.58469 5.56771 6.6817 5.64469 6.79448 5.68929Z" fill="#FB8950"/>
<path d="M8.44769 7.002L8.46875 6.5752C8.46228 6.72118 8.48701 6.86673 8.5413 7.00212L8.51946 7.42904C8.46541 7.29356 8.44094 7.14796 8.44769 7.002Z" fill="#FB8950"/>
<path d="M8.5413 7.00408L8.51946 7.43099C8.46541 7.29551 8.44094 7.14992 8.44769 7.00395L8.46875 6.57715C8.46228 6.72313 8.48702 6.86869 8.5413 7.00408Z" fill="#FB8950"/>
<path d="M16.3125 7.35254L16.2911 7.77978C16.2902 7.79964 16.288 7.81943 16.2846 7.83904C16.2817 7.85808 16.2777 7.87693 16.2726 7.89551L16.2937 7.46871C16.2989 7.45025 16.303 7.4315 16.3061 7.41257C16.3093 7.39267 16.3113 7.37255 16.3125 7.35254Z" fill="#FB8950"/>
<path d="M16.3125 7.35352L16.2911 7.78076C16.2902 7.80062 16.288 7.82041 16.2846 7.84001C16.2817 7.85905 16.2777 7.87791 16.2726 7.89649L16.2937 7.46969C16.2989 7.45123 16.303 7.43248 16.3061 7.41354C16.3093 7.39364 16.3113 7.37353 16.3125 7.35352Z" fill="#FB8950"/>
<path d="M14.6791 7.45884L14.6577 7.88609C14.6601 7.81705 14.641 7.74906 14.603 7.69152C14.5608 7.62773 14.5057 7.57344 14.4414 7.53207C14.2762 7.42162 14.1187 7.30013 13.9699 7.16843C13.8785 7.08704 13.792 7.00297 13.7114 6.91646C13.5719 6.76763 13.4467 6.60603 13.3373 6.43378C13.2352 6.27365 13.1507 6.10292 13.0852 5.92455C13.0505 5.83037 13.0223 5.7339 13.0008 5.63581C12.9669 5.48581 12.9495 5.33247 12.9491 5.17853L12.9489 5.15474C12.946 5.09482 12.9271 5.03684 12.8944 4.98674C12.8132 4.85588 12.6525 4.76057 12.4658 4.71262C12.4551 4.70939 12.4436 4.70705 12.4325 4.70427C12.2515 4.66081 12.0658 4.62686 11.8755 4.60245C11.5988 4.56571 11.3197 4.54946 11.0404 4.55383C10.6455 4.55862 10.2521 4.60679 9.86737 4.69748C8.92287 4.922 8.22489 5.3748 7.8604 5.92484L7.8819 5.49837C8.24629 4.94756 8.9447 4.49508 9.88921 4.27057C10.2739 4.18015 10.667 4.13187 11.0618 4.12658C11.3411 4.1226 11.6202 4.13885 11.8969 4.1752C12.0842 4.19973 12.27 4.23386 12.4536 4.27747L12.4872 4.28537C12.6743 4.33365 12.8336 4.42996 12.9158 4.5595C12.9487 4.60966 12.9674 4.66786 12.97 4.72794L12.9701 4.75173C12.9707 4.90565 12.9881 5.05898 13.0219 5.20901C13.0434 5.30736 13.0716 5.40409 13.1064 5.49853C13.1721 5.67655 13.2565 5.84699 13.3583 6.00698C13.4675 6.17939 13.5928 6.341 13.7324 6.48966C13.813 6.57617 13.8996 6.66024 13.991 6.74163C14.1398 6.87326 14.2972 6.99488 14.4621 7.10571C14.5267 7.14681 14.5817 7.20115 14.6238 7.26516C14.662 7.32225 14.6814 7.38999 14.6791 7.45884Z" fill="#FB8950"/>
<path d="M14.6811 7.45902L14.6597 7.88627C14.662 7.81722 14.6429 7.74924 14.605 7.6917C14.5627 7.6279 14.5077 7.57361 14.4434 7.53224C14.2782 7.4218 14.1207 7.30031 13.9719 7.16861C13.8805 7.08721 13.7939 7.00315 13.7134 6.91664C13.5739 6.7678 13.4486 6.60621 13.3392 6.43396C13.2372 6.27382 13.1527 6.1031 13.0872 5.92472C13.0525 5.83055 13.0243 5.73408 13.0028 5.63599C12.9689 5.48599 12.9515 5.33264 12.951 5.17871L12.9509 5.15492C12.948 5.095 12.9291 5.03702 12.8963 4.98692C12.8262 4.88566 12.7276 4.80752 12.613 4.76229L12.6349 4.33538C12.7493 4.3805 12.8477 4.45853 12.9177 4.55967C12.9507 4.60983 12.9694 4.66803 12.972 4.72811L12.9721 4.75191C12.9727 4.90583 12.9901 5.05916 13.0239 5.20919C13.0454 5.30753 13.0736 5.40427 13.1083 5.4987C13.174 5.67672 13.2585 5.84716 13.3603 6.00716C13.4695 6.17956 13.5947 6.34118 13.7344 6.48984C13.815 6.57635 13.9016 6.66041 13.9929 6.74181C14.1418 6.87344 14.2992 6.99506 14.4641 7.10589C14.5286 7.14699 14.5837 7.20132 14.6257 7.26534C14.664 7.32259 14.6832 7.3905 14.6807 7.45946" fill="#FB8950"/>
<path d="M12.6312 4.33699L12.6093 4.7639C12.5623 4.74367 12.5137 4.72712 12.4641 4.7144C12.4533 4.71118 12.4419 4.70884 12.4308 4.70606C12.2498 4.66259 12.0641 4.62865 11.8738 4.60423C11.5971 4.56749 11.3179 4.55124 11.0387 4.55561C10.6438 4.5604 10.2504 4.60858 9.86565 4.69926C9.4585 4.792 9.06731 4.94536 8.70517 5.15421L8.72623 4.72741C9.08859 4.5184 9.48005 4.365 9.88748 4.27235C10.2721 4.18193 10.6653 4.13365 11.0601 4.12837C11.3393 4.12438 11.6184 4.14063 11.8952 4.17699C12.0824 4.20151 12.2682 4.23565 12.4519 4.27926L12.4855 4.28715C12.5353 4.29998 12.584 4.31664 12.6312 4.33699Z" fill="#FB8950"/>
<path d="M8.72462 4.72766L8.70356 5.15446C8.367 5.34484 8.07758 5.60892 7.85706 5.92687L7.87856 5.5004C8.09868 5.18217 8.38799 4.91792 8.72462 4.72766Z" fill="#FB8950"/>
<path d="M10.6328 5.92773L10.611 6.35465C10.5862 6.8546 9.74715 7.33429 9.72577 7.75876L9.74716 7.33151C9.76677 6.90571 10.6072 6.4278 10.6328 5.92773Z" fill="#FB8950"/>
<path d="M10.6328 5.92773L10.611 6.35465C10.5862 6.8546 9.74715 7.33429 9.72577 7.75876L9.74716 7.33151C9.76854 6.90704 10.6072 6.4278 10.6328 5.92773Z" fill="#FB8950"/>
<path d="M11.6016 5.99023L11.5797 6.41715C11.5588 6.84195 10.7197 7.32085 10.6949 7.82081L10.7159 7.39401C10.7411 6.89361 11.5802 6.4147 11.6016 5.99023Z" fill="#FB8950"/>
<path d="M11.6016 5.98926L11.5797 6.41617C11.5588 6.84097 10.7197 7.31988 10.6949 7.81983L10.7159 7.39303C10.7411 6.89263 11.5802 6.41372 11.6016 5.98926Z" fill="#FB8950"/>
<path d="M16.2969 7.46875L16.2758 7.89555C16.2508 7.95547 16.223 8.01539 16.1931 8.07441C16.1566 8.14589 16.116 8.21637 16.0717 8.28618L16.0931 7.85894C16.137 7.78957 16.1776 7.7191 16.2145 7.64717C16.2444 7.58814 16.2723 7.529 16.2969 7.46875Z" fill="#FB8950"/>
<path d="M16.2969 7.46875L16.2758 7.89555C16.2508 7.95547 16.223 8.01539 16.1931 8.07441C16.1566 8.14589 16.116 8.21637 16.0717 8.28618L16.0931 7.85894C16.137 7.78957 16.1776 7.7191 16.2145 7.64717C16.2444 7.58814 16.2723 7.529 16.2969 7.46875Z" fill="#FB8950"/>
<path d="M9.84535 7.73843L9.86719 7.31152L9.86666 7.33064C9.86719 7.50154 9.91601 7.6686 10.0075 7.81251L9.98598 8.23898C9.89433 8.0953 9.84538 7.92836 9.84482 7.75756L9.84535 7.73843Z" fill="#FB8950"/>
<path d="M10.0075 7.81153L9.98598 8.238C9.89433 8.09432 9.84538 7.92738 9.84482 7.75658L9.84535 7.73746L9.86719 7.31055L9.86666 7.32967C9.86719 7.50056 9.91601 7.66762 10.0075 7.81153Z" fill="#FB8950"/>
<path d="M11.598 7.90913L11.577 8.33593C11.5354 8.2997 11.4977 8.25935 11.4643 8.21551L11.4844 7.79004C11.5184 7.83326 11.5564 7.87313 11.598 7.90913Z" fill="#FB8950"/>
<path d="M11.598 7.9101L11.577 8.33691C11.5354 8.30067 11.4977 8.26033 11.4643 8.21648L11.4844 7.79102C11.5179 7.83479 11.5555 7.87526 11.5967 7.91188" fill="#FB8950"/>
<path d="M12.9953 6.72361L12.9738 7.15008C12.9477 7.66927 12.506 8.13113 11.8114 8.36203L11.8328 7.93478C12.527 7.70433 12.9695 7.24236 12.9953 6.72361Z" fill="#FB8950"/>
<path d="M12.9919 6.72212L12.9704 7.1486C12.9511 7.5426 12.6927 7.9021 12.2678 8.15283L12.2892 7.72559C12.7148 7.47396 12.9731 7.11368 12.9922 6.72168" fill="#FB8950"/>
<path d="M12.295 7.72684L12.2736 8.15409C12.1283 8.2389 11.9745 8.30807 11.8148 8.36046L11.8362 7.93321C11.996 7.88095 12.1498 7.81177 12.295 7.72684Z" fill="#FB8950"/>
<path d="M11.8292 7.93374L11.8079 8.36099C11.7585 8.37701 11.7079 8.38902 11.6566 8.39687L11.6776 7.97007C11.729 7.96189 11.7797 7.94974 11.8292 7.93374Z" fill="#FB8950"/>
<path d="M11.8292 7.93374L11.8079 8.36099C11.7585 8.37701 11.7079 8.38902 11.6566 8.39687L11.6776 7.97007C11.729 7.96189 11.7797 7.94974 11.8292 7.93374Z" fill="#FB8950"/>
<path d="M10.8094 7.79954L10.8308 7.37229C10.8261 7.46811 10.852 7.56279 10.9047 7.64269C10.9464 7.70601 10.9969 7.76307 11.0546 7.81215C11.2362 7.96916 11.4855 7.99111 11.6808 7.96957L11.6597 8.39637C11.4641 8.41835 11.2148 8.39641 11.0331 8.23861C10.9751 8.18988 10.9245 8.13295 10.8828 8.0696C10.8308 7.98957 10.8051 7.89514 10.8094 7.79954Z" fill="#FB8950"/>
<path d="M11.6774 7.97112L11.6564 8.39792C11.4981 8.41911 11.3372 8.39917 11.1891 8.34003L11.2105 7.91278C11.3584 7.97195 11.5192 7.99203 11.6774 7.97112Z" fill="#FB8950"/>
<path d="M11.2117 7.91232L11.1903 8.33957C11.1323 8.31464 11.0786 8.28096 11.0309 8.2397C10.9729 8.19097 10.9223 8.13404 10.8806 8.07069C10.8283 7.99062 10.8025 7.89606 10.8067 7.8003L10.8281 7.37305C10.8235 7.46886 10.8494 7.56355 10.902 7.64344C10.9437 7.70676 10.9942 7.76382 11.052 7.8129C11.0998 7.85368 11.1535 7.88708 11.2112 7.91199" fill="#FB8950"/>
<path d="M11.2863 7.98526L11.2644 8.41217L11.2419 8.4154L11.2634 7.98893L11.2863 7.98526Z" fill="#FB8950"/>
<path d="M11.2863 7.98526L11.2644 8.41217L11.2419 8.4154L11.2634 7.98893L11.2863 7.98526Z" fill="#FB8950"/>
<path d="M10.1077 7.94231L10.0867 8.36911C10.0495 8.32806 10.0159 8.28386 9.98631 8.23702L10.0078 7.81055C10.0374 7.85717 10.0708 7.90125 10.1077 7.94231Z" fill="#FB8950"/>
<path d="M10.1077 7.94231L10.0867 8.36911C10.0495 8.32806 10.0159 8.28386 9.98631 8.23702L10.0078 7.81055C10.0374 7.85717 10.0708 7.90125 10.1077 7.94231Z" fill="#FB8950"/>
<path d="M10.1826 7.95939L10.1611 8.38585L10.0835 8.36994L10.1046 7.94314L10.1826 7.95939Z" fill="#FB8950"/>
<path d="M10.1826 7.95939L10.1611 8.38585L10.0835 8.36994L10.1046 7.94314L10.1826 7.95939Z" fill="#FB8950"/>
<path d="M10.2272 7.96727L10.2053 8.39419L10.1943 8.39218L10.2157 7.96494L10.2272 7.96727Z" fill="#FB8950"/>
<path d="M10.2272 7.96727L10.2053 8.39419L10.1943 8.39218L10.2157 7.96494L10.2272 7.96727Z" fill="#FB8950"/>
<path d="M11.2569 7.99165L11.2354 8.41812C11.0585 8.44225 10.8799 8.45181 10.7016 8.44671L10.723 8.01946C10.9013 8.0246 11.0799 8.01531 11.2569 7.99165Z" fill="#FB8950"/>
<path d="M11.2569 7.99068L11.2354 8.41715C11.0585 8.44127 10.8799 8.45083 10.7016 8.44574L10.723 8.01849C10.9013 8.02363 11.0799 8.01433 11.2569 7.99068Z" fill="#FB8950"/>
<path d="M10.6687 8.01726L10.6472 8.44372C10.6293 8.4435 10.6109 8.44216 10.5929 8.44116L10.6147 8.01424L10.6687 8.01726Z" fill="#FB8950"/>
<path d="M10.6687 8.01726L10.6472 8.44372C10.6293 8.4435 10.6109 8.44216 10.5929 8.44116L10.6147 8.01424L10.6687 8.01726Z" fill="#FB8950"/>
<path d="M10.7266 8.01855L10.7052 8.4458L10.6998 8.45848L10.7212 8.03123C10.7232 8.02711 10.725 8.02288 10.7266 8.01855Z" fill="#FB8950"/>
<path d="M10.7266 8.01758L10.7052 8.44483L10.6998 8.4575L10.7212 8.03025C10.7232 8.02614 10.725 8.0219 10.7266 8.01758Z" fill="#FB8950"/>
<path d="M10.7266 8.11133L10.6529 8.53659L10.646 8.54878L10.7197 8.12351L10.7266 8.11133Z" fill="#FB8950"/>
<path d="M10.7266 8.11133L10.6547 8.53575L10.646 8.54878L10.7183 8.12463L10.7266 8.11133Z" fill="#FB8950"/>
<path d="M10.3216 8.12139L10.3005 8.54819C10.2213 8.49947 10.1496 8.43938 10.0879 8.36983L10.1094 7.94336C10.1714 8.01237 10.2428 8.0723 10.3216 8.12139Z" fill="#FB8950"/>
<path d="M10.3216 8.12139L10.3005 8.54819C10.2213 8.49947 10.1496 8.43938 10.0879 8.36983L10.1094 7.94336C10.1715 8.01252 10.2431 8.07257 10.322 8.12172" fill="#FB8950"/>
<path d="M10.1029 8.10793L10.0815 8.53518C9.85914 8.48507 9.64324 8.41007 9.43784 8.3116C9.07715 8.1381 8.79412 7.90391 8.62682 7.63772C8.5857 7.57236 8.55054 7.50341 8.52178 7.43169L8.54361 7.00478C8.57166 7.07664 8.6067 7.14553 8.64821 7.21048C8.81673 7.47689 9.09954 7.7123 9.4589 7.88479C9.6645 7.98296 9.88049 8.0578 10.1029 8.10793Z" fill="#FB8950"/>
<path d="M10.1053 8.10785L10.0839 8.5351C9.89687 8.49304 9.71429 8.43341 9.53857 8.35701L9.55997 7.92976C9.73565 8.00626 9.91824 8.06589 10.1053 8.10785Z" fill="#FB8950"/>
<path d="M9.5608 7.92896L9.5394 8.35621C9.50604 8.34153 9.47301 8.3264 9.4411 8.31072C9.08041 8.13722 8.79738 7.90303 8.63008 7.63685C8.58896 7.57148 8.5538 7.50253 8.52504 7.43082L8.54688 7.00391C8.57492 7.07576 8.60996 7.14465 8.65147 7.2096C8.81999 7.47601 9.1028 7.71142 9.46216 7.88392C9.49485 7.89949 9.52744 7.91428 9.5608 7.92896Z" fill="#FB8950"/>
<path d="M10.7011 8.05738L10.6793 8.48429C10.657 8.50942 10.6296 8.52945 10.5989 8.54301C10.5682 8.55657 10.5349 8.56334 10.5014 8.56286L10.5228 8.13562C10.5564 8.13624 10.5897 8.12957 10.6205 8.11606C10.6513 8.10255 10.6788 8.08253 10.7011 8.05738Z" fill="#FB8950"/>
<path d="M10.7055 8.05748L10.6837 8.48439C10.6709 8.50185 10.6547 8.51646 10.6361 8.52729L10.6575 8.10005C10.6761 8.08917 10.6924 8.0747 10.7055 8.05748Z" fill="#FB8950"/>
<path d="M10.6519 8.09756L10.6305 8.52481C10.5902 8.54625 10.5457 8.55843 10.5002 8.56047L10.5216 8.13322C10.5671 8.13135 10.6117 8.11916 10.6519 8.09756Z" fill="#FB8950"/>
<path d="M10.0748 8.11389L10.1101 8.60504L10.0348 8.58194L9.9998 8.09033L10.0748 8.11389Z" fill="#FB8950"/>
<path d="M10.3924 8.13142L10.3714 8.55823L10.3023 8.54865L10.3233 8.12185L10.3924 8.13142Z" fill="#FB8950"/>
<path d="M10.3924 8.13142L10.3714 8.55823L10.3023 8.54865L10.3233 8.12185L10.3924 8.13142Z" fill="#FB8950"/>
<path d="M10.526 8.13313L10.5047 8.56038C10.4589 8.56427 10.4128 8.56366 10.3672 8.55857L10.3882 8.13177C10.434 8.1365 10.4802 8.13695 10.526 8.13313Z" fill="#FB8950"/>
<path d="M10.526 8.13313L10.5047 8.56038C10.4589 8.56427 10.4128 8.56366 10.3672 8.55857L10.3882 8.13177C10.434 8.1365 10.4802 8.13695 10.526 8.13313Z" fill="#FB8950"/>
<path d="M8.82973 9.47379L8.85156 9.04688C8.84901 9.11603 8.868 9.18419 8.90591 9.24189C8.99754 9.36888 9.13019 9.46022 9.28155 9.50055L9.32048 9.51246L9.29942 9.93926L9.25972 9.92747C9.10857 9.88707 8.97617 9.79568 8.88485 9.66869C8.84669 9.61111 8.82743 9.543 8.82973 9.47379Z" fill="#FB8950"/>
<path d="M9.31719 9.51268L9.29613 9.93948L9.25643 9.92769C9.22515 9.91788 9.19443 9.90637 9.16441 9.89321L9.18547 9.46641C9.21555 9.47931 9.24648 9.49077 9.27827 9.50078L9.31719 9.51268Z" fill="#FB8950"/>
<path d="M9.18876 9.46618L9.1677 9.89298C9.05328 9.84786 8.95487 9.76983 8.88485 9.66869C8.84669 9.61111 8.82743 9.54299 8.82973 9.47379L8.85156 9.04688C8.84901 9.11603 8.868 9.18419 8.90591 9.24189C8.97593 9.34303 9.07434 9.42106 9.18876 9.46618Z" fill="#FB8950"/>
<path d="M16.087 7.85897L16.0656 8.28622C15.5643 9.07404 14.5783 9.72391 13.2353 10.0434C11.9327 10.3438 10.5766 10.3079 9.29443 9.93898L9.31549 9.51218C10.5982 9.88047 11.9548 9.91579 13.2577 9.61483C14.5994 9.29711 15.584 8.64901 16.087 7.85897Z" fill="#FB8950"/>
<path d="M16.0844 7.85907L16.063 8.28632C15.7929 8.71019 15.3842 9.09512 14.8525 9.40832L14.8739 8.98107C15.4047 8.6672 15.8156 8.28394 16.0844 7.85907Z" fill="#FB8950"/>
<path d="M14.8775 8.98042L14.8561 9.40767C14.3504 9.69928 13.8041 9.91318 13.2354 10.0422C11.9328 10.3426 10.5767 10.3067 9.29455 9.93776L9.31561 9.51096C10.5986 9.87963 11.9555 9.91518 13.2587 9.61428C13.8272 9.4852 14.3732 9.27106 14.8785 8.97908" fill="#FB8950"/>
<path d="M11.8361 7.97109C11.7848 7.98676 11.7322 7.99842 11.6788 8.00598C11.4757 8.02484 11.2155 7.99792 11.0237 7.83276C10.9627 7.78112 10.9091 7.72138 10.8646 7.65531C10.4596 7.02689 11.6938 6.4431 11.681 5.92192C11.6778 5.74532 11.6243 5.57178 11.5267 5.42132C11.4508 5.30475 11.353 5.20349 11.2387 5.12335L11.3014 5.13725C11.5333 5.19146 11.7591 5.27125 11.9744 5.3751C12.3535 5.55989 12.653 5.80758 12.8309 6.08445C12.8752 6.15243 12.913 6.22422 12.9439 6.29887C13.2297 7.00869 12.7486 7.68406 11.8361 7.97109ZM12.1417 5.59708C12.205 5.71016 12.2445 5.83427 12.2579 5.96169C12.2445 5.83427 12.205 5.71016 12.1417 5.59708ZM11.4723 7.81558C11.5077 7.86154 11.5476 7.90397 11.5913 7.94224C11.5478 7.90374 11.5079 7.86133 11.4723 7.81558Z" fill="#FFE26C"/>
<path d="M9.94381 7.81767C10.0193 7.93441 10.1163 8.03624 10.2296 8.11758L10.1673 8.10328C9.93498 8.0479 9.70891 7.96713 9.49328 7.86248C9.11542 7.67792 8.81682 7.43089 8.63827 7.15357C8.59399 7.08589 8.55638 7.01425 8.52599 6.93968C8.2382 6.23196 8.72227 5.55462 9.63374 5.26682C9.68511 5.2514 9.73771 5.23998 9.79108 5.23266C9.99356 5.21333 10.2534 5.24008 10.445 5.40503C10.5058 5.45673 10.5593 5.5164 10.6039 5.5823C11.011 6.21226 9.77473 6.79521 9.78727 7.31612C9.79101 7.49331 9.84529 7.66721 9.94381 7.81767Z" fill="#FFE26C"/>
<path d="M11.332 7.97328L11.3091 7.97638C11.1314 7.99568 10.9518 8.00068 10.7721 7.99135C10.7706 7.99561 10.7689 7.99977 10.767 8.00381L10.7591 8.01422L10.751 8.02506C10.729 8.0489 10.7019 8.0676 10.6716 8.0799C10.6412 8.0922 10.6082 8.09782 10.5749 8.09638C10.5288 8.09909 10.4823 8.09755 10.4361 8.09176L10.3662 8.08062C10.2856 8.02991 10.2121 7.96857 10.1479 7.8984L10.2263 7.91604L10.1474 7.89805C10.1093 7.85639 10.0746 7.81182 10.0437 7.7648C9.94817 7.61968 9.89505 7.45258 9.89046 7.2828C9.87398 6.78076 11.0658 6.22902 10.6673 5.61935C10.624 5.5553 10.5718 5.4974 10.5123 5.44746C10.4008 5.35513 10.2652 5.29699 10.123 5.28061L10.1898 5.27314C10.3688 5.25316 10.5499 5.24786 10.731 5.25729C10.7635 5.19338 10.8373 5.16533 10.9292 5.16045C10.9748 5.15883 11.0205 5.16125 11.066 5.16767C11.0912 5.17102 11.112 5.17372 11.134 5.17744C11.1422 5.1836 11.1549 5.19317 11.1713 5.20548C11.2818 5.28386 11.377 5.3819 11.4516 5.49425C11.5471 5.63939 11.5999 5.80658 11.604 5.97634C11.6205 6.47838 10.4287 7.03012 10.8272 7.63979C10.8705 7.7038 10.9227 7.76169 10.9822 7.81167C11.0827 7.89606 11.2038 7.95203 11.332 7.97328ZM10.7194 7.98767L10.665 7.9834L10.7182 7.98742L10.7194 7.98767ZM10.7806 5.26133L10.7833 5.26338C10.7873 5.25818 10.7885 5.25092 10.7911 5.24547C10.7876 5.25024 10.7836 5.25544 10.7833 5.26338L10.7806 5.26133ZM10.2549 7.92532L10.2665 7.92792L10.2549 7.92532Z" fill="#FFE26C"/>
<path d="M16.0931 7.92642C15.6017 8.70157 14.6263 9.33452 13.292 9.63611C11.9973 9.91959 10.6458 9.86968 9.36429 9.49105L9.32539 9.47885C9.17416 9.4373 9.04102 9.34544 8.94837 9.21872C8.90752 9.15936 8.88775 9.08836 8.89227 9.01722C8.89679 8.94608 8.92534 8.87895 8.97328 8.8267C9.06953 8.72106 9.19805 8.64981 9.33969 8.62355C9.52301 8.58344 9.71437 8.59052 9.89581 8.64413C10.8184 8.91915 11.7922 8.95632 12.7249 8.75212C13.081 8.67446 13.4248 8.55127 13.7477 8.38562C13.945 8.28336 14.1301 8.1597 14.2996 8.01684C14.3994 7.9331 14.492 7.84119 14.5763 7.74204C14.5951 7.71715 14.6139 7.69226 14.6323 7.66781C14.6658 7.61618 14.683 7.55554 14.6817 7.49357C14.6803 7.43161 14.6605 7.37113 14.6247 7.31979C14.5822 7.25596 14.5267 7.20156 14.462 7.16018C14.2965 7.04868 14.1384 6.92657 13.9887 6.79465C13.8968 6.71308 13.8096 6.62892 13.7284 6.5424C13.5877 6.39371 13.4612 6.23235 13.3506 6.06047C13.2474 5.90096 13.1615 5.7313 13.0941 5.55433C13.0585 5.46045 13.0293 5.36437 13.0068 5.26675C12.9716 5.11784 12.9527 4.96584 12.9504 4.81342L12.95 4.78986C12.9468 4.73035 12.9275 4.67252 12.8942 4.6225C12.8119 4.49205 12.6512 4.3963 12.4643 4.34649L12.4307 4.33831C12.2473 4.29317 12.0618 4.25739 11.875 4.2311C11.5989 4.19215 11.3206 4.17308 11.0424 4.17404C10.6492 4.17506 10.258 4.21867 9.87577 4.30409C8.93717 4.51631 8.24617 4.95687 7.88902 5.49837C7.81397 5.61093 7.67702 5.69738 7.492 5.73939C7.32714 5.77555 7.15549 5.77361 6.99018 5.73371C6.79252 5.68609 6.62286 5.58837 6.53637 5.45336C6.50118 5.40252 6.48154 5.3428 6.47987 5.28156C6.4782 5.22032 6.49457 5.16025 6.52696 5.10874C7.0419 4.33286 8.00426 3.7209 9.3118 3.4252C10.6306 3.13605 12.0082 3.19369 13.3099 3.59248C13.4225 3.62805 13.5322 3.66506 13.639 3.7035C13.7263 3.73505 13.8121 3.76824 13.8965 3.80306L13.9614 3.83623C14.1168 3.91682 14.25 4.03462 14.3488 4.17881C14.4138 4.27692 14.4487 4.39134 14.4493 4.50791C14.4376 4.55928 14.4287 4.61129 14.4226 4.6637C14.383 5.04663 14.4812 5.43349 14.6997 5.75575C14.9356 6.12177 15.2893 6.43415 15.7199 6.68331L15.7539 6.70206C15.7932 6.72483 15.8335 6.74629 15.8745 6.76765C16.0076 6.84496 16.1216 6.95144 16.2075 7.07882C16.2884 7.19782 16.3224 7.34178 16.3027 7.4826C16.2999 7.50132 16.2959 7.51983 16.2909 7.53806C16.2671 7.59746 16.2399 7.65572 16.2107 7.71385C16.1758 7.78886 16.1361 7.85821 16.0931 7.92642ZM12.5104 3.87457L12.5148 3.87793L12.5117 3.87558L12.4897 3.87061L12.51 3.87501" fill="#FFE26C"/>
<defs>
<linearGradient id="paint0_linear_10989_20379" x1="22.5568" y1="19.0339" x2="0.285123" y2="19.1441" gradientUnits="userSpaceOnUse">
<stop stop-color="#FF9E6E"/>
<stop offset="0.19" stop-color="#FFE585"/>
<stop offset="0.3" stop-color="#FFE4A7"/>
<stop offset="0.43" stop-color="#FFE585"/>
<stop offset="0.57" stop-color="#FF9E6E"/>
<stop offset="0.68" stop-color="#FFA16F"/>
<stop offset="0.77" stop-color="#FFAC73"/>
<stop offset="0.86" stop-color="#FFBE79"/>
<stop offset="0.9" stop-color="#FFC87C"/>
<stop offset="1" stop-color="#FF9E6E"/>
</linearGradient>
<linearGradient id="paint1_linear_10989_20379" x1="4.17502" y1="19.7297" x2="4.0163" y2="20.3213" gradientUnits="userSpaceOnUse">
<stop stop-color="#FFBB96"/>
<stop offset="0.23" stop-color="#FFFBC9"/>
<stop offset="0.54" stop-color="#F9B673"/>
<stop offset="0.64" stop-color="#F9B876"/>
<stop offset="0.72" stop-color="#FABE81"/>
<stop offset="0.81" stop-color="#FCC993"/>
<stop offset="0.86" stop-color="#FED2A3"/>
<stop offset="0.97" stop-color="#FFC28C"/>
</linearGradient>
<linearGradient id="paint2_linear_10989_20379" x1="30407.3" y1="-1728.36" x2="32518.2" y2="-1728.36" gradientUnits="userSpaceOnUse">
<stop stop-color="#FF9E6E"/>
<stop offset="0.19" stop-color="#FFE585"/>
<stop offset="0.3" stop-color="#FFE4A7"/>
<stop offset="0.43" stop-color="#FFE585"/>
<stop offset="0.57" stop-color="#FF9E6E"/>
<stop offset="0.68" stop-color="#FFA16F"/>
<stop offset="0.77" stop-color="#FFAC73"/>
<stop offset="0.86" stop-color="#FFBE79"/>
<stop offset="0.9" stop-color="#FFC87C"/>
<stop offset="1" stop-color="#FF9E6E"/>
</linearGradient>
<linearGradient id="paint3_linear_10989_20379" x1="38.1079" y1="-104.298" x2="38.1083" y2="-104.3" gradientUnits="userSpaceOnUse">
<stop stop-color="#FFBB96"/>
<stop offset="0.23" stop-color="#FFFBC9"/>
<stop offset="0.54" stop-color="#F9B673"/>
<stop offset="0.64" stop-color="#F9B876"/>
<stop offset="0.72" stop-color="#FABE81"/>
<stop offset="0.81" stop-color="#FCC993"/>
<stop offset="0.86" stop-color="#FED2A3"/>
<stop offset="0.97" stop-color="#FFC28C"/>
</linearGradient>
<linearGradient id="paint4_linear_10989_20379" x1="-9.69356" y1="-6.79388" x2="17.1533" y2="19.3284" gradientUnits="userSpaceOnUse">
<stop offset="0.04" stop-color="#FF9E6E"/>
<stop offset="0.3" stop-color="#FFAD73"/>
<stop offset="0.82" stop-color="#FFD680"/>
<stop offset="1" stop-color="#FFD897"/>
</linearGradient>
<radialGradient id="paint5_radial_10989_20379" cx="0" cy="0" r="1" gradientUnits="userSpaceOnUse" gradientTransform="translate(16.2099 19.0199) rotate(179.717) scale(14.223 14.223)">
<stop stop-color="white"/>
<stop offset="1"/>
</radialGradient>
<linearGradient id="paint6_linear_10989_20379" x1="24182.1" y1="2869.92" x2="23585.6" y2="1850.4" gradientUnits="userSpaceOnUse">
<stop offset="0.04" stop-color="#FF9E6E"/>
<stop offset="0.3" stop-color="#FFAD73"/>
<stop offset="0.82" stop-color="#FFD680"/>
<stop offset="1" stop-color="#FFE78F"/>
</linearGradient>
<radialGradient id="paint7_radial_10989_20379" cx="0" cy="0" r="1" gradientUnits="userSpaceOnUse" gradientTransform="translate(7317.6 -9216.54) rotate(-75.2835) scale(200.799 431.867)">
<stop stop-color="white"/>
<stop offset="1"/>
</radialGradient>
<radialGradient id="paint8_radial_10989_20379" cx="0" cy="0" r="1" gradientUnits="userSpaceOnUse" gradientTransform="translate(6.10335 23.9163) rotate(-109.073) scale(2.40896 4.81793)">
<stop stop-color="#FBB43E"/>
<stop offset="1"/>
</radialGradient>
<linearGradient id="paint9_linear_10989_20379" x1="22.5568" y1="15.2556" x2="0.285123" y2="15.3658" gradientUnits="userSpaceOnUse">
<stop stop-color="#FF9E6E"/>
<stop offset="0.19" stop-color="#FFE585"/>
<stop offset="0.3" stop-color="#FFE4A7"/>
<stop offset="0.43" stop-color="#FFE585"/>
<stop offset="0.57" stop-color="#FF9E6E"/>
<stop offset="0.68" stop-color="#FFA16F"/>
<stop offset="0.77" stop-color="#FFAC73"/>
<stop offset="0.86" stop-color="#FFBE79"/>
<stop offset="0.9" stop-color="#FFC87C"/>
<stop offset="1" stop-color="#FF9E6E"/>
</linearGradient>
<linearGradient id="paint10_linear_10989_20379" x1="4.17502" y1="15.9523" x2="4.0163" y2="16.5439" gradientUnits="userSpaceOnUse">
<stop stop-color="#FFBB96"/>
<stop offset="0.23" stop-color="#FFFBC9"/>
<stop offset="0.54" stop-color="#F9B673"/>
<stop offset="0.64" stop-color="#F9B876"/>
<stop offset="0.72" stop-color="#FABE81"/>
<stop offset="0.81" stop-color="#FCC993"/>
<stop offset="0.86" stop-color="#FED2A3"/>
<stop offset="0.97" stop-color="#FFC28C"/>
</linearGradient>
<linearGradient id="paint11_linear_10989_20379" x1="30407.3" y1="-1732.14" x2="32518.2" y2="-1732.14" gradientUnits="userSpaceOnUse">
<stop stop-color="#FF9E6E"/>
<stop offset="0.19" stop-color="#FFE585"/>
<stop offset="0.3" stop-color="#FFE4A7"/>
<stop offset="0.43" stop-color="#FFE585"/>
<stop offset="0.57" stop-color="#FF9E6E"/>
<stop offset="0.68" stop-color="#FFA16F"/>
<stop offset="0.77" stop-color="#FFAC73"/>
<stop offset="0.86" stop-color="#FFBE79"/>
<stop offset="0.9" stop-color="#FFC87C"/>
<stop offset="1" stop-color="#FF9E6E"/>
</linearGradient>
<linearGradient id="paint12_linear_10989_20379" x1="38.1079" y1="-108.076" x2="38.1083" y2="-108.077" gradientUnits="userSpaceOnUse">
<stop stop-color="#FFBB96"/>
<stop offset="0.23" stop-color="#FFFBC9"/>
<stop offset="0.54" stop-color="#F9B673"/>
<stop offset="0.64" stop-color="#F9B876"/>
<stop offset="0.72" stop-color="#FABE81"/>
<stop offset="0.81" stop-color="#FCC993"/>
<stop offset="0.86" stop-color="#FED2A3"/>
<stop offset="0.97" stop-color="#FFC28C"/>
</linearGradient>
<linearGradient id="paint13_linear_10989_20379" x1="-9.69356" y1="-10.5712" x2="17.1533" y2="15.551" gradientUnits="userSpaceOnUse">
<stop offset="0.04" stop-color="#FF9E6E"/>
<stop offset="0.3" stop-color="#FFAD73"/>
<stop offset="0.82" stop-color="#FFD680"/>
<stop offset="1" stop-color="#FFD897"/>
</linearGradient>
<radialGradient id="paint14_radial_10989_20379" cx="0" cy="0" r="1" gradientUnits="userSpaceOnUse" gradientTransform="translate(16.2099 15.2425) rotate(179.717) scale(14.223 14.223)">
<stop stop-color="white"/>
<stop offset="1"/>
</radialGradient>
<linearGradient id="paint15_linear_10989_20379" x1="24182.1" y1="2866.15" x2="23585.6" y2="1846.62" gradientUnits="userSpaceOnUse">
<stop offset="0.04" stop-color="#FF9E6E"/>
<stop offset="0.3" stop-color="#FFAD73"/>
<stop offset="0.82" stop-color="#FFD680"/>
<stop offset="1" stop-color="#FFE78F"/>
</linearGradient>
<radialGradient id="paint16_radial_10989_20379" cx="0" cy="0" r="1" gradientUnits="userSpaceOnUse" gradientTransform="translate(7317.6 -9220.32) rotate(-75.2835) scale(200.799 431.867)">
<stop stop-color="white"/>
<stop offset="1"/>
</radialGradient>
<radialGradient id="paint17_radial_10989_20379" cx="0" cy="0" r="1" gradientUnits="userSpaceOnUse" gradientTransform="translate(6.10335 20.139) rotate(-109.073) scale(2.40896 4.81793)">
<stop stop-color="#FBB43E"/>
<stop offset="1"/>
</radialGradient>
<linearGradient id="paint18_linear_10989_20379" x1="22.5568" y1="11.4792" x2="0.285123" y2="11.5894" gradientUnits="userSpaceOnUse">
<stop stop-color="#FF9E6E"/>
<stop offset="0.19" stop-color="#FFE585"/>
<stop offset="0.3" stop-color="#FFE4A7"/>
<stop offset="0.43" stop-color="#FFE585"/>
<stop offset="0.57" stop-color="#FF9E6E"/>
<stop offset="0.68" stop-color="#FFA16F"/>
<stop offset="0.77" stop-color="#FFAC73"/>
<stop offset="0.86" stop-color="#FFBE79"/>
<stop offset="0.9" stop-color="#FFC87C"/>
<stop offset="1" stop-color="#FF9E6E"/>
</linearGradient>
<linearGradient id="paint19_linear_10989_20379" x1="4.17502" y1="12.175" x2="4.0163" y2="12.7666" gradientUnits="userSpaceOnUse">
<stop stop-color="#FFBB96"/>
<stop offset="0.23" stop-color="#FFFBC9"/>
<stop offset="0.54" stop-color="#F9B673"/>
<stop offset="0.64" stop-color="#F9B876"/>
<stop offset="0.72" stop-color="#FABE81"/>
<stop offset="0.81" stop-color="#FCC993"/>
<stop offset="0.86" stop-color="#FED2A3"/>
<stop offset="0.97" stop-color="#FFC28C"/>
</linearGradient>
<linearGradient id="paint20_linear_10989_20379" x1="30407.3" y1="-1735.92" x2="32518.2" y2="-1735.92" gradientUnits="userSpaceOnUse">
<stop stop-color="#FF9E6E"/>
<stop offset="0.19" stop-color="#FFE585"/>
<stop offset="0.3" stop-color="#FFE4A7"/>
<stop offset="0.43" stop-color="#FFE585"/>
<stop offset="0.57" stop-color="#FF9E6E"/>
<stop offset="0.68" stop-color="#FFA16F"/>
<stop offset="0.77" stop-color="#FFAC73"/>
<stop offset="0.86" stop-color="#FFBE79"/>
<stop offset="0.9" stop-color="#FFC87C"/>
<stop offset="1" stop-color="#FF9E6E"/>
</linearGradient>
<linearGradient id="paint21_linear_10989_20379" x1="38.1079" y1="-111.853" x2="38.1083" y2="-111.855" gradientUnits="userSpaceOnUse">
<stop stop-color="#FFBB96"/>
<stop offset="0.23" stop-color="#FFFBC9"/>
<stop offset="0.54" stop-color="#F9B673"/>
<stop offset="0.64" stop-color="#F9B876"/>
<stop offset="0.72" stop-color="#FABE81"/>
<stop offset="0.81" stop-color="#FCC993"/>
<stop offset="0.86" stop-color="#FED2A3"/>
<stop offset="0.97" stop-color="#FFC28C"/>
</linearGradient>
<linearGradient id="paint22_linear_10989_20379" x1="-9.69356" y1="-14.3486" x2="17.1533" y2="11.7737" gradientUnits="userSpaceOnUse">
<stop offset="0.04" stop-color="#FF9E6E"/>
<stop offset="0.3" stop-color="#FFAD73"/>
<stop offset="0.82" stop-color="#FFD680"/>
<stop offset="1" stop-color="#FFD897"/>
</linearGradient>
<radialGradient id="paint23_radial_10989_20379" cx="0" cy="0" r="1" gradientUnits="userSpaceOnUse" gradientTransform="translate(16.2099 11.4652) rotate(179.717) scale(14.223 14.223)">
<stop stop-color="white"/>
<stop offset="1"/>
</radialGradient>
<linearGradient id="paint24_linear_10989_20379" x1="24182.1" y1="2862.37" x2="23585.6" y2="1842.85" gradientUnits="userSpaceOnUse">
<stop offset="0.04" stop-color="#FF9E6E"/>
<stop offset="0.3" stop-color="#FFAD73"/>
<stop offset="0.82" stop-color="#FFD680"/>
<stop offset="1" stop-color="#FFE78F"/>
</linearGradient>
<radialGradient id="paint25_radial_10989_20379" cx="0" cy="0" r="1" gradientUnits="userSpaceOnUse" gradientTransform="translate(7317.6 -9224.1) rotate(-75.2835) scale(200.799 431.867)">
<stop stop-color="white"/>
<stop offset="1"/>
</radialGradient>
<radialGradient id="paint26_radial_10989_20379" cx="0" cy="0" r="1" gradientUnits="userSpaceOnUse" gradientTransform="translate(6.10335 16.3616) rotate(-109.073) scale(2.40896 4.81793)">
<stop stop-color="#FBB43E"/>
<stop offset="1"/>
</radialGradient>
</defs>
</svg>
