<svg width="14" height="16" viewBox="0 0 14 16" fill="none" xmlns="http://www.w3.org/2000/svg">
<path d="M13.1786 3.42738L7.99462 0.304483C7.37004 -0.101494 6.58931 -0.101494 5.96473 0.304483L0.780724 3.42738C0.62458 3.5523 0.62458 3.80213 0.780724 3.89581L6.99529 7.58083L13.1786 3.89581C13.3348 3.80213 13.3348 3.5523 13.1786 3.42738ZM13.6158 4.83268L7.49495 8.48647V15.4818C7.49495 15.8877 7.90093 16.1376 8.24445 15.919L12.9913 13.0459C13.5846 12.6712 13.9906 11.9841 13.9906 11.2346V5.05129C13.9906 4.86391 13.772 4.739 13.6158 4.83268ZM0 5.05129V11.2346C0 11.9841 0.374748 12.6712 0.968098 13.0459L5.7149 15.919C6.05842 16.1376 6.49563 15.8877 6.49563 15.4818V8.48647L0.343519 4.83268C0.187374 4.739 0 4.86391 0 5.05129Z" fill="white"/>
</svg>
