<svg width="13" height="13" viewBox="0 0 13 13" fill="none" xmlns="http://www.w3.org/2000/svg">
<path d="M12.1653 5.51647C11.8749 5.22613 11.4394 5.25516 11.1491 5.51647L7.8392 9.02959L7.8392 0.696817C7.8392 0.29034 7.51982 -2.39546e-07 7.14238 -2.56045e-07L6.21329 -2.96657e-07C5.80681 -3.14424e-07 5.51647 0.29034 5.51647 0.696817L5.51647 9.02959L2.17755 5.51647C1.88721 5.25516 1.4517 5.25516 1.16136 5.51647L0.522612 6.15522C0.261306 6.44556 0.261306 6.88107 0.522612 7.14238L6.18425 12.804C6.44556 13.0653 6.88107 13.0653 7.17141 12.804L12.804 7.14238C13.0653 6.88107 13.0653 6.44556 12.804 6.15522L12.1653 5.51647Z" fill="#0084F4"/>
</svg>

