<svg width="24" height="24" viewBox="0 0 24 24" fill="none" xmlns="http://www.w3.org/2000/svg">
<path d="M20.4853 3.51469C18.2188 1.24823 15.2053 0 12 0C8.79469 0 5.78123 1.24823 3.51469 3.51469C1.24823 5.78123 0 8.79469 0 12C0 15.2053 1.24823 18.2188 3.51469 20.4853C5.78123 22.7518 8.79469 24 12 24C14.1943 24 16.3414 23.402 18.2092 22.2706C18.652 22.0024 18.7935 21.4259 18.5253 20.9831C18.257 20.5402 17.6805 20.3986 17.2377 20.6669C15.93 21.459 14.4592 21.9407 12.9375 22.0814V12.9375H22.0811C21.925 14.6013 21.3546 16.2039 20.4082 17.6196C20.1203 18.0501 20.236 18.6322 20.6664 18.92C21.097 19.2079 21.6791 19.0921 21.9668 18.6617C23.297 16.6722 24 14.3686 24 12C24 8.79469 22.7518 5.78123 20.4853 3.51469ZM11.0625 1.91878V11.0625H1.91883C2.36498 6.22627 6.22631 2.36498 11.0625 1.91878ZM11.0625 22.0812C6.22631 21.635 2.36498 17.7737 1.91883 12.9375H11.0625V22.0812ZM12.9375 1.91878C17.7737 2.36498 21.635 6.22627 22.0812 11.0625H12.9375V1.91878Z" fill="#667386"/>
</svg>
