<svg width="28" height="42" viewBox="0 0 28 42" fill="none" xmlns="http://www.w3.org/2000/svg">
<mask id="path-1-outside-1_11080_19771" maskUnits="userSpaceOnUse" x="0" y="0" width="28" height="42" fill="black">
<rect fill="white" width="28" height="42"/>
<path d="M2.01927 7.87492C1.87606 7.87492 1.73645 7.82567 1.62445 7.73439C1.49589 7.62964 1.41426 7.47812 1.39747 7.31313L1.00326 3.43549C0.968313 3.09209 1.21841 2.78539 1.56181 2.75048C1.90513 2.71577 2.21191 2.96563 2.24685 3.30907L2.471 5.51373C3.40213 4.3613 4.53929 3.38073 5.82427 2.63398C7.66356 1.56503 9.7663 1 11.905 1C14.0437 1 16.1464 1.56503 17.9854 2.63398C19.7694 3.6709 21.2702 5.15657 22.3256 6.93033C22.502 7.22696 22.4047 7.61052 22.1081 7.78703C22.0079 7.84665 21.8977 7.875 21.7891 7.87504C21.5759 7.87504 21.3682 7.76597 21.2514 7.56952C19.299 4.2883 15.7177 2.25 11.905 2.25C8.53034 2.25 5.33672 3.8484 3.29204 6.49156L5.83335 6.23178C6.1766 6.19619 6.48345 6.44662 6.5187 6.78998C6.5538 7.13338 6.30386 7.4402 5.96046 7.4753L2.08282 7.87168C2.06161 7.87386 2.0404 7.87492 2.01927 7.87492ZM26.0853 19.0064C25.2523 18.5241 24.2209 18.5205 23.3938 18.997C23.3593 19.0169 23.3264 19.0386 23.2931 19.0599C23.1816 17.393 21.8437 16.5211 20.5199 16.5201C20.5191 16.5201 20.5184 16.5201 20.5176 16.5201C19.7276 16.5201 18.9325 16.8307 18.3956 17.4353C18.1997 17.1916 17.9592 16.9827 17.6764 16.819C16.7848 16.3026 15.6312 16.3015 14.7375 16.816C14.7141 16.8295 14.6921 16.8444 14.6692 16.8585L14.6736 7.9775C14.675 7.23661 14.3861 6.53841 13.8602 6.01148C13.3342 5.48452 12.6367 5.19433 11.8973 5.19433C11.8955 5.19433 11.8938 5.19433 11.892 5.19433C11.1547 5.19433 10.459 5.48356 9.93239 6.00916C9.40474 6.53585 9.11414 7.23287 9.11414 7.97148L9.10429 22.6446L7.5598 20.6114C6.68891 19.4625 5.34545 18.8497 4.05494 19.0121C3.08768 19.1337 2.31284 19.6753 1.98226 20.4608C1.76413 20.9792 1.56142 22.064 2.65517 23.506C4.93956 26.5162 5.70952 28.7075 6.38884 30.6408C6.94212 32.2154 7.41995 33.5753 8.58404 34.9064C9.61447 36.0867 10.1095 37.4161 10.0973 38.9705L10.0863 40.37C10.0836 40.7152 10.3612 40.9972 10.7063 41C10.708 41 10.7097 41 10.7114 41C11.0542 41 11.3335 40.7234 11.3363 40.3799L11.3473 38.9803C11.3619 37.1066 10.7661 35.5051 9.52537 34.084C8.51943 32.9337 8.09966 31.739 7.56819 30.2264C6.89353 28.3064 6.05383 25.9168 3.65104 22.7504C3.12171 22.0527 2.93823 21.4117 3.13438 20.9457C3.28963 20.5768 3.69209 20.3176 4.21096 20.2523C4.87632 20.1685 5.84411 20.4173 6.56409 21.367L9.23041 24.8771C9.39269 25.0907 9.67337 25.1768 9.92736 25.0914C10.1816 25.0059 10.3529 24.7677 10.3531 24.4994L10.3641 7.97191C10.3641 7.56724 10.5244 7.18436 10.8155 6.89387C11.106 6.60392 11.4882 6.44435 11.8932 6.44435H11.8961C12.3024 6.44435 12.6857 6.60423 12.9754 6.89456C13.2652 7.18486 13.4244 7.56862 13.4236 7.97603L13.417 21.5378C13.4168 21.883 13.6965 22.163 14.0416 22.1632H14.042C14.387 22.1632 14.6668 21.8835 14.667 21.5385L14.6681 19.262C14.6702 19.2409 14.6714 19.2195 14.6714 19.1979C14.672 18.4527 15.047 18.0804 15.3615 17.8992C15.8672 17.608 16.5458 17.6087 17.0501 17.9007C17.3633 18.0821 17.7365 18.4545 17.7353 19.1996V21.5381C17.7353 21.8833 18.0152 22.1631 18.3603 22.1631C18.7055 22.1631 18.9853 21.8833 18.9853 21.5381V19.2842C18.9862 18.2381 19.7552 17.7701 20.5175 17.7701H20.5189C21.2823 17.7706 22.0523 18.2402 22.0514 19.2882V21.5381H22.0515C22.0515 21.8831 22.331 22.1629 22.676 22.1631H22.6765C23.0214 22.1631 23.3012 21.8836 23.3015 21.5386C23.3019 20.8639 23.5563 20.3459 24.0177 20.0802C24.4523 19.8298 25.0181 19.8329 25.459 20.0882C25.9288 20.3602 26.187 20.8756 26.186 21.5397L26.1793 28.0384C26.1813 30.261 25.3767 32.4056 23.9135 34.0772C22.6886 35.4775 22.0747 37.1264 22.0891 38.9782L22.1002 40.38C22.103 40.7234 22.3823 41 22.7251 41H22.7302C23.0753 40.9973 23.353 40.7152 23.3502 40.37L23.3391 38.9684C23.327 37.4103 23.8226 36.0796 24.8542 34.9004C26.5171 33.0006 27.4316 30.5633 27.4293 28.0385L27.436 21.5413C27.4376 20.4283 26.9453 19.5044 26.0853 19.0064Z"/>
</mask>
<path d="M2.01927 7.87492C1.87606 7.87492 1.73645 7.82567 1.62445 7.73439C1.49589 7.62964 1.41426 7.47812 1.39747 7.31313L1.00326 3.43549C0.968313 3.09209 1.21841 2.78539 1.56181 2.75048C1.90513 2.71577 2.21191 2.96563 2.24685 3.30907L2.471 5.51373C3.40213 4.3613 4.53929 3.38073 5.82427 2.63398C7.66356 1.56503 9.7663 1 11.905 1C14.0437 1 16.1464 1.56503 17.9854 2.63398C19.7694 3.6709 21.2702 5.15657 22.3256 6.93033C22.502 7.22696 22.4047 7.61052 22.1081 7.78703C22.0079 7.84665 21.8977 7.875 21.7891 7.87504C21.5759 7.87504 21.3682 7.76597 21.2514 7.56952C19.299 4.2883 15.7177 2.25 11.905 2.25C8.53034 2.25 5.33672 3.8484 3.29204 6.49156L5.83335 6.23178C6.1766 6.19619 6.48345 6.44662 6.5187 6.78998C6.5538 7.13338 6.30386 7.4402 5.96046 7.4753L2.08282 7.87168C2.06161 7.87386 2.0404 7.87492 2.01927 7.87492ZM26.0853 19.0064C25.2523 18.5241 24.2209 18.5205 23.3938 18.997C23.3593 19.0169 23.3264 19.0386 23.2931 19.0599C23.1816 17.393 21.8437 16.5211 20.5199 16.5201C20.5191 16.5201 20.5184 16.5201 20.5176 16.5201C19.7276 16.5201 18.9325 16.8307 18.3956 17.4353C18.1997 17.1916 17.9592 16.9827 17.6764 16.819C16.7848 16.3026 15.6312 16.3015 14.7375 16.816C14.7141 16.8295 14.6921 16.8444 14.6692 16.8585L14.6736 7.9775C14.675 7.23661 14.3861 6.53841 13.8602 6.01148C13.3342 5.48452 12.6367 5.19433 11.8973 5.19433C11.8955 5.19433 11.8938 5.19433 11.892 5.19433C11.1547 5.19433 10.459 5.48356 9.93239 6.00916C9.40474 6.53585 9.11414 7.23287 9.11414 7.97148L9.10429 22.6446L7.5598 20.6114C6.68891 19.4625 5.34545 18.8497 4.05494 19.0121C3.08768 19.1337 2.31284 19.6753 1.98226 20.4608C1.76413 20.9792 1.56142 22.064 2.65517 23.506C4.93956 26.5162 5.70952 28.7075 6.38884 30.6408C6.94212 32.2154 7.41995 33.5753 8.58404 34.9064C9.61447 36.0867 10.1095 37.4161 10.0973 38.9705L10.0863 40.37C10.0836 40.7152 10.3612 40.9972 10.7063 41C10.708 41 10.7097 41 10.7114 41C11.0542 41 11.3335 40.7234 11.3363 40.3799L11.3473 38.9803C11.3619 37.1066 10.7661 35.5051 9.52537 34.084C8.51943 32.9337 8.09966 31.739 7.56819 30.2264C6.89353 28.3064 6.05383 25.9168 3.65104 22.7504C3.12171 22.0527 2.93823 21.4117 3.13438 20.9457C3.28963 20.5768 3.69209 20.3176 4.21096 20.2523C4.87632 20.1685 5.84411 20.4173 6.56409 21.367L9.23041 24.8771C9.39269 25.0907 9.67337 25.1768 9.92736 25.0914C10.1816 25.0059 10.3529 24.7677 10.3531 24.4994L10.3641 7.97191C10.3641 7.56724 10.5244 7.18436 10.8155 6.89387C11.106 6.60392 11.4882 6.44435 11.8932 6.44435H11.8961C12.3024 6.44435 12.6857 6.60423 12.9754 6.89456C13.2652 7.18486 13.4244 7.56862 13.4236 7.97603L13.417 21.5378C13.4168 21.883 13.6965 22.163 14.0416 22.1632H14.042C14.387 22.1632 14.6668 21.8835 14.667 21.5385L14.6681 19.262C14.6702 19.2409 14.6714 19.2195 14.6714 19.1979C14.672 18.4527 15.047 18.0804 15.3615 17.8992C15.8672 17.608 16.5458 17.6087 17.0501 17.9007C17.3633 18.0821 17.7365 18.4545 17.7353 19.1996V21.5381C17.7353 21.8833 18.0152 22.1631 18.3603 22.1631C18.7055 22.1631 18.9853 21.8833 18.9853 21.5381V19.2842C18.9862 18.2381 19.7552 17.7701 20.5175 17.7701H20.5189C21.2823 17.7706 22.0523 18.2402 22.0514 19.2882V21.5381H22.0515C22.0515 21.8831 22.331 22.1629 22.676 22.1631H22.6765C23.0214 22.1631 23.3012 21.8836 23.3015 21.5386C23.3019 20.8639 23.5563 20.3459 24.0177 20.0802C24.4523 19.8298 25.0181 19.8329 25.459 20.0882C25.9288 20.3602 26.187 20.8756 26.186 21.5397L26.1793 28.0384C26.1813 30.261 25.3767 32.4056 23.9135 34.0772C22.6886 35.4775 22.0747 37.1264 22.0891 38.9782L22.1002 40.38C22.103 40.7234 22.3823 41 22.7251 41H22.7302C23.0753 40.9973 23.353 40.7152 23.3502 40.37L23.3391 38.9684C23.327 37.4103 23.8226 36.0796 24.8542 34.9004C26.5171 33.0006 27.4316 30.5633 27.4293 28.0385L27.436 21.5413C27.4376 20.4283 26.9453 19.5044 26.0853 19.0064Z" fill="#04004D"/>
<path d="M2.01927 7.87492C1.87606 7.87492 1.73645 7.82567 1.62445 7.73439C1.49589 7.62964 1.41426 7.47812 1.39747 7.31313L1.00326 3.43549C0.968313 3.09209 1.21841 2.78539 1.56181 2.75048C1.90513 2.71577 2.21191 2.96563 2.24685 3.30907L2.471 5.51373C3.40213 4.3613 4.53929 3.38073 5.82427 2.63398C7.66356 1.56503 9.7663 1 11.905 1C14.0437 1 16.1464 1.56503 17.9854 2.63398C19.7694 3.6709 21.2702 5.15657 22.3256 6.93033C22.502 7.22696 22.4047 7.61052 22.1081 7.78703C22.0079 7.84665 21.8977 7.875 21.7891 7.87504C21.5759 7.87504 21.3682 7.76597 21.2514 7.56952C19.299 4.2883 15.7177 2.25 11.905 2.25C8.53034 2.25 5.33672 3.8484 3.29204 6.49156L5.83335 6.23178C6.1766 6.19619 6.48345 6.44662 6.5187 6.78998C6.5538 7.13338 6.30386 7.4402 5.96046 7.4753L2.08282 7.87168C2.06161 7.87386 2.0404 7.87492 2.01927 7.87492ZM26.0853 19.0064C25.2523 18.5241 24.2209 18.5205 23.3938 18.997C23.3593 19.0169 23.3264 19.0386 23.2931 19.0599C23.1816 17.393 21.8437 16.5211 20.5199 16.5201C20.5191 16.5201 20.5184 16.5201 20.5176 16.5201C19.7276 16.5201 18.9325 16.8307 18.3956 17.4353C18.1997 17.1916 17.9592 16.9827 17.6764 16.819C16.7848 16.3026 15.6312 16.3015 14.7375 16.816C14.7141 16.8295 14.6921 16.8444 14.6692 16.8585L14.6736 7.9775C14.675 7.23661 14.3861 6.53841 13.8602 6.01148C13.3342 5.48452 12.6367 5.19433 11.8973 5.19433C11.8955 5.19433 11.8938 5.19433 11.892 5.19433C11.1547 5.19433 10.459 5.48356 9.93239 6.00916C9.40474 6.53585 9.11414 7.23287 9.11414 7.97148L9.10429 22.6446L7.5598 20.6114C6.68891 19.4625 5.34545 18.8497 4.05494 19.0121C3.08768 19.1337 2.31284 19.6753 1.98226 20.4608C1.76413 20.9792 1.56142 22.064 2.65517 23.506C4.93956 26.5162 5.70952 28.7075 6.38884 30.6408C6.94212 32.2154 7.41995 33.5753 8.58404 34.9064C9.61447 36.0867 10.1095 37.4161 10.0973 38.9705L10.0863 40.37C10.0836 40.7152 10.3612 40.9972 10.7063 41C10.708 41 10.7097 41 10.7114 41C11.0542 41 11.3335 40.7234 11.3363 40.3799L11.3473 38.9803C11.3619 37.1066 10.7661 35.5051 9.52537 34.084C8.51943 32.9337 8.09966 31.739 7.56819 30.2264C6.89353 28.3064 6.05383 25.9168 3.65104 22.7504C3.12171 22.0527 2.93823 21.4117 3.13438 20.9457C3.28963 20.5768 3.69209 20.3176 4.21096 20.2523C4.87632 20.1685 5.84411 20.4173 6.56409 21.367L9.23041 24.8771C9.39269 25.0907 9.67337 25.1768 9.92736 25.0914C10.1816 25.0059 10.3529 24.7677 10.3531 24.4994L10.3641 7.97191C10.3641 7.56724 10.5244 7.18436 10.8155 6.89387C11.106 6.60392 11.4882 6.44435 11.8932 6.44435H11.8961C12.3024 6.44435 12.6857 6.60423 12.9754 6.89456C13.2652 7.18486 13.4244 7.56862 13.4236 7.97603L13.417 21.5378C13.4168 21.883 13.6965 22.163 14.0416 22.1632H14.042C14.387 22.1632 14.6668 21.8835 14.667 21.5385L14.6681 19.262C14.6702 19.2409 14.6714 19.2195 14.6714 19.1979C14.672 18.4527 15.047 18.0804 15.3615 17.8992C15.8672 17.608 16.5458 17.6087 17.0501 17.9007C17.3633 18.0821 17.7365 18.4545 17.7353 19.1996V21.5381C17.7353 21.8833 18.0152 22.1631 18.3603 22.1631C18.7055 22.1631 18.9853 21.8833 18.9853 21.5381V19.2842C18.9862 18.2381 19.7552 17.7701 20.5175 17.7701H20.5189C21.2823 17.7706 22.0523 18.2402 22.0514 19.2882V21.5381H22.0515C22.0515 21.8831 22.331 22.1629 22.676 22.1631H22.6765C23.0214 22.1631 23.3012 21.8836 23.3015 21.5386C23.3019 20.8639 23.5563 20.3459 24.0177 20.0802C24.4523 19.8298 25.0181 19.8329 25.459 20.0882C25.9288 20.3602 26.187 20.8756 26.186 21.5397L26.1793 28.0384C26.1813 30.261 25.3767 32.4056 23.9135 34.0772C22.6886 35.4775 22.0747 37.1264 22.0891 38.9782L22.1002 40.38C22.103 40.7234 22.3823 41 22.7251 41H22.7302C23.0753 40.9973 23.353 40.7152 23.3502 40.37L23.3391 38.9684C23.327 37.4103 23.8226 36.0796 24.8542 34.9004C26.5171 33.0006 27.4316 30.5633 27.4293 28.0385L27.436 21.5413C27.4376 20.4283 26.9453 19.5044 26.0853 19.0064Z" stroke="#04004D" stroke-width="0.3" mask="url(#path-1-outside-1_11080_19771)"/>
</svg>
