<svg width="40" height="40" viewBox="0 0 40 40" fill="none" xmlns="http://www.w3.org/2000/svg">
<g filter="url(#filter0_b_8707_14968)">
<rect width="40" height="40" rx="15" fill="white" fill-opacity="0.4"/>
<rect x="0.5" y="0.5" width="39" height="39" rx="14.5" stroke="url(#paint0_linear_8707_14968)"/>
</g>
<path d="M12.448 15.07C12.6245 13.8317 13.1991 13.3644 14.4002 13.3644H25.2237C25.4019 13.3723 25.57 13.4477 25.6932 13.5748C25.8164 13.7019 25.885 13.8709 25.8848 14.0466V15.07H12.448ZM27.2693 15.1007V14.0466C27.2694 13.5091 27.0549 12.9931 26.6721 12.6102C26.2894 12.2272 25.7691 12.0081 25.2237 12H14.4002C11.3888 12 11.0462 14.4185 11.0012 15.6737C10.9996 15.6862 10.9996 15.6988 11.0012 15.7113V15.7522V26.6676C11.0012 27.2104 11.22 27.731 11.6094 28.1148C11.9989 28.4987 12.5272 28.7143 13.078 28.7143H26.9232C27.474 28.7143 28.0023 28.4987 28.3917 28.1148C28.7812 27.731 29 27.2104 29 26.6676V17.1166C28.9995 16.6333 28.8255 16.1658 28.5087 15.7968C28.1919 15.4278 27.7529 15.1812 27.2693 15.1007ZM25.0195 23.5977C24.7114 23.5977 24.4103 23.5076 24.1541 23.339C23.898 23.1703 23.6984 22.9306 23.5805 22.6501C23.4626 22.3696 23.4317 22.061 23.4918 21.7632C23.5519 21.4655 23.7003 21.192 23.9181 20.9773C24.1359 20.7626 24.4135 20.6164 24.7156 20.5572C25.0178 20.498 25.3309 20.5284 25.6156 20.6445C25.9002 20.7607 26.1434 20.9575 26.3146 21.2099C26.4857 21.4623 26.5771 21.7591 26.5771 22.0627C26.5775 22.2644 26.5376 22.4642 26.4594 22.6506C26.3813 22.8371 26.2666 23.0065 26.1219 23.1491C25.9772 23.2917 25.8053 23.4048 25.6161 23.4817C25.4269 23.5587 25.2242 23.5981 25.0195 23.5977Z" fill="#04004D"/>
<defs>
<filter id="filter0_b_8707_14968" x="-22" y="-22" width="84" height="84" filterUnits="userSpaceOnUse" color-interpolation-filters="sRGB">
<feFlood flood-opacity="0" result="BackgroundImageFix"/>
<feGaussianBlur in="BackgroundImage" stdDeviation="11"/>
<feComposite in2="SourceAlpha" operator="in" result="effect1_backgroundBlur_8707_14968"/>
<feBlend mode="normal" in="SourceGraphic" in2="effect1_backgroundBlur_8707_14968" result="shape"/>
</filter>
<linearGradient id="paint0_linear_8707_14968" x1="19.7105" y1="-17.6775" x2="-18.2566" y2="20.2895" gradientUnits="userSpaceOnUse">
<stop stop-color="#DADAFF"/>
<stop offset="0.0001" stop-color="#DADAFF" stop-opacity="0"/>
<stop offset="1" stop-color="#DADAFF" stop-opacity="0.4"/>
</linearGradient>
</defs>
</svg>
