<svg width="28" height="28" viewBox="0 0 28 28" fill="none" xmlns="http://www.w3.org/2000/svg">
<path d="M25.2832 16.683L24.8165 22.5163C24.6415 24.3013 24.5015 25.6663 21.3399 25.6663H6.66318C3.50152 25.6663 3.36152 24.3013 3.18652 22.5163L2.71985 16.683C2.62652 15.7147 2.92985 14.8163 3.47818 14.128C3.48985 14.1163 3.48985 14.1163 3.50152 14.1047C4.14318 13.323 5.11152 12.833 6.19652 12.833H21.8065C22.8915 12.833 23.8482 13.323 24.4782 14.0813C24.4899 14.093 24.5015 14.1047 24.5015 14.1163C25.0732 14.8047 25.3882 15.703 25.2832 16.683Z" stroke="#04004D" stroke-width="1.5" stroke-miterlimit="10"/>
<path d="M4.08203 13.3348V7.3265C4.08203 3.35983 5.0737 2.36816 9.04036 2.36816H10.522C12.0037 2.36816 12.342 2.8115 12.902 3.55816L14.3837 5.5415C14.757 6.0315 14.9787 6.33483 15.9704 6.33483H18.9454C22.912 6.33483 23.9037 7.3265 23.9037 11.2932V13.3815" stroke="#04004D" stroke-width="1.5" stroke-miterlimit="10" stroke-linecap="round" stroke-linejoin="round"/>
<path d="M11.0039 19.833H17.0006" stroke="#04004D" stroke-width="1.5" stroke-miterlimit="10" stroke-linecap="round" stroke-linejoin="round"/>
</svg>
