<svg width="24" height="24" viewBox="0 0 24 24" fill="none" xmlns="http://www.w3.org/2000/svg">
<g clip-path="url(#clip0_10049_19202)">
<path d="M23.7042 0.255332C23.3276 -0.0989494 22.7346 -0.0808087 22.3796 0.295176C22.3693 0.306004 21.3325 1.39425 19.5369 2.46366C17.9115 3.43163 15.2812 4.59375 12.0468 4.59375C8.95309 4.59375 6.16876 3.42164 4.52364 2.45855C2.70878 1.39613 1.64031 0.315238 1.61082 0.285238C1.25087 -0.0864337 0.657807 -0.0961369 0.285807 0.263488C-0.0863801 0.623394 -0.0963645 1.21688 0.263495 1.58911C0.312432 1.63979 1.4859 2.84307 3.51859 4.04269C4.76476 4.77816 6.06779 5.35271 7.39585 5.75808C4.36267 7.40058 2.29796 10.6121 2.29796 14.2969C2.29796 19.6472 6.65073 24 12.0011 24C14.0684 24 16.0418 23.3585 17.7081 22.145C18.1267 21.8401 18.2189 21.2537 17.914 20.8352C17.6093 20.4167 17.0229 20.3245 16.6043 20.6293C15.2608 21.6078 13.669 22.125 12.0011 22.125C7.68465 22.125 4.17296 18.6133 4.17296 14.2969C4.17296 10.0011 7.73434 6.46875 12 6.46875V6.47025C16.2187 6.47025 19.8292 10.0197 19.8292 14.2969C19.8292 15.4025 19.6037 16.4707 19.1588 17.4719C18.9486 17.945 19.1618 18.499 19.6349 18.7093C20.108 18.9195 20.662 18.7064 20.8723 18.2332C21.4243 16.9908 21.7042 15.6665 21.7042 14.2969C21.7042 10.6288 19.6581 7.42979 16.6474 5.78063C17.9919 5.37347 19.3058 4.78988 20.5558 4.03899C22.5574 2.83664 23.6988 1.62938 23.7464 1.57857C24.1001 1.20127 24.0809 0.609613 23.7042 0.255332Z" fill="#667386"/>
</g>
<defs>
<clipPath id="clip0_10049_19202">
<rect width="24" height="24" fill="white"/>
</clipPath>
</defs>
</svg>
