<svg width="28" height="28" viewBox="0 0 28 28" fill="none" xmlns="http://www.w3.org/2000/svg">
<path d="M15.9609 12.9633C15.724 12.9633 15.4871 12.8731 15.3066 12.6922C13.8635 11.249 11.5153 11.2485 10.0717 12.6922C9.71081 13.0535 9.12411 13.0535 8.76321 12.6922C8.40185 12.3308 8.40185 11.745 8.76321 11.3837C10.9282 9.21824 14.4507 9.2187 16.6151 11.3837C16.9765 11.745 16.9765 12.3308 16.6151 12.6922C16.4347 12.8731 16.1973 12.9633 15.9609 12.9633Z" fill="#04004D"/>
<path d="M15.3103 18.2393C13.8884 18.2393 12.4665 17.6979 11.3843 16.6157C11.0229 16.2543 11.0229 15.6685 11.3843 15.3072C11.7452 14.9458 12.3319 14.9458 12.6928 15.3072C14.136 16.7503 16.4841 16.7508 17.9277 15.3072C18.2886 14.9458 18.8753 14.9458 19.2362 15.3072C19.5976 15.6685 19.5976 16.2543 19.2362 16.6157C18.1535 17.6979 16.7317 18.2393 15.3103 18.2393Z" fill="#04004D"/>
<path d="M18.5815 16.889C18.3446 16.889 18.1077 16.7988 17.9273 16.6179C17.5659 16.2565 17.5659 15.6708 17.9273 15.3094L23.0965 10.1402C23.4574 9.7788 24.0441 9.7788 24.405 10.1402C24.7664 10.5015 24.7664 11.0873 24.405 11.4487L19.2358 16.6179C19.0553 16.7988 18.8184 16.889 18.5815 16.889Z" fill="#04004D"/>
<path d="M10.7925 24.6757C10.5556 24.6757 10.3187 24.5855 10.1382 24.4046C9.77685 24.0432 9.77685 23.4575 10.1382 23.0961L13.0277 20.2066C13.3886 19.8452 13.9753 19.8452 14.3362 20.2066C14.6976 20.5679 14.6976 21.1537 14.3362 21.5151L11.4467 24.4046C11.2663 24.5855 11.0294 24.6757 10.7925 24.6757Z" fill="#04004D"/>
<path d="M4.2534 18.1308C4.0165 18.1308 3.7796 18.0405 3.59915 17.8596C3.23778 17.4983 3.23778 16.9125 3.59915 16.5511L8.76838 11.3824C9.12974 11.021 9.71598 11.021 10.0769 11.3824C10.4382 11.7437 10.4382 12.3295 10.0769 12.6909L4.90765 17.8596C4.72674 18.0401 4.48984 18.1308 4.2534 18.1308Z" fill="#04004D"/>
<path d="M14.312 8.06683C14.0751 8.06683 13.8387 7.97661 13.6577 7.79615C13.2964 7.43479 13.2964 6.84902 13.6577 6.48719L16.5473 3.5972C16.9086 3.23583 17.4944 3.23583 17.8562 3.5972C18.2176 3.95856 18.2176 4.54433 17.8562 4.90616L14.9667 7.79615C14.7858 7.97614 14.5484 8.06683 14.312 8.06683Z" fill="#04004D"/>
<path d="M7.52227 25.999C6.09115 25.999 4.66003 25.4669 3.5963 24.4027C1.4679 22.2743 1.4679 18.6787 3.5963 16.5503C3.9572 16.189 4.5439 16.189 4.9048 16.5503C5.26616 16.9117 5.26616 17.4975 4.9048 17.8588C3.48618 19.2774 3.48618 21.6751 4.9048 23.0938C6.32342 24.5124 8.72111 24.5124 10.1397 23.0938C10.5006 22.7324 11.0873 22.7324 11.4482 23.0938C11.8096 23.4551 11.8096 24.0409 11.4482 24.4023C10.3845 25.4669 8.95338 25.999 7.52227 25.999Z" fill="#04004D"/>
<path d="M23.75 11.7194C23.5131 11.7194 23.2762 11.6291 23.0957 11.4482C22.7343 11.0869 22.7343 10.5011 23.0957 10.1397C24.5143 8.72111 24.5143 6.32342 23.0957 4.9048C21.6771 3.48618 19.2794 3.48618 17.8608 4.9048C17.4999 5.26616 16.9132 5.26616 16.5523 4.9048C16.1909 4.54343 16.1909 3.95766 16.5523 3.5963C18.6807 1.4679 22.2763 1.4679 24.4047 3.5963C26.5331 5.7247 26.5331 9.3203 24.4047 11.4487C24.2238 11.6291 23.9869 11.7194 23.75 11.7194Z" fill="#04004D"/>
</svg>
