<svg width="24" height="24" viewBox="0 0 24 24" fill="none" xmlns="http://www.w3.org/2000/svg">
<g clip-path="url(#clip0_10049_19214)">
<path d="M19.8024 0.244268C19.4192 -0.103941 18.8275 -0.0768493 18.4793 0.306232C18.4731 0.312982 17.8468 0.986152 16.7338 1.6461C15.2694 2.51435 13.6918 2.95462 12.0448 2.95462C10.3941 2.95462 8.79858 2.51257 7.30253 1.64081C6.16533 0.978184 5.51607 0.302342 5.50918 0.295077C5.15441 -0.0801771 4.56265 -0.0978477 4.18613 0.255986C3.80882 0.610523 3.79039 1.20378 4.14488 1.58109C4.23019 1.67188 5.65504 3.16039 8.08257 4.0906C5.96116 5.41679 4.54681 7.77321 4.54681 10.4541C4.54681 14.2719 7.41446 17.4324 11.1088 17.8951V19.7816H9.70269C9.18494 19.7816 8.76525 20.2013 8.76525 20.719C8.76525 21.2368 9.18494 21.6564 9.70269 21.6564H11.1088V23.0626C11.1088 23.5803 11.5285 24 12.0463 24C12.564 24 12.9837 23.5803 12.9837 23.0626V21.6564H14.3898C14.9076 21.6564 15.3273 21.2368 15.3273 20.719C15.3273 20.2013 14.9076 19.7816 14.3898 19.7816H12.9837V17.8954C13.7728 17.7976 14.5357 17.5759 15.2608 17.2314C15.7285 17.0093 15.9275 16.4501 15.7053 15.9824C15.4832 15.5148 14.9239 15.3157 14.4564 15.5379C13.7009 15.8968 12.89 16.0787 12.0463 16.0787C8.94491 16.0787 6.42172 13.5555 6.42172 10.4541C6.42172 7.35272 8.94491 4.82953 12.0463 4.82953C15.1477 4.82953 17.6709 7.35272 17.6709 10.4541C17.6709 11.1914 17.5307 11.9078 17.2542 12.5832C17.0581 13.0624 17.2875 13.6098 17.7667 13.8059C18.2458 14.002 18.7932 13.7726 18.9894 13.2934C19.3586 12.3914 19.5458 11.4361 19.5458 10.4541C19.5458 7.76932 18.1273 5.40999 16.0008 4.08488C18.4007 3.1512 19.7818 1.66073 19.8645 1.5697C20.2127 1.18658 20.1855 0.592524 19.8024 0.244268Z" fill="#667386"/>
</g>
<defs>
<clipPath id="clip0_10049_19214">
<rect width="24" height="24" fill="white"/>
</clipPath>
</defs>
</svg>
