<svg width="21" height="22" viewBox="0 0 21 22" fill="none" xmlns="http://www.w3.org/2000/svg">
<path d="M4.12473 20.5161C2.53936 19.6009 1.20637 18.3101 0.245549 16.7539C-0.141509 16.1269 -0.065479 15.3422 0.434749 14.8012C0.935802 14.2593 1.71339 14.1219 2.36975 14.4593C4.43634 15.5217 6.71297 15.8874 8.45989 15.4375C8.83998 15.3396 9.20462 15.2035 9.54359 15.0329C10.6477 14.4771 11.5754 13.6023 12.2272 12.5027C12.8536 11.3885 13.1473 10.1476 13.0766 8.91354C13.0548 8.53467 12.9904 8.15086 12.8852 7.77275C12.4013 6.03498 10.9463 4.2461 8.99301 2.98761C8.37261 2.58792 8.10278 1.84576 8.32155 1.14089C8.53994 0.437183 9.18147 -0.0210356 9.91798 0.000743935C12.233 0.0691244 14.4357 0.85002 16.2877 2.25839C18.1739 3.69288 19.5245 5.65444 20.1932 7.93101C21.0491 10.8444 20.6895 13.8932 19.1809 16.5159C18.1791 18.2448 16.7362 19.6624 15.0067 20.6179C14.5915 20.8473 14.0691 20.6966 13.8399 20.2816C13.6106 19.8665 13.7611 19.3441 14.1762 19.1147C15.6331 18.3098 16.8494 17.1142 17.6936 15.6572C18.965 13.4471 19.268 10.8743 18.5456 8.41503C17.4359 4.63809 14.1108 1.98966 10.2082 1.73352C11.4303 2.57132 13.7508 4.47937 14.5396 7.31204C14.6777 7.80819 14.7624 8.31396 14.7911 8.81526C14.8809 10.3812 14.5101 11.9506 13.7189 13.3538L13.7146 13.3614L13.7101 13.369C12.8905 14.7558 11.7168 15.8616 10.3157 16.5669C9.86721 16.7926 9.38686 16.9722 8.88811 17.1006C6.04061 17.8339 3.22812 16.7784 1.89177 16.139C3.76845 18.938 7.09192 20.5427 10.4562 20.2471C10.9285 20.2056 11.3452 20.5549 11.3867 21.0273C11.4282 21.4997 11.0789 21.9163 10.6065 21.9578C8.56222 22.1375 6.50922 21.7408 4.66947 20.8108C4.48488 20.7174 4.30309 20.6191 4.12473 20.5161Z" fill="#667386"/>
</svg>
