<svg width="28" height="28" viewBox="0 0 28 28" fill="none" xmlns="http://www.w3.org/2000/svg">
<path d="M25.9922 14.6192L22.4922 18.1192C22.1501 18.4613 21.5971 18.4613 21.255 18.1192C20.9128 17.777 20.9128 17.224 21.255 16.8819L23.2613 14.8755H14.8736V23.2633L16.88 21.2569C17.2221 20.9148 17.7751 20.9148 18.1172 21.2569C18.4593 21.599 18.4593 22.152 18.1172 22.4942L14.6172 25.9942C14.2865 26.3258 13.7308 26.3459 13.3791 25.9942L9.87908 22.4942C9.53695 22.152 9.53695 21.599 9.87908 21.2569C10.2212 20.9148 10.7742 20.9148 11.1163 21.2569L13.1236 23.2633V14.8755H4.73583L6.7422 16.8819C7.08433 17.224 7.08433 17.777 6.7422 18.1192C6.40008 18.4613 5.84708 18.4613 5.50495 18.1192L2.00495 14.6192C1.66633 14.2805 1.6637 13.7223 2.00495 13.381L5.50495 9.88103C5.84708 9.53891 6.40008 9.53891 6.7422 9.88103C7.08433 10.2232 7.08433 10.7762 6.7422 11.1183L4.73583 13.1255H13.1236V4.73778L11.1172 6.74416C10.7751 7.08628 10.2221 7.08628 9.87995 6.74416C9.53783 6.40203 9.53783 5.84903 9.87995 5.50691L13.38 2.00691C13.7186 1.66828 14.2768 1.66566 14.6181 2.00691L18.1181 5.50691C18.4602 5.84903 18.4602 6.40203 18.1181 6.74416C17.9466 6.91478 17.7226 7.00053 17.4986 7.00053C17.2746 7.00053 17.0506 6.91478 16.88 6.74416L14.8736 4.73778V13.1255H23.2613L21.255 11.1192C20.9128 10.777 20.9128 10.224 21.255 9.88191C21.5971 9.53978 22.1501 9.53978 22.4922 9.88191L25.9922 13.3819C26.3335 13.7223 26.3308 14.2814 25.9922 14.6192Z" fill="#04004D"/>
</svg>
