<svg width="20" height="20" viewBox="0 0 20 20" fill="none" xmlns="http://www.w3.org/2000/svg">
<path d="M18.3337 8.12533C17.992 8.12533 17.7087 7.84199 17.7087 7.50033V5.83366C17.7087 3.68366 16.317 2.29199 14.167 2.29199H5.83366C3.68366 2.29199 2.29199 3.68366 2.29199 5.83366V7.50033C2.29199 7.84199 2.00866 8.12533 1.66699 8.12533C1.32533 8.12533 1.04199 7.84199 1.04199 7.50033V5.83366C1.04199 2.96699 2.96699 1.04199 5.83366 1.04199H14.167C17.0337 1.04199 18.9587 2.96699 18.9587 5.83366V7.50033C18.9587 7.84199 18.6753 8.12533 18.3337 8.12533Z"/>
<path d="M14.167 18.9583H5.83366C2.96699 18.9583 1.04199 17.0333 1.04199 14.1667V12.5C1.04199 12.1583 1.32533 11.875 1.66699 11.875C2.00866 11.875 2.29199 12.1583 2.29199 12.5V14.1667C2.29199 16.3167 3.68366 17.7083 5.83366 17.7083H14.167C16.317 17.7083 17.7087 16.3167 17.7087 14.1667V12.5C17.7087 12.1583 17.992 11.875 18.3337 11.875C18.6753 11.875 18.9587 12.1583 18.9587 12.5V14.1667C18.9587 17.0333 17.0337 18.9583 14.167 18.9583Z"/>
<path d="M13.6668 6.84147L10.5335 5.1498C10.2001 4.9748 9.80846 4.9748 9.47513 5.1498L6.33346 6.84147C6.10846 6.96647 5.9668 7.20814 5.9668 7.47481C5.9668 7.74981 6.10846 7.99147 6.33346 8.11647L9.4668 9.80814C9.63346 9.8998 9.8168 9.94147 10.0001 9.94147C10.1835 9.94147 10.3668 9.8998 10.5335 9.80814L13.6668 8.11647C13.8918 7.99147 14.0335 7.74981 14.0335 7.47481C14.0335 7.20814 13.8918 6.96647 13.6668 6.84147Z"/>
<path d="M8.95 10.3914L6.03333 8.93303C5.80833 8.8247 5.55 8.83303 5.33333 8.96636C5.125 9.0997 5 9.3247 5 9.5747V12.333C5 12.808 5.26667 13.2414 5.69167 13.4497L8.60833 14.908C8.70833 14.958 8.81667 14.983 8.93333 14.983C9.06667 14.983 9.19167 14.9497 9.30833 14.8747C9.525 14.7414 9.65 14.5164 9.65 14.2664V11.508C9.64167 11.033 9.38333 10.608 8.95 10.3914Z"/>
<path d="M14.6579 8.96636C14.4413 8.83303 14.1829 8.8247 13.9579 8.93303L11.0413 10.3914C10.6163 10.608 10.3496 11.033 10.3496 11.508V14.2664C10.3496 14.5164 10.4746 14.7414 10.6913 14.8747C10.8079 14.9497 10.9329 14.983 11.0663 14.983C11.1746 14.983 11.2829 14.958 11.3913 14.908L14.3079 13.4497C14.7329 13.233 14.9996 12.808 14.9996 12.333V9.5747C14.9996 9.3247 14.8746 9.0997 14.6579 8.96636Z"/>
</svg>
