<svg viewBox="0 0 64 64" fill="none" xmlns="http://www.w3.org/2000/svg">
<circle cx="32" cy="32" r="32" fill="url(#paint0_linear_8678_15093)" fill-opacity="0.2"/>
<circle cx="32" cy="32" r="28" fill="url(#paint1_linear_8678_15093)" fill-opacity="0.2"/>
<circle cx="32" cy="32" r="24" fill="url(#paint2_linear_8678_15093)" fill-opacity="0.2"/>
<g clip-path="url(#clip0_8678_15093)">
<path d="M52 32C52 43.0458 43.0458 52 32 52C20.9542 52 12 43.0458 12 32C12 20.9542 20.9542 12 32 12C43.0458 12 52 20.9542 52 32Z" fill="url(#paint3_linear_8678_15093)"/>
<path d="M33.6299 43.4242C33.6299 44.3516 32.878 45.1033 31.9506 45.1033C31.0234 45.1033 30.2715 44.3516 30.2715 43.4242C30.2715 42.4968 31.0234 41.7451 31.9506 41.7451C32.878 41.7451 33.6299 42.4968 33.6299 43.4242Z" fill="white"/>
<path d="M25.6684 25.9107C25.376 25.333 24.6708 25.102 24.0934 25.394C22.2526 26.3254 20.5842 27.5864 19.1349 29.1413C18.6936 29.6146 18.7198 30.3562 19.1932 30.7975C19.419 31.008 19.7056 31.1121 19.9918 31.1121C20.3055 31.1121 20.6186 30.9867 20.8494 30.7392C22.11 29.3866 23.5575 28.292 25.1517 27.4854C25.7291 27.193 25.9604 26.4881 25.6684 25.9107Z" fill="white"/>
<path d="M44.8672 29.1412C43.3745 27.5396 41.6509 26.2515 39.7448 25.3124C39.164 25.0262 38.4615 25.2651 38.1756 25.8456C37.8896 26.4263 38.1283 27.1288 38.709 27.4148C40.3594 28.2281 41.8545 29.3466 43.1527 30.7394C43.3834 30.9869 43.6965 31.1123 44.0102 31.1123C44.2965 31.1123 44.5833 31.0082 44.8092 30.7977C45.2825 30.3564 45.3084 29.6148 44.8672 29.1412Z" fill="white"/>
<path d="M32.001 29.4316C28.6169 29.4316 25.376 30.8199 22.8751 33.34C22.4194 33.7993 22.4222 34.5415 22.8815 34.9971C23.11 35.2242 23.4085 35.3374 23.707 35.3374C24.0082 35.3371 24.3097 35.2217 24.5389 34.9907C26.5961 32.9174 29.2462 31.7754 32.001 31.7754C34.7552 31.7754 37.4054 32.9171 39.4635 34.9907C39.9194 35.4503 40.6616 35.4531 41.1209 34.9971C41.5802 34.5412 41.5829 33.7993 41.127 33.3397C38.6255 30.8196 35.3845 29.4316 32.001 29.4316Z" fill="white"/>
<path d="M31.9917 35.3828C31.9914 35.3828 31.9911 35.3828 31.9908 35.3828H31.9175C31.9172 35.3828 31.9169 35.3828 31.9166 35.3828C30.1463 35.3828 28.2066 36.2144 26.855 37.5538C26.3951 38.0095 26.3917 38.7513 26.8473 39.2112C27.3027 39.6708 28.0445 39.6745 28.5044 39.2189C29.4197 38.3122 30.7588 37.7266 31.9166 37.7266H31.9172H31.9908H31.9914C33.1489 37.7266 34.4883 38.3122 35.4035 39.2189C35.6318 39.4453 35.93 39.5582 36.2281 39.5582C36.53 39.5582 36.8315 39.4426 37.0606 39.2112C37.5163 38.7516 37.5129 38.0095 37.053 37.5541C35.7014 36.2144 33.762 35.3828 31.9917 35.3828Z" fill="white"/>
<path d="M27.8649 27.41C28.0938 27.6389 28.3934 27.7534 28.6934 27.7534C28.9934 27.7534 29.2934 27.6389 29.522 27.41L31.95 24.9821L34.3779 27.41C34.6068 27.6389 34.9065 27.7534 35.2065 27.7534C35.5065 27.7534 35.8065 27.6389 36.035 27.41C36.4928 26.9526 36.4928 26.2104 36.035 25.7529L33.6071 23.325L36.035 20.897C36.4928 20.4392 36.4928 19.6973 36.035 19.2396C35.5776 18.7821 34.8354 18.7821 34.3779 19.2396L31.95 21.6676L29.522 19.2396C29.0642 18.7821 28.3223 18.7821 27.8646 19.2396C27.4071 19.6973 27.4071 20.4392 27.8646 20.897L30.2926 23.325L27.8646 25.7529C27.4071 26.2104 27.4071 26.9526 27.8649 27.41Z" fill="white"/>
</g>
<defs>
<linearGradient id="paint0_linear_8678_15093" x1="-8.31045" y1="-57.7145" x2="70.4898" y2="-57.0036" gradientUnits="userSpaceOnUse">
<stop stop-color="#161616"/>
<stop offset="1" stop-color="#505050"/>
</linearGradient>
<linearGradient id="paint1_linear_8678_15093" x1="-3.27164" y1="-46.5002" x2="65.6785" y2="-45.8782" gradientUnits="userSpaceOnUse">
<stop stop-color="#161616"/>
<stop offset="1" stop-color="#505050"/>
</linearGradient>
<linearGradient id="paint2_linear_8678_15093" x1="1.76717" y1="-35.2859" x2="60.8673" y2="-34.7527" gradientUnits="userSpaceOnUse">
<stop stop-color="#161616"/>
<stop offset="1" stop-color="#505050"/>
</linearGradient>
<linearGradient id="paint3_linear_8678_15093" x1="6.80597" y1="-24.0716" x2="56.0561" y2="-23.6273" gradientUnits="userSpaceOnUse">
<stop stop-color="#161616"/>
<stop offset="1" stop-color="#505050"/>
</linearGradient>
<clipPath id="clip0_8678_15093">
<rect width="40" height="40" fill="white" transform="translate(12 12)"/>
</clipPath>
</defs>
</svg>
