<svg width="32" height="32" viewBox="0 0 32 32" fill="none" xmlns="http://www.w3.org/2000/svg">
<rect width="32" height="32" rx="6" fill="#554CFF"/>
<path d="M23.5119 9.85L17.5719 6.42C16.6019 5.86 15.4019 5.86 14.4219 6.42L8.49187 9.85C7.52187 10.41 6.92188 11.45 6.92188 12.58V19.42C6.92188 20.54 7.52187 21.58 8.49187 22.15L14.4319 25.58C15.4019 26.14 16.6019 26.14 17.5819 25.58L23.5219 22.15C24.4919 21.59 25.0919 20.55 25.0919 19.42V12.58C25.0819 11.45 24.4819 10.42 23.5119 9.85ZM16.0019 11.34C17.2919 11.34 18.3319 12.38 18.3319 13.67C18.3319 14.96 17.2919 16 16.0019 16C14.7119 16 13.6719 14.96 13.6719 13.67C13.6719 12.39 14.7119 11.34 16.0019 11.34ZM18.6819 20.66H13.3219C12.5119 20.66 12.0419 19.76 12.4919 19.09C13.1719 18.08 14.4919 17.4 16.0019 17.4C17.5119 17.4 18.8319 18.08 19.5119 19.09C19.9619 19.75 19.4819 20.66 18.6819 20.66Z" fill="white"/>
</svg>
