<svg width="20" height="20" viewBox="0 0 20 20" fill="none" xmlns="http://www.w3.org/2000/svg">
<path d="M4.16797 8.33366H5.83464C7.5013 8.33366 8.33464 7.50033 8.33464 5.83366V4.16699C8.33464 2.50033 7.5013 1.66699 5.83464 1.66699H4.16797C2.5013 1.66699 1.66797 2.50033 1.66797 4.16699V5.83366C1.66797 7.50033 2.5013 8.33366 4.16797 8.33366Z" stroke="#04004D" stroke-width="1.5" stroke-miterlimit="10" stroke-linecap="round" stroke-linejoin="round"/>
<path d="M14.168 8.33366H15.8346C17.5013 8.33366 18.3346 7.50033 18.3346 5.83366V4.16699C18.3346 2.50033 17.5013 1.66699 15.8346 1.66699H14.168C12.5013 1.66699 11.668 2.50033 11.668 4.16699V5.83366C11.668 7.50033 12.5013 8.33366 14.168 8.33366Z" stroke="#04004D" stroke-width="1.5" stroke-miterlimit="10" stroke-linecap="round" stroke-linejoin="round"/>
<path d="M4.16797 18.3337H5.83464C7.5013 18.3337 8.33464 17.5003 8.33464 15.8337V14.167C8.33464 12.5003 7.5013 11.667 5.83464 11.667H4.16797C2.5013 11.667 1.66797 12.5003 1.66797 14.167V15.8337C1.66797 17.5003 2.5013 18.3337 4.16797 18.3337Z" stroke="#04004D" stroke-width="1.5" stroke-miterlimit="10" stroke-linecap="round" stroke-linejoin="round"/>
<path d="M12 15H18" stroke="#04004D" stroke-width="1.5" stroke-linecap="round"/>
</svg>
