<svg width="24" height="24" viewBox="0 0 24 24" fill="none" xmlns="http://www.w3.org/2000/svg">
<path d="M13.4062 7.82812C10.7466 7.82812 8.12948 9.78183 6.84375 12.7082V19.3125C6.84375 19.8303 6.42403 20.25 5.90625 20.25C5.38847 20.25 4.96875 19.8303 4.96875 19.3125V4.21875H3.5625C3.04472 4.21875 2.625 3.79903 2.625 3.28125C2.625 2.76347 3.04472 2.34375 3.5625 2.34375H4.96875V0.9375C4.96875 0.419719 5.38847 0 5.90625 0C6.42403 0 6.84375 0.419719 6.84375 0.9375V2.34375H8.25C8.76778 2.34375 9.1875 2.76347 9.1875 3.28125C9.1875 3.79903 8.76778 4.21875 8.25 4.21875H6.84375V9.20677C7.329 8.6393 7.86834 8.12887 8.45569 7.68783C9.96694 6.55298 11.6788 5.95312 13.4062 5.95312C15.1975 5.95312 16.44 6.46477 17.2047 7.5173C17.9927 8.60189 18.0938 10.0819 18.0938 11.25C18.0938 11.6288 18.0741 12.036 18.0353 12.4604C17.9881 12.976 17.5315 13.3557 17.0163 13.3086C16.5007 13.2615 16.1209 12.8053 16.168 12.2896C16.2017 11.9218 16.2188 11.572 16.2188 11.25C16.2188 8.59566 15.5879 7.82812 13.4062 7.82812ZM20.4375 19.7812C19.9197 19.7812 19.5 20.201 19.5 20.7188C19.5 21.4942 18.8692 22.125 18.0938 22.125C17.3183 22.125 16.6875 21.4942 16.6875 20.7188C16.6875 19.7583 16.881 18.6395 17.1716 17.2551C17.278 16.7483 16.9534 16.2513 16.4467 16.145C15.9399 16.0385 15.443 16.3631 15.3366 16.8699C15.022 18.3686 14.8125 19.5967 14.8125 20.7188C14.8125 22.528 16.2845 24 18.0938 24C19.903 24 21.375 22.528 21.375 20.7188C21.375 20.201 20.9553 19.7812 20.4375 19.7812Z" fill="#667386"/>
</svg>
