<svg width="24" height="25" viewBox="0 0 24 25" fill="none" xmlns="http://www.w3.org/2000/svg">
<path d="M18.5625 15.75H9.375V15.3125C9.375 15.0938 9.15625 14.875 8.9375 14.875H8.0625C7.81641 14.875 7.625 15.0938 7.625 15.3125V15.75H5.4375C5.19141 15.75 5 15.9688 5 16.1875V17.0625C5 17.3086 5.19141 17.5 5.4375 17.5H7.625V17.9375C7.625 18.1836 7.81641 18.375 8.0625 18.375H8.9375C9.15625 18.375 9.375 18.1836 9.375 17.9375V17.5H18.5625C18.7812 17.5 19 17.3086 19 17.0625V16.1875C19 15.9688 18.7812 15.75 18.5625 15.75ZM18.5625 11.375H16.375V10.9375C16.375 10.7188 16.1562 10.5 15.9375 10.5H15.0625C14.8164 10.5 14.625 10.7188 14.625 10.9375V11.375H5.4375C5.19141 11.375 5 11.5938 5 11.8125V12.6875C5 12.9336 5.19141 13.125 5.4375 13.125H14.625V13.5625C14.625 13.8086 14.8164 14 15.0625 14H15.9375C16.1562 14 16.375 13.8086 16.375 13.5625V13.125H18.5625C18.7812 13.125 19 12.9336 19 12.6875V11.8125C19 11.5938 18.7812 11.375 18.5625 11.375ZM18.5625 7H12.875V6.5625C12.875 6.34375 12.6562 6.125 12.4375 6.125H11.5625C11.3164 6.125 11.125 6.34375 11.125 6.5625V7H5.4375C5.19141 7 5 7.21875 5 7.4375V8.3125C5 8.55859 5.19141 8.75 5.4375 8.75H11.125V9.1875C11.125 9.43359 11.3164 9.625 11.5625 9.625H12.4375C12.6562 9.625 12.875 9.43359 12.875 9.1875V8.75H18.5625C18.7812 8.75 19 8.55859 19 8.3125V7.4375C19 7.21875 18.7812 7 18.5625 7Z" fill="#04004D"/>
</svg>
