<svg width="16" height="16" viewBox="0 0 16 16" fill="none" xmlns="http://www.w3.org/2000/svg">
<path d="M8 0C3.58879 0 0 3.58879 0 8C0 12.4112 3.58879 16 8 16C12.4112 16 16 12.4112 16 8C16 3.58879 12.4112 0 8 0ZM11.2408 11.7871C10.3084 12.5864 9.15448 12.9875 7.99964 12.9875C6.88581 12.9875 5.77109 12.6144 4.85332 11.8658C4.46662 11.5504 4.4088 10.9813 4.72418 10.5946C5.0395 10.2079 5.60876 10.1502 5.99533 10.4655C7.18619 11.4368 8.89759 11.4157 10.0647 10.4152C10.4433 10.0904 11.0138 10.1342 11.3386 10.5131C11.6634 10.892 11.6196 11.4623 11.2408 11.7871Z" fill="white"/>
</svg>
