<svg width="32" height="32" viewBox="0 0 32 32" fill="none" xmlns="http://www.w3.org/2000/svg">
<rect width="32" height="32" rx="6" fill="#0084F4"/>
<path d="M22.625 10.7734C22.625 9.65234 19.8633 8.75 16.5 8.75C13.1094 8.75 10.375 9.65234 10.375 10.7734V12.0039C10.375 13.125 13.1094 14 16.5 14C19.8633 14 22.625 13.125 22.625 12.0039V10.7734ZM22.625 13.5625C21.2852 14.4922 18.8789 14.9023 16.5 14.9023C14.0938 14.9023 11.6875 14.4922 10.375 13.5625V16.3789C10.375 17.5 13.1094 18.375 16.5 18.375C19.8633 18.375 22.625 17.5 22.625 16.3789V13.5625ZM22.625 17.9375C21.2852 18.8672 18.8789 19.2773 16.5 19.2773C14.0938 19.2773 11.6875 18.8672 10.375 17.9375V20.7539C10.375 21.875 13.1094 22.75 16.5 22.75C19.8633 22.75 22.625 21.875 22.625 20.7539V17.9375Z" fill="white"/>
</svg>
