<svg width="13" height="13" viewBox="0 0 13 13" fill="none" xmlns="http://www.w3.org/2000/svg">
<path d="M12.1653 7.48353C11.8749 7.77387 11.4394 7.74484 11.1491 7.48353L7.8392 3.97041L7.8392 12.3032C7.8392 12.7097 7.51982 13 7.14238 13L6.21329 13C5.80681 13 5.51647 12.7097 5.51647 12.3032L5.51647 3.97041L2.17755 7.48353C1.88721 7.74484 1.4517 7.74484 1.16136 7.48353L0.522612 6.84478C0.261306 6.55444 0.261306 6.11893 0.522612 5.85762L6.18425 0.195979C6.44556 -0.0653264 6.88107 -0.0653264 7.17141 0.195979L12.804 5.85762C13.0653 6.11893 13.0653 6.55444 12.804 6.84478L12.1653 7.48353Z" fill="#FC9D00"/>
</svg>
