<svg width="24" height="24" viewBox="0 0 24 24" fill="none" xmlns="http://www.w3.org/2000/svg">
<g clip-path="url(#clip0_10049_19208)">
<path d="M23.0625 14.625C19.5473 14.625 16.6875 11.7652 16.6875 8.25C16.6875 4.7348 19.5473 1.875 23.0625 1.875C23.5803 1.875 24 1.45528 24 0.9375C24 0.419719 23.5803 0 23.0625 0C18.8144 0 15.3063 3.22763 14.8607 7.35938H13.0312V0.9375C13.0312 0.419719 12.6115 0 12.0938 0C11.576 0 11.1562 0.419719 11.1562 0.9375V7.35938H9.13931C8.69372 3.22763 5.18564 0 0.9375 0C0.419719 0 0 0.419719 0 0.9375C0 1.45528 0.419719 1.875 0.9375 1.875C4.45266 1.875 7.3125 4.7348 7.3125 8.25C7.3125 11.7652 4.45266 14.625 0.9375 14.625C0.419719 14.625 0 15.0447 0 15.5625C0 16.0803 0.419719 16.5 0.9375 16.5C5.15348 16.5 8.64042 13.321 9.12853 9.23438H11.1562V17.5747C9.80245 17.9791 8.8125 19.2352 8.8125 20.7188C8.8125 22.528 10.2845 24 12.0938 24C12.6115 24 13.0312 23.5803 13.0312 23.0625C13.0312 22.5447 12.6115 22.125 12.0938 22.125C11.3183 22.125 10.6875 21.4942 10.6875 20.7188C10.6875 19.9433 11.3183 19.3125 12.0938 19.3125C12.8692 19.3125 13.5 19.9433 13.5 20.7188C13.5 21.2365 13.9197 21.6562 14.4375 21.6562C14.9553 21.6562 15.375 21.2365 15.375 20.7188C15.375 19.2352 14.385 17.9791 13.0312 17.5747V9.23438H14.8715C15.3596 13.321 18.8465 16.5 23.0625 16.5C23.5803 16.5 24 16.0803 24 15.5625C24 15.0447 23.5803 14.625 23.0625 14.625Z" fill="#667386"/>
</g>
<defs>
<clipPath id="clip0_10049_19208">
<rect width="24" height="24" fill="white"/>
</clipPath>
</defs>
</svg>
