<svg width="24" height="24" viewBox="0 0 24 24" fill="none" xmlns="http://www.w3.org/2000/svg">
<path d="M12 0C7.08905 0 3.09375 3.9953 3.09375 8.90625C3.09375 13.5166 6.61505 17.3198 11.1094 17.7681V19.7344H9.70312C9.18534 19.7344 8.76562 20.1541 8.76562 20.6719C8.76562 21.1897 9.18534 21.6094 9.70312 21.6094H11.1094V23.0625C11.1094 23.5803 11.5291 24 12.0469 24C12.5647 24 12.9844 23.5803 12.9844 23.0625V21.6094H14.3906C14.9084 21.6094 15.3281 21.1897 15.3281 20.6719C15.3281 20.1541 14.9084 19.7344 14.3906 19.7344H12.9844V17.7569C14.1856 17.6235 15.3515 17.2484 16.4014 16.6505C16.8513 16.3943 17.0084 15.8219 16.7521 15.3719C16.4959 14.922 15.9233 14.765 15.4736 15.0211C14.4209 15.6206 13.2197 15.9375 12 15.9375C8.12297 15.9375 4.96875 12.7833 4.96875 8.90625C4.96875 5.02922 8.12297 1.875 12 1.875C15.877 1.875 19.0312 5.02922 19.0312 8.90625C19.0312 9.96333 18.8028 10.979 18.3523 11.925C18.1297 12.3925 18.3282 12.9519 18.7956 13.1745C19.2631 13.3971 19.8225 13.1987 20.0451 12.7312C20.6165 11.5313 20.9062 10.2444 20.9062 8.90625C20.9062 3.9953 16.911 0 12 0Z" fill="#667386"/>
</svg>
