<svg width="16" height="14" viewBox="0 0 16 14" fill="none" xmlns="http://www.w3.org/2000/svg">
<path d="M1.12622 2.38776C1.26352 1.42469 1.71041 1.06122 2.64458 1.06122H11.0629C11.2014 1.06738 11.3322 1.12598 11.428 1.22483C11.5238 1.32368 11.5772 1.45515 11.5771 1.59184V2.38776H1.12622ZM12.6539 2.41163V1.59184C12.654 1.17376 12.4871 0.772447 12.1894 0.474597C11.8917 0.176747 11.4871 0.00627115 11.0629 0H2.64458C0.302427 0 0.035906 1.88102 0.000908261 2.85735C-0.000302754 2.86704 -0.000302754 2.87684 0.000908261 2.88653C0.000908261 2.88653 0.000908261 2.91837 0.000908261 2.91837V11.4082C0.000908261 11.8303 0.171089 12.2352 0.474013 12.5338C0.776937 12.8323 1.18779 13 1.61619 13H12.3847C12.8131 13 13.224 12.8323 13.5269 12.5338C13.8298 12.2352 14 11.8303 14 11.4082V3.97959C13.9996 3.60369 13.8643 3.24004 13.6179 2.95306C13.3715 2.66608 13.03 2.47428 12.6539 2.41163V2.41163ZM10.904 9.02041C10.6644 9.02041 10.4302 8.95039 10.231 8.8192C10.0318 8.68802 9.8765 8.50156 9.7848 8.28341C9.69311 8.06526 9.66912 7.82521 9.71587 7.59362C9.76261 7.36203 9.87799 7.1493 10.0474 6.98233C10.2168 6.81536 10.4327 6.70166 10.6677 6.65559C10.9027 6.60953 11.1463 6.63317 11.3677 6.72353C11.589 6.81389 11.7782 6.96692 11.9113 7.16325C12.0445 7.35958 12.1155 7.5904 12.1155 7.82653C12.1159 7.98341 12.0848 8.13881 12.024 8.28382C11.9633 8.42883 11.874 8.56058 11.7615 8.67151C11.6489 8.78244 11.5152 8.87037 11.3681 8.93024C11.2209 8.99012 11.0632 9.02076 10.904 9.02041Z" fill="#554CFF"/>
<path fill-rule="evenodd" clip-rule="evenodd" d="M12 6C9.79375 6 8 7.79375 8 10C8 12.2062 9.79375 14 12 14C14.2062 14 16 12.2062 16 10C16 7.79375 14.2062 6 12 6Z" fill="#04B800"/>
<path d="M11.2297 11.8299C10.7187 11.3189 10.2109 10.8033 9.69844 10.2924C9.64219 10.2361 9.64219 10.1424 9.69844 10.0861L10.2875 9.49707C10.3437 9.44082 10.4375 9.44082 10.4938 9.49707L11.3359 10.3393L13.5016 8.17207C13.5594 8.11582 13.6516 8.11582 13.7094 8.17207L14.3 8.7627C14.3578 8.82051 14.3578 8.9127 14.3 8.96895L11.4359 11.8299C11.3797 11.8877 11.2875 11.8877 11.2297 11.8299Z" fill="white"/>
</svg>
